M48
;Layer_Color=9474304
;FILE_FORMAT=2:5
INCH,LZ
;TYPE=PLATED
T1F00S00C0.01575
T2F00S00C0.02760
T3F00S00C0.02800
T4F00S00C0.03000
T5F00S00C0.03200
T6F00S00C0.03500
T7F00S00C0.03540
T8F00S00C0.03600
T9F00S00C0.03940
T10F00S00C0.04000
T11F00S00C0.06500
T12F00S00C0.13000
;TYPE=NON_PLATED
T13F00S00C0.04331
T14F00S00C0.12795
%
T01
X06558Y0203
X06548Y02858
X06563Y03008
X059631Y027147
Y02508
X05898Y02408
X057354Y02558
X055143Y02508
X054659Y024096
X05573Y02248
X05333Y02228
X051604Y023746
X05249Y025615
X050521Y027879
X04865Y029456
X04788Y02468
X0471Y02484
X05218Y01966
X05298Y01908
X053966Y019611
X054693Y01971
X05554Y01664
X060265Y01784
X061545Y018627
X06243Y01618
X05519Y031
X05363Y03003
X04639Y03033
X04596Y02995
X045501Y029552
X046289Y029257
Y028174
X044222Y029749
X04393Y03023
X043335Y030341
X043926Y031127
X04263Y02918
X041565Y029062
X040385Y029061
X04073Y03013
X039596Y030143
X03988Y03055
X039596Y03093
X03823Y03073
X038415Y03034
X03748Y03083
X03593Y03018
X03488Y03118
X03323Y03104
X031525Y031029
X03228Y02988
X032706Y028174
X03228Y02763
X03174Y0271
X03193Y02618
X03163Y02378
X03278Y02358
X03248Y02325
X03343Y02358
X033298Y020793
X03588Y02078
X03598Y02213
X03502Y02217
X03716Y02185
X03828Y02358
X03788Y02408
X03603
X03569Y02483
X03626Y02522
X03659Y02557
X03513Y02583
X0346Y02791
X03974Y02697
Y02639
Y02576
X04024Y02544
X04066Y0252
Y02477
X04029Y02607
X0402Y0267
X04021Y02728
X04083Y02755
X04263Y02407
X043237Y023352
X043533Y024926
X043926Y024614
X0443203Y024926
X04471Y0246
X0455Y02376
X04644Y02464
X03739Y01877
X03865Y01619
X03202Y01611
X03243Y01882
X03098Y02148
X03038Y02108
X02973
X02928Y02148
X02943Y02248
X03038Y0229
X03113Y02248
X0295Y02431
X02703Y023132
X02793Y02178
X02717Y02065
X02606Y02028
X02518Y01908
X02448Y01788
X02953Y01703
X01948Y01673
X01733Y02183
X01788Y02673
X01933Y02848
X019277Y030237
X02008Y02978
X02088
X020993Y030241
X022175
X022568Y031226
X02303Y02938
X02257Y02756
X022856Y026883
X02358Y02613
X02511Y02718
X02593Y025247
X02883Y02763
Y02988
X028375Y031029
X026899
X02995
X017095Y030199
X02083Y03167
X026111Y033785
X02798Y033689
X030344Y033293
X031218Y036294
X028768Y037131
X02878Y04068
X0316Y03809
Y03764
X0321
Y03809
X0326
Y03764
X033249Y038034
X03208Y03618
X03586Y03496
X036446Y034671
Y035261
X036052Y03408
X036051Y033293
X036052Y032604
X03673Y03348
X03753
X03802Y03308
X038415Y032702
Y033489
X03958Y03329
X03987Y0329
X040383Y033293
X041565Y033291
X04118Y03288
X042056Y032702
X042351Y03349
X042745Y031915
X042352Y031422
X040579Y031423
X043637Y032111
X04388Y03293
X044518Y034079
X042843Y040085
X03963Y03888
X036549Y038034
X03753Y03663
X035323Y031422
X04838Y03358
Y03658
X051703Y037524
X052687
X053671
X054656
X05564
X055639Y038509
X054654
X05367
X052686
X051702
Y039494
X052686
X05367
X054654
X055639
X055638Y040478
X054653
X053669
X052685
X051701
X05627Y0352
X06203Y03308
T02
X028529Y017013
X030529
T03
X019085Y037757
X020085
X021085
X022085
X023085
X024085
X025085
X026085
Y040757
X025085
X024085
X023085
X022085
X021085
X020085
X019085
T04
X03688Y02698
X03608Y03588
X03208Y04008
T05
X017922Y019311
X01737Y02027
X017922Y023445
X01737Y02447
X0218Y02362
Y02262
Y02162
Y02062
X0228Y02112
Y02212
Y02312
Y02012
T06
X051493Y01738
X052493
X053493
X054493
X02183Y02753
Y02853
X023815Y032603
X024815
X025815
T07
X05178Y02533
Y02789
T08
X056423Y017343
Y019115
X058982
Y017343
X057607Y029443
Y030843
X03653Y02848
X033Y032891
Y033891
X05893Y03733
Y03898
Y03998
X06258Y04003
X06358
T09
X0470335Y0175625
Y0185625
X0480335
Y0175625
X047663Y021084
X048663
X049663
X050663
Y030084
Y031084
X051663
Y030084
X046663Y021084
X045663
X04468Y02108
X043663Y021084
X042663
X041663
X040663
X039663
X038663
X037663
X036663
X0440335Y0185625
X044033Y017563
X0450335Y0175625
Y0185625
X0460335
Y0175625
X045663Y040084
X046663
X044663
X043663
X042063
X041063
X040063
X039063
X038063
X037063
X036063
X035063
X034063
X033063
X047663
X048663
X049663
X050663
Y032084
X051663
X06123Y03738
T10
X067673Y019754
Y020844
Y021934
Y023024
Y024114
X068793Y023564
Y022474
Y021394
Y020304
Y033591
Y034681
Y035761
Y036851
X067673Y036311
Y037401
Y035221
Y034131
Y033041
T11
X02055Y01872
Y02502
T12
X068233Y017014
Y026854
Y030301
Y040141
T13
X018271Y030479
Y032211
T14
X0193Y019508
Y024232
M30
