G04*
G04 #@! TF.GenerationSoftware,Altium Limited,Altium Designer,20.1.7 (139)*
G04*
G04 Layer_Color=128*
%FSLAX25Y25*%
%MOIN*%
G70*
G04*
G04 #@! TF.SameCoordinates,24E638B0-66B5-4ADB-958A-7C5563F4B5AF*
G04*
G04*
G04 #@! TF.FilePolarity,Positive*
G04*
G01*
G75*
%ADD168C,0.00200*%
D168*
X216550Y285300D02*
X220050D01*
X218300Y283550D02*
Y287050D01*
X216550Y275300D02*
X220050D01*
X218300Y273550D02*
Y277050D01*
X562430Y191150D02*
X566030D01*
X564230Y189350D02*
Y192950D01*
X588020Y191150D02*
X591620D01*
X589820Y189350D02*
Y192950D01*
X562430Y173430D02*
X566030D01*
X564230Y171630D02*
Y175230D01*
X588020Y173430D02*
X591620D01*
X589820Y171630D02*
Y175230D01*
X180545Y304790D02*
X184875D01*
X182710Y302625D02*
Y306955D01*
X180545Y322110D02*
X184875D01*
X182710Y319945D02*
Y324275D01*
X256400Y326030D02*
X259900D01*
X258150Y324280D02*
Y327780D01*
X246400Y326030D02*
X249900D01*
X248150Y324280D02*
Y327780D01*
X236400Y326030D02*
X239900D01*
X238150Y324280D02*
Y327780D01*
X303910Y170130D02*
X306670D01*
X305290Y168750D02*
Y171510D01*
X283910Y170130D02*
X286670D01*
X285290Y168750D02*
Y171510D01*
X328200Y338910D02*
X331800D01*
X330000Y337110D02*
Y340710D01*
X328200Y328910D02*
X331800D01*
X330000Y327110D02*
Y330710D01*
X574270Y308430D02*
X577870D01*
X576070Y306630D02*
Y310230D01*
X574270Y294430D02*
X577870D01*
X576070Y292630D02*
Y296230D01*
X587500Y399800D02*
X591100D01*
X589300Y398000D02*
Y401600D01*
X587500Y389800D02*
X591100D01*
X589300Y388000D02*
Y391600D01*
X634000Y400300D02*
X637600D01*
X635800Y398500D02*
Y402100D01*
X624000Y400300D02*
X627600D01*
X625800Y398500D02*
Y402100D01*
X543180Y173800D02*
X546680D01*
X544930Y172050D02*
Y175550D01*
X533180Y173800D02*
X536680D01*
X534930Y172050D02*
Y175550D01*
X523180Y173800D02*
X526680D01*
X524930Y172050D02*
Y175550D01*
X513180Y173800D02*
X516680D01*
X514930Y172050D02*
Y175550D01*
X189450Y377570D02*
X192250D01*
X190850Y376170D02*
Y378970D01*
X199450Y377570D02*
X202250D01*
X200850Y376170D02*
Y378970D01*
X209450Y377570D02*
X212250D01*
X210850Y376170D02*
Y378970D01*
X219450Y377570D02*
X222250D01*
X220850Y376170D02*
Y378970D01*
X229450Y377570D02*
X232250D01*
X230850Y376170D02*
Y378970D01*
X239450Y377570D02*
X242250D01*
X240850Y376170D02*
Y378970D01*
X249450Y377570D02*
X252250D01*
X250850Y376170D02*
Y378970D01*
X259450Y377570D02*
X262250D01*
X260850Y376170D02*
Y378970D01*
X259450Y407570D02*
X262250D01*
X260850Y406170D02*
Y408970D01*
X249450Y407570D02*
X252250D01*
X250850Y406170D02*
Y408970D01*
X239450Y407570D02*
X242250D01*
X240850Y406170D02*
Y408970D01*
X229450Y407570D02*
X232250D01*
X230850Y406170D02*
Y408970D01*
X219450Y407570D02*
X222250D01*
X220850Y406170D02*
Y408970D01*
X209450Y407570D02*
X212250D01*
X210850Y406170D02*
Y408970D01*
X199450Y407570D02*
X202250D01*
X200850Y406170D02*
Y408970D01*
X189450Y407570D02*
X192250D01*
X190850Y406170D02*
Y408970D01*
X516030Y253300D02*
X519570D01*
X517800Y251530D02*
Y255070D01*
X516030Y278900D02*
X519570D01*
X517800Y277130D02*
Y280670D01*
X438360Y175630D02*
X442300D01*
X440330Y173660D02*
Y177600D01*
X438365Y185625D02*
X442305D01*
X440335Y183655D02*
Y187595D01*
X448365Y175625D02*
X452305D01*
X450335Y173655D02*
Y177595D01*
X448365Y185625D02*
X452305D01*
X450335Y183655D02*
Y187595D01*
X458365Y175625D02*
X462305D01*
X460335Y173655D02*
Y177595D01*
X458365Y185625D02*
X462305D01*
X460335Y183655D02*
Y187595D01*
X468365Y175625D02*
X472305D01*
X470335Y173655D02*
Y177595D01*
X468365Y185625D02*
X472305D01*
X470335Y183655D02*
Y187595D01*
X478365Y175625D02*
X482305D01*
X480335Y173655D02*
Y177595D01*
X478365Y185625D02*
X482305D01*
X480335Y183655D02*
Y187595D01*
X186602Y242320D02*
X199398D01*
X193000Y235922D02*
Y248718D01*
X186602Y195080D02*
X199398D01*
X193000Y188682D02*
Y201478D01*
X216400Y236200D02*
X219600D01*
X218000Y234600D02*
Y237800D01*
X226400Y231200D02*
X229600D01*
X228000Y229600D02*
Y232800D01*
X216400Y226200D02*
X219600D01*
X218000Y224600D02*
Y227800D01*
X226400Y221200D02*
X229600D01*
X228000Y219600D02*
Y222800D01*
X216400Y216200D02*
X219600D01*
X218000Y214600D02*
Y217800D01*
X226400Y211200D02*
X229600D01*
X228000Y209600D02*
Y212800D01*
X216400Y206200D02*
X219600D01*
X218000Y204600D02*
Y207800D01*
X226400Y201200D02*
X229600D01*
X228000Y199600D02*
Y202800D01*
X172100Y244700D02*
X175300D01*
X173700Y243100D02*
Y246300D01*
X177620Y234450D02*
X180820D01*
X179220Y232850D02*
Y236050D01*
X172100Y202700D02*
X175300D01*
X173700Y201100D02*
Y204300D01*
X177620Y193110D02*
X180820D01*
X179220Y191510D02*
Y194710D01*
X202250Y250200D02*
X208750D01*
X205500Y246950D02*
Y253450D01*
X202250Y187200D02*
X208750D01*
X205500Y183950D02*
Y190450D01*
X674730Y374010D02*
X678730D01*
X676730Y372010D02*
Y376010D01*
X674730Y363110D02*
X678730D01*
X676730Y361110D02*
Y365110D01*
X674730Y352210D02*
X678730D01*
X676730Y350210D02*
Y354210D01*
X674730Y341310D02*
X678730D01*
X676730Y339310D02*
Y343310D01*
X674730Y330410D02*
X678730D01*
X676730Y328410D02*
Y332410D01*
X685930Y368510D02*
X689930D01*
X687930Y366510D02*
Y370510D01*
X685930Y357610D02*
X689930D01*
X687930Y355610D02*
Y359610D01*
X685930Y346810D02*
X689930D01*
X687930Y344810D02*
Y348810D01*
X685930Y335910D02*
X689930D01*
X687930Y333910D02*
Y337910D01*
X675830Y401410D02*
X688830D01*
X682330Y394910D02*
Y407910D01*
X675830Y303010D02*
X688830D01*
X682330Y296510D02*
Y309510D01*
X674730Y241140D02*
X678730D01*
X676730Y239140D02*
Y243140D01*
X674730Y230240D02*
X678730D01*
X676730Y228240D02*
Y232240D01*
X674730Y219340D02*
X678730D01*
X676730Y217340D02*
Y221340D01*
X674730Y208440D02*
X678730D01*
X676730Y206440D02*
Y210440D01*
X674730Y197540D02*
X678730D01*
X676730Y195540D02*
Y199540D01*
X685930Y235640D02*
X689930D01*
X687930Y233640D02*
Y237640D01*
X685930Y224740D02*
X689930D01*
X687930Y222740D02*
Y226740D01*
X685930Y213940D02*
X689930D01*
X687930Y211940D02*
Y215940D01*
X685930Y203040D02*
X689930D01*
X687930Y201040D02*
Y205040D01*
X675830Y268540D02*
X688830D01*
X682330Y262040D02*
Y275040D01*
X675830Y170140D02*
X688830D01*
X682330Y163640D02*
Y176640D01*
X464660Y400840D02*
X468600D01*
X466630Y398870D02*
Y402810D01*
X454660Y210840D02*
X458600D01*
X456630Y208870D02*
Y212810D01*
X474660Y400840D02*
X478600D01*
X476630Y398870D02*
Y402810D01*
X484660Y400840D02*
X488600D01*
X486630Y398870D02*
Y402810D01*
X494660Y400840D02*
X498600D01*
X496630Y398870D02*
Y402810D01*
X504660Y400840D02*
X508600D01*
X506630Y398870D02*
Y402810D01*
X454660Y400840D02*
X458600D01*
X456630Y398870D02*
Y402810D01*
X444660Y400840D02*
X448600D01*
X446630Y398870D02*
Y402810D01*
X434660Y400840D02*
X438600D01*
X436630Y398870D02*
Y402810D01*
X418660Y400840D02*
X422600D01*
X420630Y398870D02*
Y402810D01*
X408660Y400840D02*
X412600D01*
X410630Y398870D02*
Y402810D01*
X398660Y400840D02*
X402600D01*
X400630Y398870D02*
Y402810D01*
X388660Y400840D02*
X392600D01*
X390630Y398870D02*
Y402810D01*
X378660Y400840D02*
X382600D01*
X380630Y398870D02*
Y402810D01*
X368660Y400840D02*
X372600D01*
X370630Y398870D02*
Y402810D01*
X358660Y400840D02*
X362600D01*
X360630Y398870D02*
Y402810D01*
X348660Y400840D02*
X352600D01*
X350630Y398870D02*
Y402810D01*
X464660Y210840D02*
X468600D01*
X466630Y208870D02*
Y212810D01*
X474660Y210840D02*
X478600D01*
X476630Y208870D02*
Y212810D01*
X484660Y210840D02*
X488600D01*
X486630Y208870D02*
Y212810D01*
X494660Y210840D02*
X498600D01*
X496630Y208870D02*
Y212810D01*
X504660Y210840D02*
X508600D01*
X506630Y208870D02*
Y212810D01*
X434660Y210840D02*
X438600D01*
X436630Y208870D02*
Y212810D01*
X424660Y210840D02*
X428600D01*
X426630Y208870D02*
Y212810D01*
X414660Y210840D02*
X418600D01*
X416630Y208870D02*
Y212810D01*
X404660Y210840D02*
X408600D01*
X406630Y208870D02*
Y212810D01*
X394660Y210840D02*
X398600D01*
X396630Y208870D02*
Y212810D01*
X384660Y210840D02*
X388600D01*
X386630Y208870D02*
Y212810D01*
X338660Y400840D02*
X342600D01*
X340630Y398870D02*
Y402810D01*
X328660Y400840D02*
X332600D01*
X330630Y398870D02*
Y402810D01*
X374660Y210840D02*
X378600D01*
X376630Y208870D02*
Y212810D01*
X364660Y210840D02*
X368600D01*
X366630Y208870D02*
Y212810D01*
X514660Y310840D02*
X518600D01*
X516630Y308870D02*
Y312810D01*
X504660Y310840D02*
X508600D01*
X506630Y308870D02*
Y312810D01*
X504660Y320840D02*
X508600D01*
X506630Y318870D02*
Y322810D01*
X514660Y320840D02*
X518600D01*
X516630Y318870D02*
Y322810D01*
X514660Y300840D02*
X518600D01*
X516630Y298870D02*
Y302810D01*
X504660Y300840D02*
X508600D01*
X506630Y298870D02*
Y302810D01*
X359300Y358800D02*
X362300D01*
X360800Y357300D02*
Y360300D01*
X367300Y269800D02*
X370300D01*
X368800Y268300D02*
Y271300D01*
X363500Y284800D02*
X367100D01*
X365300Y283000D02*
Y286600D01*
X319300Y400800D02*
X322300D01*
X320800Y399300D02*
Y402300D01*
X444830Y210800D02*
X448770D01*
X446800Y208830D02*
Y212770D01*
X610330Y373800D02*
X614270D01*
X612300Y371830D02*
Y375770D01*
X587500Y373300D02*
X591100D01*
X589300Y371500D02*
Y375100D01*
X294213Y243100D02*
X295787D01*
X295000Y242313D02*
Y243887D01*
X516243Y375240D02*
X517817D01*
X517030Y374453D02*
Y376027D01*
X526083Y375240D02*
X527657D01*
X526870Y374453D02*
Y376027D01*
X535923Y375240D02*
X537497D01*
X536710Y374453D02*
Y376027D01*
X545773Y375240D02*
X547347D01*
X546560Y374453D02*
Y376027D01*
X555613Y375240D02*
X557187D01*
X556400Y374453D02*
Y376027D01*
X516233Y385090D02*
X517807D01*
X517020Y384303D02*
Y385877D01*
X526073Y385090D02*
X527647D01*
X526860Y384303D02*
Y385877D01*
X535913Y385090D02*
X537487D01*
X536700Y384303D02*
Y385877D01*
X545753Y385090D02*
X547327D01*
X546540Y384303D02*
Y385877D01*
X555603Y385090D02*
X557177D01*
X556390Y384303D02*
Y385877D01*
X516233Y394940D02*
X517807D01*
X517020Y394153D02*
Y395727D01*
X526073Y394940D02*
X527647D01*
X526860Y394153D02*
Y395727D01*
X535913Y394940D02*
X537487D01*
X536700Y394153D02*
Y395727D01*
X545753Y394940D02*
X547327D01*
X546540Y394153D02*
Y395727D01*
X555603Y394940D02*
X557177D01*
X556390Y394153D02*
Y395727D01*
X516223Y404780D02*
X517797D01*
X517010Y403993D02*
Y405567D01*
X526063Y404780D02*
X527637D01*
X526850Y403993D02*
Y405567D01*
X535903Y404780D02*
X537477D01*
X536690Y403993D02*
Y405567D01*
X545743Y404780D02*
X547317D01*
X546530Y403993D02*
Y405567D01*
X555593Y404780D02*
X557167D01*
X556380Y403993D02*
Y405567D01*
X395173Y309300D02*
X396747D01*
X395960Y308513D02*
Y310087D01*
X398013Y305500D02*
X399587D01*
X398800Y304713D02*
Y306287D01*
X395173Y301430D02*
X396747D01*
X395960Y300643D02*
Y302217D01*
X381513Y307300D02*
X383087D01*
X382300Y306513D02*
Y308087D01*
X383363Y303400D02*
X384937D01*
X384150Y302613D02*
Y304187D01*
X403063Y290610D02*
X404637D01*
X403850Y289823D02*
Y291397D01*
X419773Y327020D02*
X421347D01*
X420560Y326233D02*
Y327807D01*
X383363Y327020D02*
X384937D01*
X384150Y326233D02*
Y327807D01*
X379413Y330800D02*
X380987D01*
X380200Y330013D02*
Y331587D01*
X383363Y334890D02*
X384937D01*
X384150Y334103D02*
Y335677D01*
X395013Y332900D02*
X396587D01*
X395800Y332113D02*
Y333687D01*
X397913Y329000D02*
X399487D01*
X398700Y328213D02*
Y329787D01*
X414863Y290620D02*
X416437D01*
X415650Y289833D02*
Y291407D01*
X407513Y275500D02*
X409087D01*
X408300Y274713D02*
Y276287D01*
X314463Y310290D02*
X316037D01*
X315250Y309503D02*
Y311077D01*
X331513Y310400D02*
X333087D01*
X332300Y309613D02*
Y311187D01*
X426663Y319150D02*
X428237D01*
X427450Y318363D02*
Y319937D01*
X550643Y250800D02*
X552217D01*
X551430Y250013D02*
Y251587D01*
X524113Y256150D02*
X525687D01*
X524900Y255363D02*
Y256937D01*
X545803Y240960D02*
X547377D01*
X546590Y240173D02*
Y241747D01*
X282963Y310290D02*
X284537D01*
X283750Y309503D02*
Y311077D01*
X444393Y340790D02*
X445967D01*
X445180Y340003D02*
Y341577D01*
X298713Y310290D02*
X300287D01*
X299500Y309503D02*
Y311077D01*
X438013Y329300D02*
X439587D01*
X438800Y328513D02*
Y330087D01*
X359733Y340800D02*
X361307D01*
X360520Y340013D02*
Y341587D01*
X363673Y346710D02*
X365247D01*
X364460Y345923D02*
Y347497D01*
X357813Y349600D02*
X359387D01*
X358600Y348813D02*
Y350387D01*
X363673Y352610D02*
X365247D01*
X364460Y351823D02*
Y353397D01*
X403043Y332930D02*
X404617D01*
X403830Y332143D02*
Y333717D01*
X414863Y332910D02*
X416437D01*
X415650Y332123D02*
Y333697D01*
X438473Y311270D02*
X440047D01*
X439260Y310483D02*
Y312057D01*
X438513Y302300D02*
X440087D01*
X439300Y301513D02*
Y303087D01*
X655013Y203000D02*
X656587D01*
X655800Y202213D02*
Y203787D01*
X441433Y297490D02*
X443007D01*
X442220Y296703D02*
Y298277D01*
X458813Y299500D02*
X460387D01*
X459600Y298713D02*
Y300287D01*
X454223Y295520D02*
X455797D01*
X455010Y294733D02*
Y296307D01*
X538873Y196110D02*
X540447D01*
X539660Y195323D02*
Y196897D01*
X521013Y196600D02*
X522587D01*
X521800Y195813D02*
Y197387D01*
X504423Y278790D02*
X505997D01*
X505210Y278003D02*
Y279577D01*
X551113Y310000D02*
X552687D01*
X551900Y309213D02*
Y310787D01*
X561913Y352000D02*
X563487D01*
X562700Y351213D02*
Y352787D01*
X359733Y326040D02*
X361307D01*
X360520Y325253D02*
Y326827D01*
X268203Y310290D02*
X269777D01*
X268990Y309503D02*
Y311077D01*
X311393Y362940D02*
X312967D01*
X312180Y362153D02*
Y363727D01*
X350513Y258300D02*
X352087D01*
X351300Y257513D02*
Y259087D01*
X359513Y240800D02*
X361087D01*
X360300Y240013D02*
Y241587D01*
X401313Y272800D02*
X402887D01*
X402100Y272013D02*
Y273587D01*
X396613Y269700D02*
X398187D01*
X397400Y268913D02*
Y270487D01*
X365113Y255700D02*
X366687D01*
X365900Y254913D02*
Y256487D01*
X396613Y263900D02*
X398187D01*
X397400Y263113D02*
Y264687D01*
X303013Y210800D02*
X304587D01*
X303800Y210013D02*
Y211587D01*
X296513Y210800D02*
X298087D01*
X297300Y210013D02*
Y211587D01*
X303013Y229000D02*
X304587D01*
X303800Y228213D02*
Y229787D01*
X324013Y232500D02*
X325587D01*
X324800Y231713D02*
Y233287D01*
X361813Y252200D02*
X363387D01*
X362600Y251413D02*
Y252987D01*
X402113Y260700D02*
X403687D01*
X402900Y259913D02*
Y261487D01*
X356113Y248300D02*
X357687D01*
X356900Y247513D02*
Y249087D01*
X396613Y257600D02*
X398187D01*
X397400Y256813D02*
Y258387D01*
X401613Y254400D02*
X403187D01*
X402400Y253613D02*
Y255187D01*
X554613Y166400D02*
X556187D01*
X555400Y165613D02*
Y167187D01*
X405813Y252000D02*
X407387D01*
X406600Y251213D02*
Y252787D01*
X442416Y249260D02*
X443990D01*
X443203Y248473D02*
Y250047D01*
X434543Y249260D02*
X436117D01*
X435330Y248473D02*
Y250047D01*
X463613Y246400D02*
X465187D01*
X464400Y245613D02*
Y247187D01*
X470213Y248400D02*
X471787D01*
X471000Y247613D02*
Y249187D01*
X462103Y281740D02*
X463677D01*
X462890Y280953D02*
Y282527D01*
X462103Y292570D02*
X463677D01*
X462890Y291783D02*
Y293357D01*
X454213Y237600D02*
X455787D01*
X455000Y236813D02*
Y238387D01*
X425513Y240700D02*
X427087D01*
X426300Y239913D02*
Y241487D01*
X431583Y233520D02*
X433157D01*
X432370Y232733D02*
Y234307D01*
X382013Y235800D02*
X383587D01*
X382800Y235013D02*
Y236587D01*
X405813Y247700D02*
X407387D01*
X406600Y246913D02*
Y248487D01*
X370813Y218500D02*
X372387D01*
X371600Y217713D02*
Y219287D01*
X323513Y188200D02*
X325087D01*
X324300Y187413D02*
Y188987D01*
X316613Y271000D02*
X318187D01*
X317400Y270213D02*
Y271787D01*
X332193Y207930D02*
X333767D01*
X332980Y207143D02*
Y208717D01*
X348013Y311800D02*
X349587D01*
X348800Y311013D02*
Y312587D01*
X302653Y332930D02*
X304227D01*
X303440Y332143D02*
Y333717D01*
X595523Y250800D02*
X597097D01*
X596310Y250013D02*
Y251587D01*
X595523Y271470D02*
X597097D01*
X596310Y270683D02*
Y272257D01*
X515253Y237460D02*
X516827D01*
X516040Y236673D02*
Y238247D01*
X546143Y197100D02*
X547717D01*
X546930Y196313D02*
Y197887D01*
X572753Y255800D02*
X574327D01*
X573540Y255013D02*
Y256587D01*
X352443Y314220D02*
X354017D01*
X353230Y313433D02*
Y315007D01*
X405003Y314230D02*
X406577D01*
X405790Y313443D02*
Y315017D01*
X326273Y281740D02*
X327847D01*
X327060Y280953D02*
Y282527D01*
X345213Y279100D02*
X346787D01*
X346000Y278313D02*
Y279887D01*
X601863Y178400D02*
X603437D01*
X602650Y177613D02*
Y179187D01*
X422733Y314220D02*
X424307D01*
X423520Y313433D02*
Y315007D01*
X623513Y161800D02*
X625087D01*
X624300Y161013D02*
Y162587D01*
X614663Y186270D02*
X616237D01*
X615450Y185483D02*
Y187057D01*
X319413Y161100D02*
X320987D01*
X320200Y160313D02*
Y161887D01*
X209143Y302410D02*
X210717D01*
X209930Y301623D02*
Y303197D01*
X224913Y275600D02*
X226487D01*
X225700Y274813D02*
Y276387D01*
X224893Y312260D02*
X226467D01*
X225680Y311473D02*
Y313047D01*
X220963Y302410D02*
X222537D01*
X221750Y301623D02*
Y303197D01*
X260323Y337850D02*
X261897D01*
X261110Y337063D02*
Y338637D01*
X250313Y271800D02*
X251887D01*
X251100Y271013D02*
Y272587D01*
X358013Y207800D02*
X359587D01*
X358800Y207013D02*
Y208587D01*
X532513Y222800D02*
X534087D01*
X533300Y222013D02*
Y223587D01*
X556513Y224800D02*
X558087D01*
X557300Y224013D02*
Y225587D01*
X485713Y294560D02*
X487287D01*
X486500Y293773D02*
Y295347D01*
X279013Y336890D02*
X280587D01*
X279800Y336103D02*
Y337677D01*
X358513Y301800D02*
X360087D01*
X359300Y301013D02*
Y302587D01*
X425513Y291800D02*
X427087D01*
X426300Y291013D02*
Y292587D01*
X286893Y371310D02*
X288467D01*
X287680Y370523D02*
Y372097D01*
X320013Y361800D02*
X321587D01*
X320800Y361013D02*
Y362587D01*
X427643Y400850D02*
X429217D01*
X428430Y400063D02*
Y401637D01*
X422723Y334900D02*
X424297D01*
X423510Y334113D02*
Y335687D01*
X483013Y335800D02*
X484587D01*
X483800Y335013D02*
Y336587D01*
X432563Y303410D02*
X434137D01*
X433350Y302623D02*
Y304197D01*
X435583Y321110D02*
X437157D01*
X436370Y320323D02*
Y321897D01*
X374513Y334800D02*
X376087D01*
X375300Y334013D02*
Y335587D01*
X359723Y332930D02*
X361297D01*
X360510Y332143D02*
Y333717D01*
X366513Y334800D02*
X368087D01*
X367300Y334013D02*
Y335587D01*
X191983Y302370D02*
X193557D01*
X192770Y301583D02*
Y303157D01*
X227773Y268830D02*
X229347D01*
X228560Y268043D02*
Y269617D01*
X235013Y261300D02*
X236587D01*
X235800Y260513D02*
Y262087D01*
X170163Y301990D02*
X171737D01*
X170950Y301203D02*
Y302777D01*
X654013Y285800D02*
X655587D01*
X654800Y285013D02*
Y286587D01*
X331703Y380340D02*
X333277D01*
X332490Y379553D02*
Y381127D01*
X364703Y380340D02*
X366277D01*
X365490Y379553D02*
Y381127D01*
X208013Y297800D02*
X209587D01*
X208800Y297013D02*
Y298587D01*
X200013Y297800D02*
X201587D01*
X200800Y297013D02*
Y298587D01*
X385713Y161900D02*
X387287D01*
X386500Y161113D02*
Y162687D01*
X259813Y202800D02*
X261387D01*
X260600Y202013D02*
Y203587D01*
X270913Y206500D02*
X272487D01*
X271700Y205713D02*
Y207287D01*
X244013Y178800D02*
X245587D01*
X244800Y178013D02*
Y179587D01*
X251013Y190800D02*
X252587D01*
X251800Y190013D02*
Y191587D01*
X310513Y224800D02*
X312087D01*
X311300Y224013D02*
Y225587D01*
X278513Y217800D02*
X280087D01*
X279300Y217013D02*
Y218587D01*
X269513Y231320D02*
X271087D01*
X270300Y230533D02*
Y232107D01*
X194013Y167300D02*
X195587D01*
X194800Y166513D02*
Y168087D01*
X258513Y252470D02*
X260087D01*
X259300Y251683D02*
Y253257D01*
X207513Y316700D02*
X209087D01*
X208300Y315913D02*
Y317487D01*
X293513Y224800D02*
X295087D01*
X294300Y224013D02*
Y225587D01*
X401213Y267000D02*
X402787D01*
X402000Y266213D02*
Y267787D01*
X349413Y221700D02*
X350987D01*
X350200Y220913D02*
Y222487D01*
X318513Y261800D02*
X320087D01*
X319300Y261013D02*
Y262587D01*
X327013Y235800D02*
X328587D01*
X327800Y235013D02*
Y236587D01*
X373113Y187700D02*
X374687D01*
X373900Y186913D02*
Y188487D01*
X309013Y214800D02*
X310587D01*
X309800Y214013D02*
Y215587D01*
X292013Y214800D02*
X293587D01*
X292800Y214013D02*
Y215587D01*
X172513Y218300D02*
X174087D01*
X173300Y217513D02*
Y219087D01*
X294513Y170300D02*
X296087D01*
X295300Y169513D02*
Y171087D01*
X478013Y246800D02*
X479587D01*
X478800Y246013D02*
Y247587D01*
X589013Y240800D02*
X590587D01*
X589800Y240013D02*
Y241587D01*
X619513Y330800D02*
X621087D01*
X620300Y330013D02*
Y331587D01*
X655513Y300800D02*
X657087D01*
X656300Y300013D02*
Y301587D01*
X529013Y190800D02*
X530587D01*
X529800Y190013D02*
Y191587D01*
X287513Y276300D02*
X289087D01*
X288300Y275513D02*
Y277087D01*
X315513Y237800D02*
X317087D01*
X316300Y237013D02*
Y238587D01*
X333513Y235800D02*
X335087D01*
X334300Y235013D02*
Y236587D01*
X374513Y366300D02*
X376087D01*
X375300Y365513D02*
Y367087D01*
X287013Y406800D02*
X288587D01*
X287800Y406013D02*
Y407587D01*
X315213Y376400D02*
X316787D01*
X316000Y375613D02*
Y377187D01*
X320213Y376400D02*
X321787D01*
X321000Y375613D02*
Y377187D01*
X325213Y376400D02*
X326787D01*
X326000Y375613D02*
Y377187D01*
X315213Y380900D02*
X316787D01*
X316000Y380113D02*
Y381687D01*
X320213Y380900D02*
X321787D01*
X321000Y380113D02*
Y381687D01*
X325213Y380900D02*
X326787D01*
X326000Y380113D02*
Y381687D01*
X406513Y301300D02*
X408087D01*
X407300Y300513D02*
Y302087D01*
X411013Y328800D02*
X412587D01*
X411800Y328013D02*
Y329587D01*
X535513Y300300D02*
X537087D01*
X536300Y299513D02*
Y301087D01*
X463113Y303300D02*
X464687D01*
X463900Y302513D02*
Y304087D01*
X483013Y365800D02*
X484587D01*
X483800Y365013D02*
Y366587D01*
X395513Y388800D02*
X397087D01*
X396300Y388013D02*
Y389587D01*
X359013Y221300D02*
X360587D01*
X359800Y220513D02*
Y222087D01*
X378013Y240800D02*
X379587D01*
X378800Y240013D02*
Y241587D01*
X178013Y267300D02*
X179587D01*
X178800Y266513D02*
Y268087D01*
X192513Y284800D02*
X194087D01*
X193300Y284013D02*
Y285587D01*
X229513Y293800D02*
X231087D01*
X230300Y293013D02*
Y294587D01*
X287513Y298800D02*
X289087D01*
X288300Y298013D02*
Y299587D01*
X322013Y276300D02*
X323587D01*
X322800Y275513D02*
Y277087D01*
X322013Y298800D02*
X323587D01*
X322800Y298013D02*
Y299587D01*
X374013Y308300D02*
X375587D01*
X374800Y307513D02*
Y309087D01*
X446313Y246000D02*
X447887D01*
X447100Y245213D02*
Y246787D01*
X438473Y246140D02*
X440047D01*
X439260Y245353D02*
Y246927D01*
M02*
