G04*
G04 #@! TF.GenerationSoftware,Altium Limited,Altium Designer,20.1.7 (139)*
G04*
G04 Layer_Color=8421504*
%FSLAX25Y25*%
%MOIN*%
G70*
G04*
G04 #@! TF.SameCoordinates,24E638B0-66B5-4ADB-958A-7C5563F4B5AF*
G04*
G04*
G04 #@! TF.FilePolarity,Positive*
G04*
G01*
G75*
%ADD27C,0.05000*%
%ADD28R,0.06299X0.05118*%
%ADD29C,0.06200*%
%ADD30R,0.05000X0.03000*%
%ADD31R,0.06693X0.09449*%
%ADD32R,0.03937X0.06000*%
%ADD33R,0.04330X0.04720*%
%ADD34R,0.04720X0.04330*%
%ADD35R,0.04200X0.03858*%
%ADD36O,0.01102X0.07087*%
%ADD37O,0.07087X0.01102*%
%ADD38R,0.04720X0.04800*%
%ADD39R,0.04800X0.03580*%
%ADD40R,0.03661X0.03858*%
%ADD41R,0.03858X0.03661*%
%ADD42R,0.03858X0.04200*%
%ADD43O,0.07087X0.03200*%
%ADD44O,0.08661X0.03200*%
%ADD45R,0.03858X0.04800*%
%ADD46R,0.05790X0.05000*%
%ADD47R,0.05510X0.05120*%
%ADD48R,0.05510X0.05600*%
%ADD49R,0.05500X0.04000*%
%ADD50R,0.05600X0.05510*%
%ADD51R,0.04000X0.05500*%
%ADD52R,0.03150X0.02010*%
%ADD53R,0.10236X0.01968*%
%ADD54R,0.09843X0.07874*%
%ADD55R,0.09843X0.07874*%
%ADD56R,0.04100X0.04100*%
%ADD57R,0.05120X0.06300*%
%ADD58R,0.06300X0.05120*%
%ADD59R,0.04150X0.13050*%
%ADD60R,0.41350X0.33150*%
%ADD61R,0.04300X0.08500*%
%ADD62R,0.13800X0.08500*%
%ADD63C,0.05906*%
%ADD64R,0.04800X0.04720*%
%ADD65R,0.04000X0.04500*%
%ADD66C,0.00100*%
%ADD67R,0.05910X0.01000*%
%ADD68R,0.01000X0.05910*%
%ADD69R,0.04331X0.04331*%
G36*
X369060Y229350D02*
Y227680D01*
X367440Y226100D01*
X365660D01*
X364140Y227680D01*
Y229350D01*
X369060D01*
D02*
G37*
G36*
X364140Y230730D02*
Y232400D01*
X365710Y233980D01*
X367490D01*
X369060Y232400D01*
Y230730D01*
X364140D01*
D02*
G37*
D27*
X480800Y323800D02*
D03*
X458800Y320800D02*
D03*
X469800Y322300D02*
D03*
X296800Y338800D02*
D03*
X308300Y326800D02*
D03*
X328300Y200800D02*
D03*
X589300Y355800D02*
D03*
X377800Y198800D02*
D03*
X525000Y321300D02*
D03*
X398300Y377800D02*
D03*
X418300D02*
D03*
X380300Y299300D02*
D03*
X327300Y243800D02*
D03*
X321300Y239800D02*
D03*
X342800Y290800D02*
D03*
D28*
X569300Y391800D02*
D03*
Y398300D02*
D03*
Y401100D02*
D03*
Y388500D02*
D03*
D29*
X408300Y377800D02*
D03*
D30*
X374800Y312300D02*
D03*
Y308300D02*
D03*
D31*
X462200Y258600D02*
D03*
X477636Y258596D02*
D03*
D32*
X374600Y272000D02*
D03*
X387575Y271810D02*
D03*
D33*
X244805Y178800D02*
D03*
X251495D02*
D03*
X251800Y190800D02*
D03*
X245110D02*
D03*
X253812Y202877D02*
D03*
X260502D02*
D03*
X366435Y323080D02*
D03*
X373125D02*
D03*
X475685Y307340D02*
D03*
X468995D02*
D03*
X475685Y334890D02*
D03*
X468995D02*
D03*
X588860Y265990D02*
D03*
X582170D02*
D03*
X260815Y169780D02*
D03*
X267505D02*
D03*
X329795Y169830D02*
D03*
X323105D02*
D03*
X344785Y221710D02*
D03*
X338095D02*
D03*
X343795Y195060D02*
D03*
X337105D02*
D03*
X612805Y311800D02*
D03*
X619495D02*
D03*
X439095Y239300D02*
D03*
X445785D02*
D03*
D34*
X230800Y171795D02*
D03*
Y178485D02*
D03*
X271713Y199812D02*
D03*
Y206502D02*
D03*
X251710Y214315D02*
D03*
Y221005D02*
D03*
X426470Y256145D02*
D03*
Y262835D02*
D03*
X451050Y256155D02*
D03*
Y262845D02*
D03*
X417800Y361795D02*
D03*
Y368485D02*
D03*
X639850Y171530D02*
D03*
Y178220D02*
D03*
X365800Y304305D02*
D03*
Y310995D02*
D03*
X612300Y361805D02*
D03*
Y355115D02*
D03*
X612510Y297480D02*
D03*
Y290790D02*
D03*
X252800Y239295D02*
D03*
Y232605D02*
D03*
X354800Y194805D02*
D03*
Y188115D02*
D03*
X375300Y162795D02*
D03*
Y169485D02*
D03*
X359800Y162795D02*
D03*
Y169485D02*
D03*
X275800Y238795D02*
D03*
Y232105D02*
D03*
X264000Y252070D02*
D03*
Y258760D02*
D03*
X248390Y259160D02*
D03*
Y252470D02*
D03*
X327060Y252240D02*
D03*
Y258930D02*
D03*
X311450Y252200D02*
D03*
Y258890D02*
D03*
X279850Y252200D02*
D03*
Y258890D02*
D03*
X508170Y358610D02*
D03*
Y351920D02*
D03*
X300490Y360480D02*
D03*
Y353790D02*
D03*
X194800Y178795D02*
D03*
Y172105D02*
D03*
D35*
X224300Y259300D02*
D03*
X218240D02*
D03*
X212790Y326040D02*
D03*
X218850D02*
D03*
X367800Y187800D02*
D03*
X373860D02*
D03*
X317320Y270960D02*
D03*
X311261D02*
D03*
X318170Y188230D02*
D03*
X324230D02*
D03*
X360300Y240800D02*
D03*
X354240D02*
D03*
X345501Y298600D02*
D03*
X339440D02*
D03*
X351801Y306800D02*
D03*
X345740D02*
D03*
D36*
X395960Y341000D02*
D03*
X397930D02*
D03*
X399890D02*
D03*
X401860D02*
D03*
X403830D02*
D03*
X405800D02*
D03*
X407770D02*
D03*
X409740D02*
D03*
X411710D02*
D03*
X413670D02*
D03*
X415640D02*
D03*
X417610D02*
D03*
X419580D02*
D03*
X421550D02*
D03*
X423520D02*
D03*
X425490D02*
D03*
X427450D02*
D03*
X429420D02*
D03*
X431390D02*
D03*
X433360D02*
D03*
X435330D02*
D03*
X437300D02*
D03*
X439270D02*
D03*
X441230D02*
D03*
X443200D02*
D03*
Y281560D02*
D03*
X441230D02*
D03*
X439270D02*
D03*
X437300D02*
D03*
X435330D02*
D03*
X433360D02*
D03*
X431390D02*
D03*
X429420D02*
D03*
X427450D02*
D03*
X425490D02*
D03*
X423520D02*
D03*
X421550D02*
D03*
X419580D02*
D03*
X417610D02*
D03*
X415640D02*
D03*
X413670D02*
D03*
X411710D02*
D03*
X409740D02*
D03*
X407770D02*
D03*
X405800D02*
D03*
X403830D02*
D03*
X401860D02*
D03*
X399890D02*
D03*
X397930D02*
D03*
X395960D02*
D03*
D37*
X449300Y334900D02*
D03*
Y332930D02*
D03*
Y330970D02*
D03*
Y329000D02*
D03*
Y327030D02*
D03*
Y325060D02*
D03*
Y323090D02*
D03*
Y321120D02*
D03*
Y319150D02*
D03*
Y317190D02*
D03*
Y315220D02*
D03*
Y313250D02*
D03*
Y311280D02*
D03*
Y309310D02*
D03*
Y307340D02*
D03*
Y305370D02*
D03*
Y303410D02*
D03*
Y301440D02*
D03*
Y299470D02*
D03*
Y297500D02*
D03*
Y295530D02*
D03*
Y293560D02*
D03*
Y291590D02*
D03*
Y289630D02*
D03*
Y287660D02*
D03*
X389860D02*
D03*
Y289630D02*
D03*
Y291590D02*
D03*
Y293560D02*
D03*
Y295530D02*
D03*
Y297500D02*
D03*
Y299470D02*
D03*
Y301440D02*
D03*
Y303410D02*
D03*
Y305370D02*
D03*
Y307340D02*
D03*
Y309310D02*
D03*
Y311280D02*
D03*
Y313250D02*
D03*
Y315220D02*
D03*
Y317190D02*
D03*
Y319150D02*
D03*
Y321120D02*
D03*
Y323090D02*
D03*
Y325060D02*
D03*
Y327030D02*
D03*
Y329000D02*
D03*
Y330970D02*
D03*
Y332930D02*
D03*
Y334900D02*
D03*
D38*
X373320Y284695D02*
D03*
Y291385D02*
D03*
X468740Y289605D02*
D03*
Y296295D02*
D03*
X295620Y252220D02*
D03*
Y258910D02*
D03*
X261110Y363435D02*
D03*
Y356745D02*
D03*
X250300Y363435D02*
D03*
Y356745D02*
D03*
X240460Y363435D02*
D03*
Y356745D02*
D03*
X230610Y363435D02*
D03*
Y356745D02*
D03*
X220810Y363435D02*
D03*
Y356745D02*
D03*
X210930Y363435D02*
D03*
Y356745D02*
D03*
X201090Y363435D02*
D03*
Y356745D02*
D03*
X191240Y363435D02*
D03*
Y356745D02*
D03*
X506800Y222295D02*
D03*
Y228985D02*
D03*
D39*
X624180Y165160D02*
D03*
Y177960D02*
D03*
X606360Y165380D02*
D03*
Y178180D02*
D03*
X624110Y186730D02*
D03*
Y199530D02*
D03*
X655720Y186810D02*
D03*
Y199610D02*
D03*
X606420Y186850D02*
D03*
Y199650D02*
D03*
D40*
X477500Y274500D02*
D03*
X471440D02*
D03*
D41*
X357570Y284599D02*
D03*
Y290659D02*
D03*
X343800Y169300D02*
D03*
Y163240D02*
D03*
D42*
X340860Y277790D02*
D03*
Y283850D02*
D03*
X295560Y292670D02*
D03*
Y286610D02*
D03*
X279790Y292670D02*
D03*
Y286610D02*
D03*
X327000Y292670D02*
D03*
Y286610D02*
D03*
X311380Y292670D02*
D03*
Y286610D02*
D03*
X264440Y293100D02*
D03*
Y287040D02*
D03*
D43*
X648000Y285800D02*
D03*
Y290800D02*
D03*
Y295800D02*
D03*
Y300800D02*
D03*
X623600Y285800D02*
D03*
Y290800D02*
D03*
Y295800D02*
D03*
Y300800D02*
D03*
D44*
X588300Y345800D02*
D03*
Y340800D02*
D03*
Y335800D02*
D03*
Y330800D02*
D03*
X612100Y345800D02*
D03*
Y340800D02*
D03*
Y335800D02*
D03*
Y330800D02*
D03*
X558300Y255800D02*
D03*
Y250800D02*
D03*
Y245800D02*
D03*
Y240800D02*
D03*
X582100Y255800D02*
D03*
Y250800D02*
D03*
Y245800D02*
D03*
Y240800D02*
D03*
D45*
X295560Y304289D02*
D03*
Y310349D02*
D03*
X279790Y304289D02*
D03*
Y310349D02*
D03*
X327000Y304289D02*
D03*
Y310349D02*
D03*
X311380Y304289D02*
D03*
Y310349D02*
D03*
X264430Y304329D02*
D03*
Y310389D02*
D03*
D46*
X649890Y311630D02*
D03*
Y327830D02*
D03*
X630800Y344300D02*
D03*
Y328100D02*
D03*
X649890Y360130D02*
D03*
Y343930D02*
D03*
X630800Y254300D02*
D03*
Y238100D02*
D03*
X649890Y222060D02*
D03*
Y238260D02*
D03*
Y270560D02*
D03*
Y254360D02*
D03*
X649305Y383800D02*
D03*
Y400000D02*
D03*
X569195Y351980D02*
D03*
Y368180D02*
D03*
X343805Y354300D02*
D03*
Y370500D02*
D03*
X238160Y297540D02*
D03*
Y313740D02*
D03*
X551900Y304900D02*
D03*
Y321100D02*
D03*
X396965Y182720D02*
D03*
Y198920D02*
D03*
X630795Y383800D02*
D03*
Y367600D02*
D03*
X551805Y272300D02*
D03*
Y288500D02*
D03*
X612305Y383800D02*
D03*
Y400000D02*
D03*
D47*
X605600Y271900D02*
D03*
Y264420D02*
D03*
D48*
X610805Y220800D02*
D03*
Y228280D02*
D03*
D49*
X663670Y170310D02*
D03*
Y163310D02*
D03*
D50*
X630800Y220800D02*
D03*
X623320D02*
D03*
X631190Y271910D02*
D03*
X623710D02*
D03*
D51*
X178000Y284700D02*
D03*
X171000D02*
D03*
X198310Y261390D02*
D03*
X205310D02*
D03*
D52*
X221745Y304815D02*
D03*
Y308515D02*
D03*
Y312215D02*
D03*
X210345D02*
D03*
Y308515D02*
D03*
Y304815D02*
D03*
D53*
X195100Y307190D02*
D03*
Y310340D02*
D03*
Y313490D02*
D03*
Y316640D02*
D03*
Y319790D02*
D03*
D54*
X192710Y295932D02*
D03*
D55*
Y330968D02*
D03*
X171057Y330970D02*
D03*
Y295930D02*
D03*
D56*
X308360Y338880D02*
D03*
Y332880D02*
D03*
X360800Y371800D02*
D03*
Y365800D02*
D03*
D57*
X336890Y207900D02*
D03*
X344370D02*
D03*
D58*
X263800Y238800D02*
D03*
Y231320D02*
D03*
X640050Y192180D02*
D03*
Y199660D02*
D03*
X215300Y171300D02*
D03*
Y178780D02*
D03*
D59*
X526300Y352000D02*
D03*
X536300D02*
D03*
X546300D02*
D03*
D60*
X536300Y389600D02*
D03*
D61*
X311800Y354200D02*
D03*
X320900D02*
D03*
X329900D02*
D03*
D62*
X320900Y378600D02*
D03*
D63*
X172500Y409600D02*
D03*
X660200Y409900D02*
D03*
X173400Y175200D02*
D03*
X653100Y160900D02*
D03*
D64*
X519975Y191190D02*
D03*
X513285D02*
D03*
X539655Y191200D02*
D03*
X546345D02*
D03*
X343805Y380200D02*
D03*
X337115D02*
D03*
X360805D02*
D03*
X354115D02*
D03*
D65*
X523910Y230630D02*
D03*
X527410Y222630D02*
D03*
X520410D02*
D03*
D66*
X173710Y193110D02*
D03*
Y234450D02*
D03*
D67*
X286095Y229510D02*
D03*
Y227610D02*
D03*
Y225610D02*
D03*
Y223610D02*
D03*
Y221710D02*
D03*
Y219710D02*
D03*
Y217710D02*
D03*
Y215710D02*
D03*
Y213810D02*
D03*
Y211810D02*
D03*
Y209810D02*
D03*
Y207910D02*
D03*
X319895D02*
D03*
Y209810D02*
D03*
Y211810D02*
D03*
Y213810D02*
D03*
Y215710D02*
D03*
Y217710D02*
D03*
Y219710D02*
D03*
Y221710D02*
D03*
Y223610D02*
D03*
Y225610D02*
D03*
Y227610D02*
D03*
Y229510D02*
D03*
D68*
X292190Y201805D02*
D03*
X294090D02*
D03*
X296090D02*
D03*
X298090D02*
D03*
X299990D02*
D03*
X301990D02*
D03*
X303990D02*
D03*
X305990D02*
D03*
X307890D02*
D03*
X309890D02*
D03*
X311890D02*
D03*
X313790D02*
D03*
Y235605D02*
D03*
X311890D02*
D03*
X309890D02*
D03*
X307890D02*
D03*
X305990D02*
D03*
X303990D02*
D03*
X301990D02*
D03*
X299990D02*
D03*
X298090D02*
D03*
X296090D02*
D03*
X294090D02*
D03*
X292190D02*
D03*
D69*
X407700Y269800D02*
D03*
Y259800D02*
D03*
M02*
