G04*
G04 #@! TF.GenerationSoftware,Altium Limited,Altium Designer,20.1.7 (139)*
G04*
G04 Layer_Color=65535*
%FSLAX25Y25*%
%MOIN*%
G70*
G04*
G04 #@! TF.SameCoordinates,24E638B0-66B5-4ADB-958A-7C5563F4B5AF*
G04*
G04*
G04 #@! TF.FilePolarity,Positive*
G04*
G01*
G75*
%ADD10C,0.02362*%
%ADD11C,0.01181*%
%ADD12C,0.01000*%
%ADD13C,0.01575*%
%ADD14C,0.00980*%
%ADD15C,0.00800*%
%ADD16C,0.01200*%
%ADD17C,0.00400*%
%ADD18C,0.00394*%
%ADD19C,0.00900*%
%ADD20C,0.00787*%
%ADD21C,0.00799*%
%ADD22C,0.00787*%
%ADD23C,0.00500*%
%ADD24C,0.00790*%
%ADD25C,0.00700*%
%ADD26C,0.00100*%
G36*
X591300Y384800D02*
X587300D01*
X585300Y385800D01*
X584300Y386800D01*
X595300D01*
X591300Y384800D01*
D02*
G37*
G36*
X332000Y323910D02*
X328000D01*
X326000Y324910D01*
X325000Y325910D01*
X336000D01*
X332000Y323910D01*
D02*
G37*
G36*
X583070Y287430D02*
X580070Y286430D01*
X576070Y285430D01*
X571070Y286430D01*
X567070Y288430D01*
X564070Y291430D01*
X588070D01*
X583070Y287430D01*
D02*
G37*
G36*
X212690Y239960D02*
X199300D01*
Y244680D01*
X212690D01*
Y239960D01*
D02*
G37*
G36*
X171350Y212790D02*
X165440D01*
Y224600D01*
X171350D01*
Y212790D01*
D02*
G37*
G36*
X212690Y192720D02*
X199310D01*
Y197440D01*
X212690D01*
Y192720D01*
D02*
G37*
G36*
X609800Y190300D02*
X603300D01*
Y198800D01*
X609800D01*
Y190300D01*
D02*
G37*
G36*
X627400Y190000D02*
X620900D01*
Y198500D01*
X627400D01*
Y190000D01*
D02*
G37*
G36*
X609800Y168800D02*
X603300D01*
Y177300D01*
X609800D01*
Y168800D01*
D02*
G37*
G36*
X627400Y168500D02*
X620900D01*
Y177000D01*
X627400D01*
Y168500D01*
D02*
G37*
D10*
X400090Y331950D02*
G03*
X400090Y331930I-1181J-10D01*
G01*
D11*
X389070Y337460D02*
G03*
X389070Y337450I-591J-5D01*
G01*
D12*
X583230Y182150D02*
G03*
X583230Y182150I-6000J0D01*
G01*
X597600Y347800D02*
G03*
X602600Y347800I2500J0D01*
G01*
X592350Y348700D02*
G03*
X592350Y348700I-750J0D01*
G01*
X567600Y257800D02*
G03*
X572600Y257800I2500J0D01*
G01*
X562350Y258700D02*
G03*
X562350Y258700I-750J0D01*
G01*
X215040Y312420D02*
G03*
X215040Y312420I-1000J0D01*
G01*
X281822Y179144D02*
G03*
X281822Y161144I0J-9000D01*
G01*
X308822D02*
G03*
X308822Y179144I0J9000D01*
G01*
X339840Y333910D02*
G03*
X339840Y333910I-9840J0D01*
G01*
X591820Y301430D02*
G03*
X591820Y301430I-15750J0D01*
G01*
X599140Y394800D02*
G03*
X599140Y394800I-9840J0D01*
G01*
X191850Y385570D02*
G03*
X191850Y385570I-1000J0D01*
G01*
X541000Y266100D02*
G03*
X541000Y266100I-23200J0D01*
G01*
X285090Y233310D02*
G03*
X285090Y233310I-1000J0D01*
G01*
X311600Y389700D02*
Y397700D01*
Y389700D02*
X312600Y390700D01*
X310600D02*
X311600Y389700D01*
X274800Y386800D02*
X299800D01*
Y388800D01*
X302800Y385800D01*
X299800Y382800D02*
X302800Y385800D01*
X299800Y382800D02*
Y384800D01*
X274800D02*
X299800D01*
X274800D02*
Y386800D01*
X264800Y329800D02*
X265800Y330800D01*
X264800Y329800D02*
X265800Y328800D01*
X264800Y329800D02*
X272800D01*
X230800Y328800D02*
X231800Y329800D01*
X230800Y330800D02*
X231800Y329800D01*
X223800D02*
X231800D01*
X374790Y274850D02*
X387390D01*
Y268940D02*
Y274850D01*
X374790Y268940D02*
X387390D01*
X374790D02*
Y274850D01*
X559230Y196150D02*
X595230D01*
Y168150D02*
Y196150D01*
X559230Y168150D02*
X595230D01*
X559230D02*
Y196150D01*
X624180Y172260D02*
X625780Y169960D01*
X622580D02*
X625780D01*
X622580D02*
X624180Y172260D01*
X627280Y166260D02*
Y176860D01*
X621080Y166260D02*
Y176860D01*
X606360Y172480D02*
X607960Y170180D01*
X604760D02*
X607960D01*
X604760D02*
X606360Y172480D01*
X609460Y166480D02*
Y177080D01*
X603260Y166480D02*
Y177080D01*
X624110Y193830D02*
X625710Y191530D01*
X622510D02*
X625710D01*
X622510D02*
X624110Y193830D01*
X627210Y187830D02*
Y198430D01*
X621010Y187830D02*
Y198430D01*
X655720Y193910D02*
X657320Y191610D01*
X654120D02*
X657320D01*
X654120D02*
X655720Y193910D01*
X658820Y187910D02*
Y198510D01*
X652620Y187910D02*
Y198510D01*
X628300Y302750D02*
X641310D01*
X628300Y283850D02*
Y302750D01*
Y283850D02*
X643300D01*
Y302750D01*
X641310D02*
X643300D01*
X593900Y328800D02*
Y347800D01*
Y328800D02*
X606300D01*
Y347800D01*
X602600D02*
X606300D01*
X593900D02*
X597600D01*
X644970Y327630D02*
X654810D01*
Y311890D02*
Y327630D01*
X644970Y311890D02*
X654810D01*
X644970D02*
Y327630D01*
X625880Y328300D02*
X635720D01*
X625880D02*
Y344040D01*
X635720D01*
Y328300D02*
Y344040D01*
X644970Y344130D02*
X654810D01*
X644970D02*
Y359870D01*
X654810D01*
Y344130D02*
Y359870D01*
X563900Y238800D02*
Y257800D01*
Y238800D02*
X576300D01*
Y257800D01*
X572600D02*
X576300D01*
X563900D02*
X567600D01*
X660170Y160310D02*
X667170D01*
X660170D02*
Y173310D01*
X667170D01*
Y160310D02*
Y173310D01*
X625880Y238300D02*
X635720D01*
X625880D02*
Y254040D01*
X635720D01*
Y238300D02*
Y254040D01*
X644970Y238060D02*
X654810D01*
Y222320D02*
Y238060D01*
X644970Y222320D02*
X654810D01*
X644970D02*
Y238060D01*
Y254560D02*
X654810D01*
X644970D02*
Y270300D01*
X654810D01*
Y254560D02*
Y270300D01*
X168000Y281200D02*
Y288200D01*
X181000D01*
Y281200D02*
Y288200D01*
X168000Y281200D02*
X181000D01*
X219940Y313620D02*
Y314820D01*
X218840D02*
X219940D01*
Y302220D02*
Y303420D01*
X218840Y302220D02*
X219940D01*
X212140D02*
X213240D01*
X212140D02*
Y303420D01*
Y314820D02*
X213240D01*
X212140Y313620D02*
Y314820D01*
X160230Y298883D02*
X196844D01*
X160230D02*
Y328411D01*
X196883Y298883D02*
Y328017D01*
X160269D02*
X196883D01*
X310860Y330380D02*
Y341380D01*
X305860Y330380D02*
X310860D01*
X305860D02*
Y341380D01*
X310860D01*
X281822Y179144D02*
X308822D01*
X281822Y161144D02*
X308822D01*
X208310Y257890D02*
Y264890D01*
X195310Y257890D02*
X208310D01*
X195310D02*
Y264890D01*
X208310D01*
X606420Y193950D02*
X608020Y191650D01*
X604820D02*
X608020D01*
X604820D02*
X606420Y193950D01*
X609520Y187950D02*
Y198550D01*
X603320Y187950D02*
Y198550D01*
X644380Y399800D02*
X654220D01*
Y384060D02*
Y399800D01*
X644380Y384060D02*
X654220D01*
X644380D02*
Y399800D01*
X644400Y395300D02*
X654200D01*
X564270Y367980D02*
X574110D01*
Y352240D02*
Y367980D01*
X564270Y352240D02*
X574110D01*
X564270D02*
Y367980D01*
X564290Y363480D02*
X574090D01*
X338880Y370300D02*
X348720D01*
Y354560D02*
Y370300D01*
X338880Y354560D02*
X348720D01*
X338880D02*
Y370300D01*
X338900Y365800D02*
X348700D01*
X573400Y397600D02*
Y404600D01*
X565200D02*
X573400D01*
X565200Y397600D02*
Y404600D01*
Y385000D02*
Y392000D01*
Y385000D02*
X573400D01*
Y392000D01*
X336000Y335910D02*
Y339910D01*
X334000Y337910D02*
X338000D01*
X576070Y312430D02*
Y316430D01*
X573070Y314430D02*
X579070D01*
X595300Y396800D02*
Y400800D01*
X593300Y398800D02*
X597300D01*
X363300Y363300D02*
Y374300D01*
X358300Y363300D02*
X363300D01*
X358300D02*
Y374300D01*
X363300D01*
X233240Y313540D02*
X243080D01*
Y297800D02*
Y313540D01*
X233240Y297800D02*
X243080D01*
X233240D02*
Y313540D01*
X233260Y309040D02*
X243060D01*
X546980Y320900D02*
X556820D01*
Y305160D02*
Y320900D01*
X546980Y305160D02*
X556820D01*
X546980D02*
Y320900D01*
X547000Y316400D02*
X556800D01*
X392040Y198720D02*
X401880D01*
Y182980D02*
Y198720D01*
X392040Y182980D02*
X401880D01*
X392040D02*
Y198720D01*
X392060Y194220D02*
X401860D01*
X625880Y367800D02*
X635720D01*
X625880D02*
Y383540D01*
X635720D01*
Y367800D02*
Y383540D01*
X549930Y168800D02*
Y178800D01*
X509930Y168800D02*
X549930D01*
X509930D02*
Y178800D01*
X549930D01*
X523210Y224130D02*
X524610D01*
X529610Y225630D02*
Y229130D01*
X526610D02*
X529610D01*
X518210D02*
X521210D01*
X518210Y225630D02*
Y229130D01*
X546880Y288300D02*
X556720D01*
Y272560D02*
Y288300D01*
X546880Y272560D02*
X556720D01*
X546880D02*
Y288300D01*
X546900Y283800D02*
X556700D01*
X420430Y163530D02*
Y197730D01*
X500230D01*
Y163530D02*
Y197730D01*
X468230Y163530D02*
X500230D01*
X468230D02*
Y165830D01*
X452430D02*
X468230D01*
X452430Y163530D02*
Y165830D01*
X420430Y163530D02*
X452430D01*
X414630Y168530D02*
Y171930D01*
X417930Y170230D01*
X414630Y168530D02*
X417930Y170230D01*
X416930D02*
X417930D01*
X150500Y187200D02*
Y250200D01*
X235500D01*
Y187200D02*
Y250200D01*
X150500Y187200D02*
X235500D01*
X671330Y412810D02*
X692330D01*
X671330Y291610D02*
X692330D01*
X671330D02*
Y412810D01*
Y279940D02*
X692330D01*
X671330Y158740D02*
X692330D01*
X671330D02*
Y279940D01*
X290790Y205310D02*
X315190D01*
X316390Y206510D02*
Y230910D01*
X290790Y232110D02*
X315190D01*
X289590Y230910D02*
X290790Y232110D01*
X289590Y206510D02*
Y230910D01*
Y206510D02*
X290790Y205310D01*
X315190D02*
X316390Y206510D01*
X315190Y232110D02*
X316390Y230910D01*
X607380Y399800D02*
X617220D01*
Y384060D02*
Y399800D01*
X607380Y384060D02*
X617220D01*
X607380D02*
Y399800D01*
X607400Y395300D02*
X617200D01*
D13*
X626700Y304300D02*
G03*
X626700Y304290I-787J-5D01*
G01*
X294590Y228010D02*
G03*
X294590Y228010I-1000J0D01*
G01*
D14*
X522560Y351980D02*
G03*
X522560Y351970I-490J-5D01*
G01*
D15*
X270800Y308170D02*
X274420D01*
X272530D02*
X274380Y306400D01*
X270800D02*
X272530Y308170D01*
X270800Y306400D02*
X274380D01*
X256530Y305810D02*
Y306360D01*
Y308090D02*
Y308800D01*
X254800Y308170D02*
X258420D01*
X256530D02*
X258380Y306400D01*
X254800D02*
X256530Y308170D01*
X254800Y306400D02*
X258380D01*
X287530Y305810D02*
Y306360D01*
Y308090D02*
Y308800D01*
X285800Y308170D02*
X289420D01*
X287530D02*
X289380Y306400D01*
X285800D02*
X287530Y308170D01*
X285800Y306400D02*
X289380D01*
X303530Y305810D02*
Y306360D01*
Y308090D02*
Y308800D01*
X301800Y308170D02*
X305420D01*
X303530D02*
X305380Y306400D01*
X301800D02*
X303530Y308170D01*
X301800Y306400D02*
X305380D01*
X319530Y305810D02*
Y306360D01*
Y308090D02*
Y308800D01*
X317800Y308170D02*
X321420D01*
X319530D02*
X321380Y306400D01*
X317800D02*
X319530Y308170D01*
X317800Y306400D02*
X321380D01*
X649190Y191310D02*
Y192020D01*
X647300Y191940D02*
X650920D01*
X647340Y193710D02*
X649190Y191940D01*
X650920Y193710D01*
X647340D02*
X650920D01*
X617690Y193750D02*
Y194300D01*
Y191310D02*
Y192020D01*
X615800Y191940D02*
X619420D01*
X615840Y193710D02*
X617690Y191940D01*
X619420Y193710D01*
X615840D02*
X619420D01*
X599690Y193750D02*
Y194300D01*
Y191310D02*
Y192020D01*
X597800Y191940D02*
X601420D01*
X597840Y193710D02*
X599690Y191940D01*
X601420Y193710D01*
X597840D02*
X601420D01*
X617690Y172250D02*
Y172800D01*
Y169810D02*
Y170520D01*
X615800Y170440D02*
X619420D01*
X615840Y172210D02*
X617690Y170440D01*
X619420Y172210D01*
X615840D02*
X619420D01*
X624190Y172250D02*
Y172800D01*
Y169810D02*
Y170520D01*
X622300Y170440D02*
X625920D01*
X622340Y172210D02*
X624190Y170440D01*
X625920Y172210D01*
X622340D02*
X625920D01*
X655690Y193750D02*
Y194300D01*
Y191310D02*
Y192020D01*
X653800Y191940D02*
X657420D01*
X653840Y193710D02*
X655690Y191940D01*
X657420Y193710D01*
X653840D02*
X657420D01*
X624190Y193750D02*
Y194300D01*
Y191310D02*
Y192020D01*
X622300Y191940D02*
X625920D01*
X622340Y193710D02*
X624190Y191940D01*
X625920Y193710D01*
X622340D02*
X625920D01*
X599690Y172250D02*
Y172800D01*
Y169810D02*
Y170520D01*
X597800Y170440D02*
X601420D01*
X597840Y172210D02*
X599690Y170440D01*
X601420Y172210D01*
X597840D02*
X601420D01*
X606190Y172250D02*
Y172800D01*
Y169810D02*
Y170520D01*
X604300Y170440D02*
X607920D01*
X604340Y172210D02*
X606190Y170440D01*
X607920Y172210D01*
X604340D02*
X607920D01*
X606570Y193740D02*
Y194290D01*
Y191300D02*
Y192010D01*
X604680Y191930D02*
X608300D01*
X604720Y193700D02*
X606570Y191930D01*
X608300Y193700D01*
X604720D02*
X608300D01*
X379400Y274300D02*
X382400D01*
X379400Y268300D02*
X382400D01*
X429300Y205600D02*
X429400D01*
Y202100D02*
Y205600D01*
X428100Y202100D02*
X429400D01*
X413400Y205600D02*
X413500D01*
X413400Y202100D02*
Y205600D01*
Y202100D02*
X414700D01*
X376700Y205800D02*
X377000D01*
X376700Y202200D02*
Y205800D01*
Y202200D02*
X379300D01*
X396900Y205800D02*
X397200D01*
Y202200D02*
Y205800D01*
X394600Y202200D02*
X397200D01*
X417800Y215800D02*
Y226800D01*
X448800D01*
Y215800D02*
Y226800D01*
X361800Y215800D02*
X511800D01*
Y205800D02*
Y215800D01*
X361800Y205800D02*
X511800D01*
X361800D02*
Y215800D01*
X488800Y326800D02*
X500800D01*
X488800Y295800D02*
Y326800D01*
Y295800D02*
X500800D01*
Y326800D02*
X521800D01*
Y295800D02*
Y326800D01*
X500800Y295800D02*
X521800D01*
X500800D02*
Y326800D01*
X401800Y382800D02*
Y395800D01*
Y382800D02*
X434800D01*
Y395800D01*
X324800Y405800D02*
X511800D01*
Y395800D02*
Y405800D01*
X324800Y395800D02*
X511800D01*
X324800D02*
Y405800D01*
X649190Y193750D02*
Y194300D01*
X272530Y305810D02*
Y306360D01*
Y308090D02*
Y308800D01*
X213300Y270300D02*
X223300D01*
X213300D02*
Y290300D01*
X223300D01*
Y282800D02*
Y290300D01*
X233150Y331030D02*
X240650D01*
X233150Y321030D02*
Y331030D01*
Y321030D02*
X263150D01*
Y331030D01*
X402700Y254800D02*
X412700D01*
X402700D02*
Y274800D01*
X412700D01*
Y267300D02*
Y274800D01*
X403800Y383800D02*
Y389132D01*
X406466Y391797D01*
X409132Y389132D01*
Y383800D01*
Y387799D01*
X403800D01*
X411797Y391797D02*
Y385133D01*
X413130Y383800D01*
X415796D01*
X417129Y385133D01*
Y391797D01*
X419795Y383800D02*
Y391797D01*
X425126Y383800D01*
Y391797D01*
X431791D02*
X429125D01*
X427792Y390464D01*
Y385133D01*
X429125Y383800D01*
X431791D01*
X433124Y385133D01*
Y390464D01*
X431791Y391797D01*
X499160Y296780D02*
X493828D01*
X491163Y299446D01*
X493828Y302112D01*
X499160D01*
X495161D01*
Y296780D01*
X491163Y304777D02*
X497827D01*
X499160Y306110D01*
Y308776D01*
X497827Y310109D01*
X491163D01*
X499160Y312775D02*
X491163D01*
X499160Y318106D01*
X491163D01*
Y324771D02*
Y322105D01*
X492495Y320772D01*
X497827D01*
X499160Y322105D01*
Y324771D01*
X497827Y326104D01*
X492495D01*
X491163Y324771D01*
X418800Y216940D02*
Y222272D01*
X421466Y224937D01*
X424132Y222272D01*
Y216940D01*
Y220939D01*
X418800D01*
X426797Y224937D02*
Y218273D01*
X428130Y216940D01*
X430796D01*
X432129Y218273D01*
Y224937D01*
X434795Y216940D02*
Y224937D01*
X440126Y216940D01*
Y224937D01*
X446791D02*
X444125D01*
X442792Y223604D01*
Y218273D01*
X444125Y216940D01*
X446791D01*
X448124Y218273D01*
Y223604D01*
X446791Y224937D01*
X366300Y360888D02*
Y356723D01*
X367133Y355890D01*
X368799D01*
X369632Y356723D01*
Y360888D01*
X371298Y355890D02*
X372965D01*
X372131D01*
Y360888D01*
X371298Y360055D01*
X375464Y360888D02*
Y357556D01*
X377130Y355890D01*
X378796Y357556D01*
Y360888D01*
X380462D02*
Y355890D01*
X382961D01*
X383794Y356723D01*
Y360055D01*
X382961Y360888D01*
X380462D01*
X385460D02*
Y355890D01*
X387960D01*
X388793Y356723D01*
Y360055D01*
X387960Y360888D01*
X385460D01*
X289300Y344669D02*
X292632D01*
X290966Y346335D02*
Y343003D01*
X294298Y346335D02*
X295131Y347168D01*
X296798D01*
X297631Y346335D01*
Y345502D01*
X296798Y344669D01*
X295965D01*
X296798D01*
X297631Y343836D01*
Y343003D01*
X296798Y342170D01*
X295131D01*
X294298Y343003D01*
X299297Y342170D02*
Y343003D01*
X300130D01*
Y342170D01*
X299297D01*
X303462Y346335D02*
X304295Y347168D01*
X305961D01*
X306794Y346335D01*
Y345502D01*
X305961Y344669D01*
X305128D01*
X305961D01*
X306794Y343836D01*
Y343003D01*
X305961Y342170D01*
X304295D01*
X303462Y343003D01*
X277000Y330268D02*
Y326103D01*
X277833Y325270D01*
X279499D01*
X280332Y326103D01*
Y330268D01*
X285331D02*
X281998D01*
Y327769D01*
X283664Y328602D01*
X284498D01*
X285331Y327769D01*
Y326103D01*
X284498Y325270D01*
X282831D01*
X281998Y326103D01*
X286997Y330268D02*
Y326936D01*
X288663Y325270D01*
X290329Y326936D01*
Y330268D01*
X291995D02*
Y325270D01*
X294494D01*
X295327Y326103D01*
Y329435D01*
X294494Y330268D01*
X291995D01*
X296993D02*
Y325270D01*
X299493D01*
X300326Y326103D01*
Y329435D01*
X299493Y330268D01*
X296993D01*
X301992Y325270D02*
Y328602D01*
X303658Y330268D01*
X305324Y328602D01*
Y325270D01*
Y327769D01*
X301992D01*
X348032Y266350D02*
X352197D01*
X353030Y267183D01*
Y268849D01*
X352197Y269682D01*
X348032D01*
X353030Y271348D02*
Y273014D01*
Y272181D01*
X348032D01*
X348865Y271348D01*
X348032Y275514D02*
X351364D01*
X353030Y277180D01*
X351364Y278846D01*
X348032D01*
Y280512D02*
X353030D01*
Y283011D01*
X352197Y283844D01*
X348865D01*
X348032Y283011D01*
Y280512D01*
Y285510D02*
X353030D01*
Y288010D01*
X352197Y288843D01*
X348865D01*
X348032Y288010D01*
Y285510D01*
X353030Y290509D02*
X349698D01*
X348032Y292175D01*
X349698Y293841D01*
X353030D01*
X350531D01*
Y290509D01*
X326032Y205300D02*
X330197D01*
X331030Y206133D01*
Y207799D01*
X330197Y208632D01*
X326032D01*
Y213631D02*
Y210298D01*
X328531D01*
X327698Y211965D01*
Y212798D01*
X328531Y213631D01*
X330197D01*
X331030Y212798D01*
Y211131D01*
X330197Y210298D01*
X326032Y215297D02*
X329364D01*
X331030Y216963D01*
X329364Y218629D01*
X326032D01*
Y220295D02*
X331030D01*
Y222794D01*
X330197Y223627D01*
X326865D01*
X326032Y222794D01*
Y220295D01*
Y225293D02*
X331030D01*
Y227793D01*
X330197Y228626D01*
X326865D01*
X326032Y227793D01*
Y225293D01*
Y230292D02*
Y231958D01*
Y231125D01*
X331030D01*
Y230292D01*
Y231958D01*
X326032Y236956D02*
Y235290D01*
X326865Y234457D01*
X330197D01*
X331030Y235290D01*
Y236956D01*
X330197Y237790D01*
X326865D01*
X326032Y236956D01*
X585300Y361569D02*
X588591Y362090D01*
X586685Y363475D02*
X587206Y360184D01*
X593137Y365341D02*
X589846Y364820D01*
X590237Y362351D01*
X591752Y363435D01*
X592575Y363565D01*
X593528Y362872D01*
X593789Y361227D01*
X593096Y360274D01*
X591451Y360013D01*
X590498Y360705D01*
X380800Y202259D02*
X382799D01*
X381800Y203259D02*
Y201260D01*
X383799Y203259D02*
X384299Y203759D01*
X385298D01*
X385798Y203259D01*
Y202759D01*
X385298Y202259D01*
X384799D01*
X385298D01*
X385798Y201760D01*
Y201260D01*
X385298Y200760D01*
X384299D01*
X383799Y201260D01*
X386798Y200760D02*
Y201260D01*
X387298D01*
Y200760D01*
X386798D01*
X389297Y203259D02*
X389797Y203759D01*
X390797D01*
X391297Y203259D01*
Y202759D01*
X390797Y202259D01*
X390297D01*
X390797D01*
X391297Y201760D01*
Y201260D01*
X390797Y200760D01*
X389797D01*
X389297Y201260D01*
X392296Y200760D02*
Y202759D01*
X393296Y203759D01*
X394296Y202759D01*
Y200760D01*
Y202259D01*
X392296D01*
X529300Y321269D02*
X532582Y321848D01*
X530652Y323199D02*
X531230Y319918D01*
X537070Y325177D02*
X533789Y324598D01*
X534223Y322137D01*
X535719Y323247D01*
X536539Y323392D01*
X537504Y322716D01*
X537793Y321075D01*
X537118Y320110D01*
X535477Y319821D01*
X534512Y320496D01*
X539579Y320544D02*
X539000Y323826D01*
X540352Y325756D01*
X542282Y324404D01*
X542861Y321123D01*
X542427Y323584D01*
X539145Y323005D01*
X367210Y288760D02*
X365211D01*
X364211Y289760D01*
X365211Y290759D01*
X367210D01*
X365710D01*
Y288760D01*
X364711Y293758D02*
X364211Y293259D01*
Y292259D01*
X364711Y291759D01*
X366710D01*
X367210Y292259D01*
Y293259D01*
X366710Y293758D01*
X365710D01*
Y292759D01*
X367210Y294758D02*
X364211D01*
X367210Y296757D01*
X364211D01*
Y297757D02*
X367210D01*
Y299257D01*
X366710Y299756D01*
X364711D01*
X364211Y299257D01*
Y297757D01*
X360981Y262420D02*
X363647D01*
X364980Y263753D01*
X363647Y265086D01*
X360981D01*
X364980Y266419D02*
X360981D01*
Y268418D01*
X361648Y269085D01*
X362981D01*
X363647Y268418D01*
Y266419D01*
Y267752D02*
X364980Y269085D01*
X360981Y273083D02*
Y270417D01*
X364980D01*
Y273083D01*
X362981Y270417D02*
Y271750D01*
X360981Y277082D02*
Y274416D01*
X362981D01*
Y275749D01*
Y274416D01*
X364980D01*
X264200Y325909D02*
X266199D01*
X265200Y326909D02*
Y324910D01*
X269198Y327409D02*
X267199D01*
Y325909D01*
X268199Y326409D01*
X268699D01*
X269198Y325909D01*
Y324910D01*
X268699Y324410D01*
X267699D01*
X267199Y324910D01*
X270198Y327409D02*
Y325410D01*
X271198Y324410D01*
X272197Y325410D01*
Y327409D01*
X225899Y324410D02*
X223900D01*
X225899Y326409D01*
Y326909D01*
X225399Y327409D01*
X224400D01*
X223900Y326909D01*
X226899Y327409D02*
Y325410D01*
X227899Y324410D01*
X228898Y325410D01*
Y327409D01*
X229898Y324410D02*
Y327409D01*
X231398D01*
X231897Y326909D01*
Y325909D01*
X231398Y325410D01*
X229898D01*
X230898D02*
X231897Y324410D01*
X436800Y202659D02*
X438799D01*
X437800D01*
Y199660D01*
X441798Y202159D02*
X441298Y202659D01*
X440299D01*
X439799Y202159D01*
Y200160D01*
X440299Y199660D01*
X441298D01*
X441798Y200160D01*
X442798Y202659D02*
Y199660D01*
Y200660D01*
X444797Y202659D01*
X443298Y201160D01*
X444797Y199660D01*
X448796Y202659D02*
X450796D01*
X449796D01*
Y199660D01*
X451795Y202659D02*
Y199660D01*
X453295D01*
X453794Y200160D01*
Y202159D01*
X453295Y202659D01*
X451795D01*
X454794D02*
X455794D01*
X455294D01*
Y199660D01*
X454794D01*
X455794D01*
X460292Y202659D02*
X462292D01*
X461292D01*
Y199660D01*
X463291Y202659D02*
Y199660D01*
X464791D01*
X465291Y200160D01*
Y202159D01*
X464791Y202659D01*
X463291D01*
X467790D02*
X466790D01*
X466291Y202159D01*
Y200160D01*
X466790Y199660D01*
X467790D01*
X468290Y200160D01*
Y202159D01*
X467790Y202659D01*
X472289D02*
X474288D01*
X473288D01*
Y199660D01*
X475288D02*
Y202659D01*
X476287Y201659D01*
X477287Y202659D01*
Y199660D01*
X480286Y202159D02*
X479786Y202659D01*
X478786D01*
X478287Y202159D01*
Y201659D01*
X478786Y201160D01*
X479786D01*
X480286Y200660D01*
Y200160D01*
X479786Y199660D01*
X478786D01*
X478287Y200160D01*
X486284Y202659D02*
X484285D01*
Y199660D01*
X486284D01*
X484285Y201160D02*
X485284D01*
X487284Y202659D02*
X489283D01*
Y202159D01*
X487284Y200160D01*
Y199660D01*
X489283D01*
X490283D02*
Y202659D01*
X491782D01*
X492282Y202159D01*
Y201160D01*
X491782Y200660D01*
X490283D01*
X436800Y157660D02*
Y160659D01*
X438300D01*
X438799Y160159D01*
Y159160D01*
X438300Y158660D01*
X436800D01*
X437800D02*
X438799Y157660D01*
X441798Y160159D02*
X441298Y160659D01*
X440299D01*
X439799Y160159D01*
Y159659D01*
X440299Y159160D01*
X441298D01*
X441798Y158660D01*
Y158160D01*
X441298Y157660D01*
X440299D01*
X439799Y158160D01*
X442798Y160659D02*
X444797D01*
X443798D01*
Y157660D01*
X502800Y290660D02*
Y293659D01*
X504299D01*
X504799Y293159D01*
Y292160D01*
X504299Y291660D01*
X502800D01*
X503800D02*
X504799Y290660D01*
X507798Y293159D02*
X507299Y293659D01*
X506299D01*
X505799Y293159D01*
Y292659D01*
X506299Y292160D01*
X507299D01*
X507798Y291660D01*
Y291160D01*
X507299Y290660D01*
X506299D01*
X505799Y291160D01*
X508798Y293659D02*
X510797D01*
X509798D01*
Y290660D01*
X501800Y328660D02*
Y331659D01*
X502800Y330659D01*
X503799Y331659D01*
Y328660D01*
X504799Y331659D02*
X505799D01*
X505299D01*
Y328660D01*
X504799D01*
X505799D01*
X509298Y331159D02*
X508798Y331659D01*
X507798D01*
X507298Y331159D01*
Y330659D01*
X507798Y330159D01*
X508798D01*
X509298Y329660D01*
Y329160D01*
X508798Y328660D01*
X507798D01*
X507298Y329160D01*
X511797Y331659D02*
X510797D01*
X510297Y331159D01*
Y329160D01*
X510797Y328660D01*
X511797D01*
X512297Y329160D01*
Y331159D01*
X511797Y331659D01*
X528180Y306400D02*
X525181D01*
X526181Y307400D01*
X525181Y308399D01*
X528180D01*
X525181Y310898D02*
Y309899D01*
X525681Y309399D01*
X527680D01*
X528180Y309899D01*
Y310898D01*
X527680Y311398D01*
X525681D01*
X525181Y310898D01*
X525681Y314397D02*
X525181Y313898D01*
Y312898D01*
X525681Y312398D01*
X526181D01*
X526681Y312898D01*
Y313898D01*
X527180Y314397D01*
X527680D01*
X528180Y313898D01*
Y312898D01*
X527680Y312398D01*
X525181Y315397D02*
Y316397D01*
Y315897D01*
X528180D01*
Y315397D01*
Y316397D01*
X330327Y408416D02*
X329911Y408000D01*
Y407166D01*
X330327Y406750D01*
X330744D01*
X331160Y407166D01*
Y408000D01*
X331577Y408416D01*
X331994D01*
X332410Y408000D01*
Y407166D01*
X331994Y406750D01*
X330327Y410915D02*
X329911Y410499D01*
Y409666D01*
X330327Y409249D01*
X331994D01*
X332410Y409666D01*
Y410499D01*
X331994Y410915D01*
X329911Y411748D02*
X332410D01*
Y413414D01*
X340327Y408416D02*
X339911Y408000D01*
Y407166D01*
X340327Y406750D01*
X340744D01*
X341160Y407166D01*
Y408000D01*
X341577Y408416D01*
X341993D01*
X342410Y408000D01*
Y407166D01*
X341993Y406750D01*
X339911Y409249D02*
X342410D01*
Y410499D01*
X341993Y410915D01*
X340327D01*
X339911Y410499D01*
Y409249D01*
X342410Y411748D02*
X340744D01*
X339911Y412581D01*
X340744Y413414D01*
X342410D01*
X341160D01*
Y411748D01*
X307466Y399190D02*
X305800D01*
X307466Y400856D01*
Y401273D01*
X307050Y401689D01*
X306217D01*
X305800Y401273D01*
X308299Y401689D02*
Y400023D01*
X309132Y399190D01*
X309965Y400023D01*
Y401689D01*
X310798Y399190D02*
Y401689D01*
X312048D01*
X312464Y401273D01*
Y400440D01*
X312048Y400023D01*
X310798D01*
X311631D02*
X312464Y399190D01*
X314964Y401689D02*
X313298D01*
Y399190D01*
X314964D01*
X313298Y400440D02*
X314131D01*
X317463Y401689D02*
X315797D01*
Y400440D01*
X316630D01*
X315797D01*
Y399190D01*
X360327Y408416D02*
X359911Y408000D01*
Y407166D01*
X360327Y406750D01*
X361994D01*
X362410Y407166D01*
Y408000D01*
X361994Y408416D01*
X361160D01*
Y407583D01*
X362410Y409249D02*
X359911D01*
X362410Y410915D01*
X359911D01*
Y411748D02*
X362410D01*
Y412998D01*
X361994Y413414D01*
X360327D01*
X359911Y412998D01*
Y411748D01*
X382410Y406728D02*
X379911Y406772D01*
X379933Y408021D01*
X380357Y408430D01*
X381189Y408416D01*
X381599Y407992D01*
X381577Y406743D01*
X379955Y409271D02*
X379984Y410936D01*
X379969Y410104D01*
X382468Y410060D01*
X380027Y413435D02*
X379998Y411769D01*
X382497Y411726D01*
X382526Y413392D01*
X381248Y411748D02*
X381262Y412580D01*
X382570Y415891D02*
X382541Y414225D01*
X380904Y415920D01*
X380487Y415927D01*
X380064Y415518D01*
X380049Y414685D01*
X380458Y414261D01*
X392410Y406750D02*
X389911D01*
Y408000D01*
X390327Y408416D01*
X391160D01*
X391577Y408000D01*
Y406750D01*
X389911Y409249D02*
Y410915D01*
Y410082D01*
X392410D01*
X389911Y413414D02*
Y411748D01*
X392410D01*
Y413414D01*
X391160Y411748D02*
Y412581D01*
X390327Y414248D02*
X389911Y414664D01*
Y415497D01*
X390327Y415914D01*
X391993D01*
X392410Y415497D01*
Y414664D01*
X391993Y414248D01*
X390327D01*
X402410Y406750D02*
X399911D01*
Y408000D01*
X400327Y408416D01*
X401160D01*
X401577Y408000D01*
Y406750D01*
X399911Y409249D02*
Y410915D01*
Y410082D01*
X402410D01*
X399911Y413414D02*
Y411748D01*
X402410D01*
Y413414D01*
X401160Y411748D02*
Y412581D01*
X402410Y414248D02*
Y415081D01*
Y414664D01*
X399911D01*
X400327Y414248D01*
X412410Y406750D02*
X409911D01*
Y408000D01*
X410327Y408416D01*
X411160D01*
X411577Y408000D01*
Y406750D01*
X409911Y409249D02*
Y410915D01*
Y410082D01*
X412410D01*
X409911Y413414D02*
Y411748D01*
X412410D01*
Y413414D01*
X411160Y411748D02*
Y412581D01*
X410327Y414248D02*
X409911Y414664D01*
Y415497D01*
X410327Y415914D01*
X410744D01*
X411160Y415497D01*
Y415081D01*
Y415497D01*
X411577Y415914D01*
X411994D01*
X412410Y415497D01*
Y414664D01*
X411994Y414248D01*
X422410Y406750D02*
X419911D01*
Y408000D01*
X420327Y408416D01*
X421160D01*
X421577Y408000D01*
Y406750D01*
X419911Y409249D02*
Y410915D01*
Y410082D01*
X422410D01*
X419911Y413414D02*
Y411748D01*
X422410D01*
Y413414D01*
X421160Y411748D02*
Y412581D01*
X419911Y415914D02*
Y414248D01*
X421160D01*
X420744Y415081D01*
Y415497D01*
X421160Y415914D01*
X421993D01*
X422410Y415497D01*
Y414664D01*
X421993Y414248D01*
X372410Y406750D02*
X369911D01*
Y408000D01*
X370327Y408416D01*
X371160D01*
X371577Y408000D01*
Y406750D01*
X369911Y409249D02*
Y410915D01*
Y410082D01*
X372410D01*
X369911Y413414D02*
Y411748D01*
X372410D01*
Y413414D01*
X371160Y411748D02*
Y412581D01*
X372410Y415497D02*
X369911D01*
X371160Y414248D01*
Y415914D01*
X438310Y407050D02*
X435811D01*
Y408300D01*
X436227Y408716D01*
X437060D01*
X437477Y408300D01*
Y407050D01*
X435811Y409549D02*
Y411215D01*
Y410382D01*
X438310D01*
X436227Y413715D02*
X435811Y413298D01*
Y412465D01*
X436227Y412048D01*
X437893D01*
X438310Y412465D01*
Y413298D01*
X437893Y413715D01*
X438310Y414548D02*
Y415381D01*
Y414964D01*
X435811D01*
X436227Y414548D01*
Y416630D02*
X435811Y417047D01*
Y417880D01*
X436227Y418296D01*
X436644D01*
X437060Y417880D01*
Y417463D01*
Y417880D01*
X437477Y418296D01*
X437893D01*
X438310Y417880D01*
Y417047D01*
X437893Y416630D01*
X448409Y406706D02*
X445912Y406794D01*
X445955Y408042D01*
X446386Y408444D01*
X447219Y408415D01*
X447620Y407984D01*
X447577Y406735D01*
X445999Y409291D02*
X446057Y410956D01*
X446028Y410124D01*
X448525Y410037D01*
X446560Y413440D02*
X446130Y413038D01*
X446101Y412205D01*
X446502Y411774D01*
X448167Y411716D01*
X448598Y412118D01*
X448627Y412951D01*
X448226Y413381D01*
X448671Y414199D02*
X448700Y415032D01*
X448685Y414616D01*
X446188Y414703D01*
X446590Y414272D01*
X448744Y416281D02*
X448773Y417113D01*
X448758Y416697D01*
X446260Y416784D01*
X446662Y416354D01*
X468410Y406750D02*
X465911D01*
Y408000D01*
X466327Y408416D01*
X467160D01*
X467577Y408000D01*
Y406750D01*
X465911Y409249D02*
Y410915D01*
Y410082D01*
X468410D01*
X466327Y413414D02*
X465911Y412998D01*
Y412165D01*
X466327Y411748D01*
X467993D01*
X468410Y412165D01*
Y412998D01*
X467993Y413414D01*
Y414248D02*
X468410Y414664D01*
Y415497D01*
X467993Y415914D01*
X466327D01*
X465911Y415497D01*
Y414664D01*
X466327Y414248D01*
X466744D01*
X467160Y414664D01*
Y415914D01*
X478410Y406728D02*
X475911Y406772D01*
X475933Y408021D01*
X476357Y408430D01*
X477189Y408416D01*
X477599Y407992D01*
X477577Y406743D01*
X475955Y409271D02*
X475984Y410936D01*
X475969Y410104D01*
X478468Y410060D01*
X476444Y413428D02*
X476020Y413019D01*
X476006Y412186D01*
X476415Y411762D01*
X478081Y411733D01*
X478504Y412142D01*
X478519Y412975D01*
X478110Y413399D01*
X476458Y414261D02*
X476049Y414685D01*
X476064Y415518D01*
X476487Y415927D01*
X476904Y415920D01*
X477313Y415496D01*
X477737Y415905D01*
X478153Y415898D01*
X478562Y415474D01*
X478548Y414641D01*
X478124Y414232D01*
X477708Y414239D01*
X477298Y414663D01*
X476875Y414254D01*
X476458Y414261D01*
X477298Y414663D02*
X477313Y415496D01*
X488409Y406706D02*
X485912Y406794D01*
X485955Y408042D01*
X486386Y408444D01*
X487219Y408415D01*
X487620Y407984D01*
X487577Y406735D01*
X485999Y409291D02*
X486057Y410956D01*
X486028Y410124D01*
X488525Y410037D01*
X486560Y413440D02*
X486130Y413038D01*
X486101Y412205D01*
X486502Y411774D01*
X488167Y411716D01*
X488598Y412118D01*
X488627Y412951D01*
X488226Y413381D01*
X486173Y414287D02*
X486231Y415952D01*
X486648Y415937D01*
X488255Y414214D01*
X488671Y414199D01*
X498410Y406750D02*
X495911D01*
Y408000D01*
X496327Y408416D01*
X497160D01*
X497577Y408000D01*
Y406750D01*
X495911Y409249D02*
Y410915D01*
Y410082D01*
X498410D01*
X496327Y413414D02*
X495911Y412998D01*
Y412165D01*
X496327Y411748D01*
X497994D01*
X498410Y412165D01*
Y412998D01*
X497994Y413414D01*
X495911Y415914D02*
X496327Y415081D01*
X497160Y414248D01*
X497994D01*
X498410Y414664D01*
Y415497D01*
X497994Y415914D01*
X497577D01*
X497160Y415497D01*
Y414248D01*
X508410Y406750D02*
X505911D01*
Y408000D01*
X506327Y408416D01*
X507160D01*
X507577Y408000D01*
Y406750D01*
X505911Y409249D02*
Y410915D01*
Y410082D01*
X508410D01*
X506327Y413414D02*
X505911Y412998D01*
Y412165D01*
X506327Y411748D01*
X507994D01*
X508410Y412165D01*
Y412998D01*
X507994Y413414D01*
X505911Y415914D02*
Y414248D01*
X507160D01*
X506744Y415081D01*
Y415497D01*
X507160Y415914D01*
X507994D01*
X508410Y415497D01*
Y414664D01*
X507994Y414248D01*
X458410Y406750D02*
X455911D01*
Y408000D01*
X456327Y408416D01*
X457160D01*
X457577Y408000D01*
Y406750D01*
X455911Y409249D02*
Y410915D01*
Y410082D01*
X458410D01*
X456327Y413414D02*
X455911Y412998D01*
Y412165D01*
X456327Y411748D01*
X457994D01*
X458410Y412165D01*
Y412998D01*
X457994Y413414D01*
X458410Y414248D02*
Y415081D01*
Y414664D01*
X455911D01*
X456327Y414248D01*
Y416330D02*
X455911Y416747D01*
Y417580D01*
X456327Y417996D01*
X457994D01*
X458410Y417580D01*
Y416747D01*
X457994Y416330D01*
X456327D01*
X459940Y217230D02*
X457941D01*
X456941Y218230D01*
X457941Y219229D01*
X459940D01*
X458440D01*
Y217230D01*
X456941Y220229D02*
X459940D01*
Y221728D01*
X459440Y222228D01*
X457441D01*
X456941Y221728D01*
Y220229D01*
X457441Y225227D02*
X456941Y224728D01*
Y223728D01*
X457441Y223228D01*
X459440D01*
X459940Y223728D01*
Y224728D01*
X459440Y225227D01*
X457441Y226227D02*
X456941Y226727D01*
Y227727D01*
X457441Y228226D01*
X459440D01*
X459940Y227727D01*
Y226727D01*
X459440Y226227D01*
X457441D01*
X467940Y217230D02*
X465941D01*
X464941Y218230D01*
X465941Y219229D01*
X467940D01*
X466440D01*
Y217230D01*
X464941Y220229D02*
X467940D01*
Y221728D01*
X467440Y222228D01*
X465441D01*
X464941Y221728D01*
Y220229D01*
X465441Y225227D02*
X464941Y224728D01*
Y223728D01*
X465441Y223228D01*
X467440D01*
X467940Y223728D01*
Y224728D01*
X467440Y225227D01*
X467940Y226227D02*
Y227227D01*
Y226727D01*
X464941D01*
X465441Y226227D01*
X477940Y217230D02*
X475941D01*
X474941Y218230D01*
X475941Y219229D01*
X477940D01*
X476440D01*
Y217230D01*
X474941Y220229D02*
X477940D01*
Y221728D01*
X477440Y222228D01*
X475441D01*
X474941Y221728D01*
Y220229D01*
X475441Y225227D02*
X474941Y224728D01*
Y223728D01*
X475441Y223228D01*
X477440D01*
X477940Y223728D01*
Y224728D01*
X477440Y225227D01*
X475441Y226227D02*
X474941Y226727D01*
Y227727D01*
X475441Y228226D01*
X477440D01*
X477940Y227727D01*
Y226727D01*
X477440Y226227D01*
X475441D01*
X478440Y229226D02*
Y231225D01*
X474941Y232225D02*
X477940D01*
Y233725D01*
X477440Y234225D01*
X475441D01*
X474941Y233725D01*
Y232225D01*
X477940Y235224D02*
X474941D01*
Y236724D01*
X475441Y237224D01*
X476440D01*
X476940Y236724D01*
Y235224D01*
X475441Y238223D02*
X474941Y238723D01*
Y239723D01*
X475441Y240223D01*
X477440D01*
X477940Y239723D01*
Y238723D01*
X477440Y238223D01*
X475441D01*
X487940Y217230D02*
X485941D01*
X484941Y218230D01*
X485941Y219229D01*
X487940D01*
X486441D01*
Y217230D01*
X484941Y220229D02*
X487940D01*
Y221728D01*
X487440Y222228D01*
X485441D01*
X484941Y221728D01*
Y220229D01*
X485441Y225227D02*
X484941Y224728D01*
Y223728D01*
X485441Y223228D01*
X487440D01*
X487940Y223728D01*
Y224728D01*
X487440Y225227D01*
X487940Y226227D02*
Y227227D01*
Y226727D01*
X484941D01*
X485441Y226227D01*
X488440Y228726D02*
Y230726D01*
X484941Y231725D02*
X487940D01*
Y233225D01*
X487440Y233725D01*
X485441D01*
X484941Y233225D01*
Y231725D01*
X487940Y234724D02*
X484941D01*
Y236224D01*
X485441Y236724D01*
X486441D01*
X486940Y236224D01*
Y234724D01*
X487940Y237723D02*
Y238723D01*
Y238223D01*
X484941D01*
X485441Y237723D01*
X497940Y217230D02*
X495941D01*
X494941Y218230D01*
X495941Y219229D01*
X497940D01*
X496441D01*
Y217230D01*
X494941Y220229D02*
X497940D01*
Y221728D01*
X497440Y222228D01*
X495441D01*
X494941Y221728D01*
Y220229D01*
X495441Y225227D02*
X494941Y224728D01*
Y223728D01*
X495441Y223228D01*
X497440D01*
X497940Y223728D01*
Y224728D01*
X497440Y225227D01*
X495441Y226227D02*
X494941Y226727D01*
Y227727D01*
X495441Y228226D01*
X497440D01*
X497940Y227727D01*
Y226727D01*
X497440Y226227D01*
X495441D01*
X498440Y229226D02*
Y231225D01*
X494941Y232225D02*
X497940D01*
Y233725D01*
X497440Y234225D01*
X495441D01*
X494941Y233725D01*
Y232225D01*
X497940Y235224D02*
X494941D01*
Y236724D01*
X495441Y237224D01*
X496441D01*
X496940Y236724D01*
Y235224D01*
X497940Y238223D02*
Y239223D01*
Y238723D01*
X494941D01*
X495441Y238223D01*
X512800Y211659D02*
Y208660D01*
X514299D01*
X514799Y209160D01*
Y211159D01*
X514299Y211659D01*
X512800D01*
X515799Y208660D02*
Y210659D01*
X516799Y211659D01*
X517798Y210659D01*
Y208660D01*
Y210159D01*
X515799D01*
X520797Y211159D02*
X520298Y211659D01*
X519298D01*
X518798Y211159D01*
Y209160D01*
X519298Y208660D01*
X520298D01*
X520797Y209160D01*
X521797Y211159D02*
X522297Y211659D01*
X523297D01*
X523796Y211159D01*
Y209160D01*
X523297Y208660D01*
X522297D01*
X521797Y209160D01*
Y211159D01*
X524796Y208160D02*
X526795D01*
X529295Y211659D02*
X528295D01*
X527795Y211159D01*
Y209160D01*
X528295Y208660D01*
X529295D01*
X529795Y209160D01*
Y211159D01*
X529295Y211659D01*
X530794D02*
Y209160D01*
X531294Y208660D01*
X532294D01*
X532794Y209160D01*
Y211659D01*
X533793D02*
X535793D01*
X534793D01*
Y208660D01*
X351710Y406790D02*
X350044D01*
X349211Y407623D01*
X350044Y408456D01*
X351710D01*
X350460D01*
Y406790D01*
X351710Y409289D02*
X349211D01*
Y410539D01*
X349627Y410955D01*
X350460D01*
X350877Y410539D01*
Y409289D01*
Y410122D02*
X351710Y410955D01*
X349211Y413454D02*
Y411788D01*
X351710D01*
Y413454D01*
X350460Y411788D02*
Y412621D01*
X349211Y415954D02*
Y414288D01*
X350460D01*
Y415121D01*
Y414288D01*
X351710D01*
X373400Y264552D02*
X374066Y265219D01*
X375399D01*
X376066Y264552D01*
Y263886D01*
X375399Y263219D01*
X374733D01*
X375399D01*
X376066Y262553D01*
Y261887D01*
X375399Y261220D01*
X374066D01*
X373400Y261887D01*
X380065Y261220D02*
X377399D01*
X380065Y263886D01*
Y264552D01*
X379398Y265219D01*
X378065D01*
X377399Y264552D01*
X381397Y261220D02*
Y261887D01*
X382064D01*
Y261220D01*
X381397D01*
X384730Y265219D02*
X387396D01*
Y264552D01*
X384730Y261887D01*
Y261220D01*
X391394Y265219D02*
X390061Y264552D01*
X388728Y263219D01*
Y261887D01*
X389395Y261220D01*
X390728D01*
X391394Y261887D01*
Y262553D01*
X390728Y263219D01*
X388728D01*
X392727Y264552D02*
X393394Y265219D01*
X394726D01*
X395393Y264552D01*
Y263886D01*
X394726Y263219D01*
X395393Y262553D01*
Y261887D01*
X394726Y261220D01*
X393394D01*
X392727Y261887D01*
Y262553D01*
X393394Y263219D01*
X392727Y263886D01*
Y264552D01*
X393394Y263219D02*
X394726D01*
X384300Y376190D02*
Y378689D01*
X385550D01*
X385966Y378273D01*
Y377440D01*
X385550Y377023D01*
X384300D01*
X386799Y378689D02*
X388465D01*
X387632D01*
Y376190D01*
X390965Y378273D02*
X390548Y378689D01*
X389715D01*
X389298Y378273D01*
Y376606D01*
X389715Y376190D01*
X390548D01*
X390965Y376606D01*
X391798Y376190D02*
X392631D01*
X392214D01*
Y378689D01*
X391798Y378273D01*
X395546Y378689D02*
X394713Y378273D01*
X393880Y377440D01*
Y376606D01*
X394297Y376190D01*
X395130D01*
X395546Y376606D01*
Y377023D01*
X395130Y377440D01*
X393880D01*
X421700Y376190D02*
Y378689D01*
X422950D01*
X423366Y378273D01*
Y377440D01*
X422950Y377023D01*
X421700D01*
X424199Y378689D02*
X425865D01*
X425032D01*
Y376190D01*
X428365Y378273D02*
X427948Y378689D01*
X427115D01*
X426698Y378273D01*
Y376606D01*
X427115Y376190D01*
X427948D01*
X428365Y376606D01*
X429198Y376190D02*
X430031D01*
X429614D01*
Y378689D01*
X429198Y378273D01*
X432530Y376190D02*
Y378689D01*
X431280Y377440D01*
X432946D01*
X465210Y316490D02*
X462711D01*
Y317740D01*
X463127Y318156D01*
X463960D01*
X464377Y317740D01*
Y316490D01*
X462711Y318989D02*
X465210D01*
Y320239D01*
X464793Y320655D01*
X464377D01*
X463960Y320239D01*
Y318989D01*
Y320239D01*
X463544Y320655D01*
X463127D01*
X462711Y320239D01*
Y318989D01*
X465210Y323154D02*
Y321488D01*
X463544Y323154D01*
X463127D01*
X462711Y322738D01*
Y321905D01*
X463127Y321488D01*
X465210Y325654D02*
Y323988D01*
X463544Y325654D01*
X463127D01*
X462711Y325237D01*
Y324404D01*
X463127Y323988D01*
X476110Y317970D02*
X473611D01*
Y319220D01*
X474027Y319636D01*
X474860D01*
X475277Y319220D01*
Y317970D01*
X473611Y320469D02*
Y322135D01*
Y321302D01*
X476110D01*
X474027Y324635D02*
X473611Y324218D01*
Y323385D01*
X474027Y322968D01*
X475694D01*
X476110Y323385D01*
Y324218D01*
X475694Y324635D01*
X474027Y325468D02*
X473611Y325884D01*
Y326717D01*
X474027Y327134D01*
X475694D01*
X476110Y326717D01*
Y325884D01*
X475694Y325468D01*
X474027D01*
X487209Y319856D02*
X484712Y319944D01*
X484755Y321192D01*
X485186Y321594D01*
X486019Y321565D01*
X486420Y321134D01*
X486377Y319885D01*
X484799Y322441D02*
X484857Y324106D01*
X484828Y323274D01*
X487325Y323187D01*
X485360Y326589D02*
X484930Y326188D01*
X484901Y325355D01*
X485302Y324924D01*
X486967Y324866D01*
X487398Y325268D01*
X487427Y326101D01*
X487026Y326531D01*
X487471Y327349D02*
X487500Y328182D01*
X487485Y327766D01*
X484988Y327853D01*
X485390Y327422D01*
X381940Y302500D02*
X379941D01*
X378941Y303500D01*
X379941Y304499D01*
X381940D01*
X380440D01*
Y302500D01*
X378941Y305499D02*
X381940D01*
Y306998D01*
X381440Y307498D01*
X379441D01*
X378941Y306998D01*
Y305499D01*
X379441Y310497D02*
X378941Y309998D01*
Y308998D01*
X379441Y308498D01*
X381440D01*
X381940Y308998D01*
Y309998D01*
X381440Y310497D01*
X379441Y311497D02*
X378941Y311997D01*
Y312997D01*
X379441Y313496D01*
X381440D01*
X381940Y312997D01*
Y311997D01*
X381440Y311497D01*
X379441D01*
X382440Y314496D02*
Y316495D01*
X378941Y317495D02*
X381940D01*
Y318995D01*
X381440Y319495D01*
X379441D01*
X378941Y318995D01*
Y317495D01*
X381940Y320494D02*
X378941D01*
X379941Y321494D01*
X378941Y322494D01*
X381940D01*
X379441Y323493D02*
X378941Y323993D01*
Y324993D01*
X379441Y325493D01*
X381440D01*
X381940Y324993D01*
Y323993D01*
X381440Y323493D01*
X379441D01*
X667310Y359220D02*
Y356554D01*
X665977Y355221D01*
X664644Y356554D01*
Y359220D01*
Y357221D01*
X667310D01*
X659940Y354320D02*
Y351654D01*
X658607Y350321D01*
X657274Y351654D01*
Y354320D01*
Y352321D01*
X659940D01*
X660657Y332187D02*
X659701Y329698D01*
X657979Y328932D01*
X657213Y330654D01*
X658168Y333142D01*
X657451Y331276D01*
X659940Y330321D01*
X660300Y360521D02*
Y364520D01*
X658301D01*
X657634Y363854D01*
Y363187D01*
X658301Y362521D01*
X660300D01*
X658301D01*
X657634Y361854D01*
Y361188D01*
X658301Y360521D01*
X660300D01*
X667670Y365721D02*
Y369720D01*
X665671D01*
X665004Y369054D01*
Y368387D01*
X665671Y367721D01*
X667670D01*
X665671D01*
X665004Y367054D01*
Y366388D01*
X665671Y365721D01*
X667670D01*
X660300Y339021D02*
Y343020D01*
X658301D01*
X657634Y342354D01*
Y341687D01*
X658301Y341021D01*
X660300D01*
X658301D01*
X657634Y340354D01*
Y339688D01*
X658301Y339021D01*
X660300D01*
X662666Y375352D02*
X661999Y376019D01*
X660666D01*
X660000Y375352D01*
Y372687D01*
X660666Y372020D01*
X661999D01*
X662666Y372687D01*
Y374019D01*
X661333D01*
X663999Y372020D02*
Y376019D01*
X666665Y372020D01*
Y376019D01*
X667997D02*
Y372020D01*
X669997D01*
X670663Y372687D01*
Y375352D01*
X669997Y376019D01*
X667997D01*
X658556Y348152D02*
X657889Y348819D01*
X656557D01*
X655890Y348152D01*
Y345486D01*
X656557Y344820D01*
X657889D01*
X658556Y345486D01*
X659889Y344820D02*
Y347486D01*
X661222Y348819D01*
X662555Y347486D01*
Y344820D01*
Y346819D01*
X659889D01*
X663887Y344820D02*
Y348819D01*
X666553Y344820D01*
Y348819D01*
X667886D02*
Y344820D01*
Y346819D01*
X670552D01*
Y348819D01*
Y344820D01*
X658926Y336832D02*
X658259Y337499D01*
X656926D01*
X656260Y336832D01*
Y334166D01*
X656926Y333500D01*
X658259D01*
X658926Y334166D01*
X660259Y333500D02*
Y336166D01*
X661592Y337499D01*
X662924Y336166D01*
Y333500D01*
Y335499D01*
X660259D01*
X664257Y333500D02*
Y337499D01*
X666923Y333500D01*
Y337499D01*
X668256D02*
Y333500D01*
X670922D01*
X659940Y243520D02*
Y240854D01*
X658607Y239521D01*
X657274Y240854D01*
Y243520D01*
Y241521D01*
X659940D01*
X660300Y227621D02*
Y231620D01*
X658301D01*
X657634Y230954D01*
Y230287D01*
X658301Y229621D01*
X660300D01*
X658301D01*
X657634Y228954D01*
Y228288D01*
X658301Y227621D01*
X660300D01*
X662666Y197952D02*
X661999Y198619D01*
X660666D01*
X660000Y197952D01*
Y195286D01*
X660666Y194620D01*
X661999D01*
X662666Y195286D01*
Y196619D01*
X661333D01*
X663999Y194620D02*
Y198619D01*
X666665Y194620D01*
Y198619D01*
X667997D02*
Y194620D01*
X669997D01*
X670663Y195286D01*
Y197952D01*
X669997Y198619D01*
X667997D01*
X659940Y220920D02*
Y218254D01*
X658607Y216921D01*
X657274Y218254D01*
Y220920D01*
Y218921D01*
X659940D01*
X667310Y216800D02*
Y214134D01*
X665977Y212801D01*
X664644Y214134D01*
Y216800D01*
Y214801D01*
X667310D01*
X660300Y206201D02*
Y210200D01*
X658301D01*
X657634Y209534D01*
Y208867D01*
X658301Y208201D01*
X660300D01*
X658301D01*
X657634Y207534D01*
Y206868D01*
X658301Y206201D01*
X660300D01*
X667670Y201701D02*
Y205700D01*
X665671D01*
X665004Y205034D01*
Y204367D01*
X665671Y203701D01*
X667670D01*
X665671D01*
X665004Y203034D01*
Y202368D01*
X665671Y201701D01*
X667670D01*
X663750Y233720D02*
Y237719D01*
X666416Y233720D01*
Y237719D01*
X670414Y237052D02*
X669748Y237719D01*
X668415D01*
X667749Y237052D01*
Y234386D01*
X668415Y233720D01*
X669748D01*
X670414Y234386D01*
X663750Y221820D02*
Y225819D01*
X666416Y221820D01*
Y225819D01*
X670414Y225152D02*
X669748Y225819D01*
X668415D01*
X667749Y225152D01*
Y222486D01*
X668415Y221820D01*
X669748D01*
X670414Y222486D01*
X525781Y298679D02*
X525281Y298180D01*
Y297180D01*
X525781Y296680D01*
X527780D01*
X528280Y297180D01*
Y298180D01*
X527780Y298679D01*
X526781D01*
Y297680D01*
X528280Y299679D02*
X525281D01*
X528280Y301678D01*
X525281D01*
Y302678D02*
X528280D01*
Y304178D01*
X527780Y304677D01*
X525781D01*
X525281Y304178D01*
Y302678D01*
X170600Y339420D02*
Y341086D01*
Y340253D01*
X165602D01*
X166435Y339420D01*
X168101Y343585D02*
Y346918D01*
X170600Y351916D02*
Y348584D01*
X167268Y351916D01*
X166435D01*
X165602Y351083D01*
Y349417D01*
X166435Y348584D01*
X171433Y354415D02*
X170600Y355248D01*
X169767D01*
Y354415D01*
X170600D01*
Y355248D01*
X171433Y354415D01*
X172266Y353582D01*
X170600Y361080D02*
X165602D01*
X168101Y358580D01*
Y361913D01*
X167268Y363579D02*
X170600Y366911D01*
X168934Y365245D01*
X167268Y366911D01*
X170600Y363579D01*
X165602Y371909D02*
Y368577D01*
X168101D01*
X167268Y370243D01*
Y371076D01*
X168101Y371909D01*
X169767D01*
X170600Y371076D01*
Y369410D01*
X169767Y368577D01*
X167268Y373576D02*
Y374409D01*
X168101D01*
Y373576D01*
X167268D01*
X169767D02*
Y374409D01*
X170600D01*
Y373576D01*
X169767D01*
X165602Y377741D02*
X169767D01*
X170600Y378574D01*
Y380240D01*
X169767Y381073D01*
X165602D01*
X166435Y386072D02*
X165602Y385239D01*
Y383572D01*
X166435Y382739D01*
X167268D01*
X168101Y383572D01*
Y385239D01*
X168934Y386072D01*
X169767D01*
X170600Y385239D01*
Y383572D01*
X169767Y382739D01*
X165602Y387738D02*
X170600D01*
Y390237D01*
X169767Y391070D01*
X168934D01*
X168101Y390237D01*
Y387738D01*
Y390237D01*
X167268Y391070D01*
X166435D01*
X165602Y390237D01*
Y387738D01*
X171433Y392736D02*
Y396068D01*
X170600Y397734D02*
X165602D01*
Y400234D01*
X166435Y401067D01*
X168101D01*
X168934Y400234D01*
Y397734D01*
X165602Y402733D02*
X170600D01*
X168934Y404399D01*
X170600Y406065D01*
X165602D01*
X170600Y407731D02*
X165602D01*
Y410230D01*
X166435Y411063D01*
X168101D01*
X168934Y410230D01*
Y407731D01*
Y409397D02*
X170600Y411063D01*
X179030Y342652D02*
Y339320D01*
X175698Y342652D01*
X174865D01*
X174032Y341819D01*
Y340153D01*
X174865Y339320D01*
X176531Y344318D02*
Y347651D01*
X174865Y349317D02*
X174032Y350150D01*
Y351816D01*
X174865Y352649D01*
X175698D01*
X176531Y351816D01*
Y350983D01*
Y351816D01*
X177364Y352649D01*
X178197D01*
X179030Y351816D01*
Y350150D01*
X178197Y349317D01*
X179863Y355148D02*
X179030Y355981D01*
X178197D01*
Y355148D01*
X179030D01*
Y355981D01*
X179863Y355148D01*
X180696Y354315D01*
X179030Y361813D02*
X174032D01*
X176531Y359314D01*
Y362646D01*
Y364312D02*
Y367644D01*
X174032Y372642D02*
Y369310D01*
X176531D01*
X175698Y370976D01*
Y371810D01*
X176531Y372642D01*
X178197D01*
X179030Y371810D01*
Y370143D01*
X178197Y369310D01*
X175698Y374309D02*
Y375142D01*
X176531D01*
Y374309D01*
X175698D01*
X178197D02*
Y375142D01*
X179030D01*
Y374309D01*
X178197D01*
X174032Y380973D02*
Y379307D01*
X174865Y378474D01*
X178197D01*
X179030Y379307D01*
Y380973D01*
X178197Y381806D01*
X174865D01*
X174032Y380973D01*
Y383472D02*
Y386805D01*
Y385139D01*
X179030D01*
X174865Y391803D02*
X174032Y390970D01*
Y389304D01*
X174865Y388471D01*
X178197D01*
X179030Y389304D01*
Y390970D01*
X178197Y391803D01*
X176531D01*
Y390137D01*
X179863Y393469D02*
Y396801D01*
X174032Y400967D02*
Y399301D01*
X174865Y398467D01*
X178197D01*
X179030Y399301D01*
Y400967D01*
X178197Y401800D01*
X174865D01*
X174032Y400967D01*
X179030Y403466D02*
X174032D01*
X179030Y406798D01*
X174032D01*
X237400Y319770D02*
X236234D01*
X236817D01*
Y316271D01*
X237400Y316854D01*
X245067Y319770D02*
X247400D01*
X245067Y317437D01*
Y316854D01*
X245651Y316271D01*
X246817D01*
X247400Y316854D01*
X257400D02*
X256817Y316271D01*
X255651D01*
X255067Y316854D01*
Y317437D01*
X255651Y318021D01*
X256234D01*
X255651D01*
X255067Y318604D01*
Y319187D01*
X255651Y319770D01*
X256817D01*
X257400Y319187D01*
X225467Y273141D02*
X227800D01*
Y274891D01*
X226634Y274307D01*
X226051D01*
X225467Y274891D01*
Y276057D01*
X226051Y276640D01*
X227217D01*
X227800Y276057D01*
X227211Y287827D02*
X225204Y284961D01*
X227640Y285390D01*
X225730Y286728D01*
X288632Y154570D02*
X285300D01*
X288632Y157902D01*
Y158735D01*
X287799Y159568D01*
X286133D01*
X285300Y158735D01*
X293631Y159568D02*
X290298D01*
Y157069D01*
X291965Y157902D01*
X292798D01*
X293631Y157069D01*
Y155403D01*
X292798Y154570D01*
X291131D01*
X290298Y155403D01*
X295297Y154570D02*
Y159568D01*
X296963Y157902D01*
X298629Y159568D01*
Y154570D01*
X300295Y159568D02*
Y154570D01*
Y157069D01*
X303627D01*
Y159568D01*
Y154570D01*
X305293Y157902D02*
X308626D01*
X305293Y154570D01*
X308626D01*
X449566Y160689D02*
X448733D01*
X449150D01*
Y158607D01*
X448733Y158190D01*
X448316D01*
X447900Y158607D01*
X452065Y160689D02*
X450399D01*
Y159440D01*
X451232Y159856D01*
X451649D01*
X452065Y159440D01*
Y158607D01*
X451649Y158190D01*
X450816D01*
X450399Y158607D01*
X452898Y160689D02*
Y159023D01*
X453731Y158190D01*
X454565Y159023D01*
Y160689D01*
X459066Y160273D02*
X458650Y160689D01*
X457817D01*
X457400Y160273D01*
Y158607D01*
X457817Y158190D01*
X458650D01*
X459066Y158607D01*
Y159440D01*
X458233D01*
X459899Y158190D02*
Y160689D01*
X461565Y158190D01*
Y160689D01*
X462398D02*
Y158190D01*
X463648D01*
X464065Y158607D01*
Y160273D01*
X463648Y160689D01*
X462398D01*
X480366Y160273D02*
X479950Y160689D01*
X479116D01*
X478700Y160273D01*
Y158607D01*
X479116Y158190D01*
X479950D01*
X480366Y158607D01*
Y159440D01*
X479533D01*
X481199Y158190D02*
Y160689D01*
X482865Y158190D01*
Y160689D01*
X483698D02*
Y158190D01*
X484948D01*
X485364Y158607D01*
Y160273D01*
X484948Y160689D01*
X483698D01*
X325300Y239689D02*
X326966D01*
X326133D01*
Y237190D01*
X327799Y239689D02*
X329465Y237190D01*
Y239689D02*
X327799Y237190D01*
X330298Y239689D02*
Y237190D01*
X331548D01*
X331964Y237607D01*
Y239273D01*
X331548Y239689D01*
X330298D01*
X334464Y237190D02*
X332798D01*
X334464Y238856D01*
Y239273D01*
X334047Y239689D01*
X333214D01*
X332798Y239273D01*
X330300Y244689D02*
X331966D01*
X331133D01*
Y242190D01*
X332799Y244689D02*
X334465Y242190D01*
Y244689D02*
X332799Y242190D01*
X335298Y244689D02*
Y242190D01*
X336548D01*
X336965Y242606D01*
Y244273D01*
X336548Y244689D01*
X335298D01*
X337798Y244273D02*
X338214Y244689D01*
X339047D01*
X339464Y244273D01*
Y243856D01*
X339047Y243440D01*
X338631D01*
X339047D01*
X339464Y243023D01*
Y242606D01*
X339047Y242190D01*
X338214D01*
X337798Y242606D01*
X467800Y157660D02*
Y160659D01*
X469300D01*
X469799Y160159D01*
Y159160D01*
X469300Y158660D01*
X467800D01*
X468800D02*
X469799Y157660D01*
X472798Y160659D02*
X470799D01*
Y157660D01*
X472798D01*
X470799Y159160D02*
X471799D01*
X475797Y160659D02*
X473798D01*
Y159160D01*
X474798D01*
X473798D01*
Y157660D01*
X606960Y370983D02*
Y368650D01*
X604627Y370983D01*
X604044D01*
X603461Y370399D01*
Y369233D01*
X604044Y368650D01*
X603461Y372149D02*
X605794D01*
X606960Y373315D01*
X605794Y374481D01*
X603461D01*
Y375648D02*
Y376814D01*
Y376231D01*
X606960D01*
Y375648D01*
Y376814D01*
Y378563D02*
X603461D01*
X606960Y380896D01*
X603461D01*
X587133Y380556D02*
X586549Y381139D01*
X585383D01*
X584800Y380556D01*
Y378223D01*
X585383Y377640D01*
X586549D01*
X587133Y378223D01*
Y379389D01*
X585966D01*
X588299Y377640D02*
Y381139D01*
X590631Y377640D01*
Y381139D01*
X591798D02*
Y377640D01*
X593547D01*
X594130Y378223D01*
Y380556D01*
X593547Y381139D01*
X591798D01*
X531041Y308639D02*
X530541Y308139D01*
Y307140D01*
X531041Y306640D01*
X531541D01*
X532041Y307140D01*
Y308139D01*
X532540Y308639D01*
X533040D01*
X533540Y308139D01*
Y307140D01*
X533040Y306640D01*
X531041Y311638D02*
X530541Y311139D01*
Y310139D01*
X531041Y309639D01*
X533040D01*
X533540Y310139D01*
Y311139D01*
X533040Y311638D01*
X530541Y312638D02*
X533540D01*
X532540D01*
X530541Y314637D01*
X532041Y313138D01*
X533540Y314637D01*
X459200Y232259D02*
Y229260D01*
X460700D01*
X461199Y229760D01*
Y231759D01*
X460700Y232259D01*
X459200D01*
X462199Y229260D02*
Y232259D01*
X463199Y231259D01*
X464198Y232259D01*
Y229260D01*
X465198D02*
X466198D01*
X465698D01*
Y232259D01*
X465198Y231759D01*
D16*
X534600Y306600D02*
Y314600D01*
X523500Y306500D02*
Y315500D01*
D17*
X163300Y433700D02*
X391550D01*
X474550D02*
X702800D01*
X163300D02*
X168300Y430700D01*
X163300Y433700D02*
X168300Y436700D01*
X697800Y430700D02*
X702800Y433700D01*
X697800Y436700D02*
X702800Y433700D01*
X393550Y437340D02*
X394460Y437790D01*
X395820Y439150D01*
Y429610D02*
Y439150D01*
X399730D02*
X404730D01*
X402000Y435520D02*
X404730Y439150D01*
X402000Y435520D02*
X403370D01*
X404280Y435060D01*
X404730Y434610D01*
X405190Y433250D01*
Y432340D02*
Y433250D01*
X404730Y430970D02*
X405190Y432340D01*
X403820Y430060D02*
X404730Y430970D01*
X402460Y429610D02*
X403820Y430060D01*
X401100Y429610D02*
X402460D01*
X399730Y430060D02*
X401100Y429610D01*
X399280Y430520D02*
X399730Y430060D01*
X398820Y431430D02*
X399280Y430520D01*
X410000Y429610D02*
X414550Y439150D01*
X408190D02*
X414550D01*
X417550Y431430D02*
X418000Y431880D01*
X417550Y431430D02*
X418000Y430970D01*
X418460Y431430D01*
X418000Y431880D02*
X418460Y431430D01*
X422820Y438700D02*
X424190Y439150D01*
X421910Y437340D02*
X422820Y438700D01*
X421460Y435060D02*
X421910Y437340D01*
X421460Y433700D02*
Y435060D01*
Y433700D02*
X421910Y431430D01*
X422820Y430060D01*
X424190Y429610D01*
X425100D01*
X426460Y430060D01*
X427370Y431430D01*
X427820Y433700D01*
Y435060D01*
X427370Y437340D02*
X427820Y435060D01*
X426460Y438700D02*
X427370Y437340D01*
X425100Y439150D02*
X426460Y438700D01*
X424190Y439150D02*
X425100D01*
X431730D02*
X436730D01*
X434000Y435520D02*
X436730Y439150D01*
X434000Y435520D02*
X435370D01*
X436280Y435060D01*
X436730Y434610D01*
X437190Y433250D01*
Y432340D02*
Y433250D01*
X436730Y430970D02*
X437190Y432340D01*
X435820Y430060D02*
X436730Y430970D01*
X434460Y429610D02*
X435820Y430060D01*
X433100Y429610D02*
X434460D01*
X431730Y430060D02*
X433100Y429610D01*
X431280Y430520D02*
X431730Y430060D01*
X430820Y431430D02*
X431280Y430520D01*
X441100Y439150D02*
X446100D01*
X443370Y435520D02*
X446100Y439150D01*
X443370Y435520D02*
X444730D01*
X445640Y435060D01*
X446100Y434610D01*
X446550Y433250D01*
Y432340D02*
Y433250D01*
X446100Y430970D02*
X446550Y432340D01*
X445190Y430060D02*
X446100Y430970D01*
X443820Y429610D02*
X445190Y430060D01*
X442460Y429610D02*
X443820D01*
X441100Y430060D02*
X442460Y429610D01*
X440640Y430520D02*
X441100Y430060D01*
X440190Y431430D02*
X440640Y430520D01*
X449550Y429610D02*
Y435970D01*
Y434150D02*
X450910Y435520D01*
X451820Y435970D01*
X453190D01*
X454100Y435520D01*
X454550Y434150D01*
Y429610D02*
Y434150D01*
X455910Y435520D01*
X456820Y435970D01*
X458190D01*
X459100Y435520D01*
X459550Y434150D01*
Y429610D02*
Y434150D01*
X462550Y429610D02*
Y435970D01*
Y434150D02*
X463910Y435520D01*
X464820Y435970D01*
X466190D01*
X467100Y435520D01*
X467550Y434150D01*
Y429610D02*
Y434150D01*
X468910Y435520D01*
X469820Y435970D01*
X471190D01*
X472100Y435520D01*
X472550Y434150D01*
Y429610D02*
Y434150D01*
X764300Y417700D02*
X764478Y322586D01*
X764622Y245314D02*
X764800Y150200D01*
X761309Y412694D02*
X764300Y417700D01*
X767309Y412706D01*
X761791Y155194D02*
X764800Y150200D01*
X767791Y155206D01*
X768585Y315142D02*
X769495Y315593D01*
X769942Y316964D01*
X769940Y317864D02*
X769942Y316964D01*
X769488Y319233D02*
X769940Y317864D01*
X768116Y320141D02*
X769488Y319233D01*
X765845Y320587D02*
X768116Y320141D01*
X763575Y320582D02*
X765845Y320587D01*
X761756Y320129D02*
X763575Y320582D01*
X760848Y319217D02*
X761756Y320129D01*
X760400Y317846D02*
X760848Y319217D01*
X760400Y317846D02*
X760401Y317396D01*
X760854Y316037D01*
X761765Y315129D01*
X763126Y314671D01*
X763586Y314672D01*
X764945Y315135D01*
X765854Y316047D01*
X766301Y317407D01*
X766300Y317858D02*
X766301Y317407D01*
X765848Y319227D02*
X766300Y317858D01*
X764936Y320135D02*
X765848Y319227D01*
X763575Y320582D02*
X764936Y320135D01*
X760415Y309846D02*
X769964Y305324D01*
X769952Y311684D02*
X769964Y305324D01*
X762239Y302310D02*
X762700Y301851D01*
X761790Y301849D02*
X762239Y302310D01*
X761790Y301849D02*
X762241Y301400D01*
X762700Y301851D01*
X765447Y292956D02*
X766808Y292498D01*
X764535Y293854D02*
X765447Y292956D01*
X764073Y295223D02*
X764535Y293854D01*
X764072Y295673D02*
X764073Y295223D01*
X764072Y295673D02*
X764529Y297044D01*
X765438Y297956D01*
X766797Y298408D01*
X767247Y298409D01*
X768617Y297962D01*
X769529Y297054D01*
X769982Y295684D01*
X769983Y295234D01*
X769535Y293864D02*
X769983Y295234D01*
X768627Y292962D02*
X769535Y293864D01*
X766808Y292498D02*
X768627Y292962D01*
X764538Y292494D02*
X766808Y292498D01*
X762257Y292950D02*
X764538Y292494D01*
X760895Y293847D02*
X762257Y292950D01*
X760443Y295216D02*
X760895Y293847D01*
X760441Y296127D02*
X760443Y295216D01*
X760441Y296127D02*
X760888Y297487D01*
X761798Y297949D01*
X763633Y289492D02*
X770002Y284964D01*
X763633Y289492D02*
X763646Y282673D01*
X760462Y284946D02*
X770002Y284964D01*
X770013Y278774D02*
X770022Y274234D01*
X765922Y279227D02*
X770013Y278774D01*
X765922Y279227D02*
X766373Y278767D01*
X766836Y277408D01*
X766839Y276048D01*
X766381Y274678D02*
X766839Y276048D01*
X765483Y273766D02*
X766381Y274678D01*
X764114Y273313D02*
X765483Y273766D01*
X763204Y273312D02*
X764114Y273313D01*
X761843Y273759D02*
X763204Y273312D01*
X760931Y274667D02*
X761843Y273759D01*
X760478Y276037D02*
X760931Y274667D01*
X760476Y277396D02*
X760478Y276037D01*
X760476Y277396D02*
X760923Y278757D01*
X761373Y279218D01*
X762282Y279670D01*
X760489Y270306D02*
X766849Y270318D01*
X765029Y270315D02*
X766392Y268958D01*
X766853Y268048D01*
X766856Y266678D01*
X766398Y265768D02*
X766856Y266678D01*
X765038Y265315D02*
X766398Y265768D01*
X760499Y265306D02*
X765038Y265315D01*
X766401Y263958D01*
X766863Y263048D01*
X766865Y261678D01*
X766407Y260768D02*
X766865Y261678D01*
X765048Y260315D02*
X766407Y260768D01*
X760508Y260307D02*
X765048Y260315D01*
X760513Y257307D02*
X766874Y257318D01*
X765054Y257315D02*
X766416Y255958D01*
X766878Y255048D01*
X766880Y253678D01*
X766422Y252768D02*
X766880Y253678D01*
X765063Y252315D02*
X766422Y252768D01*
X760523Y252307D02*
X765063Y252315D01*
X766425Y250958D01*
X766887Y250048D01*
X766890Y248678D01*
X766431Y247768D02*
X766890Y248678D01*
X765072Y247315D02*
X766431Y247768D01*
X760532Y247307D02*
X765072Y247315D01*
X460025Y254103D02*
X479705D01*
X460019Y263167D02*
X479709D01*
X479705Y254103D02*
Y263153D01*
X460025Y254103D02*
Y263153D01*
D18*
X466193Y259029D02*
X467768D01*
X468161Y254698D02*
Y262966D01*
X469342Y255092D02*
Y262572D01*
Y255092D02*
X470917D01*
Y262572D01*
X469342D02*
X470917D01*
X472098Y254698D02*
Y262966D01*
X472492Y259029D02*
X473673D01*
D19*
X241450Y182340D02*
X254840D01*
Y175260D02*
Y182340D01*
X241450Y175260D02*
X254840D01*
X241450D02*
Y182340D01*
X227260Y168450D02*
Y181840D01*
X234340D01*
Y168450D02*
Y181840D01*
X227260Y168450D02*
X234340D01*
X241761Y187257D02*
X255146D01*
X241761D02*
Y194343D01*
X255146D01*
Y187257D02*
Y194343D01*
X268170Y196466D02*
Y209851D01*
X275256D01*
Y196466D02*
Y209851D01*
X268170Y196466D02*
X275256D01*
X250466Y206420D02*
X263851D01*
Y199334D02*
Y206420D01*
X250466Y199334D02*
X263851D01*
X250466D02*
Y206420D01*
X248170Y210970D02*
Y224350D01*
X255260D01*
Y210970D02*
Y224350D01*
X248170Y210970D02*
X255260D01*
X363080Y326620D02*
X376470D01*
Y319540D02*
Y326620D01*
X363080Y319540D02*
X376470D01*
X363080D02*
Y326620D01*
X422930Y252800D02*
Y266190D01*
X430010D01*
Y252800D02*
Y266190D01*
X422930Y252800D02*
X430010D01*
X447510Y252810D02*
Y266200D01*
X454590D01*
Y252810D02*
Y266200D01*
X447510Y252810D02*
X454590D01*
X465640Y303800D02*
X479030D01*
X465640D02*
Y310880D01*
X479030D01*
Y303800D02*
Y310880D01*
X465640Y331350D02*
X479030D01*
X465640D02*
Y338430D01*
X479030D01*
Y331350D02*
Y338430D01*
X414260Y358450D02*
Y371840D01*
X421340D01*
Y358450D02*
Y371840D01*
X414260Y358450D02*
X421340D01*
X369780Y281350D02*
Y294740D01*
X376860D01*
Y281350D02*
Y294740D01*
X369780Y281350D02*
X376860D01*
X465200Y286260D02*
Y299650D01*
X472280D01*
Y286260D02*
Y299650D01*
X465200Y286260D02*
X472280D01*
X636307Y168184D02*
Y181569D01*
X643393D01*
Y168184D02*
Y181569D01*
X636307Y168184D02*
X643393D01*
X362260Y300950D02*
Y314340D01*
X369340D01*
Y300950D02*
Y314340D01*
X362260Y300950D02*
X369340D01*
X609537Y260680D02*
Y275640D01*
X601663Y260680D02*
X609537D01*
X601663D02*
Y275640D01*
X609537D01*
X606860Y217060D02*
Y232020D01*
X614740D01*
Y217060D02*
Y232020D01*
X606860Y217060D02*
X614740D01*
X619580Y216860D02*
X634540D01*
X619580D02*
Y224740D01*
X634540D01*
Y216860D02*
Y224740D01*
X619970Y267970D02*
X634930D01*
X619970D02*
Y275850D01*
X634930D01*
Y267970D02*
Y275850D01*
X615840Y351760D02*
Y365150D01*
X608760Y351760D02*
X615840D01*
X608760D02*
Y365150D01*
X615840D01*
X616053Y287441D02*
Y300826D01*
X608967Y287441D02*
X616053D01*
X608967D02*
Y300826D01*
X616053D01*
X578821Y262447D02*
X592206D01*
X578821D02*
Y269533D01*
X592206D01*
Y262447D02*
Y269533D01*
X256340Y229260D02*
Y242650D01*
X249260Y229260D02*
X256340D01*
X249260D02*
Y242650D01*
X256340D01*
X358340Y184760D02*
Y198150D01*
X351260Y184760D02*
X358340D01*
X351260D02*
Y198150D01*
X358340D01*
X371760Y159450D02*
Y172840D01*
X378840D01*
Y159450D02*
Y172840D01*
X371760Y159450D02*
X378840D01*
X356260D02*
Y172840D01*
X363340D01*
Y159450D02*
Y172840D01*
X356260Y159450D02*
X363340D01*
X257470Y173320D02*
X270850D01*
Y166240D02*
Y173320D01*
X257470Y166240D02*
X270850D01*
X257470D02*
Y173320D01*
X319750Y166290D02*
X333140D01*
X319750D02*
Y173380D01*
X333140D01*
Y166290D02*
Y173380D01*
X279340Y228760D02*
Y242150D01*
X272260Y228760D02*
X279340D01*
X272260D02*
Y242150D01*
X279340D01*
X260457Y248724D02*
Y262109D01*
X267543D01*
Y248724D02*
Y262109D01*
X260457Y248724D02*
X267543D01*
X251933Y249121D02*
Y262506D01*
X244847Y249121D02*
X251933D01*
X244847D02*
Y262506D01*
X251933D01*
X323517Y248894D02*
Y262279D01*
X330603D01*
Y248894D02*
Y262279D01*
X323517Y248894D02*
X330603D01*
X307907Y248854D02*
Y262239D01*
X314993D01*
Y248854D02*
Y262239D01*
X307907Y248854D02*
X314993D01*
X334740Y218170D02*
X348130D01*
X334740D02*
Y225250D01*
X348130D01*
Y218170D02*
Y225250D01*
X333150Y212230D02*
X348110D01*
Y203570D02*
Y212230D01*
X333150Y203570D02*
X348110D01*
X333150D02*
Y212230D01*
X268130Y227580D02*
Y242540D01*
X259470Y227580D02*
X268130D01*
X259470D02*
Y242540D01*
X268130D01*
X333750Y191520D02*
X347140D01*
X333750D02*
Y198600D01*
X347140D01*
Y191520D02*
Y198600D01*
X635720Y188440D02*
Y203400D01*
X644380D01*
Y188440D02*
Y203400D01*
X635720Y188440D02*
X644380D01*
X292080Y248870D02*
Y262260D01*
X299160D01*
Y248870D02*
Y262260D01*
X292080Y248870D02*
X299160D01*
X276307Y248854D02*
Y262239D01*
X283393D01*
Y248854D02*
Y262239D01*
X276307Y248854D02*
X283393D01*
X511713Y348571D02*
Y361956D01*
X504627Y348571D02*
X511713D01*
X504627D02*
Y361956D01*
X511713D01*
X304033Y350441D02*
Y363826D01*
X296947Y350441D02*
X304033D01*
X296947D02*
Y363826D01*
X304033D01*
X509930Y187650D02*
X523320D01*
X509930D02*
Y194730D01*
X523320D01*
Y187650D02*
Y194730D01*
X536300Y194740D02*
X549690D01*
Y187660D02*
Y194740D01*
X536300Y187660D02*
X549690D01*
X536300D02*
Y194740D01*
X181600Y372650D02*
Y392810D01*
Y372650D02*
X270570D01*
Y412810D01*
X181600D02*
X270570D01*
X181600Y392810D02*
Y412810D01*
X264650Y353400D02*
Y366790D01*
X257570Y353400D02*
X264650D01*
X257570D02*
Y366790D01*
X264650D01*
X253840Y353400D02*
Y366790D01*
X246760Y353400D02*
X253840D01*
X246760D02*
Y366790D01*
X253840D01*
X244000Y353400D02*
Y366790D01*
X236920Y353400D02*
X244000D01*
X236920D02*
Y366790D01*
X244000D01*
X234150Y353400D02*
Y366790D01*
X227070Y353400D02*
X234150D01*
X227070D02*
Y366790D01*
X234150D01*
X224350Y353400D02*
Y366790D01*
X217270Y353400D02*
X224350D01*
X217270D02*
Y366790D01*
X224350D01*
X214470Y353400D02*
Y366790D01*
X207390Y353400D02*
X214470D01*
X207390D02*
Y366790D01*
X214470D01*
X204630Y353400D02*
Y366790D01*
X197550Y353400D02*
X204630D01*
X197550D02*
Y366790D01*
X204630D01*
X194780Y353400D02*
Y366790D01*
X187700Y353400D02*
X194780D01*
X187700D02*
Y366790D01*
X194780D01*
X503260Y218950D02*
Y232340D01*
X510340D01*
Y218950D02*
Y232340D01*
X503260Y218950D02*
X510340D01*
X609450Y315340D02*
X622840D01*
Y308260D02*
Y315340D01*
X609450Y308260D02*
X622840D01*
X609450D02*
Y315340D01*
X333760Y376660D02*
X347150D01*
X333760D02*
Y383740D01*
X347150D01*
Y376660D02*
Y383740D01*
X350760Y376660D02*
X364150D01*
X350760D02*
Y383740D01*
X364150D01*
Y376660D02*
Y383740D01*
X210970Y167560D02*
Y182520D01*
X219630D01*
Y167560D02*
Y182520D01*
X210970Y167560D02*
X219630D01*
X198340Y168760D02*
Y182150D01*
X191260Y168760D02*
X198340D01*
X191260D02*
Y182150D01*
X198340D01*
X435750Y242840D02*
X449140D01*
Y235760D02*
Y242840D01*
X435750Y235760D02*
X449140D01*
X435750D02*
Y242840D01*
D20*
X222840Y256190D02*
X227310D01*
Y262410D01*
X222840D02*
X227310D01*
X215230D02*
X219690D01*
X215230Y256190D02*
Y262410D01*
Y256190D02*
X219690D01*
X476040Y271390D02*
X480510D01*
Y277610D01*
X476040D02*
X480510D01*
X468430D02*
X472890D01*
X468430Y271390D02*
Y277610D01*
Y271390D02*
X472890D01*
X354460Y281587D02*
Y286055D01*
Y281587D02*
X360680D01*
Y286055D01*
Y289205D02*
Y293673D01*
X354460D02*
X360680D01*
X354460Y289205D02*
Y293673D01*
X337750Y274780D02*
Y279240D01*
Y274780D02*
X343970D01*
Y279240D01*
Y282390D02*
Y286860D01*
X337750D02*
X343970D01*
X337750Y282390D02*
Y286860D01*
X292450Y301280D02*
Y305740D01*
Y301280D02*
X298670D01*
Y305740D01*
Y308890D02*
Y313360D01*
X292450D02*
X298670D01*
X292450Y308890D02*
Y313360D01*
X298670Y291210D02*
Y295680D01*
X292450D02*
X298670D01*
X292450Y291210D02*
Y295680D01*
Y283600D02*
Y288060D01*
Y283600D02*
X298670D01*
Y288060D01*
X282900Y291210D02*
Y295680D01*
X276680D02*
X282900D01*
X276680Y291210D02*
Y295680D01*
Y283600D02*
Y288060D01*
Y283600D02*
X282900D01*
Y288060D01*
X276680Y301280D02*
Y305740D01*
Y301280D02*
X282900D01*
Y305740D01*
Y308890D02*
Y313360D01*
X276680D02*
X282900D01*
X276680Y308890D02*
Y313360D01*
X323890Y301280D02*
Y305740D01*
Y301280D02*
X330110D01*
Y305740D01*
Y308890D02*
Y313360D01*
X323890D02*
X330110D01*
X323890Y308890D02*
Y313360D01*
X330110Y291210D02*
Y295680D01*
X323890D02*
X330110D01*
X323890Y291210D02*
Y295680D01*
Y283600D02*
Y288060D01*
Y283600D02*
X330110D01*
Y288060D01*
X314490Y291210D02*
Y295680D01*
X308270D02*
X314490D01*
X308270Y291210D02*
Y295680D01*
Y283600D02*
Y288060D01*
Y283600D02*
X314490D01*
Y288060D01*
X308270Y301280D02*
Y305740D01*
Y301280D02*
X314490D01*
Y305740D01*
Y308890D02*
Y313360D01*
X308270D02*
X314490D01*
X308270Y308890D02*
Y313360D01*
X209780Y329150D02*
X214250D01*
X209780Y322930D02*
Y329150D01*
Y322930D02*
X214250D01*
X217400D02*
X221860D01*
Y329150D01*
X217400D02*
X221860D01*
X346910Y167840D02*
Y172310D01*
X340690D02*
X346910D01*
X340690Y167840D02*
Y172310D01*
Y160230D02*
Y164690D01*
Y160230D02*
X346910D01*
Y164690D01*
X364790Y190910D02*
X369250D01*
X364790Y184690D02*
Y190910D01*
Y184690D02*
X369250D01*
X372400D02*
X376870D01*
Y190910D01*
X372400D02*
X376870D01*
X315870Y267850D02*
X320330D01*
Y274070D01*
X315870D02*
X320330D01*
X308250D02*
X312720D01*
X308250Y267850D02*
Y274070D01*
Y267850D02*
X312720D01*
X315160Y191340D02*
X319630D01*
X315160Y185120D02*
Y191340D01*
Y185120D02*
X319630D01*
X322780D02*
X327240D01*
Y191340D01*
X322780D02*
X327240D01*
X358850Y237690D02*
X363310D01*
Y243910D01*
X358850D02*
X363310D01*
X351230D02*
X355700D01*
X351230Y237690D02*
Y243910D01*
Y237690D02*
X355700D01*
X267550Y291640D02*
Y296110D01*
X261330D02*
X267550D01*
X261330Y291640D02*
Y296110D01*
Y284030D02*
Y288490D01*
Y284030D02*
X267550D01*
Y288490D01*
X261320Y301320D02*
Y305780D01*
Y301320D02*
X267540D01*
Y305780D01*
Y308930D02*
Y313400D01*
X261320D02*
X267540D01*
X261320Y308930D02*
Y313400D01*
X344050Y295490D02*
X348510D01*
Y301710D01*
X344050D02*
X348510D01*
X336430D02*
X340900D01*
X336430Y295490D02*
Y301710D01*
Y295490D02*
X340900D01*
X350350Y303690D02*
X354810D01*
Y309910D01*
X350350D02*
X354810D01*
X342730D02*
X347200D01*
X342730Y303690D02*
Y309910D01*
Y303690D02*
X347200D01*
D21*
X223300Y270300D02*
Y282800D01*
X240650Y331030D02*
X263150D01*
X412700Y254800D02*
Y267300D01*
D22*
X394970Y335890D02*
X444190D01*
X394970Y286670D02*
Y335890D01*
Y286670D02*
X444190D01*
Y335890D01*
D23*
X649890Y315330D02*
Y319930D01*
Y316930D02*
X651390D01*
X649890Y319930D02*
X651390Y316930D01*
X649890Y319930D02*
X651390D01*
X648390Y316930D02*
X649890D01*
X648390D02*
X649890Y319930D01*
X648390D02*
X649890D01*
Y320130D02*
Y324330D01*
X648390Y322930D02*
X649890D01*
X648390D02*
X649890Y319930D01*
Y322930D02*
X651390D01*
X649890Y319930D02*
X651390Y322930D01*
X630800Y336000D02*
Y340600D01*
X629300Y339000D02*
X630800D01*
X629300D02*
X630800Y336000D01*
X629300D02*
X630800D01*
Y339000D02*
X632300D01*
X630800Y336000D02*
X632300Y339000D01*
X630800Y336000D02*
X632300D01*
X630800Y331600D02*
Y335800D01*
Y333000D02*
X632300D01*
X630800Y336000D02*
X632300Y333000D01*
X629300D02*
X630800D01*
X629300D02*
X630800Y336000D01*
X649890Y351830D02*
Y356430D01*
X648390Y354830D02*
X649890D01*
X648390D02*
X649890Y351830D01*
X648390D02*
X649890D01*
Y354830D02*
X651390D01*
X649890Y351830D02*
X651390Y354830D01*
X649890Y351830D02*
X651390D01*
X649890Y347430D02*
Y351630D01*
Y348830D02*
X651390D01*
X649890Y351830D02*
X651390Y348830D01*
X648390D02*
X649890D01*
X648390D02*
X649890Y351830D01*
X630800Y246000D02*
Y250600D01*
X629300Y249000D02*
X630800D01*
X629300D02*
X630800Y246000D01*
X629300D02*
X630800D01*
Y249000D02*
X632300D01*
X630800Y246000D02*
X632300Y249000D01*
X630800Y246000D02*
X632300D01*
X630800Y241600D02*
Y245800D01*
Y243000D02*
X632300D01*
X630800Y246000D02*
X632300Y243000D01*
X629300D02*
X630800D01*
X629300D02*
X630800Y246000D01*
X649890Y225760D02*
Y230360D01*
Y227360D02*
X651390D01*
X649890Y230360D02*
X651390Y227360D01*
X649890Y230360D02*
X651390D01*
X648390Y227360D02*
X649890D01*
X648390D02*
X649890Y230360D01*
X648390D02*
X649890D01*
Y230560D02*
Y234760D01*
X648390Y233360D02*
X649890D01*
X648390D02*
X649890Y230360D01*
Y233360D02*
X651390D01*
X649890Y230360D02*
X651390Y233360D01*
X649890Y262260D02*
Y266860D01*
X648390Y265260D02*
X649890D01*
X648390D02*
X649890Y262260D01*
X648390D02*
X649890D01*
Y265260D02*
X651390D01*
X649890Y262260D02*
X651390Y265260D01*
X649890Y262260D02*
X651390D01*
X649890Y257860D02*
Y262060D01*
Y259260D02*
X651390D01*
X649890Y262260D02*
X651390Y259260D01*
X648390D02*
X649890D01*
X648390D02*
X649890Y262260D01*
X649300Y389430D02*
Y394430D01*
Y390430D02*
X650800D01*
X649300Y393430D02*
X650800Y390430D01*
X649300Y393430D02*
X650800D01*
X647800Y390430D02*
X649300D01*
X647800D02*
X649300Y393430D01*
X647800D02*
X649300D01*
X569190Y357610D02*
Y362610D01*
Y358610D02*
X570690D01*
X569190Y361610D02*
X570690Y358610D01*
X569190Y361610D02*
X570690D01*
X567690Y358610D02*
X569190D01*
X567690D02*
X569190Y361610D01*
X567690D02*
X569190D01*
X343800Y359930D02*
Y364930D01*
Y360930D02*
X345300D01*
X343800Y363930D02*
X345300Y360930D01*
X343800Y363930D02*
X345300D01*
X342300Y360930D02*
X343800D01*
X342300D02*
X343800Y363930D01*
X342300D02*
X343800D01*
X238160Y303170D02*
Y308170D01*
Y304170D02*
X239660D01*
X238160Y307170D02*
X239660Y304170D01*
X238160Y307170D02*
X239660D01*
X236660Y304170D02*
X238160D01*
X236660D02*
X238160Y307170D01*
X236660D02*
X238160D01*
X551900Y310530D02*
Y315530D01*
Y311530D02*
X553400D01*
X551900Y314530D02*
X553400Y311530D01*
X551900Y314530D02*
X553400D01*
X550400Y311530D02*
X551900D01*
X550400D02*
X551900Y314530D01*
X550400D02*
X551900D01*
X396960Y188350D02*
Y193350D01*
Y189350D02*
X398460D01*
X396960Y192350D02*
X398460Y189350D01*
X396960Y192350D02*
X398460D01*
X395460Y189350D02*
X396960D01*
X395460D02*
X396960Y192350D01*
X395460D02*
X396960D01*
X630800Y375500D02*
Y380100D01*
X629300Y378500D02*
X630800D01*
X629300D02*
X630800Y375500D01*
X629300D02*
X630800D01*
Y378500D02*
X632300D01*
X630800Y375500D02*
X632300Y378500D01*
X630800Y375500D02*
X632300D01*
X630800Y371100D02*
Y375300D01*
Y372500D02*
X632300D01*
X630800Y375500D02*
X632300Y372500D01*
X629300D02*
X630800D01*
X629300D02*
X630800Y375500D01*
X551800Y277930D02*
Y282930D01*
Y278930D02*
X553300D01*
X551800Y281930D02*
X553300Y278930D01*
X551800Y281930D02*
X553300D01*
X550300Y278930D02*
X551800D01*
X550300D02*
X551800Y281930D01*
X550300D02*
X551800D01*
X612300Y389430D02*
Y394430D01*
Y390430D02*
X613800D01*
X612300Y393430D02*
X613800Y390430D01*
X612300Y393430D02*
X613800D01*
X610800Y390430D02*
X612300D01*
X610800D02*
X612300Y393430D01*
X610800D02*
X612300D01*
D24*
X515830Y365560D02*
Y371470D01*
Y365560D02*
X556770D01*
Y371470D01*
X307680Y359990D02*
X334060D01*
X307680D02*
Y372780D01*
X334060D01*
Y359990D02*
Y372780D01*
X620800Y405300D02*
X640800D01*
X620800Y395300D02*
Y405300D01*
Y395300D02*
X640800D01*
Y405300D01*
D25*
X509700Y181260D02*
X511699D01*
X510700Y182259D02*
Y180260D01*
X514698Y182759D02*
X512699D01*
Y181260D01*
X513699Y181759D01*
X514198D01*
X514698Y181260D01*
Y180260D01*
X514198Y179760D01*
X513199D01*
X512699Y180260D01*
X515698Y182759D02*
Y180760D01*
X516698Y179760D01*
X517697Y180760D01*
Y182759D01*
X519690D02*
Y179760D01*
X521189D01*
X521689Y180260D01*
Y182259D01*
X521189Y182759D01*
X519690D01*
X523189Y181759D02*
X524189D01*
X524688Y181260D01*
Y179760D01*
X523189D01*
X522689Y180260D01*
X523189Y180760D01*
X524688D01*
X526188Y182259D02*
Y181759D01*
X525688D01*
X526688D01*
X526188D01*
Y180260D01*
X526688Y179760D01*
X528687Y181759D02*
X529687D01*
X530187Y181260D01*
Y179760D01*
X528687D01*
X528187Y180260D01*
X528687Y180760D01*
X530187D01*
X532309Y182259D02*
X531810Y182759D01*
X530810D01*
X530310Y182259D01*
Y180260D01*
X530810Y179760D01*
X531810D01*
X532309Y180260D01*
X533309Y179760D02*
X534309D01*
X533809D01*
Y182759D01*
X533309D01*
X536308Y179760D02*
X537308D01*
X537808Y180260D01*
Y181260D01*
X537308Y181759D01*
X536308D01*
X535808Y181260D01*
Y180260D01*
X536308Y179760D01*
X540807Y181759D02*
X539307D01*
X538807Y181260D01*
Y180260D01*
X539307Y179760D01*
X540807D01*
X541806D02*
Y182759D01*
Y180760D02*
X543306Y181759D01*
X541806Y180760D02*
X543306Y179760D01*
X544499Y182259D02*
X543999Y182759D01*
X543000D01*
X542500Y182259D01*
Y180260D01*
X543000Y179760D01*
X543999D01*
X544499Y180260D01*
Y181260D01*
X543500D01*
X545499Y179760D02*
Y182759D01*
X547498Y179760D01*
Y182759D01*
X548498D02*
Y179760D01*
X549998D01*
X550497Y180260D01*
Y182259D01*
X549998Y182759D01*
X548498D01*
X400900Y218460D02*
X402880Y218738D01*
X401751Y219589D02*
X402029Y217609D01*
X405641Y220640D02*
X403661Y220362D01*
X403870Y218877D01*
X404790Y219511D01*
X405285Y219581D01*
X405850Y219155D01*
X405989Y218165D01*
X405563Y217601D01*
X404574Y217461D01*
X404009Y217887D01*
X406631Y220779D02*
X406909Y218799D01*
X408038Y217949D01*
X408889Y219078D01*
X408611Y221058D01*
X410018Y218227D02*
X409740Y220207D01*
X410591Y221336D01*
X411720Y220485D01*
X411998Y218505D01*
X411790Y219990D01*
X409810Y219712D01*
X364700Y200760D02*
Y203759D01*
X366699Y200760D01*
Y203759D01*
X369698Y203259D02*
X369198Y203759D01*
X368199D01*
X367699Y203259D01*
Y201260D01*
X368199Y200760D01*
X369198D01*
X369698Y201260D01*
X383300Y216960D02*
Y219959D01*
X384800D01*
X385299Y219459D01*
Y218460D01*
X384800Y217960D01*
X383300D01*
X384300D02*
X385299Y216960D01*
X388298Y219459D02*
X387799Y219959D01*
X386799D01*
X386299Y219459D01*
Y218959D01*
X386799Y218460D01*
X387799D01*
X388298Y217960D01*
Y217460D01*
X387799Y216960D01*
X386799D01*
X386299Y217460D01*
X389298Y219959D02*
X391297D01*
X390298D01*
Y216960D01*
X416000Y200760D02*
Y202759D01*
X417000Y203759D01*
X417999Y202759D01*
Y200760D01*
Y202259D01*
X416000D01*
X420998Y203259D02*
X420499Y203759D01*
X419499D01*
X418999Y203259D01*
Y201260D01*
X419499Y200760D01*
X420499D01*
X420998Y201260D01*
Y202259D01*
X419999D01*
X421998Y200760D02*
Y203759D01*
X423997Y200760D01*
Y203759D01*
X424997D02*
Y200760D01*
X426497D01*
X426996Y201260D01*
Y203259D01*
X426497Y203759D01*
X424997D01*
X450441Y217410D02*
X452440D01*
X453440Y218410D01*
X452440Y219409D01*
X450441D01*
Y220409D02*
Y221409D01*
Y220909D01*
X453440D01*
Y220409D01*
Y221409D01*
Y222908D02*
X450441D01*
X453440Y224908D01*
X450441D01*
X371301Y317685D02*
Y315186D01*
X372967D01*
X373800Y317685D02*
Y315186D01*
X375050D01*
X375466Y315602D01*
Y317269D01*
X375050Y317685D01*
X373800D01*
X377549D02*
X376716D01*
X376299Y317269D01*
Y315602D01*
X376716Y315186D01*
X377549D01*
X377965Y315602D01*
Y317269D01*
X377549Y317685D01*
X372501Y304585D02*
Y302919D01*
X373334Y302086D01*
X374167Y302919D01*
Y304585D01*
X375000Y302086D02*
Y304585D01*
X376250D01*
X376666Y304169D01*
Y303336D01*
X376250Y302919D01*
X375000D01*
X375833D02*
X376666Y302086D01*
X463305Y264793D02*
Y269292D01*
X464805Y267792D01*
X466304Y269292D01*
Y264793D01*
X467803D02*
Y267792D01*
X469303Y269292D01*
X470803Y267792D01*
Y264793D01*
Y267042D01*
X467803D01*
X472302Y269292D02*
X473802D01*
X473052D01*
Y264793D01*
X472302D01*
X473802D01*
X476051D02*
Y269292D01*
X479050Y264793D01*
Y269292D01*
X375300Y254994D02*
Y259492D01*
X377549D01*
X378299Y258743D01*
Y257243D01*
X377549Y256493D01*
X375300D01*
X376800D02*
X378299Y254994D01*
X379799Y259492D02*
X382798D01*
X381298D01*
Y254994D01*
X387296Y258743D02*
X386546Y259492D01*
X385047D01*
X384297Y258743D01*
Y255744D01*
X385047Y254994D01*
X386546D01*
X387296Y255744D01*
X242390Y167520D02*
Y172019D01*
X244639D01*
X245389Y171269D01*
Y169769D01*
X244639Y169019D01*
X242390D01*
X243889D02*
X245389Y167520D01*
X249138D02*
Y172019D01*
X246888Y169769D01*
X249888D01*
X253636Y167520D02*
Y172019D01*
X251387Y169769D01*
X254386D01*
X228309Y164649D02*
X227559Y165399D01*
X226060D01*
X225310Y164649D01*
Y161650D01*
X226060Y160900D01*
X227559D01*
X228309Y161650D01*
X232808Y160900D02*
X229809D01*
X232808Y163899D01*
Y164649D01*
X232058Y165399D01*
X230558D01*
X229809Y164649D01*
X234307Y165399D02*
X237306D01*
Y164649D01*
X234307Y161650D01*
Y160900D01*
X233610Y253430D02*
X229112D01*
Y255679D01*
X229861Y256429D01*
X231361D01*
X232111Y255679D01*
Y253430D01*
Y254929D02*
X233610Y256429D01*
Y260178D02*
X229112D01*
X231361Y257928D01*
Y260928D01*
X229112Y265426D02*
Y262427D01*
X231361D01*
X230611Y263927D01*
Y264676D01*
X231361Y265426D01*
X232860D01*
X233610Y264676D01*
Y263177D01*
X232860Y262427D01*
X256800Y187960D02*
Y192458D01*
X259049D01*
X259799Y191709D01*
Y190209D01*
X259049Y189460D01*
X256800D01*
X258299D02*
X259799Y187960D01*
X263548D02*
Y192458D01*
X261298Y190209D01*
X264298D01*
X268796Y192458D02*
X267297Y191709D01*
X265797Y190209D01*
Y188710D01*
X266547Y187960D01*
X268046D01*
X268796Y188710D01*
Y189460D01*
X268046Y190209D01*
X265797D01*
X281318Y196239D02*
X277383Y198420D01*
X278474Y200387D01*
X279493Y200680D01*
X280805Y199953D01*
X281097Y198933D01*
X280006Y196966D01*
X280733Y198278D02*
X282772Y198862D01*
X284589Y202141D02*
X280655Y204322D01*
X281532Y201264D01*
X282985Y203887D01*
X281745Y206289D02*
X283199Y208912D01*
X283855Y208549D01*
X285024Y204472D01*
X285680Y204108D01*
X237620Y200020D02*
Y204519D01*
X239869D01*
X240619Y203769D01*
Y202269D01*
X239869Y201519D01*
X237620D01*
X239120D02*
X240619Y200020D01*
X244368D02*
Y204519D01*
X242119Y202269D01*
X245118D01*
X246617Y203769D02*
X247367Y204519D01*
X248866D01*
X249616Y203769D01*
Y203019D01*
X248866Y202269D01*
X249616Y201519D01*
Y200770D01*
X248866Y200020D01*
X247367D01*
X246617Y200770D01*
Y201519D01*
X247367Y202269D01*
X246617Y203019D01*
Y203769D01*
X247367Y202269D02*
X248866D01*
X243341Y215009D02*
X242591Y214259D01*
Y212760D01*
X243341Y212010D01*
X246340D01*
X247090Y212760D01*
Y214259D01*
X246340Y215009D01*
X247090Y219508D02*
Y216509D01*
X244091Y219508D01*
X243341D01*
X242591Y218758D01*
Y217258D01*
X243341Y216509D01*
Y221007D02*
X242591Y221757D01*
Y223256D01*
X243341Y224006D01*
X244091D01*
X244841Y223256D01*
X245590Y224006D01*
X246340D01*
X247090Y223256D01*
Y221757D01*
X246340Y221007D01*
X245590D01*
X244841Y221757D01*
X244091Y221007D01*
X243341D01*
X244841Y221757D02*
Y223256D01*
X207872Y273499D02*
Y272000D01*
X208621Y271250D01*
X211620D01*
X212370Y272000D01*
Y273499D01*
X211620Y274249D01*
X208621D01*
X207872Y273499D01*
Y275748D02*
Y278748D01*
Y277248D01*
X212370D01*
X208621Y283246D02*
X207872Y282496D01*
Y280997D01*
X208621Y280247D01*
X211620D01*
X212370Y280997D01*
Y282496D01*
X211620Y283246D01*
X210121D01*
Y281747D01*
X207872Y284746D02*
Y286245D01*
Y285495D01*
X212370D01*
Y284746D01*
Y286245D01*
X207872Y288494D02*
X212370D01*
Y290744D01*
X211620Y291494D01*
X208621D01*
X207872Y290744D01*
Y288494D01*
X369759Y331789D02*
X369009Y332539D01*
X367510D01*
X366760Y331789D01*
Y328790D01*
X367510Y328040D01*
X369009D01*
X369759Y328790D01*
X374258Y332539D02*
X372758Y331789D01*
X371259Y330289D01*
Y328790D01*
X372008Y328040D01*
X373508D01*
X374258Y328790D01*
Y329539D01*
X373508Y330289D01*
X371259D01*
X432761Y258499D02*
X432011Y257749D01*
Y256250D01*
X432761Y255500D01*
X435760D01*
X436510Y256250D01*
Y257749D01*
X435760Y258499D01*
X432761Y259998D02*
X432011Y260748D01*
Y262248D01*
X432761Y262998D01*
X433511D01*
X434261Y262248D01*
X435010Y262998D01*
X435760D01*
X436510Y262248D01*
Y260748D01*
X435760Y259998D01*
X435010D01*
X434261Y260748D01*
X433511Y259998D01*
X432761D01*
X434261Y260748D02*
Y262248D01*
X442311Y258609D02*
X441561Y257859D01*
Y256360D01*
X442311Y255610D01*
X445310D01*
X446060Y256360D01*
Y257859D01*
X445310Y258609D01*
Y260109D02*
X446060Y260858D01*
Y262358D01*
X445310Y263108D01*
X442311D01*
X441561Y262358D01*
Y260858D01*
X442311Y260109D01*
X443061D01*
X443811Y260858D01*
Y263108D01*
X481701Y306289D02*
X480951Y305539D01*
Y304040D01*
X481701Y303290D01*
X484700D01*
X485450Y304040D01*
Y305539D01*
X484700Y306289D01*
X485450Y307788D02*
Y309288D01*
Y308538D01*
X480951D01*
X481701Y307788D01*
X485450Y311537D02*
Y313037D01*
Y312287D01*
X480951D01*
X481701Y311537D01*
X470409Y343489D02*
X469659Y344238D01*
X468160D01*
X467410Y343489D01*
Y340490D01*
X468160Y339740D01*
X469659D01*
X470409Y340490D01*
X471909Y339740D02*
X473408D01*
X472658D01*
Y344238D01*
X471909Y343489D01*
X478656Y339740D02*
X475657D01*
X478656Y342739D01*
Y343489D01*
X477907Y344238D01*
X476407D01*
X475657Y343489D01*
X415030Y351129D02*
Y347380D01*
X415780Y346630D01*
X417279D01*
X418029Y347380D01*
Y351129D01*
X419528Y346630D02*
X421028D01*
X420278D01*
Y351129D01*
X419528Y350379D01*
X424311Y363029D02*
X423561Y362279D01*
Y360780D01*
X424311Y360030D01*
X427310D01*
X428060Y360780D01*
Y362279D01*
X427310Y363029D01*
X428060Y364528D02*
Y366028D01*
Y365278D01*
X423561D01*
X424311Y364528D01*
Y368277D02*
X423561Y369027D01*
Y370527D01*
X424311Y371276D01*
X425061D01*
X425811Y370527D01*
Y369777D01*
Y370527D01*
X426560Y371276D01*
X427310D01*
X428060Y370527D01*
Y369027D01*
X427310Y368277D01*
X379301Y286619D02*
X378552Y285869D01*
Y284370D01*
X379301Y283620D01*
X382300D01*
X383050Y284370D01*
Y285869D01*
X382300Y286619D01*
X383050Y288119D02*
Y289618D01*
Y288868D01*
X378552D01*
X379301Y288119D01*
Y291867D02*
X378552Y292617D01*
Y294117D01*
X379301Y294866D01*
X382300D01*
X383050Y294117D01*
Y292617D01*
X382300Y291867D01*
X379301D01*
X567890Y160040D02*
Y164539D01*
X570139D01*
X570889Y163789D01*
Y162289D01*
X570139Y161539D01*
X567890D01*
X569389D02*
X570889Y160040D01*
X575388Y164539D02*
X572389D01*
Y160040D01*
X575388D01*
X572389Y162289D02*
X573888D01*
X579886Y163789D02*
X579136Y164539D01*
X577637D01*
X576887Y163789D01*
Y163039D01*
X577637Y162289D01*
X579136D01*
X579886Y161539D01*
Y160790D01*
X579136Y160040D01*
X577637D01*
X576887Y160790D01*
X584385Y164539D02*
X581386D01*
Y160040D01*
X584385D01*
X581386Y162289D02*
X582885D01*
X585884Y164539D02*
X588883D01*
X587384D01*
Y160040D01*
X478480Y290450D02*
X473982D01*
Y292699D01*
X474731Y293449D01*
X476231D01*
X476980Y292699D01*
Y290450D01*
Y291950D02*
X478480Y293449D01*
Y297948D02*
Y294949D01*
X475481Y297948D01*
X474731D01*
X473982Y297198D01*
Y295698D01*
X474731Y294949D01*
X626739Y162151D02*
Y157652D01*
X628988D01*
X629738Y158402D01*
Y161401D01*
X628988Y162151D01*
X626739D01*
X634237D02*
X632737Y161401D01*
X631238Y159901D01*
Y158402D01*
X631987Y157652D01*
X633487D01*
X634237Y158402D01*
Y159151D01*
X633487Y159901D01*
X631238D01*
X645831Y174129D02*
X645082Y173379D01*
Y171880D01*
X645831Y171130D01*
X648830D01*
X649580Y171880D01*
Y173379D01*
X648830Y174129D01*
X649580Y178628D02*
Y175628D01*
X646581Y178628D01*
X645831D01*
X645082Y177878D01*
Y176378D01*
X645831Y175628D01*
X602603Y162100D02*
Y157601D01*
X604852D01*
X605602Y158351D01*
Y161350D01*
X604852Y162100D01*
X602603D01*
X607102Y161350D02*
X607851Y162100D01*
X609351D01*
X610101Y161350D01*
Y160600D01*
X609351Y159850D01*
X608601D01*
X609351D01*
X610101Y159100D01*
Y158351D01*
X609351Y157601D01*
X607851D01*
X607102Y158351D01*
X620841Y206561D02*
Y202062D01*
X623090D01*
X623840Y202812D01*
Y205811D01*
X623090Y206561D01*
X620841D01*
X627589Y202062D02*
Y206561D01*
X625340Y204311D01*
X628339D01*
X361484Y305181D02*
X356985D01*
Y307430D01*
X357735Y308180D01*
X359235D01*
X359984Y307430D01*
Y305181D01*
Y306680D02*
X361484Y308180D01*
Y309680D02*
Y311179D01*
Y310429D01*
X356985D01*
X357735Y309680D01*
X471336Y278424D02*
Y282923D01*
X473585D01*
X474335Y282173D01*
Y280673D01*
X473585Y279924D01*
X471336D01*
X472835D02*
X474335Y278424D01*
X478834Y282923D02*
X475835D01*
Y280673D01*
X477334Y281423D01*
X478084D01*
X478834Y280673D01*
Y279174D01*
X478084Y278424D01*
X476584D01*
X475835Y279174D01*
X652250Y183209D02*
Y178710D01*
X654499D01*
X655249Y179460D01*
Y182459D01*
X654499Y183209D01*
X652250D01*
X659748D02*
X656748D01*
Y180959D01*
X658248Y181709D01*
X658998D01*
X659748Y180959D01*
Y179460D01*
X658998Y178710D01*
X657498D01*
X656748Y179460D01*
X353680Y295060D02*
Y299559D01*
X355929D01*
X356679Y298809D01*
Y297309D01*
X355929Y296560D01*
X353680D01*
X355180D02*
X356679Y295060D01*
X358178Y298809D02*
X358928Y299559D01*
X360428D01*
X361178Y298809D01*
Y298059D01*
X360428Y297309D01*
X359678D01*
X360428D01*
X361178Y296560D01*
Y295810D01*
X360428Y295060D01*
X358928D01*
X358178Y295810D01*
X336770Y277490D02*
X332272D01*
Y279739D01*
X333021Y280489D01*
X334521D01*
X335271Y279739D01*
Y277490D01*
Y278990D02*
X336770Y280489D01*
Y284238D02*
X332272D01*
X334521Y281989D01*
Y284988D01*
X632440Y310248D02*
Y306500D01*
X633190Y305750D01*
X634689D01*
X635439Y306500D01*
Y310248D01*
X639188Y305750D02*
Y310248D01*
X636939Y307999D01*
X639938D01*
X597990Y354619D02*
Y350870D01*
X598740Y350120D01*
X600239D01*
X600989Y350870D01*
Y354619D01*
X605488D02*
X603988Y353869D01*
X602489Y352369D01*
Y350870D01*
X603238Y350120D01*
X604738D01*
X605488Y350870D01*
Y351620D01*
X604738Y352369D01*
X602489D01*
X289630Y314430D02*
Y318929D01*
X291879D01*
X292629Y318179D01*
Y316679D01*
X291879Y315930D01*
X289630D01*
X291129D02*
X292629Y314430D01*
X294128Y318929D02*
X297128Y314430D01*
Y318929D02*
X294128Y314430D01*
X298627D02*
Y318929D01*
X300127Y317429D01*
X301626Y318929D01*
Y314430D01*
X290019Y283441D02*
X285523Y283598D01*
X285601Y285846D01*
X286377Y286569D01*
X287875Y286517D01*
X288598Y285742D01*
X288520Y283494D01*
X288572Y284992D02*
X290123Y286439D01*
X290280Y290934D02*
X290176Y287937D01*
X287283Y291039D01*
X286534Y291065D01*
X285758Y290342D01*
X285706Y288844D01*
X286429Y288068D01*
X290411Y294681D02*
X285915Y294838D01*
X288085Y292512D01*
X288189Y295509D01*
X274040Y283540D02*
X269541D01*
Y285789D01*
X270291Y286539D01*
X271791D01*
X272540Y285789D01*
Y283540D01*
Y285039D02*
X274040Y286539D01*
Y291038D02*
Y288038D01*
X271041Y291038D01*
X270291D01*
X269541Y290288D01*
Y288788D01*
X270291Y288038D01*
Y292537D02*
X269541Y293287D01*
Y294786D01*
X270291Y295536D01*
X271041D01*
X271791Y294786D01*
Y294037D01*
Y294786D01*
X272540Y295536D01*
X273290D01*
X274040Y294786D01*
Y293287D01*
X273290Y292537D01*
X273880Y318929D02*
X276879D01*
X275379D01*
Y314430D01*
X278379Y318929D02*
X281378Y314430D01*
Y318929D02*
X278379Y314430D01*
X282877D02*
Y318929D01*
X284377Y317429D01*
X285876Y318929D01*
Y314430D01*
X638561Y315930D02*
X643060D01*
Y318179D01*
X642310Y318929D01*
X639311D01*
X638561Y318179D01*
Y315930D01*
X643060Y320428D02*
Y321928D01*
Y321178D01*
X638561D01*
X639311Y320428D01*
X638561Y324177D02*
Y327176D01*
X639311D01*
X642310Y324177D01*
X643060D01*
X619932Y332720D02*
X624430D01*
Y334969D01*
X623680Y335719D01*
X620681D01*
X619932Y334969D01*
Y332720D01*
X624430Y337219D02*
Y338718D01*
Y337968D01*
X619932D01*
X620681Y337219D01*
X624430Y343217D02*
X619932D01*
X622181Y340967D01*
Y343966D01*
X638921Y347580D02*
X643420D01*
Y349829D01*
X642670Y350579D01*
X639671D01*
X638921Y349829D01*
Y347580D01*
X643420Y352079D02*
Y353578D01*
Y352828D01*
X638921D01*
X639671Y352079D01*
X638921Y358826D02*
Y355827D01*
X641171D01*
X640421Y357327D01*
Y358077D01*
X641171Y358826D01*
X642670D01*
X643420Y358077D01*
Y356577D01*
X642670Y355827D01*
X567910Y264949D02*
Y261200D01*
X568660Y260450D01*
X570159D01*
X570909Y261200D01*
Y264949D01*
X572409D02*
X575408D01*
Y264199D01*
X572409Y261200D01*
Y260450D01*
X615830Y263510D02*
X611332D01*
Y265759D01*
X612081Y266509D01*
X613581D01*
X614330Y265759D01*
Y263510D01*
Y265009D02*
X615830Y266509D01*
X612081Y268009D02*
X611332Y268758D01*
Y270258D01*
X612081Y271008D01*
X612831D01*
X613581Y270258D01*
Y269508D01*
Y270258D01*
X614330Y271008D01*
X615080D01*
X615830Y270258D01*
Y268758D01*
X615080Y268009D01*
X612081Y272507D02*
X611332Y273257D01*
Y274756D01*
X612081Y275506D01*
X612831D01*
X613581Y274756D01*
Y274007D01*
Y274756D01*
X614330Y275506D01*
X615080D01*
X615830Y274756D01*
Y273257D01*
X615080Y272507D01*
X614020Y234770D02*
X609521D01*
Y237019D01*
X610271Y237769D01*
X611771D01*
X612521Y237019D01*
Y234770D01*
Y236269D02*
X614020Y237769D01*
X610271Y239269D02*
X609521Y240018D01*
Y241518D01*
X610271Y242268D01*
X611021D01*
X611771Y241518D01*
Y240768D01*
Y241518D01*
X612521Y242268D01*
X613270D01*
X614020Y241518D01*
Y240018D01*
X613270Y239269D01*
X614020Y246016D02*
X609521D01*
X611771Y243767D01*
Y246766D01*
X654520Y166716D02*
X659019D01*
Y169715D01*
Y174214D02*
Y171215D01*
X656020Y174214D01*
X655270D01*
X654520Y173464D01*
Y171964D01*
X655270Y171215D01*
X620261Y241810D02*
X624760D01*
Y244059D01*
X624010Y244809D01*
X621011D01*
X620261Y244059D01*
Y241810D01*
X624760Y246309D02*
Y247808D01*
Y247058D01*
X620261D01*
X621011Y246309D01*
Y250057D02*
X620261Y250807D01*
Y252307D01*
X621011Y253056D01*
X621761D01*
X622511Y252307D01*
X623260Y253056D01*
X624010D01*
X624760Y252307D01*
Y250807D01*
X624010Y250057D01*
X623260D01*
X622511Y250807D01*
X621761Y250057D01*
X621011D01*
X622511Y250807D02*
Y252307D01*
X638561Y224350D02*
X643060D01*
Y226599D01*
X642310Y227349D01*
X639311D01*
X638561Y226599D01*
Y224350D01*
X643060Y231848D02*
Y228849D01*
X640061Y231848D01*
X639311D01*
X638561Y231098D01*
Y229598D01*
X639311Y228849D01*
Y233347D02*
X638561Y234097D01*
Y235596D01*
X639311Y236346D01*
X642310D01*
X643060Y235596D01*
Y234097D01*
X642310Y233347D01*
X639311D01*
X638891Y258410D02*
X643390D01*
Y260659D01*
X642640Y261409D01*
X639641D01*
X638891Y260659D01*
Y258410D01*
X643390Y262909D02*
Y264408D01*
Y263658D01*
X638891D01*
X639641Y262909D01*
X642640Y266657D02*
X643390Y267407D01*
Y268907D01*
X642640Y269656D01*
X639641D01*
X638891Y268907D01*
Y267407D01*
X639641Y266657D01*
X640391D01*
X641141Y267407D01*
Y269656D01*
X321120Y314420D02*
Y318919D01*
X323369D01*
X324119Y318169D01*
Y316669D01*
X323369Y315919D01*
X321120D01*
X322620D02*
X324119Y314420D01*
X325619Y318919D02*
X328618Y314420D01*
Y318919D02*
X325619Y314420D01*
X333116Y318919D02*
X330117D01*
Y314420D01*
X333116D01*
X330117Y316669D02*
X331617D01*
X321270Y283750D02*
X316772D01*
Y285999D01*
X317521Y286749D01*
X319021D01*
X319771Y285999D01*
Y283750D01*
Y285249D02*
X321270Y286749D01*
Y291248D02*
Y288248D01*
X318271Y291248D01*
X317521D01*
X316772Y290498D01*
Y288998D01*
X317521Y288248D01*
X316772Y295746D02*
X317521Y294247D01*
X319021Y292747D01*
X320520D01*
X321270Y293497D01*
Y294996D01*
X320520Y295746D01*
X319771D01*
X319021Y294996D01*
Y292747D01*
X305520Y284540D02*
X301022D01*
Y286789D01*
X301771Y287539D01*
X303271D01*
X304021Y286789D01*
Y284540D01*
Y286039D02*
X305520Y287539D01*
Y292038D02*
Y289038D01*
X302521Y292038D01*
X301771D01*
X301022Y291288D01*
Y289788D01*
X301771Y289038D01*
X301022Y296536D02*
Y293537D01*
X303271D01*
X302521Y295037D01*
Y295786D01*
X303271Y296536D01*
X304770D01*
X305520Y295786D01*
Y294287D01*
X304770Y293537D01*
X305380Y318929D02*
X308379D01*
X306879D01*
Y314430D01*
X309878Y318929D02*
X312878Y314430D01*
Y318929D02*
X309878Y314430D01*
X317376Y318929D02*
X314377D01*
Y314430D01*
X317376D01*
X314377Y316679D02*
X315877D01*
X621200Y226070D02*
Y230569D01*
X623449D01*
X624199Y229819D01*
Y228319D01*
X623449Y227570D01*
X621200D01*
X622699D02*
X624199Y226070D01*
X625699Y229819D02*
X626448Y230569D01*
X627948D01*
X628698Y229819D01*
Y229069D01*
X627948Y228319D01*
X627198D01*
X627948D01*
X628698Y227570D01*
Y226820D01*
X627948Y226070D01*
X626448D01*
X625699Y226820D01*
X630197D02*
X630947Y226070D01*
X632446D01*
X633196Y226820D01*
Y229819D01*
X632446Y230569D01*
X630947D01*
X630197Y229819D01*
Y229069D01*
X630947Y228319D01*
X633196D01*
X621620Y261760D02*
Y266259D01*
X623869D01*
X624619Y265509D01*
Y264009D01*
X623869Y263260D01*
X621620D01*
X623119D02*
X624619Y261760D01*
X626119Y265509D02*
X626868Y266259D01*
X628368D01*
X629118Y265509D01*
Y264759D01*
X628368Y264009D01*
X627618D01*
X628368D01*
X629118Y263260D01*
Y262510D01*
X628368Y261760D01*
X626868D01*
X626119Y262510D01*
X633616Y266259D02*
X630617D01*
Y264009D01*
X632117Y264759D01*
X632866D01*
X633616Y264009D01*
Y262510D01*
X632866Y261760D01*
X631367D01*
X630617Y262510D01*
X618821Y356659D02*
X618072Y355909D01*
Y354410D01*
X618821Y353660D01*
X621820D01*
X622570Y354410D01*
Y355909D01*
X621820Y356659D01*
X622570Y361158D02*
Y358159D01*
X619571Y361158D01*
X618821D01*
X618072Y360408D01*
Y358908D01*
X618821Y358159D01*
X622570Y364906D02*
X618072D01*
X620321Y362657D01*
Y365656D01*
X603641Y291959D02*
X602891Y291209D01*
Y289710D01*
X603641Y288960D01*
X606640D01*
X607390Y289710D01*
Y291209D01*
X606640Y291959D01*
X607390Y296458D02*
Y293459D01*
X604391Y296458D01*
X603641D01*
X602891Y295708D01*
Y294208D01*
X603641Y293459D01*
X602891Y300956D02*
Y297957D01*
X605141D01*
X604391Y299457D01*
Y300206D01*
X605141Y300956D01*
X606640D01*
X607390Y300206D01*
Y298707D01*
X606640Y297957D01*
X582479Y274839D02*
X581729Y275588D01*
X580230D01*
X579480Y274839D01*
Y271840D01*
X580230Y271090D01*
X581729D01*
X582479Y271840D01*
X586978Y271090D02*
X583979D01*
X586978Y274089D01*
Y274839D01*
X586228Y275588D01*
X584728D01*
X583979Y274839D01*
X591476Y275588D02*
X589977Y274839D01*
X588477Y273339D01*
Y271840D01*
X589227Y271090D01*
X590726D01*
X591476Y271840D01*
Y272589D01*
X590726Y273339D01*
X588477D01*
X183430Y286729D02*
Y282230D01*
X186429D01*
X187928D02*
X189428D01*
X188678D01*
Y286729D01*
X187928Y285979D01*
X211200Y321109D02*
Y316610D01*
X213449D01*
X214199Y317360D01*
Y320359D01*
X213449Y321109D01*
X211200D01*
X215699Y316610D02*
X217198D01*
X216448D01*
Y321109D01*
X215699Y320359D01*
X222446Y321109D02*
X220947Y320359D01*
X219447Y318859D01*
Y317360D01*
X220197Y316610D01*
X221697D01*
X222446Y317360D01*
Y318109D01*
X221697Y318859D01*
X219447D01*
X209860Y330630D02*
Y335128D01*
X212109D01*
X212859Y334379D01*
Y332879D01*
X212109Y332130D01*
X209860D01*
X211360D02*
X212859Y330630D01*
X214359Y334379D02*
X215108Y335128D01*
X216608D01*
X217358Y334379D01*
Y333629D01*
X216608Y332879D01*
X215858D01*
X216608D01*
X217358Y332130D01*
Y331380D01*
X216608Y330630D01*
X215108D01*
X214359Y331380D01*
X218857Y334379D02*
X219607Y335128D01*
X221106D01*
X221856Y334379D01*
Y333629D01*
X221106Y332879D01*
X221856Y332130D01*
Y331380D01*
X221106Y330630D01*
X219607D01*
X218857Y331380D01*
Y332130D01*
X219607Y332879D01*
X218857Y333629D01*
Y334379D01*
X219607Y332879D02*
X221106D01*
X239749Y336659D02*
X238250D01*
X237500Y335909D01*
Y332910D01*
X238250Y332160D01*
X239749D01*
X240499Y332910D01*
Y335909D01*
X239749Y336659D01*
X241999D02*
X244998D01*
X243498D01*
Y332160D01*
X249496Y335909D02*
X248746Y336659D01*
X247247D01*
X246497Y335909D01*
Y332910D01*
X247247Y332160D01*
X248746D01*
X249496Y332910D01*
Y334409D01*
X247997D01*
X250996Y332160D02*
Y336659D01*
X253245D01*
X253995Y335909D01*
Y334409D01*
X253245Y333660D01*
X250996D01*
X255494Y336659D02*
Y332160D01*
X256994Y333660D01*
X258493Y332160D01*
Y336659D01*
X244211Y233759D02*
X243461Y233009D01*
Y231510D01*
X244211Y230760D01*
X247210D01*
X247960Y231510D01*
Y233009D01*
X247210Y233759D01*
X247960Y238258D02*
Y235259D01*
X244961Y238258D01*
X244211D01*
X243461Y237508D01*
Y236008D01*
X244211Y235259D01*
X247960Y239757D02*
Y241257D01*
Y240507D01*
X243461D01*
X244211Y239757D01*
X313341Y333579D02*
Y330580D01*
X315591D01*
Y332080D01*
Y330580D01*
X317840D01*
X313341Y335079D02*
X317840D01*
Y337328D01*
X317090Y338078D01*
X316340D01*
X315591Y337328D01*
Y335079D01*
Y337328D01*
X314841Y338078D01*
X314091D01*
X313341Y337328D01*
Y335079D01*
X317840Y342576D02*
Y339577D01*
X314841Y342576D01*
X314091D01*
X313341Y341826D01*
Y340327D01*
X314091Y339577D01*
X291370Y186558D02*
X294369Y182060D01*
Y186558D02*
X291370Y182060D01*
X295869D02*
X297368D01*
X296618D01*
Y186558D01*
X295869Y185809D01*
X353620Y161100D02*
X349121D01*
Y163349D01*
X349871Y164099D01*
X351371D01*
X352120Y163349D01*
Y161100D01*
Y162600D02*
X353620Y164099D01*
X349871Y165599D02*
X349121Y166348D01*
Y167848D01*
X349871Y168598D01*
X350621D01*
X351371Y167848D01*
Y167098D01*
Y167848D01*
X352120Y168598D01*
X352870D01*
X353620Y167848D01*
Y166348D01*
X352870Y165599D01*
X353620Y173096D02*
Y170097D01*
X350621Y173096D01*
X349871D01*
X349121Y172346D01*
Y170847D01*
X349871Y170097D01*
X348760Y178050D02*
Y182549D01*
X351009D01*
X351759Y181799D01*
Y180299D01*
X351009Y179550D01*
X348760D01*
X350259D02*
X351759Y178050D01*
X356258D02*
X353259D01*
X356258Y181049D01*
Y181799D01*
X355508Y182549D01*
X354008D01*
X353259Y181799D01*
X357757Y182549D02*
X360756D01*
Y181799D01*
X357757Y178800D01*
Y178050D01*
X385070Y160431D02*
X380572Y160509D01*
X380611Y162758D01*
X381374Y163495D01*
X382873Y163469D01*
X383610Y162706D01*
X383570Y160457D01*
X383596Y161956D02*
X385122Y163429D01*
X381400Y164994D02*
X380663Y165757D01*
X380690Y167256D01*
X381452Y167993D01*
X382202Y167980D01*
X382939Y167217D01*
X382925Y166467D01*
X382939Y167217D01*
X383701Y167953D01*
X384451Y167940D01*
X385187Y167177D01*
X385161Y165678D01*
X384399Y164942D01*
X381479Y169492D02*
X380742Y170255D01*
X380768Y171754D01*
X381531Y172491D01*
X384529Y172438D01*
X385266Y171675D01*
X385240Y170176D01*
X384477Y169439D01*
X381479Y169492D01*
X369550Y161290D02*
X365052D01*
Y163539D01*
X365801Y164289D01*
X367301D01*
X368051Y163539D01*
Y161290D01*
Y162789D02*
X369550Y164289D01*
X365801Y165789D02*
X365052Y166538D01*
Y168038D01*
X365801Y168788D01*
X366551D01*
X367301Y168038D01*
Y167288D01*
Y168038D01*
X368051Y168788D01*
X368800D01*
X369550Y168038D01*
Y166538D01*
X368800Y165789D01*
X369550Y170287D02*
Y171787D01*
Y171037D01*
X365052D01*
X365801Y170287D01*
X261799Y178359D02*
X261049Y179109D01*
X259550D01*
X258800Y178359D01*
Y175360D01*
X259550Y174610D01*
X261049D01*
X261799Y175360D01*
X263299Y174610D02*
X264798D01*
X264048D01*
Y179109D01*
X263299Y178359D01*
X270046Y179109D02*
X267047D01*
Y176859D01*
X268547Y177609D01*
X269297D01*
X270046Y176859D01*
Y175360D01*
X269297Y174610D01*
X267797D01*
X267047Y175360D01*
X324309Y178349D02*
X323559Y179099D01*
X322060D01*
X321310Y178349D01*
Y175350D01*
X322060Y174600D01*
X323559D01*
X324309Y175350D01*
X325809Y174600D02*
X327308D01*
X326558D01*
Y179099D01*
X325809Y178349D01*
X332556Y179099D02*
X331057Y178349D01*
X329557Y176849D01*
Y175350D01*
X330307Y174600D01*
X331807D01*
X332556Y175350D01*
Y176100D01*
X331807Y176849D01*
X329557D01*
X274711Y221179D02*
X273961Y220429D01*
Y218930D01*
X274711Y218180D01*
X277710D01*
X278460Y218930D01*
Y220429D01*
X277710Y221179D01*
X278460Y222678D02*
Y224178D01*
Y223428D01*
X273961D01*
X274711Y222678D01*
X273961Y226427D02*
Y229426D01*
X274711D01*
X277710Y226427D01*
X278460D01*
X258980Y250160D02*
X254481D01*
Y252409D01*
X255231Y253159D01*
X256731D01*
X257481Y252409D01*
Y250160D01*
Y251659D02*
X258980Y253159D01*
Y257658D02*
Y254659D01*
X255981Y257658D01*
X255231D01*
X254481Y256908D01*
Y255408D01*
X255231Y254659D01*
X258230Y259157D02*
X258980Y259907D01*
Y261406D01*
X258230Y262156D01*
X255231D01*
X254481Y261406D01*
Y259907D01*
X255231Y259157D01*
X255981D01*
X256731Y259907D01*
Y262156D01*
X243550Y252340D02*
X239052D01*
Y254589D01*
X239801Y255339D01*
X241301D01*
X242051Y254589D01*
Y252340D01*
Y253839D02*
X243550Y255339D01*
X239801Y256838D02*
X239052Y257588D01*
Y259088D01*
X239801Y259838D01*
X240551D01*
X241301Y259088D01*
X242051Y259838D01*
X242800D01*
X243550Y259088D01*
Y257588D01*
X242800Y256838D01*
X242051D01*
X241301Y257588D01*
X240551Y256838D01*
X239801D01*
X241301Y257588D02*
Y259088D01*
X186310Y262999D02*
Y258500D01*
X189309D01*
X190808Y262249D02*
X191558Y262999D01*
X193058D01*
X193808Y262249D01*
Y261499D01*
X193058Y260749D01*
X192308D01*
X193058D01*
X193808Y259999D01*
Y259250D01*
X193058Y258500D01*
X191558D01*
X190808Y259250D01*
X321860Y250620D02*
X317361D01*
Y252869D01*
X318111Y253619D01*
X319611D01*
X320360Y252869D01*
Y250620D01*
Y252119D02*
X321860Y253619D01*
Y255119D02*
Y256618D01*
Y255868D01*
X317361D01*
X318111Y255119D01*
X317361Y258867D02*
Y261866D01*
X318111D01*
X321110Y258867D01*
X321860D01*
X306250Y251400D02*
X301751D01*
Y253649D01*
X302501Y254399D01*
X304001D01*
X304750Y253649D01*
Y251400D01*
Y252900D02*
X306250Y254399D01*
Y255898D02*
Y257398D01*
Y256648D01*
X301751D01*
X302501Y255898D01*
X306250Y261897D02*
X301751D01*
X304001Y259647D01*
Y262646D01*
X365800Y178000D02*
Y182499D01*
X368049D01*
X368799Y181749D01*
Y180249D01*
X368049Y179499D01*
X365800D01*
X367300D02*
X368799Y178000D01*
X370299Y181749D02*
X371048Y182499D01*
X372548D01*
X373298Y181749D01*
Y180999D01*
X372548Y180249D01*
X371798D01*
X372548D01*
X373298Y179499D01*
Y178750D01*
X372548Y178000D01*
X371048D01*
X370299Y178750D01*
X377796Y182499D02*
X376297Y181749D01*
X374797Y180249D01*
Y178750D01*
X375547Y178000D01*
X377046D01*
X377796Y178750D01*
Y179499D01*
X377046Y180249D01*
X374797D01*
X338839Y230769D02*
X338089Y231519D01*
X336590D01*
X335840Y230769D01*
Y227770D01*
X336590Y227020D01*
X338089D01*
X338839Y227770D01*
X343338Y227020D02*
X340338D01*
X343338Y230019D01*
Y230769D01*
X342588Y231519D01*
X341088D01*
X340338Y230769D01*
X347836Y227020D02*
X344837D01*
X347836Y230019D01*
Y230769D01*
X347086Y231519D01*
X345587D01*
X344837Y230769D01*
X351931Y205279D02*
X351181Y204529D01*
Y203030D01*
X351931Y202280D01*
X354930D01*
X355680Y203030D01*
Y204529D01*
X354930Y205279D01*
X355680Y209778D02*
Y206779D01*
X352681Y209778D01*
X351931D01*
X351181Y209028D01*
Y207528D01*
X351931Y206779D01*
Y211277D02*
X351181Y212027D01*
Y213526D01*
X351931Y214276D01*
X354930D01*
X355680Y213526D01*
Y212027D01*
X354930Y211277D01*
X351931D01*
X262701Y219649D02*
X261951Y218899D01*
Y217400D01*
X262701Y216650D01*
X265700D01*
X266450Y217400D01*
Y218899D01*
X265700Y219649D01*
X266450Y221148D02*
Y222648D01*
Y221898D01*
X261951D01*
X262701Y221148D01*
Y224897D02*
X261951Y225647D01*
Y227147D01*
X262701Y227896D01*
X263451D01*
X264201Y227147D01*
X264950Y227896D01*
X265700D01*
X266450Y227147D01*
Y225647D01*
X265700Y224897D01*
X264950D01*
X264201Y225647D01*
X263451Y224897D01*
X262701D01*
X264201Y225647D02*
Y227147D01*
X338839Y188749D02*
X338089Y189499D01*
X336590D01*
X335840Y188749D01*
Y185750D01*
X336590Y185000D01*
X338089D01*
X338839Y185750D01*
X340338Y185000D02*
X341838D01*
X341088D01*
Y189499D01*
X340338Y188749D01*
X344087Y185750D02*
X344837Y185000D01*
X346337D01*
X347086Y185750D01*
Y188749D01*
X346337Y189499D01*
X344837D01*
X344087Y188749D01*
Y187999D01*
X344837Y187249D01*
X347086D01*
X601697Y207174D02*
Y202676D01*
X603946D01*
X604696Y203426D01*
Y206425D01*
X603946Y207174D01*
X601697D01*
X606196Y202676D02*
X607695D01*
X606945D01*
Y207174D01*
X606196Y206425D01*
X612943Y202676D02*
X609944D01*
X612943Y205675D01*
Y206425D01*
X612194Y207174D01*
X610694D01*
X609944Y206425D01*
X638143Y208340D02*
X637393Y209090D01*
X635894D01*
X635144Y208340D01*
Y205341D01*
X635894Y204591D01*
X637393D01*
X638143Y205341D01*
X639643Y204591D02*
X641142D01*
X640392D01*
Y209090D01*
X639643Y208340D01*
X645641Y204591D02*
Y209090D01*
X643391Y206840D01*
X646390D01*
X290370Y249650D02*
X285872D01*
Y251899D01*
X286621Y252649D01*
X288121D01*
X288871Y251899D01*
Y249650D01*
Y251150D02*
X290370Y252649D01*
Y256398D02*
X285872D01*
X288121Y254149D01*
Y257148D01*
X286621Y258647D02*
X285872Y259397D01*
Y260896D01*
X286621Y261646D01*
X289620D01*
X290370Y260896D01*
Y259397D01*
X289620Y258647D01*
X286621D01*
X274660Y250490D02*
X270162D01*
Y252739D01*
X270911Y253489D01*
X272411D01*
X273161Y252739D01*
Y250490D01*
Y251990D02*
X274660Y253489D01*
Y257238D02*
X270162D01*
X272411Y254989D01*
Y257988D01*
X274660Y259487D02*
Y260987D01*
Y260237D01*
X270162D01*
X270911Y259487D01*
X311670Y275770D02*
Y280269D01*
X313919D01*
X314669Y279519D01*
Y278019D01*
X313919Y277270D01*
X311670D01*
X313170D02*
X314669Y275770D01*
X316169Y276520D02*
X316918Y275770D01*
X318418D01*
X319168Y276520D01*
Y279519D01*
X318418Y280269D01*
X316918D01*
X316169Y279519D01*
Y278769D01*
X316918Y278019D01*
X319168D01*
X316310Y192340D02*
Y196839D01*
X318559D01*
X319309Y196089D01*
Y194589D01*
X318559Y193840D01*
X316310D01*
X317810D02*
X319309Y192340D01*
X320809D02*
X322308D01*
X321558D01*
Y196839D01*
X320809Y196089D01*
X327556Y196839D02*
X326057Y196089D01*
X324557Y194589D01*
Y193090D01*
X325307Y192340D01*
X326807D01*
X327556Y193090D01*
Y193840D01*
X326807Y194589D01*
X324557D01*
X365380Y238210D02*
Y242709D01*
X367629D01*
X368379Y241959D01*
Y240459D01*
X367629Y239709D01*
X365380D01*
X366880D02*
X368379Y238210D01*
X372878D02*
X369879D01*
X372878Y241209D01*
Y241959D01*
X372128Y242709D01*
X370628D01*
X369879Y241959D01*
X374377D02*
X375127Y242709D01*
X376626D01*
X377376Y241959D01*
Y241209D01*
X376626Y240459D01*
X377376Y239709D01*
Y238960D01*
X376626Y238210D01*
X375127D01*
X374377Y238960D01*
Y239709D01*
X375127Y240459D01*
X374377Y241209D01*
Y241959D01*
X375127Y240459D02*
X376626D01*
X532680Y413549D02*
Y409800D01*
X533430Y409050D01*
X534929D01*
X535679Y409800D01*
Y413549D01*
X540178Y409050D02*
X537179D01*
X540178Y412049D01*
Y412799D01*
X539428Y413549D01*
X537928D01*
X537179Y412799D01*
X317470Y389699D02*
Y385950D01*
X318220Y385200D01*
X319719D01*
X320469Y385950D01*
Y389699D01*
X321969Y388949D02*
X322718Y389699D01*
X324218D01*
X324968Y388949D01*
Y388199D01*
X324218Y387449D01*
X323468D01*
X324218D01*
X324968Y386700D01*
Y385950D01*
X324218Y385200D01*
X322718D01*
X321969Y385950D01*
X656032Y388710D02*
X660530D01*
Y390959D01*
X659780Y391709D01*
X656781D01*
X656032Y390959D01*
Y388710D01*
X660530Y396208D02*
Y393209D01*
X657531Y396208D01*
X656781D01*
X656032Y395458D01*
Y393958D01*
X656781Y393209D01*
X499671Y354219D02*
X498921Y353469D01*
Y351970D01*
X499671Y351220D01*
X502670D01*
X503420Y351970D01*
Y353469D01*
X502670Y354219D01*
X499671Y355719D02*
X498921Y356468D01*
Y357968D01*
X499671Y358718D01*
X500421D01*
X501171Y357968D01*
Y357218D01*
Y357968D01*
X501921Y358718D01*
X502670D01*
X503420Y357968D01*
Y356468D01*
X502670Y355719D01*
X576072Y356060D02*
X580570D01*
Y358309D01*
X579820Y359059D01*
X576821D01*
X576072Y358309D01*
Y356060D01*
Y360559D02*
Y363558D01*
X576821D01*
X579820Y360559D01*
X580570D01*
X350991Y359380D02*
X355490D01*
Y361629D01*
X354740Y362379D01*
X351741D01*
X350991Y361629D01*
Y359380D01*
X355490Y363878D02*
Y365378D01*
Y364628D01*
X350991D01*
X351741Y363878D01*
Y367627D02*
X350991Y368377D01*
Y369877D01*
X351741Y370626D01*
X354740D01*
X355490Y369877D01*
Y368377D01*
X354740Y367627D01*
X351741D01*
X569849Y410509D02*
X566850D01*
Y408259D01*
X568350D01*
X566850D01*
Y406010D01*
X571348D02*
X572848D01*
X572098D01*
Y410509D01*
X571348Y409759D01*
X292341Y356869D02*
X291591Y356119D01*
Y354620D01*
X292341Y353870D01*
X295340D01*
X296090Y354620D01*
Y356119D01*
X295340Y356869D01*
X291591Y361368D02*
Y358369D01*
X293841D01*
X293091Y359868D01*
Y360618D01*
X293841Y361368D01*
X295340D01*
X296090Y360618D01*
Y359118D01*
X295340Y358369D01*
X336949Y347569D02*
X336199Y348319D01*
X334700D01*
X333950Y347569D01*
Y344570D01*
X334700Y343820D01*
X336199D01*
X336949Y344570D01*
X338449Y348319D02*
X341448D01*
Y347569D01*
X338449Y344570D01*
Y343820D01*
X575409Y323694D02*
X574491Y324224D01*
X573042Y323836D01*
X572512Y322918D01*
X573288Y320021D01*
X574206Y319491D01*
X575655Y319879D01*
X576185Y320797D01*
X580000Y321043D02*
X578836Y325388D01*
X577245Y322634D01*
X580142Y323410D01*
X587282Y411566D02*
X586238Y411382D01*
X585378Y410154D01*
X585562Y409110D01*
X588019Y407389D01*
X589063Y407574D01*
X589923Y408802D01*
X589739Y409846D01*
X591213Y410644D02*
X592073Y411873D01*
X591643Y411259D01*
X587958Y413839D01*
X588142Y412795D01*
X621860Y410839D02*
X624830Y411257D01*
X623136Y412533D02*
X623554Y409563D01*
X629598Y409655D02*
X626628Y409238D01*
X629180Y412625D01*
X629076Y413368D01*
X628229Y414006D01*
X626744Y413797D01*
X626106Y412950D01*
X633310Y410177D02*
X632684Y414632D01*
X630770Y412091D01*
X633740Y412509D01*
X634911Y414945D02*
X635329Y411975D01*
X637022Y410699D01*
X638299Y412392D01*
X637881Y415362D01*
X365941Y367459D02*
Y364460D01*
X368191D01*
Y365960D01*
Y364460D01*
X370440D01*
X365941Y368959D02*
X370440D01*
Y371208D01*
X369690Y371958D01*
X368940D01*
X368191Y371208D01*
Y368959D01*
Y371208D01*
X367441Y371958D01*
X366691D01*
X365941Y371208D01*
Y368959D01*
X370440Y373457D02*
Y374957D01*
Y374207D01*
X365941D01*
X366691Y373457D01*
X244881Y302270D02*
X249380D01*
Y304519D01*
X248630Y305269D01*
X245631D01*
X244881Y304519D01*
Y302270D01*
X245631Y306769D02*
X244881Y307518D01*
Y309018D01*
X245631Y309768D01*
X246381D01*
X247131Y309018D01*
X247881Y309768D01*
X248630D01*
X249380Y309018D01*
Y307518D01*
X248630Y306769D01*
X247881D01*
X247131Y307518D01*
X246381Y306769D01*
X245631D01*
X247131Y307518D02*
Y309018D01*
X558371Y315890D02*
X562870D01*
Y318139D01*
X562120Y318889D01*
X559121D01*
X558371Y318139D01*
Y315890D01*
X562120Y320389D02*
X562870Y321138D01*
Y322638D01*
X562120Y323388D01*
X559121D01*
X558371Y322638D01*
Y321138D01*
X559121Y320389D01*
X559871D01*
X560621Y321138D01*
Y323388D01*
X385971Y187160D02*
X390470D01*
Y189409D01*
X389720Y190159D01*
X386721D01*
X385971Y189409D01*
Y187160D01*
X390470Y191658D02*
Y193158D01*
Y192408D01*
X385971D01*
X386721Y191658D01*
X390470Y195407D02*
Y196907D01*
Y196157D01*
X385971D01*
X386721Y195407D01*
X637522Y373120D02*
X642020D01*
Y375369D01*
X641270Y376119D01*
X638271D01*
X637522Y375369D01*
Y373120D01*
X642020Y377619D02*
Y379118D01*
Y378368D01*
X637522D01*
X638271Y377619D01*
X512750Y198220D02*
Y202719D01*
X514999D01*
X515749Y201969D01*
Y200469D01*
X514999Y199720D01*
X512750D01*
X514250D02*
X515749Y198220D01*
X520248Y202719D02*
X518748Y201969D01*
X517248Y200469D01*
Y198970D01*
X517998Y198220D01*
X519498D01*
X520248Y198970D01*
Y199720D01*
X519498Y200469D01*
X517248D01*
X539840Y198900D02*
Y203399D01*
X542089D01*
X542839Y202649D01*
Y201149D01*
X542089Y200399D01*
X539840D01*
X541339D02*
X542839Y198900D01*
X544339Y203399D02*
X547338D01*
Y202649D01*
X544339Y199650D01*
Y198900D01*
X524790Y165928D02*
Y161430D01*
Y162929D01*
X527789Y165928D01*
X525540Y163679D01*
X527789Y161430D01*
X529289Y165928D02*
Y161430D01*
X531538D01*
X532288Y162180D01*
Y162929D01*
X531538Y163679D01*
X529289D01*
X531538D01*
X532288Y164429D01*
Y165179D01*
X531538Y165928D01*
X529289D01*
X533787D02*
Y161430D01*
X536036D01*
X536786Y162180D01*
Y165179D01*
X536036Y165928D01*
X533787D01*
X277819Y395819D02*
X277069Y396569D01*
X275570D01*
X274820Y395819D01*
Y395069D01*
X275570Y394319D01*
X277069D01*
X277819Y393569D01*
Y392820D01*
X277069Y392070D01*
X275570D01*
X274820Y392820D01*
X282318Y396569D02*
X279319D01*
Y392070D01*
X282318D01*
X279319Y394319D02*
X280818D01*
X283817Y396569D02*
Y392070D01*
X286816D01*
X291315Y396569D02*
X288316D01*
Y392070D01*
X291315D01*
X288316Y394319D02*
X289815D01*
X295813Y395819D02*
X295063Y396569D01*
X293564D01*
X292814Y395819D01*
Y392820D01*
X293564Y392070D01*
X295063D01*
X295813Y392820D01*
X297313Y392070D02*
Y395069D01*
X298812Y396569D01*
X300312Y395069D01*
Y392070D01*
Y394319D01*
X297313D01*
X304061Y396569D02*
X302561D01*
X301811Y395819D01*
Y392820D01*
X302561Y392070D01*
X304061D01*
X304810Y392820D01*
Y395819D01*
X304061Y396569D01*
X263920Y341840D02*
X259421D01*
Y344089D01*
X260171Y344839D01*
X261671D01*
X262421Y344089D01*
Y341840D01*
Y343339D02*
X263920Y344839D01*
Y346339D02*
Y347838D01*
Y347088D01*
X259421D01*
X260171Y346339D01*
Y350087D02*
X259421Y350837D01*
Y352337D01*
X260171Y353086D01*
X263170D01*
X263920Y352337D01*
Y350837D01*
X263170Y350087D01*
X260171D01*
X253080Y343690D02*
X248581D01*
Y345939D01*
X249331Y346689D01*
X250831D01*
X251581Y345939D01*
Y343690D01*
Y345189D02*
X253080Y346689D01*
Y348188D02*
Y349688D01*
Y348938D01*
X248581D01*
X249331Y348188D01*
X253080Y351937D02*
Y353437D01*
Y352687D01*
X248581D01*
X249331Y351937D01*
X243242Y341344D02*
X238859Y342356D01*
X239365Y344547D01*
X240264Y345109D01*
X241725Y344772D01*
X242287Y343873D01*
X241781Y341681D01*
X242119Y343142D02*
X243917Y344266D01*
X244254Y345727D02*
X244592Y347188D01*
X244423Y346458D01*
X240040Y347470D01*
X240602Y346570D01*
X241445Y350223D02*
X240883Y351122D01*
X241220Y352583D01*
X242120Y353145D01*
X242850Y352977D01*
X243412Y352077D01*
X243243Y351347D01*
X243412Y352077D01*
X244311Y352639D01*
X245042Y352471D01*
X245603Y351571D01*
X245266Y350110D01*
X244367Y349549D01*
X232402Y341334D02*
X228019Y342346D01*
X228525Y344537D01*
X229424Y345099D01*
X230885Y344762D01*
X231447Y343863D01*
X230941Y341671D01*
X231279Y343132D02*
X233077Y344256D01*
X233414Y345717D02*
X233752Y347178D01*
X233583Y346448D01*
X229200Y347460D01*
X229762Y346560D01*
X230549Y353304D02*
X229874Y350382D01*
X232066Y349876D01*
X231673Y351505D01*
X231841Y352236D01*
X232741Y352798D01*
X234202Y352461D01*
X234764Y351561D01*
X234426Y350100D01*
X233527Y349538D01*
X223570Y341850D02*
X219072D01*
Y344099D01*
X219821Y344849D01*
X221321D01*
X222071Y344099D01*
Y341850D01*
Y343350D02*
X223570Y344849D01*
Y346349D02*
Y347848D01*
Y347098D01*
X219072D01*
X219821Y346349D01*
Y350097D02*
X219072Y350847D01*
Y352347D01*
X219821Y353096D01*
X220571D01*
X221321Y352347D01*
X222071Y353096D01*
X222820D01*
X223570Y352347D01*
Y350847D01*
X222820Y350097D01*
X222071D01*
X221321Y350847D01*
X220571Y350097D01*
X219821D01*
X221321Y350847D02*
Y352347D01*
X213740Y342050D02*
X209241D01*
Y344299D01*
X209991Y345049D01*
X211491D01*
X212241Y344299D01*
Y342050D01*
Y343549D02*
X213740Y345049D01*
Y346549D02*
Y348048D01*
Y347298D01*
X209241D01*
X209991Y346549D01*
X212990Y350297D02*
X213740Y351047D01*
Y352547D01*
X212990Y353296D01*
X209991D01*
X209241Y352547D01*
Y351047D01*
X209991Y350297D01*
X210741D01*
X211491Y351047D01*
Y353296D01*
X203330Y340680D02*
X198831D01*
Y342929D01*
X199581Y343679D01*
X201081D01*
X201831Y342929D01*
Y340680D01*
Y342179D02*
X203330Y343679D01*
Y348178D02*
Y345179D01*
X200331Y348178D01*
X199581D01*
X198831Y347428D01*
Y345928D01*
X199581Y345179D01*
Y349677D02*
X198831Y350427D01*
Y351926D01*
X199581Y352676D01*
X202580D01*
X203330Y351926D01*
Y350427D01*
X202580Y349677D01*
X199581D01*
X194040Y341840D02*
X189541D01*
Y344089D01*
X190291Y344839D01*
X191791D01*
X192541Y344089D01*
Y341840D01*
Y343339D02*
X194040Y344839D01*
Y349338D02*
Y346339D01*
X191041Y349338D01*
X190291D01*
X189541Y348588D01*
Y347088D01*
X190291Y346339D01*
X194040Y350837D02*
Y352337D01*
Y351587D01*
X189541D01*
X190291Y350837D01*
X524269Y235320D02*
Y238319D01*
X523519Y239069D01*
X522020D01*
X521270Y238319D01*
Y235320D01*
X522020Y234570D01*
X523519D01*
X522769Y236069D02*
X524269Y234570D01*
X523519D02*
X524269Y235320D01*
X525769Y234570D02*
X527268D01*
X526518D01*
Y239069D01*
X525769Y238319D01*
X516630Y221840D02*
X512132D01*
Y224089D01*
X512881Y224839D01*
X514381D01*
X515131Y224089D01*
Y221840D01*
Y223340D02*
X516630Y224839D01*
Y226339D02*
Y227838D01*
Y227088D01*
X512132D01*
X512881Y226339D01*
X516630Y233086D02*
Y230087D01*
X513631Y233086D01*
X512881D01*
X512132Y232337D01*
Y230837D01*
X512881Y230087D01*
X545619Y264949D02*
X544869Y265699D01*
X543370D01*
X542620Y264949D01*
Y264199D01*
X543370Y263449D01*
X544869D01*
X545619Y262700D01*
Y261950D01*
X544869Y261200D01*
X543370D01*
X542620Y261950D01*
X547119Y261200D02*
Y265699D01*
X549368D01*
X550118Y264949D01*
Y263449D01*
X549368Y262700D01*
X547119D01*
X551617Y265699D02*
Y261200D01*
Y262700D01*
X554616Y265699D01*
X552367Y263449D01*
X554616Y261200D01*
X559061Y275260D02*
X563560D01*
Y277509D01*
X562810Y278259D01*
X559811D01*
X559061Y277509D01*
Y275260D01*
X563560Y279759D02*
Y281258D01*
Y280508D01*
X559061D01*
X559811Y279759D01*
Y283507D02*
X559061Y284257D01*
Y285757D01*
X559811Y286506D01*
X560561D01*
X561311Y285757D01*
Y285007D01*
Y285757D01*
X562060Y286506D01*
X562810D01*
X563560Y285757D01*
Y284257D01*
X562810Y283507D01*
X260390Y284110D02*
X255891D01*
Y286359D01*
X256641Y287109D01*
X258141D01*
X258891Y286359D01*
Y284110D01*
Y285610D02*
X260390Y287109D01*
Y291608D02*
Y288609D01*
X257391Y291608D01*
X256641D01*
X255891Y290858D01*
Y289358D01*
X256641Y288609D01*
X260390Y296106D02*
Y293107D01*
X257391Y296106D01*
X256641D01*
X255891Y295356D01*
Y293857D01*
X256641Y293107D01*
X261080Y318899D02*
Y314400D01*
Y316649D01*
X264079D01*
Y318899D01*
Y314400D01*
X265579Y318899D02*
Y314400D01*
X267828D01*
X268578Y315150D01*
Y315899D01*
X267828Y316649D01*
X265579D01*
X267828D01*
X268578Y317399D01*
Y318149D01*
X267828Y318899D01*
X265579D01*
X414291Y178669D02*
Y177170D01*
Y177919D01*
X418040D01*
X418790Y177170D01*
Y176420D01*
X418040Y175670D01*
X414291Y180169D02*
Y183168D01*
Y181668D01*
X418790D01*
Y184667D02*
X415791D01*
X414291Y186167D01*
X415791Y187666D01*
X418790D01*
X416541D01*
Y184667D01*
X415041Y192165D02*
X414291Y191415D01*
Y189915D01*
X415041Y189166D01*
X418040D01*
X418790Y189915D01*
Y191415D01*
X418040Y192165D01*
X416541D01*
Y190665D01*
X664901Y291710D02*
X669400D01*
Y293959D01*
X668650Y294709D01*
X667901D01*
X667151Y293959D01*
Y291710D01*
Y293959D01*
X666401Y294709D01*
X665651D01*
X664901Y293959D01*
Y291710D01*
Y299208D02*
Y296209D01*
X669400D01*
Y299208D01*
X667151Y296209D02*
Y297708D01*
X665651Y303706D02*
X664901Y302956D01*
Y301457D01*
X665651Y300707D01*
X668650D01*
X669400Y301457D01*
Y302956D01*
X668650Y303706D01*
X664901Y305206D02*
X669400D01*
X667901D01*
X664901Y308205D01*
X667151Y305955D01*
X669400Y308205D01*
X664901Y309704D02*
X669400D01*
X667151D01*
Y312703D01*
X664901D01*
X669400D01*
X664901Y316452D02*
Y314952D01*
X665651Y314203D01*
X668650D01*
X669400Y314952D01*
Y316452D01*
X668650Y317202D01*
X665651D01*
X664901Y316452D01*
Y321700D02*
Y318701D01*
X667151D01*
Y320201D01*
Y318701D01*
X669400D01*
X664901Y326199D02*
Y323200D01*
X667151D01*
Y324699D01*
Y323200D01*
X669400D01*
X664661Y241630D02*
Y243129D01*
Y242380D01*
X669160D01*
Y241630D01*
Y243129D01*
Y245379D02*
X664661D01*
X669160Y248378D01*
X664661D01*
Y249877D02*
X667661D01*
X669160Y251377D01*
X667661Y252876D01*
X664661D01*
Y257375D02*
Y254376D01*
X669160D01*
Y257375D01*
X666911Y254376D02*
Y255875D01*
X669160Y258874D02*
X664661D01*
Y261124D01*
X665411Y261874D01*
X666911D01*
X667661Y261124D01*
Y258874D01*
Y260374D02*
X669160Y261874D01*
X665411Y266372D02*
X664661Y265622D01*
Y264123D01*
X665411Y263373D01*
X666161D01*
X666911Y264123D01*
Y265622D01*
X667661Y266372D01*
X668410D01*
X669160Y265622D01*
Y264123D01*
X668410Y263373D01*
X664661Y270121D02*
Y268621D01*
X665411Y267871D01*
X668410D01*
X669160Y268621D01*
Y270121D01*
X668410Y270871D01*
X665411D01*
X664661Y270121D01*
X669160Y272370D02*
X664661D01*
Y274619D01*
X665411Y275369D01*
X666911D01*
X667661Y274619D01*
Y272370D01*
Y273870D02*
X669160Y275369D01*
X664661Y279868D02*
Y276869D01*
X669160D01*
Y279868D01*
X666911Y276869D02*
Y278368D01*
X665411Y284366D02*
X664661Y283616D01*
Y282117D01*
X665411Y281367D01*
X666161D01*
X666911Y282117D01*
Y283616D01*
X667661Y284366D01*
X668410D01*
X669160Y283616D01*
Y282117D01*
X668410Y281367D01*
X300000Y244489D02*
Y240740D01*
X300750Y239990D01*
X302249D01*
X302999Y240740D01*
Y244489D01*
X307498D02*
X304499D01*
Y242239D01*
X305998Y242989D01*
X306748D01*
X307498Y242239D01*
Y240740D01*
X306748Y239990D01*
X305248D01*
X304499Y240740D01*
X613799Y320849D02*
X613049Y321599D01*
X611550D01*
X610800Y320849D01*
Y317850D01*
X611550Y317100D01*
X613049D01*
X613799Y317850D01*
X618298Y317100D02*
X615299D01*
X618298Y320099D01*
Y320849D01*
X617548Y321599D01*
X616048D01*
X615299Y320849D01*
X619797Y317850D02*
X620547Y317100D01*
X622046D01*
X622796Y317850D01*
Y320849D01*
X622046Y321599D01*
X620547D01*
X619797Y320849D01*
Y320099D01*
X620547Y319349D01*
X622796D01*
X334800Y384500D02*
Y388999D01*
X337049D01*
X337799Y388249D01*
Y386749D01*
X337049Y385999D01*
X334800D01*
X336299D02*
X337799Y384500D01*
X341548D02*
Y388999D01*
X339299Y386749D01*
X342298D01*
X343797Y385250D02*
X344547Y384500D01*
X346046D01*
X346796Y385250D01*
Y388249D01*
X346046Y388999D01*
X344547D01*
X343797Y388249D01*
Y387499D01*
X344547Y386749D01*
X346796D01*
X351800Y384500D02*
Y388999D01*
X354049D01*
X354799Y388249D01*
Y386749D01*
X354049Y385999D01*
X351800D01*
X353299D02*
X354799Y384500D01*
X359298Y388999D02*
X356298D01*
Y386749D01*
X357798Y387499D01*
X358548D01*
X359298Y386749D01*
Y385250D01*
X358548Y384500D01*
X357048D01*
X356298Y385250D01*
X360797Y388249D02*
X361547Y388999D01*
X363046D01*
X363796Y388249D01*
Y385250D01*
X363046Y384500D01*
X361547D01*
X360797Y385250D01*
Y388249D01*
X341520Y303460D02*
X337021D01*
Y305709D01*
X337771Y306459D01*
X339271D01*
X340020Y305709D01*
Y303460D01*
Y304960D02*
X341520Y306459D01*
Y310208D02*
X337021D01*
X339271Y307959D01*
Y310958D01*
X337771Y312457D02*
X337021Y313207D01*
Y314706D01*
X337771Y315456D01*
X338521D01*
X339271Y314706D01*
Y313957D01*
Y314706D01*
X340020Y315456D01*
X340770D01*
X341520Y314706D01*
Y313207D01*
X340770Y312457D01*
X347670Y311980D02*
X343172D01*
Y314229D01*
X343921Y314979D01*
X345421D01*
X346170Y314229D01*
Y311980D01*
Y313479D02*
X347670Y314979D01*
Y318728D02*
X343172D01*
X345421Y316478D01*
Y319478D01*
X347670Y323976D02*
Y320977D01*
X344671Y323976D01*
X343921D01*
X343172Y323226D01*
Y321727D01*
X343921Y320977D01*
X212269Y164679D02*
X211519Y165428D01*
X210020D01*
X209270Y164679D01*
Y161680D01*
X210020Y160930D01*
X211519D01*
X212269Y161680D01*
X216768Y160930D02*
X213769D01*
X216768Y163929D01*
Y164679D01*
X216018Y165428D01*
X214518D01*
X213769Y164679D01*
X218267D02*
X219017Y165428D01*
X220516D01*
X221266Y164679D01*
Y163929D01*
X220516Y163179D01*
X219767D01*
X220516D01*
X221266Y162429D01*
Y161680D01*
X220516Y160930D01*
X219017D01*
X218267Y161680D01*
X190330Y159530D02*
Y164029D01*
X192579D01*
X193329Y163279D01*
Y161779D01*
X192579Y161030D01*
X190330D01*
X191830D02*
X193329Y159530D01*
X194828Y163279D02*
X195578Y164029D01*
X197078D01*
X197828Y163279D01*
Y162529D01*
X197078Y161779D01*
X196328D01*
X197078D01*
X197828Y161030D01*
Y160280D01*
X197078Y159530D01*
X195578D01*
X194828Y160280D01*
X199327Y164029D02*
X202326D01*
Y163279D01*
X199327Y160280D01*
Y159530D01*
X414381Y255320D02*
X417047D01*
X418380Y256653D01*
X417047Y257986D01*
X414381D01*
Y259319D02*
X418380D01*
Y261318D01*
X417714Y261984D01*
X417047D01*
X416381Y261318D01*
Y259319D01*
Y261318D01*
X415714Y261984D01*
X415048D01*
X414381Y261318D01*
Y259319D01*
X418380Y263317D02*
X415714D01*
X414381Y264650D01*
X415714Y265983D01*
X418380D01*
X416381D01*
Y263317D01*
X414381Y267316D02*
Y269982D01*
Y268649D01*
X418380D01*
X416381Y271315D02*
Y273981D01*
X415048Y272648D02*
X417714D01*
X601502Y387350D02*
X606000D01*
Y389599D01*
X605250Y390349D01*
X602251D01*
X601502Y389599D01*
Y387350D01*
X606000Y394848D02*
Y391848D01*
X603001Y394848D01*
X602251D01*
X601502Y394098D01*
Y392598D01*
X602251Y391848D01*
X606000Y396347D02*
Y397847D01*
Y397097D01*
X601502D01*
X602251Y396347D01*
X439899Y233344D02*
X439149Y234094D01*
X437650D01*
X436900Y233344D01*
Y230345D01*
X437650Y229595D01*
X439149D01*
X439899Y230345D01*
X441398Y233344D02*
X442148Y234094D01*
X443648D01*
X444398Y233344D01*
Y232594D01*
X443648Y231844D01*
X442898D01*
X443648D01*
X444398Y231095D01*
Y230345D01*
X443648Y229595D01*
X442148D01*
X441398Y230345D01*
X445897Y233344D02*
X446647Y234094D01*
X448146D01*
X448896Y233344D01*
Y230345D01*
X448146Y229595D01*
X446647D01*
X445897Y230345D01*
Y233344D01*
D26*
X363200Y237977D02*
Y237943D01*
Y237960D01*
X363283D01*
X363300Y237943D01*
Y237927D01*
X363283Y237910D01*
X363300Y238010D02*
X363200D01*
Y238060D01*
X363217Y238077D01*
X363250D01*
X363267Y238060D01*
Y238010D01*
X363300Y238110D02*
Y238143D01*
Y238127D01*
X363200D01*
X363217Y238110D01*
X448867Y236098D02*
X448833D01*
X448850D01*
Y236015D01*
X448833Y235998D01*
X448817D01*
X448800Y236015D01*
X448900Y235998D02*
Y236098D01*
X448950D01*
X448967Y236081D01*
Y236048D01*
X448950Y236031D01*
X448900D01*
X449000Y236081D02*
X449017Y236098D01*
X449050D01*
X449067Y236081D01*
Y236065D01*
X449050Y236048D01*
X449033D01*
X449050D01*
X449067Y236031D01*
Y236015D01*
X449050Y235998D01*
X449017D01*
X449000Y236015D01*
M02*
