G04*
G04 #@! TF.GenerationSoftware,Altium Limited,Altium Designer,20.1.7 (139)*
G04*
G04 Layer_Color=2752767*
%FSLAX25Y25*%
%MOIN*%
G70*
G04*
G04 #@! TF.SameCoordinates,24E638B0-66B5-4ADB-958A-7C5563F4B5AF*
G04*
G04*
G04 #@! TF.FilePolarity,Positive*
G04*
G01*
G75*
%ADD168C,0.00200*%
%ADD169C,0.00267*%
%ADD170C,0.00133*%
D168*
X217500Y284500D02*
Y286100D01*
X219100D01*
Y284500D01*
X217500D01*
Y274500D02*
Y276100D01*
X219100D01*
Y274500D01*
X217500D01*
X182710Y303990D02*
X181910Y305590D01*
X183510D01*
X182710Y303990D01*
Y321310D02*
X181910Y322910D01*
X183510D01*
X182710Y321310D01*
X257350Y325230D02*
Y326830D01*
X258950D01*
Y325230D01*
X257350D01*
X247350D02*
Y326830D01*
X248950D01*
Y325230D01*
X247350D01*
X237350D02*
Y326830D01*
X238950D01*
Y325230D01*
X237350D01*
X305290Y169330D02*
X305690Y169730D01*
X306090D01*
X305690Y170130D01*
X306090Y170530D01*
X305690D01*
X305290Y170930D01*
X304890Y170530D01*
X304490D01*
X304890Y170130D01*
X304490Y169730D01*
X304890D01*
X305290Y169330D01*
X285290D02*
X285690Y169730D01*
X286090D01*
X285690Y170130D01*
X286090Y170530D01*
X285690D01*
X285290Y170930D01*
X284890Y170530D01*
X284490D01*
X284890Y170130D01*
X284490Y169730D01*
X284890D01*
X285290Y169330D01*
X544130Y173000D02*
Y174600D01*
X545730D01*
Y173000D01*
X544130D01*
X534130D02*
Y174600D01*
X535730D01*
Y173000D01*
X534130D01*
X524130D02*
Y174600D01*
X525730D01*
Y173000D01*
X524130D01*
X514130D02*
Y174600D01*
X515730D01*
Y173000D01*
X514130D01*
X190050Y376770D02*
X190450Y377570D01*
X190050Y378370D01*
X190850Y377970D01*
X191650Y378370D01*
X191250Y377570D01*
X191650Y376770D01*
X190850Y377170D01*
X190050Y376770D01*
X200050D02*
X200450Y377570D01*
X200050Y378370D01*
X200850Y377970D01*
X201650Y378370D01*
X201250Y377570D01*
X201650Y376770D01*
X200850Y377170D01*
X200050Y376770D01*
X210050D02*
X210450Y377570D01*
X210050Y378370D01*
X210850Y377970D01*
X211650Y378370D01*
X211250Y377570D01*
X211650Y376770D01*
X210850Y377170D01*
X210050Y376770D01*
X220050D02*
X220450Y377570D01*
X220050Y378370D01*
X220850Y377970D01*
X221650Y378370D01*
X221250Y377570D01*
X221650Y376770D01*
X220850Y377170D01*
X220050Y376770D01*
X230050D02*
X230450Y377570D01*
X230050Y378370D01*
X230850Y377970D01*
X231650Y378370D01*
X231250Y377570D01*
X231650Y376770D01*
X230850Y377170D01*
X230050Y376770D01*
X240050D02*
X240450Y377570D01*
X240050Y378370D01*
X240850Y377970D01*
X241650Y378370D01*
X241250Y377570D01*
X241650Y376770D01*
X240850Y377170D01*
X240050Y376770D01*
X250050D02*
X250450Y377570D01*
X250050Y378370D01*
X250850Y377970D01*
X251650Y378370D01*
X251250Y377570D01*
X251650Y376770D01*
X250850Y377170D01*
X250050Y376770D01*
X260050D02*
X260450Y377570D01*
X260050Y378370D01*
X260850Y377970D01*
X261650Y378370D01*
X261250Y377570D01*
X261650Y376770D01*
X260850Y377170D01*
X260050Y376770D01*
Y406770D02*
X260450Y407570D01*
X260050Y408370D01*
X260850Y407970D01*
X261650Y408370D01*
X261250Y407570D01*
X261650Y406770D01*
X260850Y407170D01*
X260050Y406770D01*
X250050D02*
X250450Y407570D01*
X250050Y408370D01*
X250850Y407970D01*
X251650Y408370D01*
X251250Y407570D01*
X251650Y406770D01*
X250850Y407170D01*
X250050Y406770D01*
X240050D02*
X240450Y407570D01*
X240050Y408370D01*
X240850Y407970D01*
X241650Y408370D01*
X241250Y407570D01*
X241650Y406770D01*
X240850Y407170D01*
X240050Y406770D01*
X230050D02*
X230450Y407570D01*
X230050Y408370D01*
X230850Y407970D01*
X231650Y408370D01*
X231250Y407570D01*
X231650Y406770D01*
X230850Y407170D01*
X230050Y406770D01*
X220050D02*
X220450Y407570D01*
X220050Y408370D01*
X220850Y407970D01*
X221650Y408370D01*
X221250Y407570D01*
X221650Y406770D01*
X220850Y407170D01*
X220050Y406770D01*
X210050D02*
X210450Y407570D01*
X210050Y408370D01*
X210850Y407970D01*
X211650Y408370D01*
X211250Y407570D01*
X211650Y406770D01*
X210850Y407170D01*
X210050Y406770D01*
X200050D02*
X200450Y407570D01*
X200050Y408370D01*
X200850Y407970D01*
X201650Y408370D01*
X201250Y407570D01*
X201650Y406770D01*
X200850Y407170D01*
X200050Y406770D01*
X190050D02*
X190450Y407570D01*
X190050Y408370D01*
X190850Y407970D01*
X191650Y408370D01*
X191250Y407570D01*
X191650Y406770D01*
X190850Y407170D01*
X190050Y406770D01*
X517400Y252900D02*
Y252500D01*
X518200D01*
Y252900D01*
X518600D01*
Y253700D01*
X518200D01*
Y254100D01*
X517400D01*
Y253700D01*
X517000D01*
Y252900D01*
X517400D01*
Y278500D02*
Y278100D01*
X518200D01*
Y278500D01*
X518600D01*
Y279300D01*
X518200D01*
Y279700D01*
X517400D01*
Y279300D01*
X517000D01*
Y278500D01*
X517400D01*
X439530Y174830D02*
X439930D01*
X440330Y175230D01*
X440730Y174830D01*
X441130D01*
Y175230D01*
X440730Y175630D01*
X441130Y176030D01*
Y176430D01*
X440730D01*
X440330Y176030D01*
X439930Y176430D01*
X439530D01*
Y176030D01*
X439930Y175630D01*
X439530Y175230D01*
Y174830D01*
X439535Y184825D02*
X439935D01*
X440335Y185225D01*
X440735Y184825D01*
X441135D01*
Y185225D01*
X440735Y185625D01*
X441135Y186025D01*
Y186425D01*
X440735D01*
X440335Y186025D01*
X439935Y186425D01*
X439535D01*
Y186025D01*
X439935Y185625D01*
X439535Y185225D01*
Y184825D01*
X449535Y174825D02*
X449935D01*
X450335Y175225D01*
X450735Y174825D01*
X451135D01*
Y175225D01*
X450735Y175625D01*
X451135Y176025D01*
Y176425D01*
X450735D01*
X450335Y176025D01*
X449935Y176425D01*
X449535D01*
Y176025D01*
X449935Y175625D01*
X449535Y175225D01*
Y174825D01*
Y184825D02*
X449935D01*
X450335Y185225D01*
X450735Y184825D01*
X451135D01*
Y185225D01*
X450735Y185625D01*
X451135Y186025D01*
Y186425D01*
X450735D01*
X450335Y186025D01*
X449935Y186425D01*
X449535D01*
Y186025D01*
X449935Y185625D01*
X449535Y185225D01*
Y184825D01*
X459535Y174825D02*
X459935D01*
X460335Y175225D01*
X460735Y174825D01*
X461135D01*
Y175225D01*
X460735Y175625D01*
X461135Y176025D01*
Y176425D01*
X460735D01*
X460335Y176025D01*
X459935Y176425D01*
X459535D01*
Y176025D01*
X459935Y175625D01*
X459535Y175225D01*
Y174825D01*
Y184825D02*
X459935D01*
X460335Y185225D01*
X460735Y184825D01*
X461135D01*
Y185225D01*
X460735Y185625D01*
X461135Y186025D01*
Y186425D01*
X460735D01*
X460335Y186025D01*
X459935Y186425D01*
X459535D01*
Y186025D01*
X459935Y185625D01*
X459535Y185225D01*
Y184825D01*
X469535Y174825D02*
X469935D01*
X470335Y175225D01*
X470735Y174825D01*
X471135D01*
Y175225D01*
X470735Y175625D01*
X471135Y176025D01*
Y176425D01*
X470735D01*
X470335Y176025D01*
X469935Y176425D01*
X469535D01*
Y176025D01*
X469935Y175625D01*
X469535Y175225D01*
Y174825D01*
Y184825D02*
X469935D01*
X470335Y185225D01*
X470735Y184825D01*
X471135D01*
Y185225D01*
X470735Y185625D01*
X471135Y186025D01*
Y186425D01*
X470735D01*
X470335Y186025D01*
X469935Y186425D01*
X469535D01*
Y186025D01*
X469935Y185625D01*
X469535Y185225D01*
Y184825D01*
X479535Y174825D02*
X479935D01*
X480335Y175225D01*
X480735Y174825D01*
X481135D01*
Y175225D01*
X480735Y175625D01*
X481135Y176025D01*
Y176425D01*
X480735D01*
X480335Y176025D01*
X479935Y176425D01*
X479535D01*
Y176025D01*
X479935Y175625D01*
X479535Y175225D01*
Y174825D01*
Y184825D02*
X479935D01*
X480335Y185225D01*
X480735Y184825D01*
X481135D01*
Y185225D01*
X480735Y185625D01*
X481135Y186025D01*
Y186425D01*
X480735D01*
X480335Y186025D01*
X479935Y186425D01*
X479535D01*
Y186025D01*
X479935Y185625D01*
X479535Y185225D01*
Y184825D01*
X192200Y242320D02*
X193000Y243120D01*
X193800Y242320D01*
X193000Y241520D01*
X192200Y242320D01*
Y195080D02*
X193000Y195880D01*
X193800Y195080D01*
X193000Y194280D01*
X192200Y195080D01*
X217200Y235400D02*
Y237000D01*
X218800D01*
Y235400D01*
X217200D01*
X217600Y235800D02*
Y236600D01*
X218400D01*
Y235800D01*
X217600D01*
X227200Y230400D02*
Y232000D01*
X228800D01*
Y230400D01*
X227200D01*
X227600Y230800D02*
Y231600D01*
X228400D01*
Y230800D01*
X227600D01*
X217200Y225400D02*
Y227000D01*
X218800D01*
Y225400D01*
X217200D01*
X217600Y225800D02*
Y226600D01*
X218400D01*
Y225800D01*
X217600D01*
X227200Y220400D02*
Y222000D01*
X228800D01*
Y220400D01*
X227200D01*
X227600Y220800D02*
Y221600D01*
X228400D01*
Y220800D01*
X227600D01*
X217200Y215400D02*
Y217000D01*
X218800D01*
Y215400D01*
X217200D01*
X217600Y215800D02*
Y216600D01*
X218400D01*
Y215800D01*
X217600D01*
X227200Y210400D02*
Y212000D01*
X228800D01*
Y210400D01*
X227200D01*
X227600Y210800D02*
Y211600D01*
X228400D01*
Y210800D01*
X227600D01*
X217200Y205400D02*
Y207000D01*
X218800D01*
Y205400D01*
X217200D01*
X217600Y205800D02*
Y206600D01*
X218400D01*
Y205800D01*
X217600D01*
X227200Y200400D02*
Y202000D01*
X228800D01*
Y200400D01*
X227200D01*
X227600Y200800D02*
Y201600D01*
X228400D01*
Y200800D01*
X227600D01*
X172900Y243900D02*
Y245500D01*
X174500D01*
Y243900D01*
X172900D01*
X173300Y244300D02*
Y245100D01*
X174100D01*
Y244300D01*
X173300D01*
X178420Y233650D02*
Y235250D01*
X180020D01*
Y233650D01*
X178420D01*
X178820Y234050D02*
Y234850D01*
X179620D01*
Y234050D01*
X178820D01*
X172900Y201900D02*
Y203500D01*
X174500D01*
Y201900D01*
X172900D01*
X173300Y202300D02*
Y203100D01*
X174100D01*
Y202300D01*
X173300D01*
X178420Y192310D02*
Y193910D01*
X180020D01*
Y192310D01*
X178420D01*
X178820Y192710D02*
Y193510D01*
X179620D01*
Y192710D01*
X178820D01*
X676730Y373210D02*
X675930Y374810D01*
X677530D01*
X676730Y373210D01*
Y373610D02*
X676330Y374410D01*
X677130D01*
X676730Y373610D01*
Y362310D02*
X675930Y363910D01*
X677530D01*
X676730Y362310D01*
Y362710D02*
X676330Y363510D01*
X677130D01*
X676730Y362710D01*
Y351410D02*
X675930Y353010D01*
X677530D01*
X676730Y351410D01*
Y351810D02*
X676330Y352610D01*
X677130D01*
X676730Y351810D01*
Y340510D02*
X675930Y342110D01*
X677530D01*
X676730Y340510D01*
Y340910D02*
X676330Y341710D01*
X677130D01*
X676730Y340910D01*
Y329610D02*
X675930Y331210D01*
X677530D01*
X676730Y329610D01*
Y330010D02*
X676330Y330810D01*
X677130D01*
X676730Y330010D01*
X687930Y367710D02*
X687130Y369310D01*
X688730D01*
X687930Y367710D01*
Y368110D02*
X687530Y368910D01*
X688330D01*
X687930Y368110D01*
Y356810D02*
X687130Y358410D01*
X688730D01*
X687930Y356810D01*
Y357210D02*
X687530Y358010D01*
X688330D01*
X687930Y357210D01*
Y346010D02*
X687130Y347610D01*
X688730D01*
X687930Y346010D01*
Y346410D02*
X687530Y347210D01*
X688330D01*
X687930Y346410D01*
Y335110D02*
X687130Y336710D01*
X688730D01*
X687930Y335110D01*
Y335510D02*
X687530Y336310D01*
X688330D01*
X687930Y335510D01*
X682330Y400610D02*
X682730Y401010D01*
X683130D01*
X682730Y401410D01*
X683130Y401810D01*
X682730D01*
X682330Y402210D01*
X681930Y401810D01*
X681530D01*
X681930Y401410D01*
X681530Y401010D01*
X681930D01*
X682330Y400610D01*
Y401010D02*
X682530Y401210D01*
X682730D01*
X682530Y401410D01*
X682730Y401610D01*
X682530D01*
X682330Y401810D01*
X682130Y401610D01*
X681930D01*
X682130Y401410D01*
X681930Y401210D01*
X682130D01*
X682330Y401010D01*
Y302210D02*
X682730Y302610D01*
X683130D01*
X682730Y303010D01*
X683130Y303410D01*
X682730D01*
X682330Y303810D01*
X681930Y303410D01*
X681530D01*
X681930Y303010D01*
X681530Y302610D01*
X681930D01*
X682330Y302210D01*
Y302610D02*
X682530Y302810D01*
X682730D01*
X682530Y303010D01*
X682730Y303210D01*
X682530D01*
X682330Y303410D01*
X682130Y303210D01*
X681930D01*
X682130Y303010D01*
X681930Y302810D01*
X682130D01*
X682330Y302610D01*
X676730Y240340D02*
X675930Y241940D01*
X677530D01*
X676730Y240340D01*
Y240740D02*
X676330Y241540D01*
X677130D01*
X676730Y240740D01*
Y229440D02*
X675930Y231040D01*
X677530D01*
X676730Y229440D01*
Y229840D02*
X676330Y230640D01*
X677130D01*
X676730Y229840D01*
Y218540D02*
X675930Y220140D01*
X677530D01*
X676730Y218540D01*
Y218940D02*
X676330Y219740D01*
X677130D01*
X676730Y218940D01*
Y207640D02*
X675930Y209240D01*
X677530D01*
X676730Y207640D01*
Y208040D02*
X676330Y208840D01*
X677130D01*
X676730Y208040D01*
Y196740D02*
X675930Y198340D01*
X677530D01*
X676730Y196740D01*
Y197140D02*
X676330Y197940D01*
X677130D01*
X676730Y197140D01*
X687930Y234840D02*
X687130Y236440D01*
X688730D01*
X687930Y234840D01*
Y235240D02*
X687530Y236040D01*
X688330D01*
X687930Y235240D01*
Y223940D02*
X687130Y225540D01*
X688730D01*
X687930Y223940D01*
Y224340D02*
X687530Y225140D01*
X688330D01*
X687930Y224340D01*
Y213140D02*
X687130Y214740D01*
X688730D01*
X687930Y213140D01*
Y213540D02*
X687530Y214340D01*
X688330D01*
X687930Y213540D01*
Y202240D02*
X687130Y203840D01*
X688730D01*
X687930Y202240D01*
Y202640D02*
X687530Y203440D01*
X688330D01*
X687930Y202640D01*
X682330Y267740D02*
X682730Y268140D01*
X683130D01*
X682730Y268540D01*
X683130Y268940D01*
X682730D01*
X682330Y269340D01*
X681930Y268940D01*
X681530D01*
X681930Y268540D01*
X681530Y268140D01*
X681930D01*
X682330Y267740D01*
Y268140D02*
X682530Y268340D01*
X682730D01*
X682530Y268540D01*
X682730Y268740D01*
X682530D01*
X682330Y268940D01*
X682130Y268740D01*
X681930D01*
X682130Y268540D01*
X681930Y268340D01*
X682130D01*
X682330Y268140D01*
Y169340D02*
X682730Y169740D01*
X683130D01*
X682730Y170140D01*
X683130Y170540D01*
X682730D01*
X682330Y170940D01*
X681930Y170540D01*
X681530D01*
X681930Y170140D01*
X681530Y169740D01*
X681930D01*
X682330Y169340D01*
Y169740D02*
X682530Y169940D01*
X682730D01*
X682530Y170140D01*
X682730Y170340D01*
X682530D01*
X682330Y170540D01*
X682130Y170340D01*
X681930D01*
X682130Y170140D01*
X681930Y169940D01*
X682130D01*
X682330Y169740D01*
X465830Y400040D02*
X466230D01*
X466630Y400440D01*
X467030Y400040D01*
X467430D01*
Y400440D01*
X467030Y400840D01*
X467430Y401240D01*
Y401640D01*
X467030D01*
X466630Y401240D01*
X466230Y401640D01*
X465830D01*
Y401240D01*
X466230Y400840D01*
X465830Y400440D01*
Y400040D01*
X455830Y210040D02*
X456230D01*
X456630Y210440D01*
X457030Y210040D01*
X457430D01*
Y210440D01*
X457030Y210840D01*
X457430Y211240D01*
Y211640D01*
X457030D01*
X456630Y211240D01*
X456230Y211640D01*
X455830D01*
Y211240D01*
X456230Y210840D01*
X455830Y210440D01*
Y210040D01*
X475830Y400040D02*
X476230D01*
X476630Y400440D01*
X477030Y400040D01*
X477430D01*
Y400440D01*
X477030Y400840D01*
X477430Y401240D01*
Y401640D01*
X477030D01*
X476630Y401240D01*
X476230Y401640D01*
X475830D01*
Y401240D01*
X476230Y400840D01*
X475830Y400440D01*
Y400040D01*
X485830D02*
X486230D01*
X486630Y400440D01*
X487030Y400040D01*
X487430D01*
Y400440D01*
X487030Y400840D01*
X487430Y401240D01*
Y401640D01*
X487030D01*
X486630Y401240D01*
X486230Y401640D01*
X485830D01*
Y401240D01*
X486230Y400840D01*
X485830Y400440D01*
Y400040D01*
X495830D02*
X496230D01*
X496630Y400440D01*
X497030Y400040D01*
X497430D01*
Y400440D01*
X497030Y400840D01*
X497430Y401240D01*
Y401640D01*
X497030D01*
X496630Y401240D01*
X496230Y401640D01*
X495830D01*
Y401240D01*
X496230Y400840D01*
X495830Y400440D01*
Y400040D01*
X505830D02*
X506230D01*
X506630Y400440D01*
X507030Y400040D01*
X507430D01*
Y400440D01*
X507030Y400840D01*
X507430Y401240D01*
Y401640D01*
X507030D01*
X506630Y401240D01*
X506230Y401640D01*
X505830D01*
Y401240D01*
X506230Y400840D01*
X505830Y400440D01*
Y400040D01*
X455830D02*
X456230D01*
X456630Y400440D01*
X457030Y400040D01*
X457430D01*
Y400440D01*
X457030Y400840D01*
X457430Y401240D01*
Y401640D01*
X457030D01*
X456630Y401240D01*
X456230Y401640D01*
X455830D01*
Y401240D01*
X456230Y400840D01*
X455830Y400440D01*
Y400040D01*
X445830D02*
X446230D01*
X446630Y400440D01*
X447030Y400040D01*
X447430D01*
Y400440D01*
X447030Y400840D01*
X447430Y401240D01*
Y401640D01*
X447030D01*
X446630Y401240D01*
X446230Y401640D01*
X445830D01*
Y401240D01*
X446230Y400840D01*
X445830Y400440D01*
Y400040D01*
X435830D02*
X436230D01*
X436630Y400440D01*
X437030Y400040D01*
X437430D01*
Y400440D01*
X437030Y400840D01*
X437430Y401240D01*
Y401640D01*
X437030D01*
X436630Y401240D01*
X436230Y401640D01*
X435830D01*
Y401240D01*
X436230Y400840D01*
X435830Y400440D01*
Y400040D01*
X419830D02*
X420230D01*
X420630Y400440D01*
X421030Y400040D01*
X421430D01*
Y400440D01*
X421030Y400840D01*
X421430Y401240D01*
Y401640D01*
X421030D01*
X420630Y401240D01*
X420230Y401640D01*
X419830D01*
Y401240D01*
X420230Y400840D01*
X419830Y400440D01*
Y400040D01*
X409830D02*
X410230D01*
X410630Y400440D01*
X411030Y400040D01*
X411430D01*
Y400440D01*
X411030Y400840D01*
X411430Y401240D01*
Y401640D01*
X411030D01*
X410630Y401240D01*
X410230Y401640D01*
X409830D01*
Y401240D01*
X410230Y400840D01*
X409830Y400440D01*
Y400040D01*
X399830D02*
X400230D01*
X400630Y400440D01*
X401030Y400040D01*
X401430D01*
Y400440D01*
X401030Y400840D01*
X401430Y401240D01*
Y401640D01*
X401030D01*
X400630Y401240D01*
X400230Y401640D01*
X399830D01*
Y401240D01*
X400230Y400840D01*
X399830Y400440D01*
Y400040D01*
X389830D02*
X390230D01*
X390630Y400440D01*
X391030Y400040D01*
X391430D01*
Y400440D01*
X391030Y400840D01*
X391430Y401240D01*
Y401640D01*
X391030D01*
X390630Y401240D01*
X390230Y401640D01*
X389830D01*
Y401240D01*
X390230Y400840D01*
X389830Y400440D01*
Y400040D01*
X379830D02*
X380230D01*
X380630Y400440D01*
X381030Y400040D01*
X381430D01*
Y400440D01*
X381030Y400840D01*
X381430Y401240D01*
Y401640D01*
X381030D01*
X380630Y401240D01*
X380230Y401640D01*
X379830D01*
Y401240D01*
X380230Y400840D01*
X379830Y400440D01*
Y400040D01*
X369830D02*
X370230D01*
X370630Y400440D01*
X371030Y400040D01*
X371430D01*
Y400440D01*
X371030Y400840D01*
X371430Y401240D01*
Y401640D01*
X371030D01*
X370630Y401240D01*
X370230Y401640D01*
X369830D01*
Y401240D01*
X370230Y400840D01*
X369830Y400440D01*
Y400040D01*
X359830D02*
X360230D01*
X360630Y400440D01*
X361030Y400040D01*
X361430D01*
Y400440D01*
X361030Y400840D01*
X361430Y401240D01*
Y401640D01*
X361030D01*
X360630Y401240D01*
X360230Y401640D01*
X359830D01*
Y401240D01*
X360230Y400840D01*
X359830Y400440D01*
Y400040D01*
X349830D02*
X350230D01*
X350630Y400440D01*
X351030Y400040D01*
X351430D01*
Y400440D01*
X351030Y400840D01*
X351430Y401240D01*
Y401640D01*
X351030D01*
X350630Y401240D01*
X350230Y401640D01*
X349830D01*
Y401240D01*
X350230Y400840D01*
X349830Y400440D01*
Y400040D01*
X465830Y210040D02*
X466230D01*
X466630Y210440D01*
X467030Y210040D01*
X467430D01*
Y210440D01*
X467030Y210840D01*
X467430Y211240D01*
Y211640D01*
X467030D01*
X466630Y211240D01*
X466230Y211640D01*
X465830D01*
Y211240D01*
X466230Y210840D01*
X465830Y210440D01*
Y210040D01*
X475830D02*
X476230D01*
X476630Y210440D01*
X477030Y210040D01*
X477430D01*
Y210440D01*
X477030Y210840D01*
X477430Y211240D01*
Y211640D01*
X477030D01*
X476630Y211240D01*
X476230Y211640D01*
X475830D01*
Y211240D01*
X476230Y210840D01*
X475830Y210440D01*
Y210040D01*
X485830D02*
X486230D01*
X486630Y210440D01*
X487030Y210040D01*
X487430D01*
Y210440D01*
X487030Y210840D01*
X487430Y211240D01*
Y211640D01*
X487030D01*
X486630Y211240D01*
X486230Y211640D01*
X485830D01*
Y211240D01*
X486230Y210840D01*
X485830Y210440D01*
Y210040D01*
X495830D02*
X496230D01*
X496630Y210440D01*
X497030Y210040D01*
X497430D01*
Y210440D01*
X497030Y210840D01*
X497430Y211240D01*
Y211640D01*
X497030D01*
X496630Y211240D01*
X496230Y211640D01*
X495830D01*
Y211240D01*
X496230Y210840D01*
X495830Y210440D01*
Y210040D01*
X505830D02*
X506230D01*
X506630Y210440D01*
X507030Y210040D01*
X507430D01*
Y210440D01*
X507030Y210840D01*
X507430Y211240D01*
Y211640D01*
X507030D01*
X506630Y211240D01*
X506230Y211640D01*
X505830D01*
Y211240D01*
X506230Y210840D01*
X505830Y210440D01*
Y210040D01*
X435830D02*
X436230D01*
X436630Y210440D01*
X437030Y210040D01*
X437430D01*
Y210440D01*
X437030Y210840D01*
X437430Y211240D01*
Y211640D01*
X437030D01*
X436630Y211240D01*
X436230Y211640D01*
X435830D01*
Y211240D01*
X436230Y210840D01*
X435830Y210440D01*
Y210040D01*
X425830D02*
X426230D01*
X426630Y210440D01*
X427030Y210040D01*
X427430D01*
Y210440D01*
X427030Y210840D01*
X427430Y211240D01*
Y211640D01*
X427030D01*
X426630Y211240D01*
X426230Y211640D01*
X425830D01*
Y211240D01*
X426230Y210840D01*
X425830Y210440D01*
Y210040D01*
X415830D02*
X416230D01*
X416630Y210440D01*
X417030Y210040D01*
X417430D01*
Y210440D01*
X417030Y210840D01*
X417430Y211240D01*
Y211640D01*
X417030D01*
X416630Y211240D01*
X416230Y211640D01*
X415830D01*
Y211240D01*
X416230Y210840D01*
X415830Y210440D01*
Y210040D01*
X405830D02*
X406230D01*
X406630Y210440D01*
X407030Y210040D01*
X407430D01*
Y210440D01*
X407030Y210840D01*
X407430Y211240D01*
Y211640D01*
X407030D01*
X406630Y211240D01*
X406230Y211640D01*
X405830D01*
Y211240D01*
X406230Y210840D01*
X405830Y210440D01*
Y210040D01*
X395830D02*
X396230D01*
X396630Y210440D01*
X397030Y210040D01*
X397430D01*
Y210440D01*
X397030Y210840D01*
X397430Y211240D01*
Y211640D01*
X397030D01*
X396630Y211240D01*
X396230Y211640D01*
X395830D01*
Y211240D01*
X396230Y210840D01*
X395830Y210440D01*
Y210040D01*
X385830D02*
X386230D01*
X386630Y210440D01*
X387030Y210040D01*
X387430D01*
Y210440D01*
X387030Y210840D01*
X387430Y211240D01*
Y211640D01*
X387030D01*
X386630Y211240D01*
X386230Y211640D01*
X385830D01*
Y211240D01*
X386230Y210840D01*
X385830Y210440D01*
Y210040D01*
X339830Y400040D02*
X340230D01*
X340630Y400440D01*
X341030Y400040D01*
X341430D01*
Y400440D01*
X341030Y400840D01*
X341430Y401240D01*
Y401640D01*
X341030D01*
X340630Y401240D01*
X340230Y401640D01*
X339830D01*
Y401240D01*
X340230Y400840D01*
X339830Y400440D01*
Y400040D01*
X329830D02*
X330230D01*
X330630Y400440D01*
X331030Y400040D01*
X331430D01*
Y400440D01*
X331030Y400840D01*
X331430Y401240D01*
Y401640D01*
X331030D01*
X330630Y401240D01*
X330230Y401640D01*
X329830D01*
Y401240D01*
X330230Y400840D01*
X329830Y400440D01*
Y400040D01*
X375830Y210040D02*
X376230D01*
X376630Y210440D01*
X377030Y210040D01*
X377430D01*
Y210440D01*
X377030Y210840D01*
X377430Y211240D01*
Y211640D01*
X377030D01*
X376630Y211240D01*
X376230Y211640D01*
X375830D01*
Y211240D01*
X376230Y210840D01*
X375830Y210440D01*
Y210040D01*
X365830D02*
X366230D01*
X366630Y210440D01*
X367030Y210040D01*
X367430D01*
Y210440D01*
X367030Y210840D01*
X367430Y211240D01*
Y211640D01*
X367030D01*
X366630Y211240D01*
X366230Y211640D01*
X365830D01*
Y211240D01*
X366230Y210840D01*
X365830Y210440D01*
Y210040D01*
X515830Y310040D02*
X516230D01*
X516630Y310440D01*
X517030Y310040D01*
X517430D01*
Y310440D01*
X517030Y310840D01*
X517430Y311240D01*
Y311640D01*
X517030D01*
X516630Y311240D01*
X516230Y311640D01*
X515830D01*
Y311240D01*
X516230Y310840D01*
X515830Y310440D01*
Y310040D01*
X505830D02*
X506230D01*
X506630Y310440D01*
X507030Y310040D01*
X507430D01*
Y310440D01*
X507030Y310840D01*
X507430Y311240D01*
Y311640D01*
X507030D01*
X506630Y311240D01*
X506230Y311640D01*
X505830D01*
Y311240D01*
X506230Y310840D01*
X505830Y310440D01*
Y310040D01*
Y320040D02*
X506230D01*
X506630Y320440D01*
X507030Y320040D01*
X507430D01*
Y320440D01*
X507030Y320840D01*
X507430Y321240D01*
Y321640D01*
X507030D01*
X506630Y321240D01*
X506230Y321640D01*
X505830D01*
Y321240D01*
X506230Y320840D01*
X505830Y320440D01*
Y320040D01*
X515830D02*
X516230D01*
X516630Y320440D01*
X517030Y320040D01*
X517430D01*
Y320440D01*
X517030Y320840D01*
X517430Y321240D01*
Y321640D01*
X517030D01*
X516630Y321240D01*
X516230Y321640D01*
X515830D01*
Y321240D01*
X516230Y320840D01*
X515830Y320440D01*
Y320040D01*
Y300040D02*
X516230D01*
X516630Y300440D01*
X517030Y300040D01*
X517430D01*
Y300440D01*
X517030Y300840D01*
X517430Y301240D01*
Y301640D01*
X517030D01*
X516630Y301240D01*
X516230Y301640D01*
X515830D01*
Y301240D01*
X516230Y300840D01*
X515830Y300440D01*
Y300040D01*
X505830D02*
X506230D01*
X506630Y300440D01*
X507030Y300040D01*
X507430D01*
Y300440D01*
X507030Y300840D01*
X507430Y301240D01*
Y301640D01*
X507030D01*
X506630Y301240D01*
X506230Y301640D01*
X505830D01*
Y301240D01*
X506230Y300840D01*
X505830Y300440D01*
Y300040D01*
X360000Y358000D02*
X360400Y358800D01*
X360000Y359600D01*
X360800Y359200D01*
X361600Y359600D01*
X361200Y358800D01*
X361600Y358000D01*
X360800Y358400D01*
X360000Y358000D01*
X360400Y358400D02*
X360600Y358800D01*
X360400Y359200D01*
X360800Y359000D01*
X361200Y359200D01*
X361000Y358800D01*
X361200Y358400D01*
X360800Y358600D01*
X360400Y358400D01*
X368000Y269000D02*
X368400Y269800D01*
X368000Y270600D01*
X368800Y270200D01*
X369600Y270600D01*
X369200Y269800D01*
X369600Y269000D01*
X368800Y269400D01*
X368000Y269000D01*
X368400Y269400D02*
X368600Y269800D01*
X368400Y270200D01*
X368800Y270000D01*
X369200Y270200D01*
X369000Y269800D01*
X369200Y269400D01*
X368800Y269600D01*
X368400Y269400D01*
X320000Y400000D02*
X320400Y400800D01*
X320000Y401600D01*
X320800Y401200D01*
X321600Y401600D01*
X321200Y400800D01*
X321600Y400000D01*
X320800Y400400D01*
X320000Y400000D01*
X320400Y400400D02*
X320600Y400800D01*
X320400Y401200D01*
X320800Y401000D01*
X321200Y401200D01*
X321000Y400800D01*
X321200Y400400D01*
X320800Y400600D01*
X320400Y400400D01*
X446000Y210000D02*
X446400D01*
X446800Y210400D01*
X447200Y210000D01*
X447600D01*
Y210400D01*
X447200Y210800D01*
X447600Y211200D01*
Y211600D01*
X447200D01*
X446800Y211200D01*
X446400Y211600D01*
X446000D01*
Y211200D01*
X446400Y210800D01*
X446000Y210400D01*
Y210000D01*
X611500Y373000D02*
X611900D01*
X612300Y373400D01*
X612700Y373000D01*
X613100D01*
Y373400D01*
X612700Y373800D01*
X613100Y374200D01*
Y374600D01*
X612700D01*
X612300Y374200D01*
X611900Y374600D01*
X611500D01*
Y374200D01*
X611900Y373800D01*
X611500Y373400D01*
Y373000D01*
X294600Y242700D02*
Y242300D01*
X295400D01*
Y242700D01*
X295800D01*
Y243500D01*
X295400D01*
Y243900D01*
X294600D01*
Y243500D01*
X294200D01*
Y242700D01*
X294600D01*
X294800Y242900D02*
Y242700D01*
X295200D01*
Y242900D01*
X295400D01*
Y243300D01*
X295200D01*
Y243500D01*
X294800D01*
Y243300D01*
X294600D01*
Y242900D01*
X294800D01*
X516630Y374840D02*
Y374440D01*
X517430D01*
Y374840D01*
X517830D01*
Y375640D01*
X517430D01*
Y376040D01*
X516630D01*
Y375640D01*
X516230D01*
Y374840D01*
X516630D01*
X516830Y375040D02*
Y374840D01*
X517230D01*
Y375040D01*
X517430D01*
Y375440D01*
X517230D01*
Y375640D01*
X516830D01*
Y375440D01*
X516630D01*
Y375040D01*
X516830D01*
X526470Y374840D02*
Y374440D01*
X527270D01*
Y374840D01*
X527670D01*
Y375640D01*
X527270D01*
Y376040D01*
X526470D01*
Y375640D01*
X526070D01*
Y374840D01*
X526470D01*
X526670Y375040D02*
Y374840D01*
X527070D01*
Y375040D01*
X527270D01*
Y375440D01*
X527070D01*
Y375640D01*
X526670D01*
Y375440D01*
X526470D01*
Y375040D01*
X526670D01*
X536310Y374840D02*
Y374440D01*
X537110D01*
Y374840D01*
X537510D01*
Y375640D01*
X537110D01*
Y376040D01*
X536310D01*
Y375640D01*
X535910D01*
Y374840D01*
X536310D01*
X536510Y375040D02*
Y374840D01*
X536910D01*
Y375040D01*
X537110D01*
Y375440D01*
X536910D01*
Y375640D01*
X536510D01*
Y375440D01*
X536310D01*
Y375040D01*
X536510D01*
X546160Y374840D02*
Y374440D01*
X546960D01*
Y374840D01*
X547360D01*
Y375640D01*
X546960D01*
Y376040D01*
X546160D01*
Y375640D01*
X545760D01*
Y374840D01*
X546160D01*
X546360Y375040D02*
Y374840D01*
X546760D01*
Y375040D01*
X546960D01*
Y375440D01*
X546760D01*
Y375640D01*
X546360D01*
Y375440D01*
X546160D01*
Y375040D01*
X546360D01*
X556000Y374840D02*
Y374440D01*
X556800D01*
Y374840D01*
X557200D01*
Y375640D01*
X556800D01*
Y376040D01*
X556000D01*
Y375640D01*
X555600D01*
Y374840D01*
X556000D01*
X556200Y375040D02*
Y374840D01*
X556600D01*
Y375040D01*
X556800D01*
Y375440D01*
X556600D01*
Y375640D01*
X556200D01*
Y375440D01*
X556000D01*
Y375040D01*
X556200D01*
X516620Y384690D02*
Y384290D01*
X517420D01*
Y384690D01*
X517820D01*
Y385490D01*
X517420D01*
Y385890D01*
X516620D01*
Y385490D01*
X516220D01*
Y384690D01*
X516620D01*
X516820Y384890D02*
Y384690D01*
X517220D01*
Y384890D01*
X517420D01*
Y385290D01*
X517220D01*
Y385490D01*
X516820D01*
Y385290D01*
X516620D01*
Y384890D01*
X516820D01*
X526460Y384690D02*
Y384290D01*
X527260D01*
Y384690D01*
X527660D01*
Y385490D01*
X527260D01*
Y385890D01*
X526460D01*
Y385490D01*
X526060D01*
Y384690D01*
X526460D01*
X526660Y384890D02*
Y384690D01*
X527060D01*
Y384890D01*
X527260D01*
Y385290D01*
X527060D01*
Y385490D01*
X526660D01*
Y385290D01*
X526460D01*
Y384890D01*
X526660D01*
X536300Y384690D02*
Y384290D01*
X537100D01*
Y384690D01*
X537500D01*
Y385490D01*
X537100D01*
Y385890D01*
X536300D01*
Y385490D01*
X535900D01*
Y384690D01*
X536300D01*
X536500Y384890D02*
Y384690D01*
X536900D01*
Y384890D01*
X537100D01*
Y385290D01*
X536900D01*
Y385490D01*
X536500D01*
Y385290D01*
X536300D01*
Y384890D01*
X536500D01*
X546140Y384690D02*
Y384290D01*
X546940D01*
Y384690D01*
X547340D01*
Y385490D01*
X546940D01*
Y385890D01*
X546140D01*
Y385490D01*
X545740D01*
Y384690D01*
X546140D01*
X546340Y384890D02*
Y384690D01*
X546740D01*
Y384890D01*
X546940D01*
Y385290D01*
X546740D01*
Y385490D01*
X546340D01*
Y385290D01*
X546140D01*
Y384890D01*
X546340D01*
X555990Y384690D02*
Y384290D01*
X556790D01*
Y384690D01*
X557190D01*
Y385490D01*
X556790D01*
Y385890D01*
X555990D01*
Y385490D01*
X555590D01*
Y384690D01*
X555990D01*
X556190Y384890D02*
Y384690D01*
X556590D01*
Y384890D01*
X556790D01*
Y385290D01*
X556590D01*
Y385490D01*
X556190D01*
Y385290D01*
X555990D01*
Y384890D01*
X556190D01*
X516620Y394540D02*
Y394140D01*
X517420D01*
Y394540D01*
X517820D01*
Y395340D01*
X517420D01*
Y395740D01*
X516620D01*
Y395340D01*
X516220D01*
Y394540D01*
X516620D01*
X516820Y394740D02*
Y394540D01*
X517220D01*
Y394740D01*
X517420D01*
Y395140D01*
X517220D01*
Y395340D01*
X516820D01*
Y395140D01*
X516620D01*
Y394740D01*
X516820D01*
X526460Y394540D02*
Y394140D01*
X527260D01*
Y394540D01*
X527660D01*
Y395340D01*
X527260D01*
Y395740D01*
X526460D01*
Y395340D01*
X526060D01*
Y394540D01*
X526460D01*
X526660Y394740D02*
Y394540D01*
X527060D01*
Y394740D01*
X527260D01*
Y395140D01*
X527060D01*
Y395340D01*
X526660D01*
Y395140D01*
X526460D01*
Y394740D01*
X526660D01*
X536300Y394540D02*
Y394140D01*
X537100D01*
Y394540D01*
X537500D01*
Y395340D01*
X537100D01*
Y395740D01*
X536300D01*
Y395340D01*
X535900D01*
Y394540D01*
X536300D01*
X536500Y394740D02*
Y394540D01*
X536900D01*
Y394740D01*
X537100D01*
Y395140D01*
X536900D01*
Y395340D01*
X536500D01*
Y395140D01*
X536300D01*
Y394740D01*
X536500D01*
X546140Y394540D02*
Y394140D01*
X546940D01*
Y394540D01*
X547340D01*
Y395340D01*
X546940D01*
Y395740D01*
X546140D01*
Y395340D01*
X545740D01*
Y394540D01*
X546140D01*
X546340Y394740D02*
Y394540D01*
X546740D01*
Y394740D01*
X546940D01*
Y395140D01*
X546740D01*
Y395340D01*
X546340D01*
Y395140D01*
X546140D01*
Y394740D01*
X546340D01*
X555990Y394540D02*
Y394140D01*
X556790D01*
Y394540D01*
X557190D01*
Y395340D01*
X556790D01*
Y395740D01*
X555990D01*
Y395340D01*
X555590D01*
Y394540D01*
X555990D01*
X556190Y394740D02*
Y394540D01*
X556590D01*
Y394740D01*
X556790D01*
Y395140D01*
X556590D01*
Y395340D01*
X556190D01*
Y395140D01*
X555990D01*
Y394740D01*
X556190D01*
X516610Y404380D02*
Y403980D01*
X517410D01*
Y404380D01*
X517810D01*
Y405180D01*
X517410D01*
Y405580D01*
X516610D01*
Y405180D01*
X516210D01*
Y404380D01*
X516610D01*
X516810Y404580D02*
Y404380D01*
X517210D01*
Y404580D01*
X517410D01*
Y404980D01*
X517210D01*
Y405180D01*
X516810D01*
Y404980D01*
X516610D01*
Y404580D01*
X516810D01*
X526450Y404380D02*
Y403980D01*
X527250D01*
Y404380D01*
X527650D01*
Y405180D01*
X527250D01*
Y405580D01*
X526450D01*
Y405180D01*
X526050D01*
Y404380D01*
X526450D01*
X526650Y404580D02*
Y404380D01*
X527050D01*
Y404580D01*
X527250D01*
Y404980D01*
X527050D01*
Y405180D01*
X526650D01*
Y404980D01*
X526450D01*
Y404580D01*
X526650D01*
X536290Y404380D02*
Y403980D01*
X537090D01*
Y404380D01*
X537490D01*
Y405180D01*
X537090D01*
Y405580D01*
X536290D01*
Y405180D01*
X535890D01*
Y404380D01*
X536290D01*
X536490Y404580D02*
Y404380D01*
X536890D01*
Y404580D01*
X537090D01*
Y404980D01*
X536890D01*
Y405180D01*
X536490D01*
Y404980D01*
X536290D01*
Y404580D01*
X536490D01*
X546130Y404380D02*
Y403980D01*
X546930D01*
Y404380D01*
X547330D01*
Y405180D01*
X546930D01*
Y405580D01*
X546130D01*
Y405180D01*
X545730D01*
Y404380D01*
X546130D01*
X546330Y404580D02*
Y404380D01*
X546730D01*
Y404580D01*
X546930D01*
Y404980D01*
X546730D01*
Y405180D01*
X546330D01*
Y404980D01*
X546130D01*
Y404580D01*
X546330D01*
X555980Y404380D02*
Y403980D01*
X556780D01*
Y404380D01*
X557180D01*
Y405180D01*
X556780D01*
Y405580D01*
X555980D01*
Y405180D01*
X555580D01*
Y404380D01*
X555980D01*
X556180Y404580D02*
Y404380D01*
X556580D01*
Y404580D01*
X556780D01*
Y404980D01*
X556580D01*
Y405180D01*
X556180D01*
Y404980D01*
X555980D01*
Y404580D01*
X556180D01*
X395560Y308900D02*
Y308500D01*
X396360D01*
Y308900D01*
X396760D01*
Y309700D01*
X396360D01*
Y310100D01*
X395560D01*
Y309700D01*
X395160D01*
Y308900D01*
X395560D01*
X395760Y309100D02*
Y308900D01*
X396160D01*
Y309100D01*
X396360D01*
Y309500D01*
X396160D01*
Y309700D01*
X395760D01*
Y309500D01*
X395560D01*
Y309100D01*
X395760D01*
X398400Y305100D02*
Y304700D01*
X399200D01*
Y305100D01*
X399600D01*
Y305900D01*
X399200D01*
Y306300D01*
X398400D01*
Y305900D01*
X398000D01*
Y305100D01*
X398400D01*
X398600Y305300D02*
Y305100D01*
X399000D01*
Y305300D01*
X399200D01*
Y305700D01*
X399000D01*
Y305900D01*
X398600D01*
Y305700D01*
X398400D01*
Y305300D01*
X398600D01*
X395560Y301030D02*
Y300630D01*
X396360D01*
Y301030D01*
X396760D01*
Y301830D01*
X396360D01*
Y302230D01*
X395560D01*
Y301830D01*
X395160D01*
Y301030D01*
X395560D01*
X395760Y301230D02*
Y301030D01*
X396160D01*
Y301230D01*
X396360D01*
Y301630D01*
X396160D01*
Y301830D01*
X395760D01*
Y301630D01*
X395560D01*
Y301230D01*
X395760D01*
X381900Y306900D02*
Y306500D01*
X382700D01*
Y306900D01*
X383100D01*
Y307700D01*
X382700D01*
Y308100D01*
X381900D01*
Y307700D01*
X381500D01*
Y306900D01*
X381900D01*
X382100Y307100D02*
Y306900D01*
X382500D01*
Y307100D01*
X382700D01*
Y307500D01*
X382500D01*
Y307700D01*
X382100D01*
Y307500D01*
X381900D01*
Y307100D01*
X382100D01*
X383750Y303000D02*
Y302600D01*
X384550D01*
Y303000D01*
X384950D01*
Y303800D01*
X384550D01*
Y304200D01*
X383750D01*
Y303800D01*
X383350D01*
Y303000D01*
X383750D01*
X383950Y303200D02*
Y303000D01*
X384350D01*
Y303200D01*
X384550D01*
Y303600D01*
X384350D01*
Y303800D01*
X383950D01*
Y303600D01*
X383750D01*
Y303200D01*
X383950D01*
X403450Y290210D02*
Y289810D01*
X404250D01*
Y290210D01*
X404650D01*
Y291010D01*
X404250D01*
Y291410D01*
X403450D01*
Y291010D01*
X403050D01*
Y290210D01*
X403450D01*
X403650Y290410D02*
Y290210D01*
X404050D01*
Y290410D01*
X404250D01*
Y290810D01*
X404050D01*
Y291010D01*
X403650D01*
Y290810D01*
X403450D01*
Y290410D01*
X403650D01*
X420160Y326620D02*
Y326220D01*
X420960D01*
Y326620D01*
X421360D01*
Y327420D01*
X420960D01*
Y327820D01*
X420160D01*
Y327420D01*
X419760D01*
Y326620D01*
X420160D01*
X420360Y326820D02*
Y326620D01*
X420760D01*
Y326820D01*
X420960D01*
Y327220D01*
X420760D01*
Y327420D01*
X420360D01*
Y327220D01*
X420160D01*
Y326820D01*
X420360D01*
X383750Y326620D02*
Y326220D01*
X384550D01*
Y326620D01*
X384950D01*
Y327420D01*
X384550D01*
Y327820D01*
X383750D01*
Y327420D01*
X383350D01*
Y326620D01*
X383750D01*
X383950Y326820D02*
Y326620D01*
X384350D01*
Y326820D01*
X384550D01*
Y327220D01*
X384350D01*
Y327420D01*
X383950D01*
Y327220D01*
X383750D01*
Y326820D01*
X383950D01*
X379800Y330400D02*
Y330000D01*
X380600D01*
Y330400D01*
X381000D01*
Y331200D01*
X380600D01*
Y331600D01*
X379800D01*
Y331200D01*
X379400D01*
Y330400D01*
X379800D01*
X380000Y330600D02*
Y330400D01*
X380400D01*
Y330600D01*
X380600D01*
Y331000D01*
X380400D01*
Y331200D01*
X380000D01*
Y331000D01*
X379800D01*
Y330600D01*
X380000D01*
X383750Y334490D02*
Y334090D01*
X384550D01*
Y334490D01*
X384950D01*
Y335290D01*
X384550D01*
Y335690D01*
X383750D01*
Y335290D01*
X383350D01*
Y334490D01*
X383750D01*
X383950Y334690D02*
Y334490D01*
X384350D01*
Y334690D01*
X384550D01*
Y335090D01*
X384350D01*
Y335290D01*
X383950D01*
Y335090D01*
X383750D01*
Y334690D01*
X383950D01*
X395400Y332500D02*
Y332100D01*
X396200D01*
Y332500D01*
X396600D01*
Y333300D01*
X396200D01*
Y333700D01*
X395400D01*
Y333300D01*
X395000D01*
Y332500D01*
X395400D01*
X395600Y332700D02*
Y332500D01*
X396000D01*
Y332700D01*
X396200D01*
Y333100D01*
X396000D01*
Y333300D01*
X395600D01*
Y333100D01*
X395400D01*
Y332700D01*
X395600D01*
X398300Y328600D02*
Y328200D01*
X399100D01*
Y328600D01*
X399500D01*
Y329400D01*
X399100D01*
Y329800D01*
X398300D01*
Y329400D01*
X397900D01*
Y328600D01*
X398300D01*
X398500Y328800D02*
Y328600D01*
X398900D01*
Y328800D01*
X399100D01*
Y329200D01*
X398900D01*
Y329400D01*
X398500D01*
Y329200D01*
X398300D01*
Y328800D01*
X398500D01*
X415250Y290220D02*
Y289820D01*
X416050D01*
Y290220D01*
X416450D01*
Y291020D01*
X416050D01*
Y291420D01*
X415250D01*
Y291020D01*
X414850D01*
Y290220D01*
X415250D01*
X415450Y290420D02*
Y290220D01*
X415850D01*
Y290420D01*
X416050D01*
Y290820D01*
X415850D01*
Y291020D01*
X415450D01*
Y290820D01*
X415250D01*
Y290420D01*
X415450D01*
X407900Y275100D02*
Y274700D01*
X408700D01*
Y275100D01*
X409100D01*
Y275900D01*
X408700D01*
Y276300D01*
X407900D01*
Y275900D01*
X407500D01*
Y275100D01*
X407900D01*
X408100Y275300D02*
Y275100D01*
X408500D01*
Y275300D01*
X408700D01*
Y275700D01*
X408500D01*
Y275900D01*
X408100D01*
Y275700D01*
X407900D01*
Y275300D01*
X408100D01*
X314850Y309890D02*
Y309490D01*
X315650D01*
Y309890D01*
X316050D01*
Y310690D01*
X315650D01*
Y311090D01*
X314850D01*
Y310690D01*
X314450D01*
Y309890D01*
X314850D01*
X315050Y310090D02*
Y309890D01*
X315450D01*
Y310090D01*
X315650D01*
Y310490D01*
X315450D01*
Y310690D01*
X315050D01*
Y310490D01*
X314850D01*
Y310090D01*
X315050D01*
X331900Y310000D02*
Y309600D01*
X332700D01*
Y310000D01*
X333100D01*
Y310800D01*
X332700D01*
Y311200D01*
X331900D01*
Y310800D01*
X331500D01*
Y310000D01*
X331900D01*
X332100Y310200D02*
Y310000D01*
X332500D01*
Y310200D01*
X332700D01*
Y310600D01*
X332500D01*
Y310800D01*
X332100D01*
Y310600D01*
X331900D01*
Y310200D01*
X332100D01*
X427050Y318750D02*
Y318350D01*
X427850D01*
Y318750D01*
X428250D01*
Y319550D01*
X427850D01*
Y319950D01*
X427050D01*
Y319550D01*
X426650D01*
Y318750D01*
X427050D01*
X427250Y318950D02*
Y318750D01*
X427650D01*
Y318950D01*
X427850D01*
Y319350D01*
X427650D01*
Y319550D01*
X427250D01*
Y319350D01*
X427050D01*
Y318950D01*
X427250D01*
X551030Y250400D02*
Y250000D01*
X551830D01*
Y250400D01*
X552230D01*
Y251200D01*
X551830D01*
Y251600D01*
X551030D01*
Y251200D01*
X550630D01*
Y250400D01*
X551030D01*
X551230Y250600D02*
Y250400D01*
X551630D01*
Y250600D01*
X551830D01*
Y251000D01*
X551630D01*
Y251200D01*
X551230D01*
Y251000D01*
X551030D01*
Y250600D01*
X551230D01*
X524500Y255750D02*
Y255350D01*
X525300D01*
Y255750D01*
X525700D01*
Y256550D01*
X525300D01*
Y256950D01*
X524500D01*
Y256550D01*
X524100D01*
Y255750D01*
X524500D01*
X524700Y255950D02*
Y255750D01*
X525100D01*
Y255950D01*
X525300D01*
Y256350D01*
X525100D01*
Y256550D01*
X524700D01*
Y256350D01*
X524500D01*
Y255950D01*
X524700D01*
X546190Y240560D02*
Y240160D01*
X546990D01*
Y240560D01*
X547390D01*
Y241360D01*
X546990D01*
Y241760D01*
X546190D01*
Y241360D01*
X545790D01*
Y240560D01*
X546190D01*
X546390Y240760D02*
Y240560D01*
X546790D01*
Y240760D01*
X546990D01*
Y241160D01*
X546790D01*
Y241360D01*
X546390D01*
Y241160D01*
X546190D01*
Y240760D01*
X546390D01*
X283350Y309890D02*
Y309490D01*
X284150D01*
Y309890D01*
X284550D01*
Y310690D01*
X284150D01*
Y311090D01*
X283350D01*
Y310690D01*
X282950D01*
Y309890D01*
X283350D01*
X283550Y310090D02*
Y309890D01*
X283950D01*
Y310090D01*
X284150D01*
Y310490D01*
X283950D01*
Y310690D01*
X283550D01*
Y310490D01*
X283350D01*
Y310090D01*
X283550D01*
X444780Y340390D02*
Y339990D01*
X445580D01*
Y340390D01*
X445980D01*
Y341190D01*
X445580D01*
Y341590D01*
X444780D01*
Y341190D01*
X444380D01*
Y340390D01*
X444780D01*
X444980Y340590D02*
Y340390D01*
X445380D01*
Y340590D01*
X445580D01*
Y340990D01*
X445380D01*
Y341190D01*
X444980D01*
Y340990D01*
X444780D01*
Y340590D01*
X444980D01*
X299100Y309890D02*
Y309490D01*
X299900D01*
Y309890D01*
X300300D01*
Y310690D01*
X299900D01*
Y311090D01*
X299100D01*
Y310690D01*
X298700D01*
Y309890D01*
X299100D01*
X299300Y310090D02*
Y309890D01*
X299700D01*
Y310090D01*
X299900D01*
Y310490D01*
X299700D01*
Y310690D01*
X299300D01*
Y310490D01*
X299100D01*
Y310090D01*
X299300D01*
X438400Y328900D02*
Y328500D01*
X439200D01*
Y328900D01*
X439600D01*
Y329700D01*
X439200D01*
Y330100D01*
X438400D01*
Y329700D01*
X438000D01*
Y328900D01*
X438400D01*
X438600Y329100D02*
Y328900D01*
X439000D01*
Y329100D01*
X439200D01*
Y329500D01*
X439000D01*
Y329700D01*
X438600D01*
Y329500D01*
X438400D01*
Y329100D01*
X438600D01*
X360120Y340400D02*
Y340000D01*
X360920D01*
Y340400D01*
X361320D01*
Y341200D01*
X360920D01*
Y341600D01*
X360120D01*
Y341200D01*
X359720D01*
Y340400D01*
X360120D01*
X360320Y340600D02*
Y340400D01*
X360720D01*
Y340600D01*
X360920D01*
Y341000D01*
X360720D01*
Y341200D01*
X360320D01*
Y341000D01*
X360120D01*
Y340600D01*
X360320D01*
X364060Y346310D02*
Y345910D01*
X364860D01*
Y346310D01*
X365260D01*
Y347110D01*
X364860D01*
Y347510D01*
X364060D01*
Y347110D01*
X363660D01*
Y346310D01*
X364060D01*
X364260Y346510D02*
Y346310D01*
X364660D01*
Y346510D01*
X364860D01*
Y346910D01*
X364660D01*
Y347110D01*
X364260D01*
Y346910D01*
X364060D01*
Y346510D01*
X364260D01*
X358200Y349200D02*
Y348800D01*
X359000D01*
Y349200D01*
X359400D01*
Y350000D01*
X359000D01*
Y350400D01*
X358200D01*
Y350000D01*
X357800D01*
Y349200D01*
X358200D01*
X358400Y349400D02*
Y349200D01*
X358800D01*
Y349400D01*
X359000D01*
Y349800D01*
X358800D01*
Y350000D01*
X358400D01*
Y349800D01*
X358200D01*
Y349400D01*
X358400D01*
X364060Y352210D02*
Y351810D01*
X364860D01*
Y352210D01*
X365260D01*
Y353010D01*
X364860D01*
Y353410D01*
X364060D01*
Y353010D01*
X363660D01*
Y352210D01*
X364060D01*
X364260Y352410D02*
Y352210D01*
X364660D01*
Y352410D01*
X364860D01*
Y352810D01*
X364660D01*
Y353010D01*
X364260D01*
Y352810D01*
X364060D01*
Y352410D01*
X364260D01*
X403430Y332530D02*
Y332130D01*
X404230D01*
Y332530D01*
X404630D01*
Y333330D01*
X404230D01*
Y333730D01*
X403430D01*
Y333330D01*
X403030D01*
Y332530D01*
X403430D01*
X403630Y332730D02*
Y332530D01*
X404030D01*
Y332730D01*
X404230D01*
Y333130D01*
X404030D01*
Y333330D01*
X403630D01*
Y333130D01*
X403430D01*
Y332730D01*
X403630D01*
X415250Y332510D02*
Y332110D01*
X416050D01*
Y332510D01*
X416450D01*
Y333310D01*
X416050D01*
Y333710D01*
X415250D01*
Y333310D01*
X414850D01*
Y332510D01*
X415250D01*
X415450Y332710D02*
Y332510D01*
X415850D01*
Y332710D01*
X416050D01*
Y333110D01*
X415850D01*
Y333310D01*
X415450D01*
Y333110D01*
X415250D01*
Y332710D01*
X415450D01*
X438860Y310870D02*
Y310470D01*
X439660D01*
Y310870D01*
X440060D01*
Y311670D01*
X439660D01*
Y312070D01*
X438860D01*
Y311670D01*
X438460D01*
Y310870D01*
X438860D01*
X439060Y311070D02*
Y310870D01*
X439460D01*
Y311070D01*
X439660D01*
Y311470D01*
X439460D01*
Y311670D01*
X439060D01*
Y311470D01*
X438860D01*
Y311070D01*
X439060D01*
X438900Y301900D02*
Y301500D01*
X439700D01*
Y301900D01*
X440100D01*
Y302700D01*
X439700D01*
Y303100D01*
X438900D01*
Y302700D01*
X438500D01*
Y301900D01*
X438900D01*
X439100Y302100D02*
Y301900D01*
X439500D01*
Y302100D01*
X439700D01*
Y302500D01*
X439500D01*
Y302700D01*
X439100D01*
Y302500D01*
X438900D01*
Y302100D01*
X439100D01*
X655400Y202600D02*
Y202200D01*
X656200D01*
Y202600D01*
X656600D01*
Y203400D01*
X656200D01*
Y203800D01*
X655400D01*
Y203400D01*
X655000D01*
Y202600D01*
X655400D01*
X655600Y202800D02*
Y202600D01*
X656000D01*
Y202800D01*
X656200D01*
Y203200D01*
X656000D01*
Y203400D01*
X655600D01*
Y203200D01*
X655400D01*
Y202800D01*
X655600D01*
X441820Y297090D02*
Y296690D01*
X442620D01*
Y297090D01*
X443020D01*
Y297890D01*
X442620D01*
Y298290D01*
X441820D01*
Y297890D01*
X441420D01*
Y297090D01*
X441820D01*
X442020Y297290D02*
Y297090D01*
X442420D01*
Y297290D01*
X442620D01*
Y297690D01*
X442420D01*
Y297890D01*
X442020D01*
Y297690D01*
X441820D01*
Y297290D01*
X442020D01*
X459200Y299100D02*
Y298700D01*
X460000D01*
Y299100D01*
X460400D01*
Y299900D01*
X460000D01*
Y300300D01*
X459200D01*
Y299900D01*
X458800D01*
Y299100D01*
X459200D01*
X459400Y299300D02*
Y299100D01*
X459800D01*
Y299300D01*
X460000D01*
Y299700D01*
X459800D01*
Y299900D01*
X459400D01*
Y299700D01*
X459200D01*
Y299300D01*
X459400D01*
X454610Y295120D02*
Y294720D01*
X455410D01*
Y295120D01*
X455810D01*
Y295920D01*
X455410D01*
Y296320D01*
X454610D01*
Y295920D01*
X454210D01*
Y295120D01*
X454610D01*
X454810Y295320D02*
Y295120D01*
X455210D01*
Y295320D01*
X455410D01*
Y295720D01*
X455210D01*
Y295920D01*
X454810D01*
Y295720D01*
X454610D01*
Y295320D01*
X454810D01*
X539260Y195710D02*
Y195310D01*
X540060D01*
Y195710D01*
X540460D01*
Y196510D01*
X540060D01*
Y196910D01*
X539260D01*
Y196510D01*
X538860D01*
Y195710D01*
X539260D01*
X539460Y195910D02*
Y195710D01*
X539860D01*
Y195910D01*
X540060D01*
Y196310D01*
X539860D01*
Y196510D01*
X539460D01*
Y196310D01*
X539260D01*
Y195910D01*
X539460D01*
X521400Y196200D02*
Y195800D01*
X522200D01*
Y196200D01*
X522600D01*
Y197000D01*
X522200D01*
Y197400D01*
X521400D01*
Y197000D01*
X521000D01*
Y196200D01*
X521400D01*
X521600Y196400D02*
Y196200D01*
X522000D01*
Y196400D01*
X522200D01*
Y196800D01*
X522000D01*
Y197000D01*
X521600D01*
Y196800D01*
X521400D01*
Y196400D01*
X521600D01*
X504810Y278390D02*
Y277990D01*
X505610D01*
Y278390D01*
X506010D01*
Y279190D01*
X505610D01*
Y279590D01*
X504810D01*
Y279190D01*
X504410D01*
Y278390D01*
X504810D01*
X505010Y278590D02*
Y278390D01*
X505410D01*
Y278590D01*
X505610D01*
Y278990D01*
X505410D01*
Y279190D01*
X505010D01*
Y278990D01*
X504810D01*
Y278590D01*
X505010D01*
X551500Y309600D02*
Y309200D01*
X552300D01*
Y309600D01*
X552700D01*
Y310400D01*
X552300D01*
Y310800D01*
X551500D01*
Y310400D01*
X551100D01*
Y309600D01*
X551500D01*
X551700Y309800D02*
Y309600D01*
X552100D01*
Y309800D01*
X552300D01*
Y310200D01*
X552100D01*
Y310400D01*
X551700D01*
Y310200D01*
X551500D01*
Y309800D01*
X551700D01*
X562300Y351600D02*
Y351200D01*
X563100D01*
Y351600D01*
X563500D01*
Y352400D01*
X563100D01*
Y352800D01*
X562300D01*
Y352400D01*
X561900D01*
Y351600D01*
X562300D01*
X562500Y351800D02*
Y351600D01*
X562900D01*
Y351800D01*
X563100D01*
Y352200D01*
X562900D01*
Y352400D01*
X562500D01*
Y352200D01*
X562300D01*
Y351800D01*
X562500D01*
X360120Y325640D02*
Y325240D01*
X360920D01*
Y325640D01*
X361320D01*
Y326440D01*
X360920D01*
Y326840D01*
X360120D01*
Y326440D01*
X359720D01*
Y325640D01*
X360120D01*
X360320Y325840D02*
Y325640D01*
X360720D01*
Y325840D01*
X360920D01*
Y326240D01*
X360720D01*
Y326440D01*
X360320D01*
Y326240D01*
X360120D01*
Y325840D01*
X360320D01*
X268590Y309890D02*
Y309490D01*
X269390D01*
Y309890D01*
X269790D01*
Y310690D01*
X269390D01*
Y311090D01*
X268590D01*
Y310690D01*
X268190D01*
Y309890D01*
X268590D01*
X268790Y310090D02*
Y309890D01*
X269190D01*
Y310090D01*
X269390D01*
Y310490D01*
X269190D01*
Y310690D01*
X268790D01*
Y310490D01*
X268590D01*
Y310090D01*
X268790D01*
X311780Y362540D02*
Y362140D01*
X312580D01*
Y362540D01*
X312980D01*
Y363340D01*
X312580D01*
Y363740D01*
X311780D01*
Y363340D01*
X311380D01*
Y362540D01*
X311780D01*
X311980Y362740D02*
Y362540D01*
X312380D01*
Y362740D01*
X312580D01*
Y363140D01*
X312380D01*
Y363340D01*
X311980D01*
Y363140D01*
X311780D01*
Y362740D01*
X311980D01*
X350900Y257900D02*
Y257500D01*
X351700D01*
Y257900D01*
X352100D01*
Y258700D01*
X351700D01*
Y259100D01*
X350900D01*
Y258700D01*
X350500D01*
Y257900D01*
X350900D01*
X351100Y258100D02*
Y257900D01*
X351500D01*
Y258100D01*
X351700D01*
Y258500D01*
X351500D01*
Y258700D01*
X351100D01*
Y258500D01*
X350900D01*
Y258100D01*
X351100D01*
X359900Y240400D02*
Y240000D01*
X360700D01*
Y240400D01*
X361100D01*
Y241200D01*
X360700D01*
Y241600D01*
X359900D01*
Y241200D01*
X359500D01*
Y240400D01*
X359900D01*
X360100Y240600D02*
Y240400D01*
X360500D01*
Y240600D01*
X360700D01*
Y241000D01*
X360500D01*
Y241200D01*
X360100D01*
Y241000D01*
X359900D01*
Y240600D01*
X360100D01*
X401700Y272400D02*
Y272000D01*
X402500D01*
Y272400D01*
X402900D01*
Y273200D01*
X402500D01*
Y273600D01*
X401700D01*
Y273200D01*
X401300D01*
Y272400D01*
X401700D01*
X401900Y272600D02*
Y272400D01*
X402300D01*
Y272600D01*
X402500D01*
Y273000D01*
X402300D01*
Y273200D01*
X401900D01*
Y273000D01*
X401700D01*
Y272600D01*
X401900D01*
X397000Y269300D02*
Y268900D01*
X397800D01*
Y269300D01*
X398200D01*
Y270100D01*
X397800D01*
Y270500D01*
X397000D01*
Y270100D01*
X396600D01*
Y269300D01*
X397000D01*
X397200Y269500D02*
Y269300D01*
X397600D01*
Y269500D01*
X397800D01*
Y269900D01*
X397600D01*
Y270100D01*
X397200D01*
Y269900D01*
X397000D01*
Y269500D01*
X397200D01*
X365500Y255300D02*
Y254900D01*
X366300D01*
Y255300D01*
X366700D01*
Y256100D01*
X366300D01*
Y256500D01*
X365500D01*
Y256100D01*
X365100D01*
Y255300D01*
X365500D01*
X365700Y255500D02*
Y255300D01*
X366100D01*
Y255500D01*
X366300D01*
Y255900D01*
X366100D01*
Y256100D01*
X365700D01*
Y255900D01*
X365500D01*
Y255500D01*
X365700D01*
X397000Y263500D02*
Y263100D01*
X397800D01*
Y263500D01*
X398200D01*
Y264300D01*
X397800D01*
Y264700D01*
X397000D01*
Y264300D01*
X396600D01*
Y263500D01*
X397000D01*
X397200Y263700D02*
Y263500D01*
X397600D01*
Y263700D01*
X397800D01*
Y264100D01*
X397600D01*
Y264300D01*
X397200D01*
Y264100D01*
X397000D01*
Y263700D01*
X397200D01*
X303400Y210400D02*
Y210000D01*
X304200D01*
Y210400D01*
X304600D01*
Y211200D01*
X304200D01*
Y211600D01*
X303400D01*
Y211200D01*
X303000D01*
Y210400D01*
X303400D01*
X303600Y210600D02*
Y210400D01*
X304000D01*
Y210600D01*
X304200D01*
Y211000D01*
X304000D01*
Y211200D01*
X303600D01*
Y211000D01*
X303400D01*
Y210600D01*
X303600D01*
X296900Y210400D02*
Y210000D01*
X297700D01*
Y210400D01*
X298100D01*
Y211200D01*
X297700D01*
Y211600D01*
X296900D01*
Y211200D01*
X296500D01*
Y210400D01*
X296900D01*
X297100Y210600D02*
Y210400D01*
X297500D01*
Y210600D01*
X297700D01*
Y211000D01*
X297500D01*
Y211200D01*
X297100D01*
Y211000D01*
X296900D01*
Y210600D01*
X297100D01*
X303400Y228600D02*
Y228200D01*
X304200D01*
Y228600D01*
X304600D01*
Y229400D01*
X304200D01*
Y229800D01*
X303400D01*
Y229400D01*
X303000D01*
Y228600D01*
X303400D01*
X303600Y228800D02*
Y228600D01*
X304000D01*
Y228800D01*
X304200D01*
Y229200D01*
X304000D01*
Y229400D01*
X303600D01*
Y229200D01*
X303400D01*
Y228800D01*
X303600D01*
X324400Y232100D02*
Y231700D01*
X325200D01*
Y232100D01*
X325600D01*
Y232900D01*
X325200D01*
Y233300D01*
X324400D01*
Y232900D01*
X324000D01*
Y232100D01*
X324400D01*
X324600Y232300D02*
Y232100D01*
X325000D01*
Y232300D01*
X325200D01*
Y232700D01*
X325000D01*
Y232900D01*
X324600D01*
Y232700D01*
X324400D01*
Y232300D01*
X324600D01*
X362200Y251800D02*
Y251400D01*
X363000D01*
Y251800D01*
X363400D01*
Y252600D01*
X363000D01*
Y253000D01*
X362200D01*
Y252600D01*
X361800D01*
Y251800D01*
X362200D01*
X362400Y252000D02*
Y251800D01*
X362800D01*
Y252000D01*
X363000D01*
Y252400D01*
X362800D01*
Y252600D01*
X362400D01*
Y252400D01*
X362200D01*
Y252000D01*
X362400D01*
X402500Y260300D02*
Y259900D01*
X403300D01*
Y260300D01*
X403700D01*
Y261100D01*
X403300D01*
Y261500D01*
X402500D01*
Y261100D01*
X402100D01*
Y260300D01*
X402500D01*
X402700Y260500D02*
Y260300D01*
X403100D01*
Y260500D01*
X403300D01*
Y260900D01*
X403100D01*
Y261100D01*
X402700D01*
Y260900D01*
X402500D01*
Y260500D01*
X402700D01*
X356500Y247900D02*
Y247500D01*
X357300D01*
Y247900D01*
X357700D01*
Y248700D01*
X357300D01*
Y249100D01*
X356500D01*
Y248700D01*
X356100D01*
Y247900D01*
X356500D01*
X356700Y248100D02*
Y247900D01*
X357100D01*
Y248100D01*
X357300D01*
Y248500D01*
X357100D01*
Y248700D01*
X356700D01*
Y248500D01*
X356500D01*
Y248100D01*
X356700D01*
X397000Y257200D02*
Y256800D01*
X397800D01*
Y257200D01*
X398200D01*
Y258000D01*
X397800D01*
Y258400D01*
X397000D01*
Y258000D01*
X396600D01*
Y257200D01*
X397000D01*
X397200Y257400D02*
Y257200D01*
X397600D01*
Y257400D01*
X397800D01*
Y257800D01*
X397600D01*
Y258000D01*
X397200D01*
Y257800D01*
X397000D01*
Y257400D01*
X397200D01*
X402000Y254000D02*
Y253600D01*
X402800D01*
Y254000D01*
X403200D01*
Y254800D01*
X402800D01*
Y255200D01*
X402000D01*
Y254800D01*
X401600D01*
Y254000D01*
X402000D01*
X402200Y254200D02*
Y254000D01*
X402600D01*
Y254200D01*
X402800D01*
Y254600D01*
X402600D01*
Y254800D01*
X402200D01*
Y254600D01*
X402000D01*
Y254200D01*
X402200D01*
X555000Y166000D02*
Y165600D01*
X555800D01*
Y166000D01*
X556200D01*
Y166800D01*
X555800D01*
Y167200D01*
X555000D01*
Y166800D01*
X554600D01*
Y166000D01*
X555000D01*
X555200Y166200D02*
Y166000D01*
X555600D01*
Y166200D01*
X555800D01*
Y166600D01*
X555600D01*
Y166800D01*
X555200D01*
Y166600D01*
X555000D01*
Y166200D01*
X555200D01*
X406200Y251600D02*
Y251200D01*
X407000D01*
Y251600D01*
X407400D01*
Y252400D01*
X407000D01*
Y252800D01*
X406200D01*
Y252400D01*
X405800D01*
Y251600D01*
X406200D01*
X406400Y251800D02*
Y251600D01*
X406800D01*
Y251800D01*
X407000D01*
Y252200D01*
X406800D01*
Y252400D01*
X406400D01*
Y252200D01*
X406200D01*
Y251800D01*
X406400D01*
X442803Y248860D02*
Y248460D01*
X443603D01*
Y248860D01*
X444003D01*
Y249660D01*
X443603D01*
Y250060D01*
X442803D01*
Y249660D01*
X442403D01*
Y248860D01*
X442803D01*
X443003Y249060D02*
Y248860D01*
X443403D01*
Y249060D01*
X443603D01*
Y249460D01*
X443403D01*
Y249660D01*
X443003D01*
Y249460D01*
X442803D01*
Y249060D01*
X443003D01*
X434930Y248860D02*
Y248460D01*
X435730D01*
Y248860D01*
X436130D01*
Y249660D01*
X435730D01*
Y250060D01*
X434930D01*
Y249660D01*
X434530D01*
Y248860D01*
X434930D01*
X435130Y249060D02*
Y248860D01*
X435530D01*
Y249060D01*
X435730D01*
Y249460D01*
X435530D01*
Y249660D01*
X435130D01*
Y249460D01*
X434930D01*
Y249060D01*
X435130D01*
X464000Y246000D02*
Y245600D01*
X464800D01*
Y246000D01*
X465200D01*
Y246800D01*
X464800D01*
Y247200D01*
X464000D01*
Y246800D01*
X463600D01*
Y246000D01*
X464000D01*
X464200Y246200D02*
Y246000D01*
X464600D01*
Y246200D01*
X464800D01*
Y246600D01*
X464600D01*
Y246800D01*
X464200D01*
Y246600D01*
X464000D01*
Y246200D01*
X464200D01*
X470600Y248000D02*
Y247600D01*
X471400D01*
Y248000D01*
X471800D01*
Y248800D01*
X471400D01*
Y249200D01*
X470600D01*
Y248800D01*
X470200D01*
Y248000D01*
X470600D01*
X470800Y248200D02*
Y248000D01*
X471200D01*
Y248200D01*
X471400D01*
Y248600D01*
X471200D01*
Y248800D01*
X470800D01*
Y248600D01*
X470600D01*
Y248200D01*
X470800D01*
X462490Y281340D02*
Y280940D01*
X463290D01*
Y281340D01*
X463690D01*
Y282140D01*
X463290D01*
Y282540D01*
X462490D01*
Y282140D01*
X462090D01*
Y281340D01*
X462490D01*
X462690Y281540D02*
Y281340D01*
X463090D01*
Y281540D01*
X463290D01*
Y281940D01*
X463090D01*
Y282140D01*
X462690D01*
Y281940D01*
X462490D01*
Y281540D01*
X462690D01*
X462490Y292170D02*
Y291770D01*
X463290D01*
Y292170D01*
X463690D01*
Y292970D01*
X463290D01*
Y293370D01*
X462490D01*
Y292970D01*
X462090D01*
Y292170D01*
X462490D01*
X462690Y292370D02*
Y292170D01*
X463090D01*
Y292370D01*
X463290D01*
Y292770D01*
X463090D01*
Y292970D01*
X462690D01*
Y292770D01*
X462490D01*
Y292370D01*
X462690D01*
X454600Y237200D02*
Y236800D01*
X455400D01*
Y237200D01*
X455800D01*
Y238000D01*
X455400D01*
Y238400D01*
X454600D01*
Y238000D01*
X454200D01*
Y237200D01*
X454600D01*
X454800Y237400D02*
Y237200D01*
X455200D01*
Y237400D01*
X455400D01*
Y237800D01*
X455200D01*
Y238000D01*
X454800D01*
Y237800D01*
X454600D01*
Y237400D01*
X454800D01*
X425900Y240300D02*
Y239900D01*
X426700D01*
Y240300D01*
X427100D01*
Y241100D01*
X426700D01*
Y241500D01*
X425900D01*
Y241100D01*
X425500D01*
Y240300D01*
X425900D01*
X426100Y240500D02*
Y240300D01*
X426500D01*
Y240500D01*
X426700D01*
Y240900D01*
X426500D01*
Y241100D01*
X426100D01*
Y240900D01*
X425900D01*
Y240500D01*
X426100D01*
X431970Y233120D02*
Y232720D01*
X432770D01*
Y233120D01*
X433170D01*
Y233920D01*
X432770D01*
Y234320D01*
X431970D01*
Y233920D01*
X431570D01*
Y233120D01*
X431970D01*
X432170Y233320D02*
Y233120D01*
X432570D01*
Y233320D01*
X432770D01*
Y233720D01*
X432570D01*
Y233920D01*
X432170D01*
Y233720D01*
X431970D01*
Y233320D01*
X432170D01*
X382400Y235400D02*
Y235000D01*
X383200D01*
Y235400D01*
X383600D01*
Y236200D01*
X383200D01*
Y236600D01*
X382400D01*
Y236200D01*
X382000D01*
Y235400D01*
X382400D01*
X382600Y235600D02*
Y235400D01*
X383000D01*
Y235600D01*
X383200D01*
Y236000D01*
X383000D01*
Y236200D01*
X382600D01*
Y236000D01*
X382400D01*
Y235600D01*
X382600D01*
X406200Y247300D02*
Y246900D01*
X407000D01*
Y247300D01*
X407400D01*
Y248100D01*
X407000D01*
Y248500D01*
X406200D01*
Y248100D01*
X405800D01*
Y247300D01*
X406200D01*
X406400Y247500D02*
Y247300D01*
X406800D01*
Y247500D01*
X407000D01*
Y247900D01*
X406800D01*
Y248100D01*
X406400D01*
Y247900D01*
X406200D01*
Y247500D01*
X406400D01*
X371200Y218100D02*
Y217700D01*
X372000D01*
Y218100D01*
X372400D01*
Y218900D01*
X372000D01*
Y219300D01*
X371200D01*
Y218900D01*
X370800D01*
Y218100D01*
X371200D01*
X371400Y218300D02*
Y218100D01*
X371800D01*
Y218300D01*
X372000D01*
Y218700D01*
X371800D01*
Y218900D01*
X371400D01*
Y218700D01*
X371200D01*
Y218300D01*
X371400D01*
X323900Y187800D02*
Y187400D01*
X324700D01*
Y187800D01*
X325100D01*
Y188600D01*
X324700D01*
Y189000D01*
X323900D01*
Y188600D01*
X323500D01*
Y187800D01*
X323900D01*
X324100Y188000D02*
Y187800D01*
X324500D01*
Y188000D01*
X324700D01*
Y188400D01*
X324500D01*
Y188600D01*
X324100D01*
Y188400D01*
X323900D01*
Y188000D01*
X324100D01*
X317000Y270600D02*
Y270200D01*
X317800D01*
Y270600D01*
X318200D01*
Y271400D01*
X317800D01*
Y271800D01*
X317000D01*
Y271400D01*
X316600D01*
Y270600D01*
X317000D01*
X317200Y270800D02*
Y270600D01*
X317600D01*
Y270800D01*
X317800D01*
Y271200D01*
X317600D01*
Y271400D01*
X317200D01*
Y271200D01*
X317000D01*
Y270800D01*
X317200D01*
X332580Y207530D02*
Y207130D01*
X333380D01*
Y207530D01*
X333780D01*
Y208330D01*
X333380D01*
Y208730D01*
X332580D01*
Y208330D01*
X332180D01*
Y207530D01*
X332580D01*
X332780Y207730D02*
Y207530D01*
X333180D01*
Y207730D01*
X333380D01*
Y208130D01*
X333180D01*
Y208330D01*
X332780D01*
Y208130D01*
X332580D01*
Y207730D01*
X332780D01*
X348400Y311400D02*
Y311000D01*
X349200D01*
Y311400D01*
X349600D01*
Y312200D01*
X349200D01*
Y312600D01*
X348400D01*
Y312200D01*
X348000D01*
Y311400D01*
X348400D01*
X348600Y311600D02*
Y311400D01*
X349000D01*
Y311600D01*
X349200D01*
Y312000D01*
X349000D01*
Y312200D01*
X348600D01*
Y312000D01*
X348400D01*
Y311600D01*
X348600D01*
X303040Y332530D02*
Y332130D01*
X303840D01*
Y332530D01*
X304240D01*
Y333330D01*
X303840D01*
Y333730D01*
X303040D01*
Y333330D01*
X302640D01*
Y332530D01*
X303040D01*
X303240Y332730D02*
Y332530D01*
X303640D01*
Y332730D01*
X303840D01*
Y333130D01*
X303640D01*
Y333330D01*
X303240D01*
Y333130D01*
X303040D01*
Y332730D01*
X303240D01*
X595910Y250400D02*
Y250000D01*
X596710D01*
Y250400D01*
X597110D01*
Y251200D01*
X596710D01*
Y251600D01*
X595910D01*
Y251200D01*
X595510D01*
Y250400D01*
X595910D01*
X596110Y250600D02*
Y250400D01*
X596510D01*
Y250600D01*
X596710D01*
Y251000D01*
X596510D01*
Y251200D01*
X596110D01*
Y251000D01*
X595910D01*
Y250600D01*
X596110D01*
X595910Y271070D02*
Y270670D01*
X596710D01*
Y271070D01*
X597110D01*
Y271870D01*
X596710D01*
Y272270D01*
X595910D01*
Y271870D01*
X595510D01*
Y271070D01*
X595910D01*
X596110Y271270D02*
Y271070D01*
X596510D01*
Y271270D01*
X596710D01*
Y271670D01*
X596510D01*
Y271870D01*
X596110D01*
Y271670D01*
X595910D01*
Y271270D01*
X596110D01*
X515640Y237060D02*
Y236660D01*
X516440D01*
Y237060D01*
X516840D01*
Y237860D01*
X516440D01*
Y238260D01*
X515640D01*
Y237860D01*
X515240D01*
Y237060D01*
X515640D01*
X515840Y237260D02*
Y237060D01*
X516240D01*
Y237260D01*
X516440D01*
Y237660D01*
X516240D01*
Y237860D01*
X515840D01*
Y237660D01*
X515640D01*
Y237260D01*
X515840D01*
X546530Y196700D02*
Y196300D01*
X547330D01*
Y196700D01*
X547730D01*
Y197500D01*
X547330D01*
Y197900D01*
X546530D01*
Y197500D01*
X546130D01*
Y196700D01*
X546530D01*
X546730Y196900D02*
Y196700D01*
X547130D01*
Y196900D01*
X547330D01*
Y197300D01*
X547130D01*
Y197500D01*
X546730D01*
Y197300D01*
X546530D01*
Y196900D01*
X546730D01*
X573140Y255400D02*
Y255000D01*
X573940D01*
Y255400D01*
X574340D01*
Y256200D01*
X573940D01*
Y256600D01*
X573140D01*
Y256200D01*
X572740D01*
Y255400D01*
X573140D01*
X573340Y255600D02*
Y255400D01*
X573740D01*
Y255600D01*
X573940D01*
Y256000D01*
X573740D01*
Y256200D01*
X573340D01*
Y256000D01*
X573140D01*
Y255600D01*
X573340D01*
X352830Y313820D02*
Y313420D01*
X353630D01*
Y313820D01*
X354030D01*
Y314620D01*
X353630D01*
Y315020D01*
X352830D01*
Y314620D01*
X352430D01*
Y313820D01*
X352830D01*
X353030Y314020D02*
Y313820D01*
X353430D01*
Y314020D01*
X353630D01*
Y314420D01*
X353430D01*
Y314620D01*
X353030D01*
Y314420D01*
X352830D01*
Y314020D01*
X353030D01*
X405390Y313830D02*
Y313430D01*
X406190D01*
Y313830D01*
X406590D01*
Y314630D01*
X406190D01*
Y315030D01*
X405390D01*
Y314630D01*
X404990D01*
Y313830D01*
X405390D01*
X405590Y314030D02*
Y313830D01*
X405990D01*
Y314030D01*
X406190D01*
Y314430D01*
X405990D01*
Y314630D01*
X405590D01*
Y314430D01*
X405390D01*
Y314030D01*
X405590D01*
X326660Y281340D02*
Y280940D01*
X327460D01*
Y281340D01*
X327860D01*
Y282140D01*
X327460D01*
Y282540D01*
X326660D01*
Y282140D01*
X326260D01*
Y281340D01*
X326660D01*
X326860Y281540D02*
Y281340D01*
X327260D01*
Y281540D01*
X327460D01*
Y281940D01*
X327260D01*
Y282140D01*
X326860D01*
Y281940D01*
X326660D01*
Y281540D01*
X326860D01*
X345600Y278700D02*
Y278300D01*
X346400D01*
Y278700D01*
X346800D01*
Y279500D01*
X346400D01*
Y279900D01*
X345600D01*
Y279500D01*
X345200D01*
Y278700D01*
X345600D01*
X345800Y278900D02*
Y278700D01*
X346200D01*
Y278900D01*
X346400D01*
Y279300D01*
X346200D01*
Y279500D01*
X345800D01*
Y279300D01*
X345600D01*
Y278900D01*
X345800D01*
X602250Y178000D02*
Y177600D01*
X603050D01*
Y178000D01*
X603450D01*
Y178800D01*
X603050D01*
Y179200D01*
X602250D01*
Y178800D01*
X601850D01*
Y178000D01*
X602250D01*
X602450Y178200D02*
Y178000D01*
X602850D01*
Y178200D01*
X603050D01*
Y178600D01*
X602850D01*
Y178800D01*
X602450D01*
Y178600D01*
X602250D01*
Y178200D01*
X602450D01*
X423120Y313820D02*
Y313420D01*
X423920D01*
Y313820D01*
X424320D01*
Y314620D01*
X423920D01*
Y315020D01*
X423120D01*
Y314620D01*
X422720D01*
Y313820D01*
X423120D01*
X423320Y314020D02*
Y313820D01*
X423720D01*
Y314020D01*
X423920D01*
Y314420D01*
X423720D01*
Y314620D01*
X423320D01*
Y314420D01*
X423120D01*
Y314020D01*
X423320D01*
X623900Y161400D02*
Y161000D01*
X624700D01*
Y161400D01*
X625100D01*
Y162200D01*
X624700D01*
Y162600D01*
X623900D01*
Y162200D01*
X623500D01*
Y161400D01*
X623900D01*
X624100Y161600D02*
Y161400D01*
X624500D01*
Y161600D01*
X624700D01*
Y162000D01*
X624500D01*
Y162200D01*
X624100D01*
Y162000D01*
X623900D01*
Y161600D01*
X624100D01*
X615050Y185870D02*
Y185470D01*
X615850D01*
Y185870D01*
X616250D01*
Y186670D01*
X615850D01*
Y187070D01*
X615050D01*
Y186670D01*
X614650D01*
Y185870D01*
X615050D01*
X615250Y186070D02*
Y185870D01*
X615650D01*
Y186070D01*
X615850D01*
Y186470D01*
X615650D01*
Y186670D01*
X615250D01*
Y186470D01*
X615050D01*
Y186070D01*
X615250D01*
X319800Y160700D02*
Y160300D01*
X320600D01*
Y160700D01*
X321000D01*
Y161500D01*
X320600D01*
Y161900D01*
X319800D01*
Y161500D01*
X319400D01*
Y160700D01*
X319800D01*
X320000Y160900D02*
Y160700D01*
X320400D01*
Y160900D01*
X320600D01*
Y161300D01*
X320400D01*
Y161500D01*
X320000D01*
Y161300D01*
X319800D01*
Y160900D01*
X320000D01*
X209530Y302010D02*
Y301610D01*
X210330D01*
Y302010D01*
X210730D01*
Y302810D01*
X210330D01*
Y303210D01*
X209530D01*
Y302810D01*
X209130D01*
Y302010D01*
X209530D01*
X209730Y302210D02*
Y302010D01*
X210130D01*
Y302210D01*
X210330D01*
Y302610D01*
X210130D01*
Y302810D01*
X209730D01*
Y302610D01*
X209530D01*
Y302210D01*
X209730D01*
X225300Y275200D02*
Y274800D01*
X226100D01*
Y275200D01*
X226500D01*
Y276000D01*
X226100D01*
Y276400D01*
X225300D01*
Y276000D01*
X224900D01*
Y275200D01*
X225300D01*
X225500Y275400D02*
Y275200D01*
X225900D01*
Y275400D01*
X226100D01*
Y275800D01*
X225900D01*
Y276000D01*
X225500D01*
Y275800D01*
X225300D01*
Y275400D01*
X225500D01*
X225280Y311860D02*
Y311460D01*
X226080D01*
Y311860D01*
X226480D01*
Y312660D01*
X226080D01*
Y313060D01*
X225280D01*
Y312660D01*
X224880D01*
Y311860D01*
X225280D01*
X225480Y312060D02*
Y311860D01*
X225880D01*
Y312060D01*
X226080D01*
Y312460D01*
X225880D01*
Y312660D01*
X225480D01*
Y312460D01*
X225280D01*
Y312060D01*
X225480D01*
X221350Y302010D02*
Y301610D01*
X222150D01*
Y302010D01*
X222550D01*
Y302810D01*
X222150D01*
Y303210D01*
X221350D01*
Y302810D01*
X220950D01*
Y302010D01*
X221350D01*
X221550Y302210D02*
Y302010D01*
X221950D01*
Y302210D01*
X222150D01*
Y302610D01*
X221950D01*
Y302810D01*
X221550D01*
Y302610D01*
X221350D01*
Y302210D01*
X221550D01*
X260710Y337450D02*
Y337050D01*
X261510D01*
Y337450D01*
X261910D01*
Y338250D01*
X261510D01*
Y338650D01*
X260710D01*
Y338250D01*
X260310D01*
Y337450D01*
X260710D01*
X260910Y337650D02*
Y337450D01*
X261310D01*
Y337650D01*
X261510D01*
Y338050D01*
X261310D01*
Y338250D01*
X260910D01*
Y338050D01*
X260710D01*
Y337650D01*
X260910D01*
X250700Y271400D02*
Y271000D01*
X251500D01*
Y271400D01*
X251900D01*
Y272200D01*
X251500D01*
Y272600D01*
X250700D01*
Y272200D01*
X250300D01*
Y271400D01*
X250700D01*
X250900Y271600D02*
Y271400D01*
X251300D01*
Y271600D01*
X251500D01*
Y272000D01*
X251300D01*
Y272200D01*
X250900D01*
Y272000D01*
X250700D01*
Y271600D01*
X250900D01*
X358400Y207400D02*
Y207000D01*
X359200D01*
Y207400D01*
X359600D01*
Y208200D01*
X359200D01*
Y208600D01*
X358400D01*
Y208200D01*
X358000D01*
Y207400D01*
X358400D01*
X358600Y207600D02*
Y207400D01*
X359000D01*
Y207600D01*
X359200D01*
Y208000D01*
X359000D01*
Y208200D01*
X358600D01*
Y208000D01*
X358400D01*
Y207600D01*
X358600D01*
X532900Y222400D02*
Y222000D01*
X533700D01*
Y222400D01*
X534100D01*
Y223200D01*
X533700D01*
Y223600D01*
X532900D01*
Y223200D01*
X532500D01*
Y222400D01*
X532900D01*
X533100Y222600D02*
Y222400D01*
X533500D01*
Y222600D01*
X533700D01*
Y223000D01*
X533500D01*
Y223200D01*
X533100D01*
Y223000D01*
X532900D01*
Y222600D01*
X533100D01*
X556900Y224400D02*
Y224000D01*
X557700D01*
Y224400D01*
X558100D01*
Y225200D01*
X557700D01*
Y225600D01*
X556900D01*
Y225200D01*
X556500D01*
Y224400D01*
X556900D01*
X557100Y224600D02*
Y224400D01*
X557500D01*
Y224600D01*
X557700D01*
Y225000D01*
X557500D01*
Y225200D01*
X557100D01*
Y225000D01*
X556900D01*
Y224600D01*
X557100D01*
X486100Y294160D02*
Y293760D01*
X486900D01*
Y294160D01*
X487300D01*
Y294960D01*
X486900D01*
Y295360D01*
X486100D01*
Y294960D01*
X485700D01*
Y294160D01*
X486100D01*
X486300Y294360D02*
Y294160D01*
X486700D01*
Y294360D01*
X486900D01*
Y294760D01*
X486700D01*
Y294960D01*
X486300D01*
Y294760D01*
X486100D01*
Y294360D01*
X486300D01*
X279400Y336490D02*
Y336090D01*
X280200D01*
Y336490D01*
X280600D01*
Y337290D01*
X280200D01*
Y337690D01*
X279400D01*
Y337290D01*
X279000D01*
Y336490D01*
X279400D01*
X279600Y336690D02*
Y336490D01*
X280000D01*
Y336690D01*
X280200D01*
Y337090D01*
X280000D01*
Y337290D01*
X279600D01*
Y337090D01*
X279400D01*
Y336690D01*
X279600D01*
X358900Y301400D02*
Y301000D01*
X359700D01*
Y301400D01*
X360100D01*
Y302200D01*
X359700D01*
Y302600D01*
X358900D01*
Y302200D01*
X358500D01*
Y301400D01*
X358900D01*
X359100Y301600D02*
Y301400D01*
X359500D01*
Y301600D01*
X359700D01*
Y302000D01*
X359500D01*
Y302200D01*
X359100D01*
Y302000D01*
X358900D01*
Y301600D01*
X359100D01*
X425900Y291400D02*
Y291000D01*
X426700D01*
Y291400D01*
X427100D01*
Y292200D01*
X426700D01*
Y292600D01*
X425900D01*
Y292200D01*
X425500D01*
Y291400D01*
X425900D01*
X426100Y291600D02*
Y291400D01*
X426500D01*
Y291600D01*
X426700D01*
Y292000D01*
X426500D01*
Y292200D01*
X426100D01*
Y292000D01*
X425900D01*
Y291600D01*
X426100D01*
X287280Y370910D02*
Y370510D01*
X288080D01*
Y370910D01*
X288480D01*
Y371710D01*
X288080D01*
Y372110D01*
X287280D01*
Y371710D01*
X286880D01*
Y370910D01*
X287280D01*
X287480Y371110D02*
Y370910D01*
X287880D01*
Y371110D01*
X288080D01*
Y371510D01*
X287880D01*
Y371710D01*
X287480D01*
Y371510D01*
X287280D01*
Y371110D01*
X287480D01*
X320400Y361400D02*
Y361000D01*
X321200D01*
Y361400D01*
X321600D01*
Y362200D01*
X321200D01*
Y362600D01*
X320400D01*
Y362200D01*
X320000D01*
Y361400D01*
X320400D01*
X320600Y361600D02*
Y361400D01*
X321000D01*
Y361600D01*
X321200D01*
Y362000D01*
X321000D01*
Y362200D01*
X320600D01*
Y362000D01*
X320400D01*
Y361600D01*
X320600D01*
X428030Y400450D02*
Y400050D01*
X428830D01*
Y400450D01*
X429230D01*
Y401250D01*
X428830D01*
Y401650D01*
X428030D01*
Y401250D01*
X427630D01*
Y400450D01*
X428030D01*
X428230Y400650D02*
Y400450D01*
X428630D01*
Y400650D01*
X428830D01*
Y401050D01*
X428630D01*
Y401250D01*
X428230D01*
Y401050D01*
X428030D01*
Y400650D01*
X428230D01*
X423110Y334500D02*
Y334100D01*
X423910D01*
Y334500D01*
X424310D01*
Y335300D01*
X423910D01*
Y335700D01*
X423110D01*
Y335300D01*
X422710D01*
Y334500D01*
X423110D01*
X423310Y334700D02*
Y334500D01*
X423710D01*
Y334700D01*
X423910D01*
Y335100D01*
X423710D01*
Y335300D01*
X423310D01*
Y335100D01*
X423110D01*
Y334700D01*
X423310D01*
X483400Y335400D02*
Y335000D01*
X484200D01*
Y335400D01*
X484600D01*
Y336200D01*
X484200D01*
Y336600D01*
X483400D01*
Y336200D01*
X483000D01*
Y335400D01*
X483400D01*
X483600Y335600D02*
Y335400D01*
X484000D01*
Y335600D01*
X484200D01*
Y336000D01*
X484000D01*
Y336200D01*
X483600D01*
Y336000D01*
X483400D01*
Y335600D01*
X483600D01*
X432950Y303010D02*
Y302610D01*
X433750D01*
Y303010D01*
X434150D01*
Y303810D01*
X433750D01*
Y304210D01*
X432950D01*
Y303810D01*
X432550D01*
Y303010D01*
X432950D01*
X433150Y303210D02*
Y303010D01*
X433550D01*
Y303210D01*
X433750D01*
Y303610D01*
X433550D01*
Y303810D01*
X433150D01*
Y303610D01*
X432950D01*
Y303210D01*
X433150D01*
X435970Y320710D02*
Y320310D01*
X436770D01*
Y320710D01*
X437170D01*
Y321510D01*
X436770D01*
Y321910D01*
X435970D01*
Y321510D01*
X435570D01*
Y320710D01*
X435970D01*
X436170Y320910D02*
Y320710D01*
X436570D01*
Y320910D01*
X436770D01*
Y321310D01*
X436570D01*
Y321510D01*
X436170D01*
Y321310D01*
X435970D01*
Y320910D01*
X436170D01*
X374900Y334400D02*
Y334000D01*
X375700D01*
Y334400D01*
X376100D01*
Y335200D01*
X375700D01*
Y335600D01*
X374900D01*
Y335200D01*
X374500D01*
Y334400D01*
X374900D01*
X375100Y334600D02*
Y334400D01*
X375500D01*
Y334600D01*
X375700D01*
Y335000D01*
X375500D01*
Y335200D01*
X375100D01*
Y335000D01*
X374900D01*
Y334600D01*
X375100D01*
X360110Y332530D02*
Y332130D01*
X360910D01*
Y332530D01*
X361310D01*
Y333330D01*
X360910D01*
Y333730D01*
X360110D01*
Y333330D01*
X359710D01*
Y332530D01*
X360110D01*
X360310Y332730D02*
Y332530D01*
X360710D01*
Y332730D01*
X360910D01*
Y333130D01*
X360710D01*
Y333330D01*
X360310D01*
Y333130D01*
X360110D01*
Y332730D01*
X360310D01*
X366900Y334400D02*
Y334000D01*
X367700D01*
Y334400D01*
X368100D01*
Y335200D01*
X367700D01*
Y335600D01*
X366900D01*
Y335200D01*
X366500D01*
Y334400D01*
X366900D01*
X367100Y334600D02*
Y334400D01*
X367500D01*
Y334600D01*
X367700D01*
Y335000D01*
X367500D01*
Y335200D01*
X367100D01*
Y335000D01*
X366900D01*
Y334600D01*
X367100D01*
X192370Y301970D02*
Y301570D01*
X193170D01*
Y301970D01*
X193570D01*
Y302770D01*
X193170D01*
Y303170D01*
X192370D01*
Y302770D01*
X191970D01*
Y301970D01*
X192370D01*
X192570Y302170D02*
Y301970D01*
X192970D01*
Y302170D01*
X193170D01*
Y302570D01*
X192970D01*
Y302770D01*
X192570D01*
Y302570D01*
X192370D01*
Y302170D01*
X192570D01*
X228160Y268430D02*
Y268030D01*
X228960D01*
Y268430D01*
X229360D01*
Y269230D01*
X228960D01*
Y269630D01*
X228160D01*
Y269230D01*
X227760D01*
Y268430D01*
X228160D01*
X228360Y268630D02*
Y268430D01*
X228760D01*
Y268630D01*
X228960D01*
Y269030D01*
X228760D01*
Y269230D01*
X228360D01*
Y269030D01*
X228160D01*
Y268630D01*
X228360D01*
X235400Y260900D02*
Y260500D01*
X236200D01*
Y260900D01*
X236600D01*
Y261700D01*
X236200D01*
Y262100D01*
X235400D01*
Y261700D01*
X235000D01*
Y260900D01*
X235400D01*
X235600Y261100D02*
Y260900D01*
X236000D01*
Y261100D01*
X236200D01*
Y261500D01*
X236000D01*
Y261700D01*
X235600D01*
Y261500D01*
X235400D01*
Y261100D01*
X235600D01*
X170550Y301590D02*
Y301190D01*
X171350D01*
Y301590D01*
X171750D01*
Y302390D01*
X171350D01*
Y302790D01*
X170550D01*
Y302390D01*
X170150D01*
Y301590D01*
X170550D01*
X170750Y301790D02*
Y301590D01*
X171150D01*
Y301790D01*
X171350D01*
Y302190D01*
X171150D01*
Y302390D01*
X170750D01*
Y302190D01*
X170550D01*
Y301790D01*
X170750D01*
X654400Y285400D02*
Y285000D01*
X655200D01*
Y285400D01*
X655600D01*
Y286200D01*
X655200D01*
Y286600D01*
X654400D01*
Y286200D01*
X654000D01*
Y285400D01*
X654400D01*
X654600Y285600D02*
Y285400D01*
X655000D01*
Y285600D01*
X655200D01*
Y286000D01*
X655000D01*
Y286200D01*
X654600D01*
Y286000D01*
X654400D01*
Y285600D01*
X654600D01*
X332090Y379940D02*
Y379540D01*
X332890D01*
Y379940D01*
X333290D01*
Y380740D01*
X332890D01*
Y381140D01*
X332090D01*
Y380740D01*
X331690D01*
Y379940D01*
X332090D01*
X332290Y380140D02*
Y379940D01*
X332690D01*
Y380140D01*
X332890D01*
Y380540D01*
X332690D01*
Y380740D01*
X332290D01*
Y380540D01*
X332090D01*
Y380140D01*
X332290D01*
X365090Y379940D02*
Y379540D01*
X365890D01*
Y379940D01*
X366290D01*
Y380740D01*
X365890D01*
Y381140D01*
X365090D01*
Y380740D01*
X364690D01*
Y379940D01*
X365090D01*
X365290Y380140D02*
Y379940D01*
X365690D01*
Y380140D01*
X365890D01*
Y380540D01*
X365690D01*
Y380740D01*
X365290D01*
Y380540D01*
X365090D01*
Y380140D01*
X365290D01*
X208400Y297400D02*
Y297000D01*
X209200D01*
Y297400D01*
X209600D01*
Y298200D01*
X209200D01*
Y298600D01*
X208400D01*
Y298200D01*
X208000D01*
Y297400D01*
X208400D01*
X208600Y297600D02*
Y297400D01*
X209000D01*
Y297600D01*
X209200D01*
Y298000D01*
X209000D01*
Y298200D01*
X208600D01*
Y298000D01*
X208400D01*
Y297600D01*
X208600D01*
X200400Y297400D02*
Y297000D01*
X201200D01*
Y297400D01*
X201600D01*
Y298200D01*
X201200D01*
Y298600D01*
X200400D01*
Y298200D01*
X200000D01*
Y297400D01*
X200400D01*
X200600Y297600D02*
Y297400D01*
X201000D01*
Y297600D01*
X201200D01*
Y298000D01*
X201000D01*
Y298200D01*
X200600D01*
Y298000D01*
X200400D01*
Y297600D01*
X200600D01*
X386100Y161500D02*
Y161100D01*
X386900D01*
Y161500D01*
X387300D01*
Y162300D01*
X386900D01*
Y162700D01*
X386100D01*
Y162300D01*
X385700D01*
Y161500D01*
X386100D01*
X386300Y161700D02*
Y161500D01*
X386700D01*
Y161700D01*
X386900D01*
Y162100D01*
X386700D01*
Y162300D01*
X386300D01*
Y162100D01*
X386100D01*
Y161700D01*
X386300D01*
X260200Y202400D02*
Y202000D01*
X261000D01*
Y202400D01*
X261400D01*
Y203200D01*
X261000D01*
Y203600D01*
X260200D01*
Y203200D01*
X259800D01*
Y202400D01*
X260200D01*
X260400Y202600D02*
Y202400D01*
X260800D01*
Y202600D01*
X261000D01*
Y203000D01*
X260800D01*
Y203200D01*
X260400D01*
Y203000D01*
X260200D01*
Y202600D01*
X260400D01*
X271300Y206100D02*
Y205700D01*
X272100D01*
Y206100D01*
X272500D01*
Y206900D01*
X272100D01*
Y207300D01*
X271300D01*
Y206900D01*
X270900D01*
Y206100D01*
X271300D01*
X271500Y206300D02*
Y206100D01*
X271900D01*
Y206300D01*
X272100D01*
Y206700D01*
X271900D01*
Y206900D01*
X271500D01*
Y206700D01*
X271300D01*
Y206300D01*
X271500D01*
X244400Y178400D02*
Y178000D01*
X245200D01*
Y178400D01*
X245600D01*
Y179200D01*
X245200D01*
Y179600D01*
X244400D01*
Y179200D01*
X244000D01*
Y178400D01*
X244400D01*
X244600Y178600D02*
Y178400D01*
X245000D01*
Y178600D01*
X245200D01*
Y179000D01*
X245000D01*
Y179200D01*
X244600D01*
Y179000D01*
X244400D01*
Y178600D01*
X244600D01*
X251400Y190400D02*
Y190000D01*
X252200D01*
Y190400D01*
X252600D01*
Y191200D01*
X252200D01*
Y191600D01*
X251400D01*
Y191200D01*
X251000D01*
Y190400D01*
X251400D01*
X251600Y190600D02*
Y190400D01*
X252000D01*
Y190600D01*
X252200D01*
Y191000D01*
X252000D01*
Y191200D01*
X251600D01*
Y191000D01*
X251400D01*
Y190600D01*
X251600D01*
X310900Y224400D02*
Y224000D01*
X311700D01*
Y224400D01*
X312100D01*
Y225200D01*
X311700D01*
Y225600D01*
X310900D01*
Y225200D01*
X310500D01*
Y224400D01*
X310900D01*
X311100Y224600D02*
Y224400D01*
X311500D01*
Y224600D01*
X311700D01*
Y225000D01*
X311500D01*
Y225200D01*
X311100D01*
Y225000D01*
X310900D01*
Y224600D01*
X311100D01*
X278900Y217400D02*
Y217000D01*
X279700D01*
Y217400D01*
X280100D01*
Y218200D01*
X279700D01*
Y218600D01*
X278900D01*
Y218200D01*
X278500D01*
Y217400D01*
X278900D01*
X279100Y217600D02*
Y217400D01*
X279500D01*
Y217600D01*
X279700D01*
Y218000D01*
X279500D01*
Y218200D01*
X279100D01*
Y218000D01*
X278900D01*
Y217600D01*
X279100D01*
X269900Y230920D02*
Y230520D01*
X270700D01*
Y230920D01*
X271100D01*
Y231720D01*
X270700D01*
Y232120D01*
X269900D01*
Y231720D01*
X269500D01*
Y230920D01*
X269900D01*
X270100Y231120D02*
Y230920D01*
X270500D01*
Y231120D01*
X270700D01*
Y231520D01*
X270500D01*
Y231720D01*
X270100D01*
Y231520D01*
X269900D01*
Y231120D01*
X270100D01*
X194400Y166900D02*
Y166500D01*
X195200D01*
Y166900D01*
X195600D01*
Y167700D01*
X195200D01*
Y168100D01*
X194400D01*
Y167700D01*
X194000D01*
Y166900D01*
X194400D01*
X194600Y167100D02*
Y166900D01*
X195000D01*
Y167100D01*
X195200D01*
Y167500D01*
X195000D01*
Y167700D01*
X194600D01*
Y167500D01*
X194400D01*
Y167100D01*
X194600D01*
X258900Y252070D02*
Y251670D01*
X259700D01*
Y252070D01*
X260100D01*
Y252870D01*
X259700D01*
Y253270D01*
X258900D01*
Y252870D01*
X258500D01*
Y252070D01*
X258900D01*
X259100Y252270D02*
Y252070D01*
X259500D01*
Y252270D01*
X259700D01*
Y252670D01*
X259500D01*
Y252870D01*
X259100D01*
Y252670D01*
X258900D01*
Y252270D01*
X259100D01*
X207900Y316300D02*
Y315900D01*
X208700D01*
Y316300D01*
X209100D01*
Y317100D01*
X208700D01*
Y317500D01*
X207900D01*
Y317100D01*
X207500D01*
Y316300D01*
X207900D01*
X208100Y316500D02*
Y316300D01*
X208500D01*
Y316500D01*
X208700D01*
Y316900D01*
X208500D01*
Y317100D01*
X208100D01*
Y316900D01*
X207900D01*
Y316500D01*
X208100D01*
X293900Y224400D02*
Y224000D01*
X294700D01*
Y224400D01*
X295100D01*
Y225200D01*
X294700D01*
Y225600D01*
X293900D01*
Y225200D01*
X293500D01*
Y224400D01*
X293900D01*
X294100Y224600D02*
Y224400D01*
X294500D01*
Y224600D01*
X294700D01*
Y225000D01*
X294500D01*
Y225200D01*
X294100D01*
Y225000D01*
X293900D01*
Y224600D01*
X294100D01*
X401600Y266600D02*
Y266200D01*
X402400D01*
Y266600D01*
X402800D01*
Y267400D01*
X402400D01*
Y267800D01*
X401600D01*
Y267400D01*
X401200D01*
Y266600D01*
X401600D01*
X401800Y266800D02*
Y266600D01*
X402200D01*
Y266800D01*
X402400D01*
Y267200D01*
X402200D01*
Y267400D01*
X401800D01*
Y267200D01*
X401600D01*
Y266800D01*
X401800D01*
X349800Y221300D02*
Y220900D01*
X350600D01*
Y221300D01*
X351000D01*
Y222100D01*
X350600D01*
Y222500D01*
X349800D01*
Y222100D01*
X349400D01*
Y221300D01*
X349800D01*
X350000Y221500D02*
Y221300D01*
X350400D01*
Y221500D01*
X350600D01*
Y221900D01*
X350400D01*
Y222100D01*
X350000D01*
Y221900D01*
X349800D01*
Y221500D01*
X350000D01*
X318900Y261400D02*
Y261000D01*
X319700D01*
Y261400D01*
X320100D01*
Y262200D01*
X319700D01*
Y262600D01*
X318900D01*
Y262200D01*
X318500D01*
Y261400D01*
X318900D01*
X319100Y261600D02*
Y261400D01*
X319500D01*
Y261600D01*
X319700D01*
Y262000D01*
X319500D01*
Y262200D01*
X319100D01*
Y262000D01*
X318900D01*
Y261600D01*
X319100D01*
X327400Y235400D02*
Y235000D01*
X328200D01*
Y235400D01*
X328600D01*
Y236200D01*
X328200D01*
Y236600D01*
X327400D01*
Y236200D01*
X327000D01*
Y235400D01*
X327400D01*
X327600Y235600D02*
Y235400D01*
X328000D01*
Y235600D01*
X328200D01*
Y236000D01*
X328000D01*
Y236200D01*
X327600D01*
Y236000D01*
X327400D01*
Y235600D01*
X327600D01*
X373500Y187300D02*
Y186900D01*
X374300D01*
Y187300D01*
X374700D01*
Y188100D01*
X374300D01*
Y188500D01*
X373500D01*
Y188100D01*
X373100D01*
Y187300D01*
X373500D01*
X373700Y187500D02*
Y187300D01*
X374100D01*
Y187500D01*
X374300D01*
Y187900D01*
X374100D01*
Y188100D01*
X373700D01*
Y187900D01*
X373500D01*
Y187500D01*
X373700D01*
X309400Y214400D02*
Y214000D01*
X310200D01*
Y214400D01*
X310600D01*
Y215200D01*
X310200D01*
Y215600D01*
X309400D01*
Y215200D01*
X309000D01*
Y214400D01*
X309400D01*
X309600Y214600D02*
Y214400D01*
X310000D01*
Y214600D01*
X310200D01*
Y215000D01*
X310000D01*
Y215200D01*
X309600D01*
Y215000D01*
X309400D01*
Y214600D01*
X309600D01*
X292400Y214400D02*
Y214000D01*
X293200D01*
Y214400D01*
X293600D01*
Y215200D01*
X293200D01*
Y215600D01*
X292400D01*
Y215200D01*
X292000D01*
Y214400D01*
X292400D01*
X292600Y214600D02*
Y214400D01*
X293000D01*
Y214600D01*
X293200D01*
Y215000D01*
X293000D01*
Y215200D01*
X292600D01*
Y215000D01*
X292400D01*
Y214600D01*
X292600D01*
X172900Y217900D02*
Y217500D01*
X173700D01*
Y217900D01*
X174100D01*
Y218700D01*
X173700D01*
Y219100D01*
X172900D01*
Y218700D01*
X172500D01*
Y217900D01*
X172900D01*
X173100Y218100D02*
Y217900D01*
X173500D01*
Y218100D01*
X173700D01*
Y218500D01*
X173500D01*
Y218700D01*
X173100D01*
Y218500D01*
X172900D01*
Y218100D01*
X173100D01*
X294900Y169900D02*
Y169500D01*
X295700D01*
Y169900D01*
X296100D01*
Y170700D01*
X295700D01*
Y171100D01*
X294900D01*
Y170700D01*
X294500D01*
Y169900D01*
X294900D01*
X295100Y170100D02*
Y169900D01*
X295500D01*
Y170100D01*
X295700D01*
Y170500D01*
X295500D01*
Y170700D01*
X295100D01*
Y170500D01*
X294900D01*
Y170100D01*
X295100D01*
X478400Y246400D02*
Y246000D01*
X479200D01*
Y246400D01*
X479600D01*
Y247200D01*
X479200D01*
Y247600D01*
X478400D01*
Y247200D01*
X478000D01*
Y246400D01*
X478400D01*
X478600Y246600D02*
Y246400D01*
X479000D01*
Y246600D01*
X479200D01*
Y247000D01*
X479000D01*
Y247200D01*
X478600D01*
Y247000D01*
X478400D01*
Y246600D01*
X478600D01*
X589400Y240400D02*
Y240000D01*
X590200D01*
Y240400D01*
X590600D01*
Y241200D01*
X590200D01*
Y241600D01*
X589400D01*
Y241200D01*
X589000D01*
Y240400D01*
X589400D01*
X589600Y240600D02*
Y240400D01*
X590000D01*
Y240600D01*
X590200D01*
Y241000D01*
X590000D01*
Y241200D01*
X589600D01*
Y241000D01*
X589400D01*
Y240600D01*
X589600D01*
X619900Y330400D02*
Y330000D01*
X620700D01*
Y330400D01*
X621100D01*
Y331200D01*
X620700D01*
Y331600D01*
X619900D01*
Y331200D01*
X619500D01*
Y330400D01*
X619900D01*
X620100Y330600D02*
Y330400D01*
X620500D01*
Y330600D01*
X620700D01*
Y331000D01*
X620500D01*
Y331200D01*
X620100D01*
Y331000D01*
X619900D01*
Y330600D01*
X620100D01*
X655900Y300400D02*
Y300000D01*
X656700D01*
Y300400D01*
X657100D01*
Y301200D01*
X656700D01*
Y301600D01*
X655900D01*
Y301200D01*
X655500D01*
Y300400D01*
X655900D01*
X656100Y300600D02*
Y300400D01*
X656500D01*
Y300600D01*
X656700D01*
Y301000D01*
X656500D01*
Y301200D01*
X656100D01*
Y301000D01*
X655900D01*
Y300600D01*
X656100D01*
X529400Y190400D02*
Y190000D01*
X530200D01*
Y190400D01*
X530600D01*
Y191200D01*
X530200D01*
Y191600D01*
X529400D01*
Y191200D01*
X529000D01*
Y190400D01*
X529400D01*
X529600Y190600D02*
Y190400D01*
X530000D01*
Y190600D01*
X530200D01*
Y191000D01*
X530000D01*
Y191200D01*
X529600D01*
Y191000D01*
X529400D01*
Y190600D01*
X529600D01*
X287900Y275900D02*
Y275500D01*
X288700D01*
Y275900D01*
X289100D01*
Y276700D01*
X288700D01*
Y277100D01*
X287900D01*
Y276700D01*
X287500D01*
Y275900D01*
X287900D01*
X288100Y276100D02*
Y275900D01*
X288500D01*
Y276100D01*
X288700D01*
Y276500D01*
X288500D01*
Y276700D01*
X288100D01*
Y276500D01*
X287900D01*
Y276100D01*
X288100D01*
X315900Y237400D02*
Y237000D01*
X316700D01*
Y237400D01*
X317100D01*
Y238200D01*
X316700D01*
Y238600D01*
X315900D01*
Y238200D01*
X315500D01*
Y237400D01*
X315900D01*
X316100Y237600D02*
Y237400D01*
X316500D01*
Y237600D01*
X316700D01*
Y238000D01*
X316500D01*
Y238200D01*
X316100D01*
Y238000D01*
X315900D01*
Y237600D01*
X316100D01*
X333900Y235400D02*
Y235000D01*
X334700D01*
Y235400D01*
X335100D01*
Y236200D01*
X334700D01*
Y236600D01*
X333900D01*
Y236200D01*
X333500D01*
Y235400D01*
X333900D01*
X334100Y235600D02*
Y235400D01*
X334500D01*
Y235600D01*
X334700D01*
Y236000D01*
X334500D01*
Y236200D01*
X334100D01*
Y236000D01*
X333900D01*
Y235600D01*
X334100D01*
X374900Y365900D02*
Y365500D01*
X375700D01*
Y365900D01*
X376100D01*
Y366700D01*
X375700D01*
Y367100D01*
X374900D01*
Y366700D01*
X374500D01*
Y365900D01*
X374900D01*
X375100Y366100D02*
Y365900D01*
X375500D01*
Y366100D01*
X375700D01*
Y366500D01*
X375500D01*
Y366700D01*
X375100D01*
Y366500D01*
X374900D01*
Y366100D01*
X375100D01*
X287400Y406400D02*
Y406000D01*
X288200D01*
Y406400D01*
X288600D01*
Y407200D01*
X288200D01*
Y407600D01*
X287400D01*
Y407200D01*
X287000D01*
Y406400D01*
X287400D01*
X287600Y406600D02*
Y406400D01*
X288000D01*
Y406600D01*
X288200D01*
Y407000D01*
X288000D01*
Y407200D01*
X287600D01*
Y407000D01*
X287400D01*
Y406600D01*
X287600D01*
X315600Y376000D02*
Y375600D01*
X316400D01*
Y376000D01*
X316800D01*
Y376800D01*
X316400D01*
Y377200D01*
X315600D01*
Y376800D01*
X315200D01*
Y376000D01*
X315600D01*
X315800Y376200D02*
Y376000D01*
X316200D01*
Y376200D01*
X316400D01*
Y376600D01*
X316200D01*
Y376800D01*
X315800D01*
Y376600D01*
X315600D01*
Y376200D01*
X315800D01*
X320600Y376000D02*
Y375600D01*
X321400D01*
Y376000D01*
X321800D01*
Y376800D01*
X321400D01*
Y377200D01*
X320600D01*
Y376800D01*
X320200D01*
Y376000D01*
X320600D01*
X320800Y376200D02*
Y376000D01*
X321200D01*
Y376200D01*
X321400D01*
Y376600D01*
X321200D01*
Y376800D01*
X320800D01*
Y376600D01*
X320600D01*
Y376200D01*
X320800D01*
X325600Y376000D02*
Y375600D01*
X326400D01*
Y376000D01*
X326800D01*
Y376800D01*
X326400D01*
Y377200D01*
X325600D01*
Y376800D01*
X325200D01*
Y376000D01*
X325600D01*
X325800Y376200D02*
Y376000D01*
X326200D01*
Y376200D01*
X326400D01*
Y376600D01*
X326200D01*
Y376800D01*
X325800D01*
Y376600D01*
X325600D01*
Y376200D01*
X325800D01*
X315600Y380500D02*
Y380100D01*
X316400D01*
Y380500D01*
X316800D01*
Y381300D01*
X316400D01*
Y381700D01*
X315600D01*
Y381300D01*
X315200D01*
Y380500D01*
X315600D01*
X315800Y380700D02*
Y380500D01*
X316200D01*
Y380700D01*
X316400D01*
Y381100D01*
X316200D01*
Y381300D01*
X315800D01*
Y381100D01*
X315600D01*
Y380700D01*
X315800D01*
X320600Y380500D02*
Y380100D01*
X321400D01*
Y380500D01*
X321800D01*
Y381300D01*
X321400D01*
Y381700D01*
X320600D01*
Y381300D01*
X320200D01*
Y380500D01*
X320600D01*
X320800Y380700D02*
Y380500D01*
X321200D01*
Y380700D01*
X321400D01*
Y381100D01*
X321200D01*
Y381300D01*
X320800D01*
Y381100D01*
X320600D01*
Y380700D01*
X320800D01*
X325600Y380500D02*
Y380100D01*
X326400D01*
Y380500D01*
X326800D01*
Y381300D01*
X326400D01*
Y381700D01*
X325600D01*
Y381300D01*
X325200D01*
Y380500D01*
X325600D01*
X325800Y380700D02*
Y380500D01*
X326200D01*
Y380700D01*
X326400D01*
Y381100D01*
X326200D01*
Y381300D01*
X325800D01*
Y381100D01*
X325600D01*
Y380700D01*
X325800D01*
X406900Y300900D02*
Y300500D01*
X407700D01*
Y300900D01*
X408100D01*
Y301700D01*
X407700D01*
Y302100D01*
X406900D01*
Y301700D01*
X406500D01*
Y300900D01*
X406900D01*
X407100Y301100D02*
Y300900D01*
X407500D01*
Y301100D01*
X407700D01*
Y301500D01*
X407500D01*
Y301700D01*
X407100D01*
Y301500D01*
X406900D01*
Y301100D01*
X407100D01*
X411400Y328400D02*
Y328000D01*
X412200D01*
Y328400D01*
X412600D01*
Y329200D01*
X412200D01*
Y329600D01*
X411400D01*
Y329200D01*
X411000D01*
Y328400D01*
X411400D01*
X411600Y328600D02*
Y328400D01*
X412000D01*
Y328600D01*
X412200D01*
Y329000D01*
X412000D01*
Y329200D01*
X411600D01*
Y329000D01*
X411400D01*
Y328600D01*
X411600D01*
X535900Y299900D02*
Y299500D01*
X536700D01*
Y299900D01*
X537100D01*
Y300700D01*
X536700D01*
Y301100D01*
X535900D01*
Y300700D01*
X535500D01*
Y299900D01*
X535900D01*
X536100Y300100D02*
Y299900D01*
X536500D01*
Y300100D01*
X536700D01*
Y300500D01*
X536500D01*
Y300700D01*
X536100D01*
Y300500D01*
X535900D01*
Y300100D01*
X536100D01*
X463500Y302900D02*
Y302500D01*
X464300D01*
Y302900D01*
X464700D01*
Y303700D01*
X464300D01*
Y304100D01*
X463500D01*
Y303700D01*
X463100D01*
Y302900D01*
X463500D01*
X463700Y303100D02*
Y302900D01*
X464100D01*
Y303100D01*
X464300D01*
Y303500D01*
X464100D01*
Y303700D01*
X463700D01*
Y303500D01*
X463500D01*
Y303100D01*
X463700D01*
X483400Y365400D02*
Y365000D01*
X484200D01*
Y365400D01*
X484600D01*
Y366200D01*
X484200D01*
Y366600D01*
X483400D01*
Y366200D01*
X483000D01*
Y365400D01*
X483400D01*
X483600Y365600D02*
Y365400D01*
X484000D01*
Y365600D01*
X484200D01*
Y366000D01*
X484000D01*
Y366200D01*
X483600D01*
Y366000D01*
X483400D01*
Y365600D01*
X483600D01*
X395900Y388400D02*
Y388000D01*
X396700D01*
Y388400D01*
X397100D01*
Y389200D01*
X396700D01*
Y389600D01*
X395900D01*
Y389200D01*
X395500D01*
Y388400D01*
X395900D01*
X396100Y388600D02*
Y388400D01*
X396500D01*
Y388600D01*
X396700D01*
Y389000D01*
X396500D01*
Y389200D01*
X396100D01*
Y389000D01*
X395900D01*
Y388600D01*
X396100D01*
X359400Y220900D02*
Y220500D01*
X360200D01*
Y220900D01*
X360600D01*
Y221700D01*
X360200D01*
Y222100D01*
X359400D01*
Y221700D01*
X359000D01*
Y220900D01*
X359400D01*
X359600Y221100D02*
Y220900D01*
X360000D01*
Y221100D01*
X360200D01*
Y221500D01*
X360000D01*
Y221700D01*
X359600D01*
Y221500D01*
X359400D01*
Y221100D01*
X359600D01*
X378400Y240400D02*
Y240000D01*
X379200D01*
Y240400D01*
X379600D01*
Y241200D01*
X379200D01*
Y241600D01*
X378400D01*
Y241200D01*
X378000D01*
Y240400D01*
X378400D01*
X378600Y240600D02*
Y240400D01*
X379000D01*
Y240600D01*
X379200D01*
Y241000D01*
X379000D01*
Y241200D01*
X378600D01*
Y241000D01*
X378400D01*
Y240600D01*
X378600D01*
X178400Y266900D02*
Y266500D01*
X179200D01*
Y266900D01*
X179600D01*
Y267700D01*
X179200D01*
Y268100D01*
X178400D01*
Y267700D01*
X178000D01*
Y266900D01*
X178400D01*
X178600Y267100D02*
Y266900D01*
X179000D01*
Y267100D01*
X179200D01*
Y267500D01*
X179000D01*
Y267700D01*
X178600D01*
Y267500D01*
X178400D01*
Y267100D01*
X178600D01*
X192900Y284400D02*
Y284000D01*
X193700D01*
Y284400D01*
X194100D01*
Y285200D01*
X193700D01*
Y285600D01*
X192900D01*
Y285200D01*
X192500D01*
Y284400D01*
X192900D01*
X193100Y284600D02*
Y284400D01*
X193500D01*
Y284600D01*
X193700D01*
Y285000D01*
X193500D01*
Y285200D01*
X193100D01*
Y285000D01*
X192900D01*
Y284600D01*
X193100D01*
X229900Y293400D02*
Y293000D01*
X230700D01*
Y293400D01*
X231100D01*
Y294200D01*
X230700D01*
Y294600D01*
X229900D01*
Y294200D01*
X229500D01*
Y293400D01*
X229900D01*
X230100Y293600D02*
Y293400D01*
X230500D01*
Y293600D01*
X230700D01*
Y294000D01*
X230500D01*
Y294200D01*
X230100D01*
Y294000D01*
X229900D01*
Y293600D01*
X230100D01*
X287900Y298400D02*
Y298000D01*
X288700D01*
Y298400D01*
X289100D01*
Y299200D01*
X288700D01*
Y299600D01*
X287900D01*
Y299200D01*
X287500D01*
Y298400D01*
X287900D01*
X288100Y298600D02*
Y298400D01*
X288500D01*
Y298600D01*
X288700D01*
Y299000D01*
X288500D01*
Y299200D01*
X288100D01*
Y299000D01*
X287900D01*
Y298600D01*
X288100D01*
X322400Y275900D02*
Y275500D01*
X323200D01*
Y275900D01*
X323600D01*
Y276700D01*
X323200D01*
Y277100D01*
X322400D01*
Y276700D01*
X322000D01*
Y275900D01*
X322400D01*
X322600Y276100D02*
Y275900D01*
X323000D01*
Y276100D01*
X323200D01*
Y276500D01*
X323000D01*
Y276700D01*
X322600D01*
Y276500D01*
X322400D01*
Y276100D01*
X322600D01*
X322400Y298400D02*
Y298000D01*
X323200D01*
Y298400D01*
X323600D01*
Y299200D01*
X323200D01*
Y299600D01*
X322400D01*
Y299200D01*
X322000D01*
Y298400D01*
X322400D01*
X322600Y298600D02*
Y298400D01*
X323000D01*
Y298600D01*
X323200D01*
Y299000D01*
X323000D01*
Y299200D01*
X322600D01*
Y299000D01*
X322400D01*
Y298600D01*
X322600D01*
X374400Y307900D02*
Y307500D01*
X375200D01*
Y307900D01*
X375600D01*
Y308700D01*
X375200D01*
Y309100D01*
X374400D01*
Y308700D01*
X374000D01*
Y307900D01*
X374400D01*
X374600Y308100D02*
Y307900D01*
X375000D01*
Y308100D01*
X375200D01*
Y308500D01*
X375000D01*
Y308700D01*
X374600D01*
Y308500D01*
X374400D01*
Y308100D01*
X374600D01*
X446700Y245600D02*
Y245200D01*
X447500D01*
Y245600D01*
X447900D01*
Y246400D01*
X447500D01*
Y246800D01*
X446700D01*
Y246400D01*
X446300D01*
Y245600D01*
X446700D01*
X446900Y245800D02*
Y245600D01*
X447300D01*
Y245800D01*
X447500D01*
Y246200D01*
X447300D01*
Y246400D01*
X446900D01*
Y246200D01*
X446700D01*
Y245800D01*
X446900D01*
X438860Y245740D02*
Y245340D01*
X439660D01*
Y245740D01*
X440060D01*
Y246540D01*
X439660D01*
Y246940D01*
X438860D01*
Y246540D01*
X438460D01*
Y245740D01*
X438860D01*
X439060Y245940D02*
Y245740D01*
X439460D01*
Y245940D01*
X439660D01*
Y246340D01*
X439460D01*
Y246540D01*
X439060D01*
Y246340D01*
X438860D01*
Y245940D01*
X439060D01*
D169*
X565030Y191150D02*
G03*
X565030Y191150I-800J0D01*
G01*
X590620D02*
G03*
X590620Y191150I-800J0D01*
G01*
X565030Y173430D02*
G03*
X565030Y173430I-800J0D01*
G01*
X590620D02*
G03*
X590620Y173430I-800J0D01*
G01*
X330800Y338910D02*
G03*
X330800Y338910I-800J0D01*
G01*
Y328910D02*
G03*
X330800Y328910I-800J0D01*
G01*
X576870Y308430D02*
G03*
X576870Y308430I-800J0D01*
G01*
Y294430D02*
G03*
X576870Y294430I-800J0D01*
G01*
X590100Y399800D02*
G03*
X590100Y399800I-800J0D01*
G01*
Y389800D02*
G03*
X590100Y389800I-800J0D01*
G01*
X636600Y400300D02*
G03*
X636600Y400300I-800J0D01*
G01*
X626600D02*
G03*
X626600Y400300I-800J0D01*
G01*
X206300Y250200D02*
G03*
X206300Y250200I-800J0D01*
G01*
Y187200D02*
G03*
X206300Y187200I-800J0D01*
G01*
X366100Y284800D02*
G03*
X366100Y284800I-800J0D01*
G01*
X590100Y373300D02*
G03*
X590100Y373300I-800J0D01*
G01*
D170*
X205900Y250200D02*
G03*
X205900Y250200I-400J0D01*
G01*
Y187200D02*
G03*
X205900Y187200I-400J0D01*
G01*
M02*
