G04*
G04 #@! TF.GenerationSoftware,Altium Limited,Altium Designer,20.1.7 (139)*
G04*
G04 Layer_Color=16711935*
%FSLAX25Y25*%
%MOIN*%
G70*
G04*
G04 #@! TF.SameCoordinates,24E638B0-66B5-4ADB-958A-7C5563F4B5AF*
G04*
G04*
G04 #@! TF.FilePolarity,Negative*
G04*
G01*
G75*
%ADD70C,0.05800*%
%ADD72C,0.07000*%
%ADD73R,0.05800X0.03800*%
%ADD76R,0.05130X0.05520*%
%ADD103R,0.42150X0.33950*%
%ADD105R,0.14600X0.09300*%
%ADD113R,0.07000X0.07000*%
%ADD114C,0.06800*%
%ADD115C,0.05131*%
%ADD116R,0.07000X0.07000*%
%ADD117C,0.07300*%
%ADD118C,0.06700*%
%ADD119R,0.06700X0.06700*%
%ADD120R,0.07300X0.07300*%
%ADD121R,0.06300X0.06300*%
%ADD122C,0.06300*%
%ADD123C,0.08200*%
%ADD124C,0.06310*%
%ADD125R,0.06310X0.06310*%
%ADD126C,0.13595*%
%ADD127R,0.06800X0.06800*%
%ADD128C,0.06784*%
%ADD129C,0.09300*%
%ADD130R,0.08200X0.08200*%
%ADD131C,0.20800*%
%ADD132R,0.07400X0.07400*%
%ADD133R,0.07800X0.07800*%
%ADD134C,0.04028*%
%ADD135C,0.03635*%
G36*
X444970Y238160D02*
X443300D01*
X441720Y236590D01*
Y234810D01*
X443300Y233240D01*
X444970D01*
Y238160D01*
D02*
G37*
G36*
X446350Y233240D02*
X448020D01*
X449600Y234860D01*
Y236640D01*
X448020Y238160D01*
X446350D01*
Y233240D01*
D02*
G37*
D70*
X360800Y358800D02*
D03*
X368800Y269800D02*
D03*
X320800Y400800D02*
D03*
D72*
X218300Y275300D02*
D03*
X258150Y326030D02*
D03*
X248150D02*
D03*
D73*
X374800Y308300D02*
D03*
D76*
X260805Y169800D02*
D03*
D103*
X536312Y389619D02*
D03*
D105*
X320800Y378800D02*
D03*
D113*
X218300Y285300D02*
D03*
D114*
X564230Y191150D02*
D03*
X589820D02*
D03*
X564230Y173430D02*
D03*
X589820D02*
D03*
X330000Y338910D02*
D03*
Y328910D02*
D03*
X576070Y308430D02*
D03*
Y294430D02*
D03*
X589300Y399800D02*
D03*
Y389800D02*
D03*
X228000Y231200D02*
D03*
X218000Y226200D02*
D03*
X228000Y221200D02*
D03*
X218000Y216200D02*
D03*
X228000Y211200D02*
D03*
X218000Y206200D02*
D03*
X228000Y201200D02*
D03*
X173700Y244700D02*
D03*
Y202700D02*
D03*
X365300Y284800D02*
D03*
X589300Y373300D02*
D03*
D115*
X182710Y304790D02*
D03*
Y322110D02*
D03*
D116*
X238150Y326030D02*
D03*
D117*
X305290Y170130D02*
D03*
X285290D02*
D03*
X534930Y173800D02*
D03*
X524930D02*
D03*
X514930D02*
D03*
D118*
X635800Y400300D02*
D03*
D119*
X625800D02*
D03*
D120*
X544930Y173800D02*
D03*
D121*
X190850Y377570D02*
D03*
D122*
X200850D02*
D03*
X210850D02*
D03*
X220850D02*
D03*
X230850D02*
D03*
X240850D02*
D03*
X250850D02*
D03*
X260850D02*
D03*
Y407570D02*
D03*
X250850D02*
D03*
X240850D02*
D03*
X230850D02*
D03*
X220850D02*
D03*
X210850D02*
D03*
X200850D02*
D03*
X190850D02*
D03*
D123*
X517800Y253300D02*
D03*
Y278900D02*
D03*
X676730Y363110D02*
D03*
Y352210D02*
D03*
Y341310D02*
D03*
Y330410D02*
D03*
X687930Y368510D02*
D03*
Y357610D02*
D03*
Y346810D02*
D03*
Y335910D02*
D03*
X676730Y230240D02*
D03*
Y219340D02*
D03*
Y208440D02*
D03*
Y197540D02*
D03*
X687930Y235640D02*
D03*
Y224740D02*
D03*
Y213940D02*
D03*
Y203040D02*
D03*
D124*
X440330Y175630D02*
D03*
D125*
X440335Y185625D02*
D03*
X450335Y175625D02*
D03*
Y185625D02*
D03*
X460335Y175625D02*
D03*
Y185625D02*
D03*
X470335Y175625D02*
D03*
Y185625D02*
D03*
X480335Y175625D02*
D03*
Y185625D02*
D03*
D126*
X193000Y242320D02*
D03*
Y195080D02*
D03*
D127*
X218000Y236200D02*
D03*
D128*
X179220Y234450D02*
D03*
Y193110D02*
D03*
D129*
X205500Y250200D02*
D03*
Y187200D02*
D03*
D130*
X676730Y374010D02*
D03*
Y241140D02*
D03*
D131*
X682330Y401410D02*
D03*
Y303010D02*
D03*
Y268540D02*
D03*
Y170140D02*
D03*
D132*
X466630Y400840D02*
D03*
X456630Y210840D02*
D03*
X476630Y400840D02*
D03*
X486630D02*
D03*
X496630D02*
D03*
X506630D02*
D03*
X456630D02*
D03*
X446630D02*
D03*
X436630D02*
D03*
X420630D02*
D03*
X410630D02*
D03*
X400630D02*
D03*
X390630D02*
D03*
X380630D02*
D03*
X370630D02*
D03*
X360630D02*
D03*
X350630D02*
D03*
X466630Y210840D02*
D03*
X476630D02*
D03*
X486630D02*
D03*
X496630D02*
D03*
X506630D02*
D03*
X436630D02*
D03*
X426630D02*
D03*
X416630D02*
D03*
X406630D02*
D03*
X396630D02*
D03*
X386630D02*
D03*
X340630Y400840D02*
D03*
X330630D02*
D03*
X376630Y210840D02*
D03*
X366630D02*
D03*
X446800Y210800D02*
D03*
D133*
X516630Y310840D02*
D03*
X506630D02*
D03*
Y320840D02*
D03*
X516630D02*
D03*
Y300840D02*
D03*
X506630D02*
D03*
X612300Y373800D02*
D03*
D134*
X295000Y243100D02*
D03*
X517030Y375240D02*
D03*
X526870D02*
D03*
X536710D02*
D03*
X546560D02*
D03*
X556400D02*
D03*
X517020Y385090D02*
D03*
X526860D02*
D03*
X536700D02*
D03*
X546540D02*
D03*
X556390D02*
D03*
X517020Y394940D02*
D03*
X526860D02*
D03*
X536700D02*
D03*
X546540D02*
D03*
X556390D02*
D03*
X517010Y404780D02*
D03*
X526850D02*
D03*
X536690D02*
D03*
X546530D02*
D03*
X556380D02*
D03*
X395960Y309300D02*
D03*
X398800Y305500D02*
D03*
X395960Y301430D02*
D03*
X382300Y307300D02*
D03*
X384150Y303400D02*
D03*
X403850Y290610D02*
D03*
X420560Y327020D02*
D03*
X384150D02*
D03*
X380200Y330800D02*
D03*
X384150Y334890D02*
D03*
X395800Y332900D02*
D03*
X398700Y329000D02*
D03*
X415650Y290620D02*
D03*
X408300Y275500D02*
D03*
X315250Y310290D02*
D03*
X332300Y310400D02*
D03*
X427450Y319150D02*
D03*
X551430Y250800D02*
D03*
X524900Y256150D02*
D03*
X546590Y240960D02*
D03*
X283750Y310290D02*
D03*
X445180Y340790D02*
D03*
X299500Y310290D02*
D03*
X438800Y329300D02*
D03*
X360520Y340800D02*
D03*
X364460Y352610D02*
D03*
X403830Y332930D02*
D03*
X415650Y332910D02*
D03*
X439260Y311270D02*
D03*
X439300Y302300D02*
D03*
X655800Y203000D02*
D03*
X442220Y297490D02*
D03*
X459600Y299500D02*
D03*
X455010Y295520D02*
D03*
X539660Y196110D02*
D03*
X521800Y196600D02*
D03*
X505210Y278790D02*
D03*
X551900Y310000D02*
D03*
X562700Y352000D02*
D03*
X360520Y326040D02*
D03*
X268990Y310290D02*
D03*
X312180Y362940D02*
D03*
X351300Y258300D02*
D03*
X360300Y240800D02*
D03*
X402100Y272800D02*
D03*
X365900Y255700D02*
D03*
X397400Y263900D02*
D03*
X303800Y210800D02*
D03*
X297300D02*
D03*
X303800Y229000D02*
D03*
X324800Y232500D02*
D03*
X362600Y252200D02*
D03*
X402900Y260700D02*
D03*
X356900Y248300D02*
D03*
X397400Y257600D02*
D03*
X402400Y254400D02*
D03*
X555400Y166400D02*
D03*
X435330Y249260D02*
D03*
X464400Y246400D02*
D03*
X471000Y248400D02*
D03*
X462890Y281740D02*
D03*
Y292570D02*
D03*
X455000Y237600D02*
D03*
X426300Y240700D02*
D03*
X432370Y233520D02*
D03*
X382800Y235800D02*
D03*
X406600Y247700D02*
D03*
X371600Y218500D02*
D03*
X324300Y188200D02*
D03*
X317400Y271000D02*
D03*
X332980Y207930D02*
D03*
X348800Y311800D02*
D03*
X303440Y332930D02*
D03*
X596310Y250800D02*
D03*
Y271470D02*
D03*
X516040Y237460D02*
D03*
X546930Y197100D02*
D03*
X573540Y255800D02*
D03*
X353230Y314220D02*
D03*
X405790Y314230D02*
D03*
X327060Y281740D02*
D03*
X346000Y279100D02*
D03*
X602650Y178400D02*
D03*
X423520Y314220D02*
D03*
X624300Y161800D02*
D03*
X615450Y186270D02*
D03*
X320200Y161100D02*
D03*
X209930Y302410D02*
D03*
X225700Y275600D02*
D03*
X225680Y312260D02*
D03*
X221750Y302410D02*
D03*
X261110Y337850D02*
D03*
X251100Y271800D02*
D03*
X358800Y207800D02*
D03*
X533300Y222800D02*
D03*
X557300Y224800D02*
D03*
X486500Y294560D02*
D03*
X279800Y336890D02*
D03*
X359300Y301800D02*
D03*
X426300Y291800D02*
D03*
X287680Y371310D02*
D03*
X320800Y361800D02*
D03*
X428430Y400850D02*
D03*
X423510Y334900D02*
D03*
X483800Y335800D02*
D03*
X433350Y303410D02*
D03*
X436370Y321110D02*
D03*
X375300Y334800D02*
D03*
X360510Y332930D02*
D03*
X367300Y334800D02*
D03*
X192770Y302370D02*
D03*
X228560Y268830D02*
D03*
X235800Y261300D02*
D03*
X170950Y301990D02*
D03*
X654800Y285800D02*
D03*
X332490Y380340D02*
D03*
X365490D02*
D03*
X208800Y297800D02*
D03*
X200800D02*
D03*
X386500Y161900D02*
D03*
X260600Y202800D02*
D03*
X271700Y206500D02*
D03*
X244800Y178800D02*
D03*
X251800Y190800D02*
D03*
X311300Y224800D02*
D03*
X279300Y217800D02*
D03*
X270300Y231320D02*
D03*
X194800Y167300D02*
D03*
X259300Y252470D02*
D03*
X208300Y316700D02*
D03*
X294300Y224800D02*
D03*
X350200Y221700D02*
D03*
X319300Y261800D02*
D03*
X327800Y235800D02*
D03*
X373900Y187700D02*
D03*
X309800Y214800D02*
D03*
X292800D02*
D03*
X173300Y218300D02*
D03*
X295300Y170300D02*
D03*
X478800Y246800D02*
D03*
X589800Y240800D02*
D03*
X620300Y330800D02*
D03*
X656300Y300800D02*
D03*
X529800Y190800D02*
D03*
X288300Y276300D02*
D03*
X316300Y237800D02*
D03*
X334300Y235800D02*
D03*
X375300Y366300D02*
D03*
X287800Y406800D02*
D03*
X316000Y376400D02*
D03*
X321000D02*
D03*
X326000D02*
D03*
X316000Y380900D02*
D03*
X321000D02*
D03*
X326000D02*
D03*
X407300Y301300D02*
D03*
X411800Y328800D02*
D03*
X536300Y300300D02*
D03*
X463900Y303300D02*
D03*
X483800Y365800D02*
D03*
X396300Y388800D02*
D03*
X359800Y221300D02*
D03*
X378800Y240800D02*
D03*
X178800Y267300D02*
D03*
X193300Y284800D02*
D03*
X230300Y293800D02*
D03*
X288300Y298800D02*
D03*
X322800Y276300D02*
D03*
Y298800D02*
D03*
X374800Y308300D02*
D03*
X447100Y246000D02*
D03*
X439260Y246140D02*
D03*
D135*
X364460Y346710D02*
D03*
X358600Y349600D02*
D03*
X397400Y269700D02*
D03*
X406600Y252000D02*
D03*
X443203Y249260D02*
D03*
X402000Y267000D02*
D03*
M02*
