G04*
G04 #@! TF.GenerationSoftware,Altium Limited,Altium Designer,20.1.7 (139)*
G04*
G04 Layer_Color=32768*
%FSLAX25Y25*%
%MOIN*%
G70*
G04*
G04 #@! TF.SameCoordinates,24E638B0-66B5-4ADB-958A-7C5563F4B5AF*
G04*
G04*
G04 #@! TF.FilePolarity,Positive*
G04*
G01*
G75*
%ADD12C,0.01000*%
%ADD167C,0.00600*%
D12*
X522800Y266100D02*
G03*
X522800Y266100I-5000J0D01*
G01*
X744562Y382210D02*
G03*
X742562Y384210I-2000J0D01*
G01*
Y320210D02*
G03*
X744562Y322210I0J2000D01*
G01*
X720062Y386710D02*
G03*
X722562Y384210I2500J0D01*
G01*
Y320210D02*
G03*
X720062Y317710I0J-2500D01*
G01*
X744562Y249340D02*
G03*
X742562Y251340I-2000J0D01*
G01*
Y187340D02*
G03*
X744562Y189340I0J2000D01*
G01*
X720062Y253840D02*
G03*
X722562Y251340I2500J0D01*
G01*
Y187340D02*
G03*
X720062Y184840I0J-2500D01*
G01*
X621080Y166260D02*
X627280D01*
X621080Y176860D02*
X627280D01*
X603260Y166480D02*
X609460D01*
X603260Y177080D02*
X609460D01*
X621010Y187830D02*
X627210D01*
X621010Y198430D02*
X627210D01*
X652620Y187910D02*
X658820D01*
X652620Y198510D02*
X658820D01*
X219740Y302420D02*
Y314620D01*
X212340D02*
X219740D01*
X212340Y302420D02*
Y314620D01*
Y302420D02*
X219740D01*
X603320Y187950D02*
X609520D01*
X603320Y198550D02*
X609520D01*
X438630Y171430D02*
X442030D01*
X440330Y168130D02*
X442030Y171430D01*
X438630D02*
X440330Y168130D01*
Y169130D01*
X692330Y412810D02*
X719730D01*
X692330Y291610D02*
X719730D01*
X722530Y384210D02*
X742530D01*
X719730Y291610D02*
Y412810D01*
X722530Y320210D02*
X742530D01*
X744530Y322210D02*
Y382210D01*
X692330Y279940D02*
X719730D01*
X692330Y158740D02*
X719730D01*
X722530Y251340D02*
X742530D01*
X719730Y158740D02*
Y279940D01*
X722530Y187340D02*
X742530D01*
X744530Y189340D02*
Y249340D01*
D167*
X513301Y276601D02*
X510944Y278957D01*
Y276601D02*
X513301Y278957D01*
X431830Y174230D02*
X430830D01*
X431330D01*
Y171231D01*
X431830Y171731D01*
M02*
