M48
METRIC,LZ,000.000
;FILE_FORMAT=3:3
;TYPE=PLATED
;Layer: PTH_Through
;EasyEDA v6.5.14, 2022-08-20 18:05:41
;71264d21e31249e380a866b4b6076d16,6126cb6f80e34288b1b51c63ee1abbf7,10
;Gerber Generator version 0.2
;Holesize 1 = 0.400 mm
T01C0.400
;Holesize 2 = 0.702 mm
T02C0.702
;Holesize 3 = 0.712 mm
T03C0.712
;Holesize 4 = 0.762 mm
T04C0.762
;Holesize 5 = 0.813 mm
T05C0.813
;Holesize 6 = 0.889 mm
T06C0.889
;Holesize 7 = 0.900 mm
T07C0.900
;Holesize 8 = 0.915 mm
T08C0.915
;Holesize 9 = 1.001 mm
T09C1.001
;Holesize 10 = 1.016 mm
T10C1.016
;Holesize 11 = 1.651 mm
T11C1.651
;Holesize 12 = 3.302 mm
T12C3.302
%
G05
G90
T01
X035357Y-056566
X091752Y-023002
X094252Y-023002
X096751Y-023002
X099253Y-023002
X101752Y-023002
X091750Y-020500
X094249Y-020500
X096749Y-020500
X099248Y-020500
X101750Y-020500
X091750Y-017998
X094249Y-017998
X096749Y-017998
X099248Y-017998
X101750Y-017998
X091747Y-015499
X094247Y-015499
X096746Y-015499
X099245Y-015499
X101747Y-015499
X061001Y-039751
X061722Y-040716
X061001Y-041750
X057531Y-040259
X058001Y-041250
X063005Y-044498
X067249Y-035250
X058001Y-035250
X056998Y-034290
X058001Y-033251
X060960Y-033757
X061697Y-034747
X066002Y-044496
X064135Y-048336
X040500Y-039500
X044831Y-039472
X068999Y-037249
X100490Y-054610
X093751Y-053251
X099261Y-057109
X032499Y-039500
X073503Y-031753
X036500Y-039500
X071882Y-034671
X051999Y-031750
X053000Y-030249
X051511Y-029515
X053000Y-028750
X063000Y-033749
X066002Y-033754
X071999Y-039251
X072009Y-041529
X127000Y-066751
X072751Y-042751
X077165Y-042240
X075999Y-043251
X097500Y-068501
X092964Y-068377
X088750Y-047501
X100609Y-039573
X103353Y-028905
X051999Y-035499
X028750Y-039500
X039721Y-026126
X049657Y-052705
X051943Y-057150
X062560Y-049022
X061366Y-049809
X053365Y-053365
X061366Y-051283
X037592Y-064770
X035941Y-064770
X037592Y-060147
X042926Y-059258
X052527Y-054254
X062763Y-052095
X051079Y-055245
X061366Y-052883
X062636Y-053696
X101498Y-076048
X063703Y-054305
X073000Y-055001
X071001Y-055001
X078384Y-055728
X080061Y-055220
X078001Y-046751
X078001Y-044000
X075997Y-057963
X068707Y-057175
X070249Y-058999
X057658Y-058420
X063703Y-055397
X054813Y-062814
X042799Y-070510
X041046Y-049479
X045004Y-065499
X049022Y-039116
X037501Y-033749
X111890Y-054610
X111890Y-049360
X091501Y-057998
X099347Y-068250
X106106Y-053340
X050147Y-038501
X063497Y-038499
X043500Y-046751
X048311Y-047422
X113500Y-073000
X068001Y-038501
X118999Y-077216
X116751Y-071001
X041758Y-077394
X013749Y-041501
X017755Y-048311
X017750Y-038999
X016751Y-041501
X026749Y-032499
X024206Y-049276
X051562Y-065532
X095885Y-061722
X101981Y-061214
X083998Y-043495
X031496Y-032743
X051689Y-041656
X068707Y-044196
X033498Y-024000
X041910Y-026416
X069248Y-016497
X067998Y-033249
X083312Y-033020
X070498Y-041247
X071265Y-036751
X055753Y-033274
X051996Y-033749
X053721Y-033274
X009390Y-041511
X018481Y-050030
X020320Y-051943
X003848Y-041608
X126746Y-045720
X044879Y-021707
X053261Y-021707
X013462Y-042672
X011430Y-042672
X058598Y-077191
X026619Y-066802
X029439Y-065862
X022606Y-072898
X024384Y-069850
X039497Y-061214
X031369Y-062992
X029083Y-059558
X009906Y-075819
X026289Y-054186
X013335Y-037871
X035179Y-061214
X062535Y-050495
X049378Y-062001
X041529Y-051816
X043688Y-058420
X055397Y-070637
X039116Y-063754
X034798Y-063754
X004445Y-062865
X035433Y-075057
X082042Y-055626
X110236Y-057150
X117983Y-034290
X127127Y-041910
X094996Y-069850
X033655Y-048133
X040767Y-057912
X045339Y-058420
X055753Y-025273
X033528Y-014986
X040691Y-022708
X041961Y-022708
X043231Y-022708
X040691Y-021565
X041961Y-021565
X043231Y-021565
X063881Y-041783
X065024Y-034798
X096647Y-042037
X078257Y-041275
X083312Y-025400
X061087Y-019558
X051816Y-062103
X056642Y-057150
X005842Y-050419
X009525Y-045974
X018923Y-043688
X033655Y-042418
X042418Y-048133
X042418Y-042418
X055626Y-040005
X073990Y-055829
X071999Y-055794
T02
X037970Y-075100
X032890Y-075100
T03
X008903Y-022410
X011443Y-022410
X013983Y-022410
X016523Y-022410
X019063Y-022410
X021603Y-022410
X024143Y-022410
X026683Y-022410
X026683Y-014790
X024143Y-014790
X021603Y-014790
X019063Y-014790
X016523Y-014790
X013983Y-014790
X011443Y-014790
X008903Y-014790
T04
X052070Y-027178
X054102Y-049784
X041910Y-016510
T05
X015799Y-058318
X018339Y-059588
X015799Y-060858
X018339Y-062128
X015799Y-063398
X018339Y-064668
X015799Y-065938
X018339Y-067208
X004547Y-056159
X005949Y-058763
X004547Y-066827
X005949Y-069263
T06
X015875Y-045847
X015875Y-048387
X025997Y-035502
X023457Y-035502
X020917Y-035502
X098839Y-074168
X096299Y-074168
X093759Y-074168
X091219Y-074168
T07
X091948Y-053975
X091948Y-047473
T08
X103741Y-069761
X110241Y-069761
X103741Y-074262
X110241Y-074262
X044247Y-032230
X044247Y-034770
X106749Y-039972
X106749Y-043528
X110109Y-016764
X110109Y-019304
X121920Y-016637
X119380Y-016637
X053213Y-045974
X110109Y-023495
T09
X072271Y-073703
X072272Y-071164
X074812Y-073704
X074812Y-071164
X077352Y-073704
X077352Y-071164
X079892Y-073704
X079892Y-071164
X082432Y-073704
X082432Y-071164
X078951Y-016500
X076411Y-064760
X081491Y-016500
X084031Y-016500
X086571Y-016500
X089111Y-016500
X076411Y-016500
X073871Y-016500
X071331Y-016500
X067267Y-016500
X064727Y-016500
X062187Y-016500
X059647Y-016500
X057107Y-016500
X054567Y-016500
X052027Y-016500
X049487Y-016500
X078951Y-064760
X081491Y-064760
X084031Y-064760
X086571Y-064760
X089111Y-064760
X071331Y-064760
X068791Y-064760
X066251Y-064760
X063711Y-064760
X061171Y-064760
X058631Y-064760
X046947Y-016500
X044407Y-016500
X056091Y-064760
X053551Y-064760
X091651Y-039360
X089111Y-039360
X089111Y-036820
X091651Y-036820
X091651Y-041900
X089111Y-041900
X073914Y-064770
X115951Y-023368
T10
X132316Y-023315
X132316Y-026083
X132316Y-028852
X132316Y-031620
X132316Y-034389
X135161Y-024712
X135161Y-027480
X135161Y-030223
X135161Y-032992
X132316Y-057064
X132316Y-059832
X132316Y-062601
X132316Y-065369
X132316Y-068138
X135161Y-058461
X135161Y-061229
X135161Y-063972
X135161Y-066741
T11
X012624Y-054762
X012624Y-070764
T12
X133739Y-016355
X133739Y-041349
X133739Y-050104
X133739Y-075098
M30
