G04 Layer: TopPasteMaskLayer*
G04 EasyEDA v6.5.14, 2022-08-20 18:05:41*
G04 71264d21e31249e380a866b4b6076d16,6126cb6f80e34288b1b51c63ee1abbf7,10*
G04 Gerber Generator version 0.2*
G04 Scale: 100 percent, Rotated: No, Reflected: No *
G04 Dimensions in millimeters *
G04 leading zeros omitted , absolute positions ,4 integer and 5 decimal *
%FSLAX45Y45*%
%MOMM*%

%AMMACRO1*4,1,6,-0.6248,-0.4128,-0.6248,0.0114,-0.2261,0.4128,0.2261,0.4128,0.6248,0.0114,0.6248,-0.4128,-0.6248,-0.4128,0*%
%AMMACRO2*4,1,6,0.6248,0.4128,0.6248,-0.0114,0.2134,-0.4128,-0.2388,-0.4128,-0.6248,-0.0114,-0.6248,0.4128,0.6248,0.4128,0*%
%AMMACRO3*21,1,$1,$2,0,0,$3*%
%ADD10C,1.2700*%
%ADD11R,1.6000X1.3000*%
%ADD12C,1.5748*%
%ADD13R,1.2700X0.7620*%
%ADD14MACRO1*%
%ADD15MACRO2*%
%ADD16R,1.7000X2.4000*%
%ADD17MACRO3,1.524X1.0008X90.0000*%
%ADD18MACRO3,1.524X0.9982X90.0000*%
%ADD19R,1.0998X1.1989*%
%ADD20R,1.1989X1.0998*%
%ADD21R,1.0668X0.9799*%
%ADD22O,0.27999944X1.79999894*%
%ADD23O,1.79999894X0.27999944*%
%ADD24R,1.1989X1.2192*%
%ADD25R,1.2192X0.9093*%
%ADD26MACRO3,0.9296X0.9804X0.0000*%
%ADD27R,0.9799X0.9299*%
%ADD28R,0.9799X1.0668*%
%ADD29O,1.7999964X0.8128000000000001*%
%ADD30O,2.1999956000000003X0.8128000000000001*%
%ADD31R,0.9799X1.2192*%
%ADD32R,1.4707X1.2700*%
%ADD33R,1.3995X1.3005*%
%ADD34R,1.3995X1.4224*%
%ADD35R,1.3970X1.0160*%
%ADD36R,1.4224X1.3995*%
%ADD37R,1.0160X1.3970*%
%ADD38R,0.8001X0.5105*%
%ADD39R,2.6000X0.5000*%
%ADD40R,2.5000X2.0000*%
%ADD41R,1.0414X1.0414*%
%ADD42MACRO3,0.9296X0.9804X90.0000*%
%ADD43R,1.3005X1.6002*%
%ADD44R,1.6002X1.3005*%
%ADD45R,1.0541X3.3147*%
%ADD46R,10.5029X8.4201*%
%ADD47R,1.0922X2.1590*%
%ADD48R,3.5052X2.1590*%
%ADD49C,1.5000*%
%ADD50R,1.2192X1.1989*%
%ADD51R,1.0160X1.1430*%
%ADD52C,0.0254*%
%ADD53R,1.5011X0.2540*%
%ADD54R,0.2540X1.5011*%
%ADD55R,1.1000X1.1000*%
%ADD56R,0.0107X1.1000*%

%LPD*%
D10*
G01*
X8255000Y-3606800D03*
G01*
X7696200Y-3683000D03*
G01*
X7975600Y-3644900D03*
G01*
X3581400Y-3225800D03*
G01*
X3873500Y-3530600D03*
G01*
X4381500Y-6731000D03*
G01*
X11010900Y-2794000D03*
G01*
X5638800Y-6781800D03*
G01*
X9377679Y-3670300D03*
G01*
X6159500Y-2235200D03*
G01*
X6667500Y-2235200D03*
D11*
G01*
X10502900Y-1879600D03*
G01*
X10502900Y-1714500D03*
D10*
G01*
X5702300Y-4229100D03*
G01*
X4356100Y-5638800D03*
G01*
X4203700Y-5740400D03*
G01*
X4749800Y-4445000D03*
D12*
G01*
X6413500Y-2235200D03*
D13*
G01*
X5562600Y-3898900D03*
G01*
X5562600Y-4000500D03*
D14*
G01*
X5354320Y-5929503D03*
D15*
G01*
X5354320Y-6047104D03*
D16*
G01*
X7782559Y-5262879D03*
G01*
X8174634Y-5262981D03*
D17*
G01*
X5557520Y-4922520D03*
D18*
G01*
X5887085Y-4927345D03*
D19*
G01*
X2260727Y-7289800D03*
G01*
X2430653Y-7289800D03*
D20*
G01*
X1905000Y-7467727D03*
G01*
X1905000Y-7297801D03*
D21*
G01*
X1739900Y-5245100D03*
G01*
X1585976Y-5245100D03*
D19*
G01*
X2438400Y-6985000D03*
G01*
X2268473Y-6985000D03*
D20*
G01*
X2944190Y-6756095D03*
G01*
X2944190Y-6586169D03*
D19*
G01*
X2489504Y-6678244D03*
G01*
X2659430Y-6678244D03*
D20*
G01*
X2436113Y-6387719D03*
G01*
X2436113Y-6217793D03*
D19*
G01*
X5350129Y-3625087D03*
G01*
X5520054Y-3625087D03*
D20*
G01*
X6875018Y-5325237D03*
G01*
X6875018Y-5155311D03*
G01*
X7499350Y-5324982D03*
G01*
X7499350Y-5155056D03*
D19*
G01*
X8125079Y-4024884D03*
G01*
X7955152Y-4024884D03*
G01*
X8125079Y-3325113D03*
G01*
X7955152Y-3325113D03*
D22*
G01*
X6100063Y-3169920D03*
G01*
X6150102Y-3169920D03*
G01*
X6199886Y-3169920D03*
G01*
X6249924Y-3169920D03*
G01*
X6299961Y-3169920D03*
G01*
X6350000Y-3169920D03*
G01*
X6400038Y-3169920D03*
G01*
X6450075Y-3169920D03*
G01*
X6500113Y-3169920D03*
G01*
X6549897Y-3169920D03*
G01*
X6599936Y-3169920D03*
G01*
X6649974Y-3169920D03*
G01*
X6700011Y-3169920D03*
G01*
X6750050Y-3169920D03*
G01*
X6800088Y-3169920D03*
G01*
X6850125Y-3169920D03*
G01*
X6899909Y-3169920D03*
G01*
X6949947Y-3169920D03*
G01*
X6999986Y-3169920D03*
G01*
X7050024Y-3169920D03*
G01*
X7100061Y-3169920D03*
G01*
X7150100Y-3169920D03*
G01*
X7200138Y-3169920D03*
G01*
X7249922Y-3169920D03*
G01*
X7299959Y-3169920D03*
D23*
G01*
X7454900Y-3324860D03*
G01*
X7454900Y-3374897D03*
G01*
X7454900Y-3424681D03*
G01*
X7454900Y-3474720D03*
G01*
X7454900Y-3524757D03*
G01*
X7454900Y-3574795D03*
G01*
X7454900Y-3624834D03*
G01*
X7454900Y-3674871D03*
G01*
X7454900Y-3724910D03*
G01*
X7454900Y-3774694D03*
G01*
X7454900Y-3824731D03*
G01*
X7454900Y-3874770D03*
G01*
X7454900Y-3924807D03*
G01*
X7454900Y-3974845D03*
G01*
X7454900Y-4024884D03*
G01*
X7454900Y-4074921D03*
G01*
X7454900Y-4124705D03*
G01*
X7454900Y-4174744D03*
G01*
X7454900Y-4224781D03*
G01*
X7454900Y-4274820D03*
G01*
X7454900Y-4324857D03*
G01*
X7454900Y-4374895D03*
G01*
X7454900Y-4424934D03*
G01*
X7454900Y-4474718D03*
G01*
X7454900Y-4524755D03*
D22*
G01*
X7299959Y-4679695D03*
G01*
X7249922Y-4679695D03*
G01*
X7200138Y-4679695D03*
G01*
X7150100Y-4679695D03*
G01*
X7100061Y-4679695D03*
G01*
X7050024Y-4679695D03*
G01*
X6999986Y-4679695D03*
G01*
X6949947Y-4679695D03*
G01*
X6899909Y-4679695D03*
G01*
X6850125Y-4679695D03*
G01*
X6800088Y-4679695D03*
G01*
X6750050Y-4679695D03*
G01*
X6700011Y-4679695D03*
G01*
X6649974Y-4679695D03*
G01*
X6599936Y-4679695D03*
G01*
X6549897Y-4679695D03*
G01*
X6500113Y-4679695D03*
G01*
X6450075Y-4679695D03*
G01*
X6400038Y-4679695D03*
G01*
X6350000Y-4679695D03*
G01*
X6299961Y-4679695D03*
G01*
X6249924Y-4679695D03*
G01*
X6199886Y-4679695D03*
G01*
X6150102Y-4679695D03*
G01*
X6100063Y-4679695D03*
D23*
G01*
X5945124Y-4524755D03*
G01*
X5945124Y-4474718D03*
G01*
X5945124Y-4424934D03*
G01*
X5945124Y-4374895D03*
G01*
X5945124Y-4324857D03*
G01*
X5945124Y-4274820D03*
G01*
X5945124Y-4224781D03*
G01*
X5945124Y-4174744D03*
G01*
X5945124Y-4124705D03*
G01*
X5945124Y-4074921D03*
G01*
X5945124Y-4024884D03*
G01*
X5945124Y-3974845D03*
G01*
X5945124Y-3924807D03*
G01*
X5945124Y-3874770D03*
G01*
X5945124Y-3824731D03*
G01*
X5945124Y-3774694D03*
G01*
X5945124Y-3724910D03*
G01*
X5945124Y-3674871D03*
G01*
X5945124Y-3624834D03*
G01*
X5945124Y-3574795D03*
G01*
X5945124Y-3524757D03*
G01*
X5945124Y-3474720D03*
G01*
X5945124Y-3424681D03*
G01*
X5945124Y-3374897D03*
G01*
X5945124Y-3324860D03*
D20*
G01*
X6654800Y-2641727D03*
G01*
X6654800Y-2471801D03*
D24*
G01*
X5525008Y-4600067D03*
G01*
X5525008Y-4430140D03*
G01*
X7948675Y-4475353D03*
G01*
X7948675Y-4305427D03*
D25*
G01*
X11896852Y-7636255D03*
G01*
X11896852Y-7311136D03*
D20*
G01*
X12294870Y-7474458D03*
G01*
X12294870Y-7304531D03*
D25*
G01*
X11444224Y-7630668D03*
G01*
X11444224Y-7305547D03*
G01*
X11895074Y-7088378D03*
G01*
X11895074Y-6763258D03*
D20*
G01*
X5334000Y-4101972D03*
G01*
X5334000Y-3932046D03*
D26*
G01*
X8171179Y-4859019D03*
G01*
X8017256Y-4859019D03*
D25*
G01*
X12697968Y-7086345D03*
G01*
X12697968Y-6761226D03*
D27*
G01*
X5124958Y-4602505D03*
G01*
X5124958Y-4448581D03*
D28*
G01*
X4700524Y-4775454D03*
G01*
X4700524Y-4621529D03*
D29*
G01*
X12501879Y-4572000D03*
G01*
X12501879Y-4445000D03*
G01*
X12501879Y-4318000D03*
G01*
X12501879Y-4191000D03*
G01*
X11882120Y-4572000D03*
G01*
X11882120Y-4445000D03*
G01*
X11882120Y-4318000D03*
G01*
X11882120Y-4191000D03*
D30*
G01*
X10985500Y-3048000D03*
G01*
X10985500Y-3175000D03*
G01*
X10985500Y-3302000D03*
G01*
X10985500Y-3429000D03*
G01*
X11590020Y-3048000D03*
G01*
X11590020Y-3175000D03*
G01*
X11590020Y-3302000D03*
G01*
X11590020Y-3429000D03*
D31*
G01*
X3549904Y-4102379D03*
G01*
X3549904Y-3948455D03*
D28*
G01*
X3549904Y-4397502D03*
G01*
X3549904Y-4551426D03*
G01*
X3149345Y-4397502D03*
G01*
X3149345Y-4551426D03*
D31*
G01*
X3149345Y-4102379D03*
G01*
X3149345Y-3948455D03*
D32*
G01*
X12549886Y-3915918D03*
G01*
X12549886Y-3504437D03*
G01*
X12065000Y-3086100D03*
G01*
X12065000Y-3497579D03*
G01*
X12549886Y-2684018D03*
G01*
X12549886Y-3095497D03*
D30*
G01*
X10223500Y-5334000D03*
G01*
X10223500Y-5461000D03*
G01*
X10223500Y-5588000D03*
G01*
X10223500Y-5715000D03*
G01*
X10828020Y-5334000D03*
G01*
X10828020Y-5461000D03*
G01*
X10828020Y-5588000D03*
G01*
X10828020Y-5715000D03*
D33*
G01*
X11424920Y-4925060D03*
G01*
X11424920Y-5115052D03*
D34*
G01*
X11557127Y-6223000D03*
G01*
X11557127Y-6033007D03*
D35*
G01*
X12899897Y-7505445D03*
G01*
X12899897Y-7683245D03*
D32*
G01*
X12065000Y-5372100D03*
G01*
X12065000Y-5783579D03*
G01*
X12549886Y-6190995D03*
G01*
X12549886Y-5779515D03*
G01*
X12549886Y-4959095D03*
G01*
X12549886Y-5370576D03*
D31*
G01*
X4348479Y-4102379D03*
G01*
X4348479Y-3948455D03*
D28*
G01*
X4348479Y-4397502D03*
G01*
X4348479Y-4551426D03*
G01*
X3951731Y-4397502D03*
G01*
X3951731Y-4551426D03*
D31*
G01*
X3951731Y-4102379D03*
G01*
X3951731Y-3948455D03*
D36*
G01*
X12065000Y-6223000D03*
G01*
X11875008Y-6223000D03*
G01*
X12074906Y-4924805D03*
G01*
X11884913Y-4924805D03*
D20*
G01*
X11595100Y-2641472D03*
G01*
X11595100Y-2811398D03*
G01*
X11600434Y-4275328D03*
G01*
X11600434Y-4445254D03*
D19*
G01*
X10999724Y-5075173D03*
G01*
X10829797Y-5075173D03*
D37*
G01*
X563879Y-4599939D03*
G01*
X386079Y-4599939D03*
D38*
G01*
X1675003Y-4089019D03*
G01*
X1675003Y-3995038D03*
G01*
X1675003Y-3901059D03*
G01*
X1385443Y-3901059D03*
G01*
X1385443Y-3995038D03*
G01*
X1385443Y-4089019D03*
D21*
G01*
X1447545Y-3549904D03*
G01*
X1601470Y-3549904D03*
D39*
G01*
X998220Y-4028694D03*
G01*
X998220Y-3948684D03*
G01*
X998220Y-3868673D03*
G01*
X998220Y-3788663D03*
G01*
X998220Y-3708654D03*
D40*
G01*
X937513Y-4314647D03*
G01*
X937513Y-3424732D03*
G01*
X387527Y-3424681D03*
G01*
X387527Y-4314697D03*
D20*
G01*
X2463800Y-5753227D03*
G01*
X2463800Y-5923153D03*
D41*
G01*
X3875024Y-3223768D03*
G01*
X3875024Y-3376168D03*
D42*
G01*
X4775200Y-7531100D03*
G01*
X4775200Y-7685023D03*
D20*
G01*
X5054600Y-6883272D03*
G01*
X5054600Y-7053198D03*
G01*
X5575300Y-7696327D03*
G01*
X5575300Y-7526401D03*
G01*
X5181600Y-7696327D03*
G01*
X5181600Y-7526401D03*
D19*
G01*
X2667381Y-7518908D03*
G01*
X2837306Y-7518908D03*
G01*
X4419472Y-7517637D03*
G01*
X4249547Y-7517637D03*
D20*
G01*
X3048000Y-5765927D03*
G01*
X3048000Y-5935853D03*
G01*
X2748279Y-5428742D03*
G01*
X2748279Y-5258815D03*
G01*
X2351786Y-5248655D03*
G01*
X2351786Y-5418581D03*
D37*
G01*
X1079754Y-5192013D03*
G01*
X1257554Y-5192013D03*
D20*
G01*
X4350004Y-5424423D03*
G01*
X4350004Y-5254497D03*
G01*
X3953509Y-5425439D03*
G01*
X3953509Y-5255513D03*
D21*
G01*
X5384800Y-7061200D03*
G01*
X5538724Y-7061200D03*
D19*
G01*
X4800218Y-6199886D03*
G01*
X4630293Y-6199886D03*
D43*
G01*
X4599686Y-6550660D03*
G01*
X4789677Y-6550660D03*
D44*
G01*
X2743200Y-5765800D03*
G01*
X2743200Y-5955792D03*
D19*
G01*
X4775072Y-6876795D03*
G01*
X4605147Y-6876795D03*
D25*
G01*
X11445747Y-7085329D03*
G01*
X11445747Y-6760210D03*
D44*
G01*
X12299950Y-6949947D03*
G01*
X12299950Y-6759955D03*
D24*
G01*
X3551427Y-5424931D03*
G01*
X3551427Y-5255005D03*
D20*
G01*
X3150870Y-5425439D03*
G01*
X3150870Y-5255513D03*
D21*
G01*
X4102608Y-4948936D03*
G01*
X3948709Y-4948936D03*
G01*
X4124197Y-7050278D03*
G01*
X4278122Y-7050278D03*
G01*
X5194300Y-5715000D03*
G01*
X5040375Y-5715000D03*
D45*
G01*
X9410700Y-2890520D03*
G01*
X9664700Y-2890520D03*
G01*
X9918700Y-2890520D03*
D46*
G01*
X9664700Y-1935479D03*
D47*
G01*
X3962400Y-2834639D03*
G01*
X4193540Y-2834639D03*
G01*
X4422140Y-2834639D03*
D48*
G01*
X4193540Y-2214879D03*
D32*
G01*
X12535027Y-2082800D03*
G01*
X12535027Y-1671320D03*
D20*
G01*
X8950197Y-2722626D03*
G01*
X8950197Y-2892552D03*
D32*
G01*
X10500233Y-2891028D03*
G01*
X10500233Y-2479547D03*
G01*
X4775327Y-2832100D03*
G01*
X4775327Y-2420620D03*
D11*
G01*
X10502900Y-1643379D03*
G01*
X10502900Y-1963420D03*
D20*
G01*
X3675125Y-2675128D03*
G01*
X3675125Y-2845054D03*
D41*
G01*
X5207000Y-2387600D03*
G01*
X5207000Y-2540000D03*
D32*
G01*
X2091944Y-4273804D03*
G01*
X2091944Y-3862323D03*
G01*
X10060940Y-4086860D03*
G01*
X10060940Y-3675379D03*
G01*
X6125590Y-7190231D03*
G01*
X6125590Y-6778752D03*
G01*
X12064872Y-2082800D03*
G01*
X12064872Y-2494279D03*
D49*
G01*
X424179Y-1427479D03*
G01*
X12811759Y-1419860D03*
G01*
X447039Y-7381239D03*
G01*
X12631420Y-7744460D03*
D50*
G01*
X9250045Y-6975094D03*
G01*
X9080118Y-6975094D03*
G01*
X9749916Y-6974839D03*
G01*
X9919843Y-6974839D03*
D24*
G01*
X2674874Y-2600070D03*
G01*
X2674874Y-2769996D03*
G01*
X2400300Y-2600070D03*
G01*
X2400300Y-2769996D03*
G01*
X2150363Y-2600070D03*
G01*
X2150363Y-2769996D03*
G01*
X1900173Y-2600070D03*
G01*
X1900173Y-2769996D03*
G01*
X1651254Y-2600070D03*
G01*
X1651254Y-2769996D03*
G01*
X1400302Y-2600070D03*
G01*
X1400302Y-2769996D03*
G01*
X1150365Y-2600070D03*
G01*
X1150365Y-2769996D03*
G01*
X900176Y-2600070D03*
G01*
X900176Y-2769996D03*
D51*
G01*
X9349993Y-5973318D03*
G01*
X9438893Y-6176518D03*
G01*
X9261093Y-6176518D03*
D24*
G01*
X8915400Y-6185027D03*
G01*
X8915400Y-6015101D03*
D32*
G01*
X10058527Y-4914900D03*
G01*
X10058527Y-4503420D03*
D28*
G01*
X2759456Y-4386579D03*
G01*
X2759456Y-4540504D03*
D31*
G01*
X2759202Y-4101363D03*
G01*
X2759202Y-3947439D03*
D52*
G01*
X454913Y-6926326D03*
G01*
X454913Y-5876289D03*
D53*
G01*
X3309493Y-6001765D03*
G01*
X3309493Y-6050026D03*
G01*
X3309493Y-6100826D03*
G01*
X3309493Y-6151626D03*
G01*
X3309493Y-6199886D03*
G01*
X3309493Y-6250686D03*
G01*
X3309493Y-6301486D03*
G01*
X3309493Y-6352286D03*
G01*
X3309493Y-6400545D03*
G01*
X3309493Y-6451345D03*
G01*
X3309493Y-6502145D03*
G01*
X3309493Y-6550405D03*
D54*
G01*
X3464306Y-6705472D03*
G01*
X3512565Y-6705472D03*
G01*
X3563365Y-6705472D03*
G01*
X3614165Y-6705472D03*
G01*
X3662425Y-6705472D03*
G01*
X3713225Y-6705472D03*
G01*
X3764025Y-6705472D03*
G01*
X3814825Y-6705472D03*
G01*
X3863086Y-6705472D03*
G01*
X3913886Y-6705472D03*
G01*
X3964686Y-6705472D03*
G01*
X4012945Y-6705472D03*
D53*
G01*
X4168013Y-6550405D03*
G01*
X4168013Y-6502145D03*
G01*
X4168013Y-6451345D03*
G01*
X4168013Y-6400545D03*
G01*
X4168013Y-6352286D03*
G01*
X4168013Y-6301486D03*
G01*
X4168013Y-6250686D03*
G01*
X4168013Y-6199886D03*
G01*
X4168013Y-6151626D03*
G01*
X4168013Y-6100826D03*
G01*
X4168013Y-6050026D03*
G01*
X4168013Y-6001765D03*
D54*
G01*
X4012945Y-5846953D03*
G01*
X3964686Y-5846953D03*
G01*
X3913886Y-5846953D03*
G01*
X3863086Y-5846953D03*
G01*
X3814825Y-5846953D03*
G01*
X3764025Y-5846953D03*
G01*
X3713225Y-5846953D03*
G01*
X3662425Y-5846953D03*
G01*
X3614165Y-5846953D03*
G01*
X3563365Y-5846953D03*
G01*
X3512565Y-5846953D03*
G01*
X3464306Y-5846953D03*
D19*
G01*
X11607927Y-3911600D03*
G01*
X11777852Y-3911600D03*
D50*
G01*
X4775327Y-2174239D03*
G01*
X4605400Y-2174239D03*
G01*
X5207127Y-2174239D03*
G01*
X5037200Y-2174239D03*
D21*
G01*
X4818405Y-4246879D03*
G01*
X4664456Y-4246879D03*
G01*
X4978425Y-4038600D03*
G01*
X4824475Y-4038600D03*
D44*
G01*
X1511300Y-7480300D03*
G01*
X1511300Y-7290308D03*
D20*
G01*
X990600Y-7289927D03*
G01*
X990600Y-7459853D03*
D55*
G01*
X6398259Y-4978400D03*
G01*
X6398259Y-5232400D03*
D32*
G01*
X11595227Y-2082800D03*
G01*
X11595227Y-1671320D03*
D19*
G01*
X7195693Y-5753100D03*
G01*
X7365618Y-5753100D03*
M02*
